<?xml version="1.0" encoding="UTF-8"?>
<svg version="1.1" viewBox="0 0 18.001 18" xmlns="http://www.w3.org/2000/svg">
    <g transform="translate(1.0008 -1092.8)">
        <rect x="9.5745e-5" y="1093.8" width="16" height="16" rx="1.5001" ry="1.5001" fill="#f43f36"/>
        <path transform="translate(-1.0008 1092.8)" d="m2.5 1c-0.83103 0-1.5 0.66897-1.5 1.5v0.5c0-0.83103 0.66897-1.5 1.5-1.5h13c0.83103 0 1.5 0.66897 1.5 1.5v-0.5c0-0.83103-0.66897-1.5-1.5-1.5z" fill="#fff" opacity=".2"/>
        <path d="m14.5 1109.8c0.83103 0 1.5-0.669 1.5-1.5v-0.5c0 0.831-0.66897 1.5-1.5 1.5h-13c-0.83103 0-1.5-0.669-1.5-1.5v0.5c0 0.831 0.66897 1.5 1.5 1.5z" opacity=".2"/>
    </g>
    <g transform="translate(1.0008 1.0005)">
        <path d="m5.5001 5.4994c-1.385 0-2.5001 1.115-2.5001 2.5001s1.115 2.5001 2.5001 2.5001h4.9991c1.385 0 2.5001-1.115 2.5001-2.5001s-1.115-2.5001-2.5001-2.5001zm4.9991 0.62501c1.0356-4e-7 1.875 0.83948 1.875 1.875s-0.83948 1.875-1.875 1.875c-1.0356 0-1.875-0.83948-1.875-1.875s0.83948-1.875 1.875-1.875zm-5.5411 0.24659h1.0864v1.0864h1.0864v1.0864h-1.0864v1.0864h-1.0864v-1.0864h-1.0864v-1.0864h1.0864zm5.5411 0.10742c-0.27968 9.45e-4 -0.50578 0.22815-0.50538 0.50782-4.025e-4 0.27968 0.22571 0.50688 0.50538 0.50782 0.28063 4.029e-4 0.50823-0.22719 0.50782-0.50782 4.02e-4 -0.28063-0.22719-0.50823-0.50782-0.50782zm-1.0132 1.0156c-0.27968-4.027e-4 -0.50688 0.22571-0.50782 0.50538-4.025e-4 0.28063 0.22719 0.50823 0.50782 0.50782 0.28063 4.029e-4 0.50823-0.22719 0.50782-0.50782-9.45e-4 -0.27968-0.22815-0.50578-0.50782-0.50538zm2.0289 0c-0.27968-4.027e-4 -0.50688 0.22571-0.50782 0.50538-4.03e-4 0.28063 0.22719 0.50823 0.50782 0.50782 0.28063 4.029e-4 0.50823-0.22719 0.50782-0.50782-9.45e-4 -0.27968-0.22815-0.50578-0.50782-0.50538zm-1.0156 1.0132c-0.27968 9.45e-4 -0.50578 0.22815-0.50538 0.50782 9.4e-4 0.27872 0.22666 0.50444 0.50538 0.50538 0.27968 4.025e-4 0.50688-0.22571 0.50782-0.50538 4.02e-4 -0.28063-0.22719-0.50823-0.50782-0.50782z" fill="#fff" style="paint-order:markers stroke fill"/>
    </g>
    <g transform="translate(1.0008 1.0005)" display="none" fill="none" opacity=".8" stroke-width=".05">
        <rect transform="rotate(90)" x="3.3425" y="-12.657" width="9.3148" height="9.3148" display="inline" opacity="1" stroke="#000"/>
        <rect x="3" y="4" width="10" height="8" opacity="1" stroke="#0091ff" stroke-linecap="round" stroke-linejoin="round"/>
        <rect transform="rotate(90)" x="3" y="-12" width="10" height="8" display="inline" opacity="1" stroke="#00ff03" stroke-linecap="round" stroke-linejoin="round"/>
    </g>
</svg>
