<?xml version="1.0" encoding="UTF-8"?>
<svg version="1.1" viewBox="0 0 18.001 18" xmlns="http://www.w3.org/2000/svg">
    <g transform="translate(1.0008 -1092.8)">
        <rect x="9.5745e-5" y="1093.8" width="16" height="16" rx="1.5001" ry="1.5001" fill="#00bcd4"/>
        <path transform="translate(-1.0008 1092.8)" d="m2.5 1c-0.83103 0-1.5 0.66897-1.5 1.5v0.5c0-0.83103 0.66897-1.5 1.5-1.5h13c0.83103 0 1.5 0.66897 1.5 1.5v-0.5c0-0.83103-0.66897-1.5-1.5-1.5z" fill="#fff" opacity=".2"/>
        <path d="m14.5 1109.8c0.83103 0 1.5-0.669 1.5-1.5v-0.5c0 0.831-0.66897 1.5-1.5 1.5h-13c-0.83103 0-1.5-0.669-1.5-1.5v0.5c0 0.831 0.66897 1.5 1.5 1.5z" opacity=".2"/>
    </g>
    <g transform="translate(1.0008 1.0005)">
        <g fill="#fff" stroke-width=".27902" aria-label="{}">
            <path transform="translate(-1.0008 -1.0005)" d="m8.4102 4c-1.4881 0-2.2324 0.62268-2.2324 1.8652v1.5625c0 0.85565-0.41667 1.2832-1.25 1.2832v0.58008c0.83333 0 1.25 0.42755 1.25 1.2832v1.5625c0 1.2426 0.74433 1.8633 2.2324 1.8633v-0.58008c-0.83333 0-1.25-0.42755-1.25-1.2832v-1.5625c0-0.75149-0.27325-1.2766-0.81641-1.5742 0.54315-0.29762 0.81641-0.82078 0.81641-1.5723v-1.5625c1e-7 -0.85565 0.41667-1.2852 1.25-1.2852v-0.58008zm1.1816 0v0.58008c0.83333 0 1.25 0.4295 1.25 1.2852v1.5625c0 0.75149 0.2713 1.2746 0.81445 1.5723-0.54315 0.29762-0.81445 0.82273-0.81445 1.5742v1.5625c0 0.85565-0.41667 1.2832-1.25 1.2832v0.58008c1.4881 0 2.2324-0.62072 2.2324-1.8633v-1.5625c0-0.85565 0.41667-1.2832 1.25-1.2832v-0.58008c-0.83333 0-1.25-0.42755-1.25-1.2832v-1.5625c0-1.2426-0.74433-1.8652-2.2324-1.8652z"/>
        </g>
    </g>
    <g transform="translate(1.0008 1.0005)" display="none" fill="none" opacity=".8" stroke-width=".05">
        <rect transform="rotate(90)" x="3.3425" y="-12.657" width="9.3148" height="9.3148" display="inline" opacity="1" stroke="#000"/>
        <rect x="3" y="4" width="10" height="8" opacity="1" stroke="#0091ff" stroke-linecap="round" stroke-linejoin="round"/>
        <rect transform="rotate(90)" x="3" y="-12" width="10" height="8" display="inline" opacity="1" stroke="#00ff03" stroke-linecap="round" stroke-linejoin="round"/>
    </g>
</svg>
