<?xml version="1.0" encoding="UTF-8"?>
<svg version="1.1" viewBox="0 0 18.001 18" xmlns="http://www.w3.org/2000/svg">
    <g transform="translate(1.0008 -1092.8)">
        <rect x="9.5745e-5" y="1093.8" width="16" height="16" rx="1.5001" ry="1.5001" fill="#3f51b5"/>
        <path transform="translate(-1.0008 1092.8)" d="m2.5 1c-0.83103 0-1.5 0.66897-1.5 1.5v0.5c0-0.83103 0.66897-1.5 1.5-1.5h13c0.83103 0 1.5 0.66897 1.5 1.5v-0.5c0-0.83103-0.66897-1.5-1.5-1.5z" fill="#fff" opacity=".2"/>
        <path d="m14.5 1109.8c0.83103 0 1.5-0.669 1.5-1.5v-0.5c0 0.831-0.66897 1.5-1.5 1.5h-13c-0.83103 0-1.5-0.669-1.5-1.5v0.5c0 0.831 0.66897 1.5 1.5 1.5z" opacity=".2"/>
    </g>
    <g transform="translate(1.0008 1.0005)">
        <path d="m8.3287 5.25c-0.68353 9.168e-4 -1.322 0.34275-1.7031 0.91016-0.23405-0.12241-0.49368-0.18564-0.75781-0.18555-0.89204 7.417e-4 -1.6201 0.7155-1.6348 1.6074-0.72058 0.17388-1.2287 0.81733-1.2305 1.5586-1.929e-4 0.88827 0.72111 1.6096 1.6094 1.6094 0.010902-2.4e-5 0.020397-0.0019 0.03125-2e-3h1.7051c-1.2899-0.84741-0.72818-2.9375 0.66797-3.1308 0.20309-0.9026 1.0271-1.6343 1.9863-1.6133 0.45408-0.00128 0.86138 0.18446 1.2012 0.4668-0.32028-0.71833-1.0377-1.2208-1.875-1.2207zm0.66602 1.252c-0.81573-0.020674-1.5485 0.70759-1.5332 1.5234-1.2004-0.17912-1.8387 1.5792-0.82812 2.2461 0.47621 0.31426 1.0311 0.21459 1.5605 0.23633 1.2355-2e-6 2.4718 3e-6 3.707 0 0.65027 0.0038 1.0972-0.42301 1.0967-1.1119-5.61e-4 -0.68891-0.57985-1.0805-0.92283-1.1127 0.06411-0.89113-1.0321-1.5464-1.7852-1.0723-0.27377-0.43696-0.7793-0.71358-1.2949-0.70898z" fill="#fff" stroke-linecap="square" stroke-linejoin="round" stroke-width="1.839" style="paint-order:markers stroke fill"/>
    </g>
    <g transform="translate(1.0008 1.0005)" display="none" fill="none" opacity=".8" stroke-width=".05">
        <rect transform="rotate(90)" x="3.3425" y="-12.657" width="9.3148" height="9.3148" display="inline" opacity="1" stroke="#000"/>
        <rect x="3" y="4" width="10" height="8" opacity="1" stroke="#0091ff" stroke-linecap="round" stroke-linejoin="round"/>
        <rect transform="rotate(90)" x="3" y="-12" width="10" height="8" display="inline" opacity="1" stroke="#00ff03" stroke-linecap="round" stroke-linejoin="round"/>
    </g>
</svg>
