<?xml version="1.0" encoding="UTF-8"?>
<svg version="1.1" viewBox="0 0 18.001 18" xmlns="http://www.w3.org/2000/svg">
    <g transform="translate(1.0008 -1092.8)">
        <rect x="9.5745e-5" y="1093.8" width="16" height="16" rx="1.5001" ry="1.5001" fill="#ff9800"/>
        <path transform="translate(-1.0008 1092.8)" d="m2.5 1c-0.83103 0-1.5 0.66897-1.5 1.5v0.5c0-0.83103 0.66897-1.5 1.5-1.5h13c0.83103 0 1.5 0.66897 1.5 1.5v-0.5c0-0.83103-0.66897-1.5-1.5-1.5z" fill="#fff" opacity=".2"/>
        <path d="m14.5 1109.8c0.83103 0 1.5-0.669 1.5-1.5v-0.5c0 0.831-0.66897 1.5-1.5 1.5h-13c-0.83103 0-1.5-0.669-1.5-1.5v0.5c0 0.831 0.66897 1.5 1.5 1.5z" opacity=".2"/>
    </g>
    <g transform="translate(1.0008 1.0005)">
        <path transform="translate(-1.0008 -1.0005)" d="m8.3242 10.273c-0.020215 0.01493-0.037427 0.02772-0.042969 0.03125-0.17642 0.1818-0.28125 0.41396-0.28125 0.69531 0 0.57749 0.42251 1 1 1h3c0.57749 0 1-0.42251 1-1 0-0.28789-0.10931-0.52727-0.29102-0.70898 0.02247 0.02247 0.0036 9e-3 -0.0332-0.01758z" fill="#fff" fill-opacity=".9906" style="paint-order:markers stroke fill"/>
        <g transform="translate(-1.0008 -1.0005)">
            <path d="m9.5 6.5c-0.277 0-0.5 0.223-0.5 0.5 0 0.24934 0.1818 0.45557 0.41992 0.49414-0.093089 0.32908-0.25566 0.67829-0.41992 1.0059-0.25034 0.49921-1.0617 0.72714-1.4238 1.0938-0.35641 0.3608-0.57617 0.85668-0.57617 1.4062 0 1.108 0.892 2 2 2h3c1.108 0 2-0.892 2-2 0-0.55399-0.2225-1.0545-0.58398-1.416-0.3615-0.36151-1.1894-0.59333-1.416-1.084-0.14874-0.32204-0.3153-0.67665-0.41406-1.0078 0.23606-0.04028 0.41406-0.2443 0.41406-0.49219 0-0.277-0.223-0.5-0.5-0.5zm0.52387 0.5h0.95393c3e-3 0.17427 0.05598 0.38667 0.12963 0.63477 0.11482 0.38503 0.29171 0.75434 0.43945 1.0742 0.19793 0.42853 0.55708 0.63638 0.85742 0.8125s0.57462 0.33242 0.6582 0.41602c0.27085 0.27086 0.4375 0.64238 0.4375 1.0625 0 0.83965-0.66035 1.5-1.5 1.5h-3c-0.83965 0-1.5-0.66035-1.5-1.5 0-0.41628 0.16398-0.78373 0.43164-1.0547 0.086291-0.087354 0.35405-0.24158 0.65234-0.41797 0.2983-0.17639 0.65476-0.38691 0.86328-0.80273 0.16884-0.33669 0.34375-0.7071 0.45312-1.0938 0.070482-0.24679 0.13409-0.45684 0.12348-0.63086z" color="#000000" fill="#fff" fill-opacity=".9906" stroke-linecap="square" stroke-linejoin="round" style="-inkscape-stroke:none;paint-order:markers stroke fill"/>
        </g>
        <rect x="3" y="3.5" width="3.5" height=".84073" rx="0" ry=".42036" fill="#fff" fill-opacity=".9906" style="paint-order:markers stroke fill"/>
        <path transform="translate(-1.0008 -1.0005)" d="m5.5008 5.0005c-0.4155 0-1.0008-0.166-1.0008 0.2495v7c0 0.4155 0.3345 0.75 0.75 0.75h1c0.4155 0 0.75-0.3345 0.75-0.75v-7c0-0.4155-0.083657-0.2495-0.49916-0.2495zm-0.25084-5e-4h1c0.14715 0 0.25 0.10285 0.25 0.25v7c0 0.14715-0.10285 0.25-0.25 0.25h-1c-0.14715 0-0.25-0.10285-0.25-0.25v-7c0-0.14715 0.10285-0.25 0.25-0.25z" color="#000000" fill="#fff" stroke-linecap="square" stroke-linejoin="round" style="-inkscape-stroke:none;paint-order:markers stroke fill"/>
        <rect x="4.249" y="6.8054" width="1" height="4.4573" ry=".090996" fill="#fff" style="paint-order:markers stroke fill"/>
    </g>
    <g transform="translate(1.0008 1.0005)" display="none" fill="none" opacity=".8" stroke-width=".05">
        <rect transform="rotate(90)" x="3.3425" y="-12.657" width="9.3148" height="9.3148" display="inline" opacity="1" stroke="#000"/>
        <rect x="3" y="4" width="10" height="8" opacity="1" stroke="#0091ff" stroke-linecap="round" stroke-linejoin="round"/>
        <rect transform="rotate(90)" x="3" y="-12" width="10" height="8" display="inline" opacity="1" stroke="#00ff03" stroke-linecap="round" stroke-linejoin="round"/>
    </g>
</svg>
