<?xml version="1.0" encoding="UTF-8"?>
<svg version="1.1" viewBox="0 0 18.001 18" xmlns="http://www.w3.org/2000/svg">
    <g transform="translate(1.0008 -1092.8)">
        <rect x="9.5745e-5" y="1093.8" width="16" height="16" rx="1.5001" ry="1.5001" fill="#00bcd4"/>
        <path transform="translate(-1.0008 1092.8)" d="m2.5 1c-0.83103 0-1.5 0.66897-1.5 1.5v0.5c0-0.83103 0.66897-1.5 1.5-1.5h13c0.83103 0 1.5 0.66897 1.5 1.5v-0.5c0-0.83103-0.66897-1.5-1.5-1.5z" fill="#fff" opacity=".2"/>
        <path d="m14.5 1109.8c0.83103 0 1.5-0.669 1.5-1.5v-0.5c0 0.831-0.66897 1.5-1.5 1.5h-13c-0.83103 0-1.5-0.669-1.5-1.5v0.5c0 0.831 0.66897 1.5 1.5 1.5z" opacity=".2"/>
    </g>
    <g transform="translate(1.0008 1.0005)">
        <path transform="translate(-1.0008 -1.0005)" d="m9 4a5 5 0 0 0-5 5 5 5 0 0 0 5 5 5 5 0 0 0 5-5 5 5 0 0 0-5-5zm0.25 1.0078a4 4 0 0 1 0.9043 0.16406c0.086664 0.15088 0.18124 0.3325 0.2793 0.55469 0.068998 0.15635 0.1371 0.33261 0.20312 0.52344h-1.3867v-1.2422zm-0.5 0.011719v1.2305h-1.3848c0.066021-0.19083 0.13413-0.36709 0.20312-0.52344 0.097228-0.22032 0.1915-0.40058 0.27734-0.55078a4 4 0 0 1 0.9043-0.15625zm2.1094 0.44141a4 4 0 0 1 1.0449 0.78906h-0.74024c-0.08641-0.2692-0.17969-0.51218-0.27344-0.72461-0.010111-0.022912-0.02112-0.042178-0.03125-0.064453zm-3.7207 0.0019531c-0.0097621 0.021489-0.019552 0.040419-0.029297 0.0625-0.093745 0.21243-0.18724 0.45541-0.27344 0.72461h-0.73047a4 4 0 0 1 1.0332-0.78711zm-1.4375 1.2871h0.99219c-0.14164 0.56718-0.24312 1.2343-0.26172 2h-1.4121a4 4 0 0 1 0.68164-2zm1.5098 0h1.5391v2h-1.8184c0.019882-0.77873 0.13071-1.4451 0.2793-2zm2.0391 0h1.541c0.14858 0.55486 0.25942 1.2213 0.2793 2h-1.8203v-2zm2.0566 0h1a4 4 0 0 1 0.68555 2h-1.4219c-0.018699-0.7657-0.12154-1.4328-0.26367-2zm-6.2871 2.5h1.4121c0.018575 0.76496 0.12032 1.4327 0.26172 2h-0.99219a4 4 0 0 1-0.68164-2zm1.9121 0h1.8184v2h-1.5391c-0.14841-0.55512-0.25943-1.2217-0.2793-2zm2.3184 0h1.8203c-0.019866 0.77826-0.13088 1.4449-0.2793 2h-1.541v-2zm2.3203 0h1.4102a4 4 0 0 1-0.68164 2h-0.99219c0.14189-0.56726 0.24499-1.235 0.26367-2zm-5.4648 2.5h0.73047c0.086228 0.26954 0.17966 0.51405 0.27344 0.72656 0.0091281 0.020685 0.0182 0.038429 0.027344 0.058594a4 4 0 0 1-1.0312-0.78516zm1.2598 0h1.3848v1.2305a4 4 0 0 1-0.90625-0.15625c-0.085499-0.14977-0.17867-0.32966-0.27539-0.54883-0.069056-0.15648-0.13706-0.33423-0.20312-0.52539zm1.8848 0h1.3867c-0.06607 0.19116-0.13407 0.36891-0.20312 0.52539-0.096722 0.21917-0.18964 0.39906-0.27539 0.54883a4 4 0 0 1-0.9082 0.15625v-1.2305zm1.9141 0h0.73047a4 4 0 0 1-1.0312 0.78516c0.009144-0.020165 0.018216-0.037909 0.027344-0.058594 0.093782-0.21251 0.187-0.45702 0.27344-0.72656z" fill="#fff" stroke-linecap="round" stroke-linejoin="round" stroke-width=".15" style="paint-order:markers stroke fill"/>
    </g>
    <g transform="translate(1.0008 1.0005)" display="none" fill="none" opacity=".8" stroke-width=".05">
        <rect transform="rotate(90)" x="3.3425" y="-12.657" width="9.3148" height="9.3148" display="inline" opacity="1" stroke="#000"/>
        <rect x="3" y="4" width="10" height="8" opacity="1" stroke="#0091ff" stroke-linecap="round" stroke-linejoin="round"/>
        <rect transform="rotate(90)" x="3" y="-12" width="10" height="8" display="inline" opacity="1" stroke="#00ff03" stroke-linecap="round" stroke-linejoin="round"/>
    </g>
</svg>
