<?xml version="1.0" encoding="UTF-8"?>
<svg version="1.1" viewBox="0 0 18.001 18" xmlns="http://www.w3.org/2000/svg">
    <g transform="translate(1.0008 -1092.8)">
        <rect x="9.5745e-5" y="1093.8" width="16" height="16" rx="1.5001" ry="1.5001" fill="#607d8b"/>
        <path transform="translate(-1.0008 1092.8)" d="m2.5 1c-0.83103 0-1.5 0.66897-1.5 1.5v0.5c0-0.83103 0.66897-1.5 1.5-1.5h13c0.83103 0 1.5 0.66897 1.5 1.5v-0.5c0-0.83103-0.66897-1.5-1.5-1.5z" fill="#fff" opacity=".2"/>
        <path d="m14.5 1109.8c0.83103 0 1.5-0.669 1.5-1.5v-0.5c0 0.831-0.66897 1.5-1.5 1.5h-13c-0.83103 0-1.5-0.669-1.5-1.5v0.5c0 0.831 0.66897 1.5 1.5 1.5z" opacity=".2"/>
    </g>
    <g transform="translate(1.0008 1.0005)">
        <path d="m11.714 8.4875c0.01999-0.16 0.035-0.32251 0.035-0.4875s-0.015-0.32751-0.035-0.4875l1.0575-0.8275c0.095-0.075001 0.1225-0.21001 0.06-0.32l-1-1.7325c-0.0625-0.1075-0.1925-0.1525-0.305-0.1075l-1.245 0.5025c-0.25749-0.1975-0.54-0.365-0.845-0.4925l-0.1875-1.325c-0.0225-0.1175-0.125-0.21001-0.25-0.21001h-2.0001c-0.125 0-0.2275 0.0925-0.24749 0.21001l-0.1875 1.325c-0.305 0.1275-0.58749 0.29249-0.84501 0.4925l-1.245-0.5025c-0.1125-0.042499-0.24249 0-0.305 0.1075l-1 1.7325c-0.0625 0.1075-0.035 0.24249 0.06 0.32l1.055 0.8275c-0.020001 0.16-0.035 0.32251-0.035 0.4875s0.015 0.32751 0.035 0.4875l-1.055 0.8275c-0.095 0.075001-0.1225 0.21001-0.06 0.32l1 1.7325c0.0625 0.1075 0.1925 0.1525 0.305 0.1075l1.245-0.5025c0.25749 0.1975 0.54001 0.365 0.84501 0.4925l0.1875 1.325c0.02 0.1175 0.1225 0.21 0.24749 0.21h2.0001c0.125 0 0.2275-0.0925 0.24749-0.21l0.1875-1.325c0.305-0.1275 0.58749-0.29249 0.845-0.4925l1.245 0.5025c0.1125 0.0425 0.2425 0 0.305-0.1075l1-1.7325c0.06249-0.1075 0.035-0.24249-0.06-0.32l-1.055-0.8275zm-3.7151 1.2625c-0.96751 0-1.75-0.7825-1.75-1.75 0-0.96751 0.7825-1.75 1.75-1.75 0.96751 0 1.75 0.7825 1.75 1.75 0 0.96751-0.7825 1.75-1.75 1.75z" fill="#fff" stroke-width=".19607"/>
    </g>
    <g transform="translate(1.0008 1.0005)" display="none" fill="none" opacity=".8" stroke-width=".05">
        <rect transform="rotate(90)" x="3.3425" y="-12.657" width="9.3148" height="9.3148" display="inline" opacity="1" stroke="#000"/>
        <rect x="3" y="4" width="10" height="8" opacity="1" stroke="#0091ff" stroke-linecap="round" stroke-linejoin="round"/>
        <rect transform="rotate(90)" x="3" y="-12" width="10" height="8" display="inline" opacity="1" stroke="#00ff03" stroke-linecap="round" stroke-linejoin="round"/>
    </g>
</svg>
