<?xml version="1.0" encoding="UTF-8"?>
<svg version="1.1" viewBox="0 0 18.001 18" xmlns="http://www.w3.org/2000/svg">
    <g transform="translate(1.0008 -1092.8)">
        <rect x="9.5745e-5" y="1093.8" width="16" height="16" rx="1.5001" ry="1.5001" fill="#4caf50"/>
        <path transform="translate(-1.0008 1092.8)" d="m2.5 1c-0.83103 0-1.5 0.66897-1.5 1.5v0.5c0-0.83103 0.66897-1.5 1.5-1.5h13c0.83103 0 1.5 0.66897 1.5 1.5v-0.5c0-0.83103-0.66897-1.5-1.5-1.5z" fill="#fff" opacity=".2"/>
        <path d="m14.5 1109.8c0.83103 0 1.5-0.669 1.5-1.5v-0.5c0 0.831-0.66897 1.5-1.5 1.5h-13c-0.83103 0-1.5-0.669-1.5-1.5v0.5c0 0.831 0.66897 1.5 1.5 1.5z" opacity=".2"/>
    </g>
    <g transform="translate(1.0008 1.0005)">
        <path d="m4.875 8.3125v1.875c0 0.86294 1.3991 1.5625 3.125 1.5625 0.98913 0 1.8712-0.22976 2.4438-0.58838-0.13994-0.16627-0.26367-0.38597-0.26367-0.74707 0-0.30184 0.11257-0.57898 0.29541-0.7959-0.0051-0.16046-0.0089-0.26074-0.01709-0.53955-0.0049-0.16288-0.0074-0.29804-0.0098-0.42725l-2.4487 1.2231zm6.5552 1.4771c-0.34518 0-0.625 0.27982-0.625 0.625s0.625 0.8374 0.625 0.8374c0 2e-6 0.625-0.49222 0.625-0.8374s-0.27982-0.625-0.625-0.625z" fill="#fff" style="paint-order:markers stroke fill"/>
        <g transform="matrix(1.118 .55902 -1.118 .55902 -1.9989 -.74937)">
            <path transform="matrix(.55902 -.55902 1.118 1.118 -1.6781 -.5591)" d="m9 5-4 2 4 2 2.207-1.1035c-0.13136-0.075616-0.29121-0.14948-0.42969-0.19922-0.15206-0.054613-0.62852-0.17856-1.043-0.2793-0.41444-0.10073-0.7832-0.18555-0.7832-0.18555-0.13411-0.031007-0.21792-0.16459-0.1875-0.29883 0.031007-0.13411 0.16459-0.21792 0.29883-0.1875 0-1e-7 0.37062 0.08384 0.78906 0.18555 0.41845 0.10171 0.87017 0.21462 1.0937 0.29492 0.20714 0.074395 0.42934 0.18022 0.61328 0.29883 0.05284 0.03407 0.10882 0.078023 0.15625 0.11719l1.2852-0.64258zm2.7188 2.6445-0.50391 0.25586c0.02583 0.015005 0.04903 0.029944 0.07226 0.044922 0.07129 0.045968 0.1284 0.092388 0.15625 0.12109 0.0021 0.00215 0.0043 0.00397 0.0059 0.00586-1e-3 0.1535 0.0082 0.45956 0.01758 0.77539 0.0019 0.064401 2e-3 0.063859 0.0039 0.125 0.08721-0.025355 0.17878-0.041016 0.27344-0.041016 0.0775 0 0.15382 0.010118 0.22656 0.027344-0.0019-0.061983-2e-3 -0.061587-0.0039-0.12695-0.01049-0.35298-0.01877-0.75845-0.01758-0.79297 0.0056-0.16299-0.0737-0.25083-0.14648-0.32031-0.02208-0.021072-0.05013-0.046155-0.08398-0.074219z" color="#000000" fill="#fff" stroke-linecap="square" style="-inkscape-stroke:none;paint-order:markers stroke fill"/>
        </g>
    </g>
    <g transform="translate(1.0008 1.0005)" display="none" fill="none" opacity=".8" stroke-width=".05">
        <rect transform="rotate(90)" x="3.3425" y="-12.657" width="9.3148" height="9.3148" display="inline" opacity="1" stroke="#000"/>
        <rect x="3" y="4" width="10" height="8" opacity="1" stroke="#0091ff" stroke-linecap="round" stroke-linejoin="round"/>
        <rect transform="rotate(90)" x="3" y="-12" width="10" height="8" display="inline" opacity="1" stroke="#00ff03" stroke-linecap="round" stroke-linejoin="round"/>
    </g>
</svg>
