<?xml version="1.0" encoding="UTF-8"?>
<svg version="1.1" viewBox="0 0 18.001 18" xmlns="http://www.w3.org/2000/svg">
    <g transform="translate(1.0008 -1092.8)">
        <rect x="9.5745e-5" y="1093.8" width="16" height="16" rx="1.5001" ry="1.5001" fill="#ff5722"/>
        <path transform="translate(-1.0008 1092.8)" d="m2.5 1c-0.83103 0-1.5 0.66897-1.5 1.5v0.5c0-0.83103 0.66897-1.5 1.5-1.5h13c0.83103 0 1.5 0.66897 1.5 1.5v-0.5c0-0.83103-0.66897-1.5-1.5-1.5z" fill="#fff" opacity=".2"/>
        <path d="m14.5 1109.8c0.83103 0 1.5-0.669 1.5-1.5v-0.5c0 0.831-0.66897 1.5-1.5 1.5h-13c-0.83103 0-1.5-0.669-1.5-1.5v0.5c0 0.831 0.66897 1.5 1.5 1.5z" opacity=".2"/>
    </g>
    <g transform="translate(1.0008 1.0005)">
        <g transform="translate(-1.0333 .09835)" fill="#fff" stroke-width=".29883" aria-label="?">
            <path d="m9.3096 10.263h-1.25v-1.0132c0-0.42982 0.065789-0.79386 0.19737-1.0921 0.13596-0.30263 0.38816-0.63377 0.75658-0.99342l0.59211-0.58553c0.27193-0.25877 0.45833-0.48465 0.55921-0.67763 0.10526-0.19298 0.15789-0.39693 0.15789-0.61184 0-0.39035-0.14474-0.70614-0.43421-0.94737-0.28509-0.24123-0.66667-0.36184-1.1447-0.36184-0.34211 0-0.70833 0.076754-1.0987 0.23026-0.39035 0.14912-0.80044 0.37281-1.2303 0.67105v-1.2368c0.41228-0.25 0.82675-0.4364 1.2434-0.55921 0.42105-0.12281 0.85965-0.18421 1.3158-0.18421 0.81579 0 1.4649 0.21053 1.9474 0.63158 0.48684 0.42105 0.73026 0.98465 0.73026 1.6908 0 0.33333-0.07456 0.64474-0.22368 0.93421-0.14474 0.28509-0.42325 0.62939-0.83553 1.0329l-0.57895 0.56579c-0.30263 0.28947-0.49561 0.52632-0.57895 0.71053-0.083333 0.18421-0.125 0.41009-0.125 0.67763v0.30921zm-1.2961 0.96711h1.3921v1.6711h-1.3921z" stroke-width=".33684"/>
        </g>
    </g>
    <g transform="translate(1.0008 1.0005)" display="none" fill="none" opacity=".8" stroke-width=".05">
        <rect transform="rotate(90)" x="3.3425" y="-12.657" width="9.3148" height="9.3148" display="inline" opacity="1" stroke="#000"/>
        <rect x="3" y="4" width="10" height="8" opacity="1" stroke="#0091ff" stroke-linecap="round" stroke-linejoin="round"/>
        <rect transform="rotate(90)" x="3" y="-12" width="10" height="8" display="inline" opacity="1" stroke="#00ff03" stroke-linecap="round" stroke-linejoin="round"/>
    </g>
</svg>
