<?xml version="1.0" encoding="UTF-8"?>
<svg version="1.1" viewBox="0 0 18.001 18" xmlns="http://www.w3.org/2000/svg" xmlns:xlink="http://www.w3.org/1999/xlink">
    <defs>
        <linearGradient id="linearGradient4461" x1="10.5" x2="10.5" y1="-9.5005" y2="-9.0005" gradientTransform="rotate(90.002 .00019338 1.0006)" gradientUnits="userSpaceOnUse" xlink:href="#linearGradient4459"/>
        <linearGradient id="linearGradient4459">
            <stop stop-color="#ff000f" offset="0"/>
            <stop stop-color="#19ff00" offset="1"/>
        </linearGradient>
        <linearGradient id="linearGradient4507" x1="10.5" x2="10.5" y1="9.5" y2="9" gradientTransform="translate(1.0008 1.0005)" gradientUnits="userSpaceOnUse" xlink:href="#linearGradient4459"/>
        <linearGradient id="linearGradient4891" x1="-5.4999" x2="-5.4999" y1="6.5001" y2="7.0001" gradientTransform="rotate(-89.999 1.0007 -.00017629)" gradientUnits="userSpaceOnUse" xlink:href="#linearGradient4845"/>
        <linearGradient id="linearGradient4845">
            <stop stop-color="#ff8300" offset="0"/>
            <stop stop-color="#00ff94" offset="1"/>
        </linearGradient>
        <linearGradient id="linearGradient4648" x1="-5.4998" x2="-5.4998" y1="-6.5002" y2="-7.0002" gradientTransform="rotate(180 .50041 .50026)" gradientUnits="userSpaceOnUse" xlink:href="#linearGradient4845"/>
    </defs>
    <g transform="translate(1.0008 -1092.8)">
        <rect x="9.5745e-5" y="1093.8" width="16" height="16" rx="1.5001" ry="1.5001" fill="#ff9800"/>
        <path transform="translate(-1.0008 1092.8)" d="m2.5 1c-0.83103 0-1.5 0.66897-1.5 1.5v0.5c0-0.83103 0.66897-1.5 1.5-1.5h13c0.83103 0 1.5 0.66897 1.5 1.5v-0.5c0-0.83103-0.66897-1.5-1.5-1.5z" fill="#fff" opacity=".2"/>
        <path d="m14.5 1109.8c0.83103 0 1.5-0.669 1.5-1.5v-0.5c0 0.831-0.66897 1.5-1.5 1.5h-13c-0.83103 0-1.5-0.669-1.5-1.5v0.5c0 0.831 0.66897 1.5 1.5 1.5z" opacity=".2"/>
    </g>
    <g transform="translate(1.0008 1.0005)" fill="#fff">
        <path transform="translate(-1.0008 -1.0005)" d="m9 4a5 5 0 0 0-5 5 5 5 0 0 0 5 5 5 5 0 0 0 0.85742-0.074219c-0.21387-0.14774-0.35742-0.39228-0.35742-0.66797 0-0.80888-0.0010549-1.6056-0.011719-2.4082 0-0.3869 0.2632-0.70806 0.62109-0.79883v-0.74609c0-0.096254 0.009912-0.1911 0.025391-0.2832a0.5 0.5 0 0 0-0.13477-0.021484h-3v-1h1a0.5 0.5 0 0 0 0.5-0.5v-1h1a1 1 0 0 0 1-1v-0.20508c1.1426 0.46029 2.025 1.4351 2.3574 2.6387 0.41733 0.31464 0.68945 0.81246 0.68945 1.3711v0.74805c0.1131 0.030279 0.21627 0.084879 0.30469 0.15625a5 5 0 0 0 0.14844-1.209 5 5 0 0 0-5-5zm-3.8945 4.1055 2.3945 2.3945v0.5a1 1 0 0 0 1 1v0.96484c-1.975-0.24508-3.5-1.9248-3.5-3.9648 0-0.31007 0.040464-0.60947 0.10547-0.89453z" stroke-width=".74724"/>
        <path d="m10.829 7.0857c-0.67542 0-1.2192 0.54375-1.2192 1.2192v1.2192h-0.29289c-0.17465 0-0.3167 0.14205-0.3167 0.3167v2.4169c0 0.17464 0.14205 0.31432 0.3167 0.31432h3.0265c0.17464 0 0.31432-0.13968 0.31432-0.31432v-2.4169c0-0.17464-0.13967-0.3167-0.31432-0.3167h-0.29527v-1.2192c0-0.67542-0.54375-1.2192-1.2192-1.2192zm0 0.60959c0.33771 0 0.60959 0.27188 0.60959 0.60959v1.2192h-1.2192v-1.2192c0-0.33771 0.27188-0.60959 0.60959-0.60959zm-0.1643 2.6169c0.0059-5.82e-4 0.01312 2.98e-4 0.01906 0 0.0061-3.09e-4 0.01048 0 0.01667 0h0.25955c0.19837 0 0.35718 0.15881 0.35718 0.35718v0.25955c0 0.15849-0.10073 0.29312-0.24288 0.34051v0.35718c0 0.05587-0.04651 0.10001-0.10239 0.10001h-0.28575c-0.05588 0-0.10001-0.04413-0.10001-0.10001v-0.35956c-0.14139-0.04783-0.24288-0.18018-0.24288-0.33813v-0.25955c-1e-5 -0.18617 0.1401-0.33914 0.32145-0.35718z" color="#000000" stroke-linecap="square" style="-inkscape-stroke:none;paint-order:markers stroke fill"/>
    </g>
    <g transform="translate(1.0008 1.0005)" display="none" fill="none" opacity=".67119" stroke-width=".05">
        <rect transform="rotate(90)" x="3.3425" y="-12.657" width="9.3148" height="9.3148" display="inline" opacity="1" stroke="#000"/>
        <rect x="3" y="4" width="10" height="8" opacity="1" stroke="#0091ff" stroke-linecap="round" stroke-linejoin="round"/>
        <rect transform="rotate(90)" x="3" y="-12" width="10" height="8" display="inline" opacity="1" stroke="#00ff03" stroke-linecap="round" stroke-linejoin="round"/>
    </g>
    <g display="none" fill="none" stroke-linecap="square" stroke-width=".05">
        <path d="m8.0008 10h5.6574v3.6573h-5.6574z" display="inline" opacity=".62506" stroke="url(#linearGradient4507)" style="paint-order:markers stroke fill"/>
        <path d="m13.658 8.0007-2.46e-4 5.6574-3.6573-1.59e-4 2.46e-4 -5.6574z" display="inline" opacity=".62506" stroke="url(#linearGradient4461)" style="paint-order:markers stroke fill"/>
        <path d="m4.3436 10 5.3e-5 -5.6574 3.6573 3.43e-5 -5.3e-5 5.6574z" display="inline" opacity=".62506" stroke="url(#linearGradient4891)" style="paint-order:markers stroke fill"/>
        <path d="m10.001 8.0005-5.6574 1.936e-4 -1.252e-4 -3.6573 5.6574-1.936e-4z" display="inline" opacity=".62506" stroke="url(#linearGradient4648)" style="paint-order:markers stroke fill"/>
    </g>
</svg>
