<?xml version="1.0" encoding="UTF-8"?>
<svg version="1.1" viewBox="0 0 18.001 18" xmlns="http://www.w3.org/2000/svg" xmlns:xlink="http://www.w3.org/1999/xlink">
    <defs>
        <linearGradient id="linearGradient4461" x1="10.5" x2="10.5" y1="-9.5005" y2="-9.0005" gradientTransform="rotate(90.002 .00019338 1.0006)" gradientUnits="userSpaceOnUse" xlink:href="#linearGradient4459"/>
        <linearGradient id="linearGradient4459">
            <stop stop-color="#ff000f" offset="0"/>
            <stop stop-color="#19ff00" offset="1"/>
        </linearGradient>
        <linearGradient id="linearGradient4507" x1="10.5" x2="10.5" y1="9.5" y2="9" gradientTransform="translate(1.0008 1.0005)" gradientUnits="userSpaceOnUse" xlink:href="#linearGradient4459"/>
        <linearGradient id="linearGradient4891" x1="-5.4999" x2="-5.4999" y1="6.5001" y2="7.0001" gradientTransform="rotate(-89.999 1.0007 -.00017629)" gradientUnits="userSpaceOnUse" xlink:href="#linearGradient4845"/>
        <linearGradient id="linearGradient4845">
            <stop stop-color="#ff8300" offset="0"/>
            <stop stop-color="#00ff94" offset="1"/>
        </linearGradient>
        <linearGradient id="linearGradient4648" x1="-5.4998" x2="-5.4998" y1="-6.5002" y2="-7.0002" gradientTransform="rotate(180 .50041 .50026)" gradientUnits="userSpaceOnUse" xlink:href="#linearGradient4845"/>
    </defs>
    <g transform="translate(1.0008 -1092.8)">
        <rect x="9.5745e-5" y="1093.8" width="16" height="16" rx="1.5001" ry="1.5001" fill="#03a9f4"/>
        <path transform="translate(-1.0008 1092.8)" d="m2.5 1c-0.83103 0-1.5 0.66897-1.5 1.5v0.5c0-0.83103 0.66897-1.5 1.5-1.5h13c0.83103 0 1.5 0.66897 1.5 1.5v-0.5c0-0.83103-0.66897-1.5-1.5-1.5z" fill="#fff" opacity=".2"/>
        <path d="m14.5 1109.8c0.83103 0 1.5-0.669 1.5-1.5v-0.5c0 0.831-0.66897 1.5-1.5 1.5h-13c-0.83103 0-1.5-0.669-1.5-1.5v0.5c0 0.831 0.66897 1.5 1.5 1.5z" opacity=".2"/>
    </g>
    <g transform="translate(1.0008 1.0005)">
        <g transform="translate(.00010025 2.8002e-5)">
            <path transform="translate(-1.0009 -1.0005)" d="m9 5.4629c-1.8761 2.536e-4 -3.6753 0.74565-5.002 2.0723l1.25 1.25c1.3489-1.3479 3.3174-1.8684 5.1563-1.3633h2.3379c0.31946-3.982e-4 0.57852 0.25867 0.57812 0.57812v0.21875l0.68359-0.68359c-1.3271-1.3271-3.1271-2.0725-5.0039-2.0723zm-0.31445 2.6543c-1.0637 0.076078-2.0643 0.53305-2.8184 1.2871l1.252 1.2539c0.80214-0.80218 2.0246-1.0076 3.0449-0.51172v-1.875c-0.48064-0.13429-0.9805-0.18645-1.4785-0.1543zm0.11914 2.6719c-0.39662 0.04423-0.76644 0.22191-1.0488 0.50391l1.2441 1.2461 1.2461-1.2461c-0.37882-0.37845-0.9093-0.5639-1.4414-0.50391z" fill="#fff" style="-inkscape-stroke:none;paint-order:markers stroke fill"/>
        </g>
        <g transform="translate(-1.2577 -1.0005)">
            <path d="m11 8v2.5h0.5l8.43e-4 1.901c0 0.75967 0.5 1.2592 0.5 1.2592s0.5-0.4995 0.5-1.2592l-8.43e-4 -1.901h0.5v-2.5z" color="#000000" fill="#fff" stroke-linecap="square" stroke-linejoin="round" stroke-width="1.1547" style="-inkscape-stroke:none;paint-order:markers stroke fill"/>
        </g>
    </g>
    <g transform="translate(1.0008 1.0005)" display="none" fill="none" opacity=".67119" stroke-width=".05">
        <rect transform="rotate(90)" x="3.3425" y="-12.657" width="9.3148" height="9.3148" display="inline" opacity="1" stroke="#000"/>
        <rect x="3" y="4" width="10" height="8" opacity="1" stroke="#0091ff" stroke-linecap="round" stroke-linejoin="round"/>
        <rect transform="rotate(90)" x="3" y="-12" width="10" height="8" display="inline" opacity="1" stroke="#00ff03" stroke-linecap="round" stroke-linejoin="round"/>
    </g>
    <g display="none" fill="none" stroke-linecap="square" stroke-width=".05">
        <path d="m8.0008 10h5.6574v3.6573h-5.6574z" display="inline" opacity=".62506" stroke="url(#linearGradient4507)" style="paint-order:markers stroke fill"/>
        <path d="m13.658 8.0007-2.46e-4 5.6574-3.6573-1.59e-4 2.46e-4 -5.6574z" display="inline" opacity=".62506" stroke="url(#linearGradient4461)" style="paint-order:markers stroke fill"/>
        <path d="m4.3436 10 5.3e-5 -5.6574 3.6573 3.43e-5 -5.3e-5 5.6574z" display="inline" opacity=".62506" stroke="url(#linearGradient4891)" style="paint-order:markers stroke fill"/>
        <path d="m10.001 8.0005-5.6574 1.936e-4 -1.252e-4 -3.6573 5.6574-1.936e-4z" display="inline" opacity=".62506" stroke="url(#linearGradient4648)" style="paint-order:markers stroke fill"/>
    </g>
</svg>
