<?xml version="1.0" encoding="UTF-8"?>
<svg version="1.1" viewBox="0 0 18.001 18" xmlns="http://www.w3.org/2000/svg">
    <g transform="translate(1.0008 -1092.8)">
        <rect x="9.5745e-5" y="1093.8" width="16" height="16" rx="1.5001" ry="1.5001" fill="#2196f3"/>
        <path transform="translate(-1.0008 1092.8)" d="m2.5 1c-0.83103 0-1.5 0.66897-1.5 1.5v0.5c0-0.83103 0.66897-1.5 1.5-1.5h13c0.83103 0 1.5 0.66897 1.5 1.5v-0.5c0-0.83103-0.66897-1.5-1.5-1.5z" fill="#fff" opacity=".2"/>
        <path d="m14.5 1109.8c0.83103 0 1.5-0.669 1.5-1.5v-0.5c0 0.831-0.66897 1.5-1.5 1.5h-13c-0.83103 0-1.5-0.669-1.5-1.5v0.5c0 0.831 0.66897 1.5 1.5 1.5z" opacity=".2"/>
    </g>
    <g transform="translate(1.0008 1.0005)">
        <path d="m8.0085 2.9837c-0.021826-0.00152-0.045377 0.00551-0.064663 0.02042h-0.0017c-0.00169 0.00157-0.00354 0.00342-0.00511 0.00511-8.143e-4 4.06e-4 -0.0026 0.00126-0.00341 0.0017-0.00132 0.00157-0.00222 0.00342-0.00341 0.00511l-0.0017 0.0017c-0.00132 0.00157-0.00222 0.00342-0.00341 0.00511-4.296e-4 8.144e-4 -0.00132 0.0026-0.0017 0.00341l-0.0017 0.0017c-0.00132 0.00157-0.00222 0.00342-0.00341 0.00511l-0.93758 1.688c-0.00895 0.016444-0.013685 0.035811-0.011912 0.054453 0.00432 0.04871 0.044686 0.085395 0.093591 0.085082h0.56325v4.8106l-1.5621-1.3018v-0.67215a0.75001 0.75001 0 0 0 0.43732-0.68066 0.75001 0.75001 0 0 0-0.75043-0.75043 0.75001 0.75001 0 0 0-0.75043 0.75043 0.75001 0.75001 0 0 0 0.43732 0.68066v0.81849a0.31324 0.31324 0 0 0 0.11231 0.24163l2.076 1.7289v0.34714a1.125 1.125 0 0 0-0.75043 1.0584 1.125 1.125 0 0 0 1.1248 1.1248 1.125 1.125 0 0 0 1.1265-1.1248 1.125 1.125 0 0 0-0.75043-1.0618v-2.1883l2.0488-1.3647a0.31324 0.31324 0 0 0 0.13954-0.26035v-1.1248h0.17527c0.14448 0 0.26035-0.11758 0.26035-0.26205v-0.97845c0-0.14447-0.11588-0.26035-0.26035-0.26035h-0.97845c-0.14447 0-0.26035 0.11588-0.26035 0.26035v0.97845c0 0.14447 0.11588 0.26205 0.26035 0.26205h0.17697v0.95632l-1.5621 1.0414v-3.0289h0.56154c0.015773 1.88e-4 0.032018-0.00277 0.045944-0.01021 0.00526-0.0032 0.00909-0.00777 0.013613-0.011912h0.0017c0.00712-0.00601 0.013663-0.012615 0.018719-0.020419 0.00495-0.00797 0.00783-0.01646 0.010209-0.025525 1e-3 -0.0032 0.00279-0.0069 0.00341-0.01021 1e-3 -0.00607 1.829e-4 -0.012572 0-0.018718-2.074e-4 -0.0062-2.64e-4 -0.012698-0.0017-0.018718-0.00144-0.00632-0.0041-0.011128-0.0068-0.017016-0.00112-0.00206-0.00209-0.0048-0.00341-0.0068l-0.0017-0.0017c-0.00151-0.00251-0.00165-0.00612-0.00341-0.00851l-0.92399-1.6625c-0.012571-0.038626-0.045301-0.062133-0.081679-0.064662z" fill="#fff" stroke-width=".62642" style="paint-order:markers stroke fill"/>
    </g>
    <g transform="translate(1.0008 1.0005)" display="none" fill="none" opacity=".8" stroke-width=".05">
        <rect transform="rotate(90)" x="3.3425" y="-12.657" width="9.3148" height="9.3148" display="inline" opacity="1" stroke="#000"/>
        <rect x="3" y="4" width="10" height="8" opacity="1" stroke="#0091ff" stroke-linecap="round" stroke-linejoin="round"/>
        <rect transform="rotate(90)" x="3" y="-12" width="10" height="8" display="inline" opacity="1" stroke="#00ff03" stroke-linecap="round" stroke-linejoin="round"/>
    </g>
</svg>
