<?xml version="1.0" encoding="UTF-8" standalone="no"?>
<svg
   shape-rendering="crispEdges"
   version="1.1"
   viewBox="0 0 16 16"
   id="svg120"
   sodipodi:docname="process-working.svg"
   width="16"
   height="16"
   inkscape:version="1.1.1 (3bf5ae0d25, 2021-09-20)"
   xmlns:inkscape="http://www.inkscape.org/namespaces/inkscape"
   xmlns:sodipodi="http://sodipodi.sourceforge.net/DTD/sodipodi-0.dtd"
   xmlns="http://www.w3.org/2000/svg"
   xmlns:svg="http://www.w3.org/2000/svg"
   xmlns:rdf="http://www.w3.org/1999/02/22-rdf-syntax-ns#"
   xmlns:cc="http://creativecommons.org/ns#"
   xmlns:dc="http://purl.org/dc/elements/1.1/">
  <defs
     id="defs124" />
  <sodipodi:namedview
     id="namedview122"
     pagecolor="#ffffff"
     bordercolor="#666666"
     borderopacity="1.0"
     inkscape:pageshadow="2"
     inkscape:pageopacity="0.0"
     inkscape:pagecheckerboard="0"
     showgrid="false"
     inkscape:current-layer="svg120" />
  <title
     id="title2">Twelf Icon Template</title>
  <metadata
     id="metadata4">
    <rdf:RDF>
      <cc:Work
         rdf:about="">
        <dc:title>Twelf Icon Template</dc:title>
        <dc:format>image/svg+xml</dc:format>
        <dc:type
           rdf:resource="http://purl.org/dc/dcmitype/StillImage" />
      </cc:Work>
    </rdf:RDF>
  </metadata>
  <g
     transform="translate(1.11064,1.00048)"
     id="g8">
    <path
       d="M 12.898,5.8954 C 12.72653,4.97342 12.34376,4.1167 11.7946,3.3846 10.97671,2.2979 9.8057,1.5419 8.5211,1.2287 5.6407,0.56309 3.0938,2.20396 2.0958,4.1826 1.11948,6.1909 1.67931,8.1204 2.22698,9.1196 2.46296,9.55014 2.70331,9.86671 2.90598,10.09112 3.16217,10.3748 3.21289,10.31732 3.02452,9.98348 2.88188,9.73068 2.7238,9.39189 2.59191,8.96358 2.27534,7.93548 2.15479,6.19568 3.15065,4.79158 c 0.94221,-1.3841 3.0556,-2.3228 4.8789,-1.7285 0.8475,0.25798 1.6323,0.80739 2.1651,1.5215 0.34206,0.45605 0.588,0.98537 0.71246,1.5556 0.1018,0.46636 0.48019,0.85934 0.95845,0.85934 h 0.02376 c 0.61319,0 1.1207,-0.50205 1.0087,-1.1041 z"
       style="paint-order:markers stroke fill"
       id="path6" />
  </g>
</svg>
