<?xml version="1.0" encoding="UTF-8"?>
<svg shape-rendering="crispEdges" version="1.1" viewBox="0 0 16 16" xmlns="http://www.w3.org/2000/svg">
    <g transform="translate(1.0008,1.0005)">
        <path transform="translate(-1.0008,-1.0005)" d="m8 0a8 8 0 0 0-8 8 8 8 0 0 0 8 8 8 8 0 0 0 8-8 8 8 0 0 0-8-8zm0 2a6 6 0 0 1 6 6 6 6 0 0 1-6 6 6 6 0 0 1-6-6 6 6 0 0 1 6-6z" style="paint-order:markers stroke fill"/>
        <path d="m9.6465 3.6465-2.6465 2.6465-1.6465-1.6465a0.5 0.5 0 0 0-0.70703 0 0.5 0.5 0 0 0 0 0.70703l2.3535 2.3535 3.3535-3.3535a0.5 0.5 0 0 0 0-0.70703 0.5 0.5 0 0 0-0.70703 0z" color="#000000" stroke-linecap="round"/>
    </g>
</svg>
