<?xml version="1.0" encoding="UTF-8"?>
<svg shape-rendering="crispEdges" version="1.1" viewBox="0 0 16 16" xmlns="http://www.w3.org/2000/svg">
    <g transform="translate(1.0008 1.0005)">
        <path d="m1.4481 2.9995 1.5511-1h1v4h-1v-2.7887l-1.2417 0.63134z" stroke-linecap="round" stroke-width="2.096" style="paint-order:markers stroke fill"/>
        <path d="m1.0011 8.6472c1-1 3.6765-0.8644 3.6765 0.56328 0 0.82433-0.55028 1.6605-1.0302 1.7891h1.3517v1h-4l1e-7 -1s2.39-0.76982 2.4409-1.5296c0.043667-0.65133-1.0502-0.79079-1.9933-0.18272 0 0-0.15196-0.11949-0.27332-0.29227-0.12136-0.17277-0.17232-0.34776-0.17232-0.34776z" stroke-linecap="round" stroke-width="2.096" style="paint-order:markers stroke fill"/>
        <rect x="6.9992" y="2.9995" width="6" height="2" style="paint-order:markers stroke fill"/>
        <rect x="6.9992" y="8.9995" width="6" height="2" style="paint-order:markers stroke fill"/>
    </g>
</svg>
