<?xml version="1.0" encoding="UTF-8"?>
<svg version="1.1" viewBox="0 0 18.001 18" xmlns="http://www.w3.org/2000/svg">
    <g transform="translate(1.0008 -1092.8)">
        <rect x="9.5745e-5" y="1093.8" width="16" height="16" rx="1.5001" ry="1.5001" fill="#e91e63"/>
        <path transform="translate(-1.0008 1092.8)" d="m2.5 1c-0.83103 0-1.5 0.66897-1.5 1.5v0.5c0-0.83103 0.66897-1.5 1.5-1.5h13c0.83103 0 1.5 0.66897 1.5 1.5v-0.5c0-0.83103-0.66897-1.5-1.5-1.5z" fill="#fff" opacity=".2"/>
        <path d="m14.5 1109.8c0.83103 0 1.5-0.669 1.5-1.5v-0.5c0 0.831-0.66897 1.5-1.5 1.5h-13c-0.83103 0-1.5-0.669-1.5-1.5v0.5c0 0.831 0.66897 1.5 1.5 1.5z" opacity=".2"/>
    </g>
    <g transform="translate(1.0008 1.0005)">
        <path transform="translate(-1.0008 -1.0005)" d="m7.502 4.002-0.91602 1h-1.584c-0.55243 0-1 0.44755-1 1v5.998c0 0.55243 0.44755 1 1 1h7.998c0.55243 0 1-0.44755 1-1v-5.998c0-0.55243-0.44755-1-1-1h-1.584l-0.91602-1h-2.998zm1.498 2.5c1.3798 0 2.5 1.1183 2.5 2.498 0 1.3798-1.1202 2.5-2.5 2.5s-2.498-1.1202-2.498-2.5 1.1183-2.498 2.498-2.498zm0 0.89844a1.5998 1.5998 0 0 0-1.5996 1.5996 1.5998 1.5998 0 0 0 1.5996 1.6016 1.5998 1.5998 0 0 0 1.5996-1.6016 1.5998 1.5998 0 0 0-1.5996-1.5996z" fill="#fff" stroke-width=".75045"/>
    </g>
    <g transform="translate(1.0008 1.0005)" display="none" fill="none" opacity=".8" stroke-width=".05">
        <rect transform="rotate(90)" x="3.3425" y="-12.657" width="9.3148" height="9.3148" display="inline" opacity="1" stroke="#000"/>
        <rect x="3" y="4" width="10" height="8" opacity="1" stroke="#0091ff" stroke-linecap="round" stroke-linejoin="round"/>
        <rect transform="rotate(90)" x="3" y="-12" width="10" height="8" display="inline" opacity="1" stroke="#00ff03" stroke-linecap="round" stroke-linejoin="round"/>
    </g>
</svg>
