<?xml version="1.0" encoding="UTF-8"?>
<svg version="1.1" viewBox="0 0 18.001 18" xmlns="http://www.w3.org/2000/svg" xmlns:xlink="http://www.w3.org/1999/xlink">
    <g transform="translate(1.0008 -1092.8)">
        <rect x="9.5745e-5" y="1093.8" width="16" height="16" rx="1.5001" ry="1.5001" fill="#f43f36"/>
        <path transform="translate(-1.0008 1092.8)" d="m2.5 1c-0.83103 0-1.5 0.66897-1.5 1.5v0.5c0-0.83103 0.66897-1.5 1.5-1.5h13c0.83103 0 1.5 0.66897 1.5 1.5v-0.5c0-0.83103-0.66897-1.5-1.5-1.5z" fill="#fff" opacity=".2"/>
        <path d="m14.5 1109.8c0.83103 0 1.5-0.669 1.5-1.5v-0.5c0 0.831-0.66897 1.5-1.5 1.5h-13c-0.83103 0-1.5-0.669-1.5-1.5v0.5c0 0.831 0.66897 1.5 1.5 1.5z" opacity=".2"/>
    </g>
    <g transform="translate(1.0008 1.0005)" display="none">
        <image x="2.5" y="3" width="10.5" height="10.5" image-rendering="optimizeSpeed" preserveAspectRatio="none" xlink:href="../../../../../../Descargas/iconos/com.giuspen.cherrytree.png"/>
    </g>
    <path d="m10.17 4.0313c-0.29914 0.0014258-0.58556 0.044101-0.83856 0.14847-0.3388 0.13977-0.60448 0.34362-0.80092 0.37014-0.42374 0.0572-1.1439-0.05437-1.1439-0.05437l0.069008 0.094103c0.60671 0.49252 1.1533 0.83959 1.7294 1.1397 0.16244 0.084613 0.4339 0.21164 0.757 0.2593 0.3231 0.047666 0.70365 0.012821 1.0581-0.23003 0.4824-0.33048 0.78042-0.5835 1.0351-0.77164-0.08692 0.22406-0.11208 0.47975-0.03346 0.83228 0.16088 0.72136 0.84734 1.5182 1.5182 2.1393l0.15475 0.1422 0.0251-0.20703c0.01671-0.13833 0.02934-0.44299 0.13802-0.77373 0.06751-0.20542 0.12374-0.42018 0.14847-0.61898 0.02473-0.19881 0.02176-0.38153-0.05018-0.53116-0.14592-0.30335-0.5253-0.48897-0.85112-0.70891-0.16291-0.10997-0.31317-0.22538-0.41614-0.34713-0.03076-0.036365-0.05783-0.071683-0.07946-0.10874 0.06327-0.033208 0.12938-0.063922 0.20075-0.092012l-0.09619-0.092011 0.05228-0.023002-0.11292-0.03555-0.26976-0.2614c-0.0035 0.00284-7e-3 0.00552-0.01049 0.00836l-0.0084-0.00836c3.5e-5 0.00601-0.0024 0.012724-0.0042 0.01882-0.04261 0.034545-0.08312 0.069568-0.12338 0.10456-0.40435-0.143-1.0437-0.36252-1.9176-0.39105-0.04316-0.00141-0.08692-0.00229-0.12965-0.00209zm1.5433 1.6771c-0.09135 0.066324-0.1422 0.14231-0.23421 0.23421-0.14884 0.14867-0.3321 0.26749-0.52488 0.35968-0.03092 0.080651-0.06237 0.15968-0.09201 0.24467-0.49307 1.4136-0.56444 2.5071-0.90129 2.6056 0.25016 0.36237 0.66521 0.45231 0.9933 0.14847-0.09879-0.42251-0.08607-1.2934 0.19657-2.0974 0.20661-0.58772 0.36636-1.077 0.5688-1.4722-2e-3 -0.00756-0.0043-0.015472-0.0063-0.023002zm-2.8461 0.45796c-0.5388 0.40328-1.0096 0.89589-1.2087 1.1564-0.26978 0.35309-0.40902 0.60276-0.79882 0.53325 0.080754 0.34436 0.38484 0.60253 0.85738 0.62735 0.0093791-0.0072592 0.017651-0.015893 0.027186-0.023002 0.054027-0.040288 0.10928-0.077496 0.16729-0.11292-0.26326-0.38205 0.6186-1.3128 1.2129-1.7315 0.097751-0.06887 0.19682-0.1373 0.29695-0.20493-0.20516-0.068039-0.37091-0.14861-0.48306-0.20703-0.023657-0.012323-0.0475-0.025141-0.0711-0.037641zm-2.6788 1.0414c-0.89528 0.033958-1.313 0.20725-1.8047 1.1125-0.30019 0.55271-0.53074 1.4131-0.26976 2.3045 0.30842 1.0534 0.82406 1.4973 2.1079 1.698 0.2059 0.0322 0.48191 0.02255 0.76537-0.03555-0.23821-0.85458-0.20925-1.8365-0.075282-2.478 0.088568-0.42414 0.28517-0.81882 0.58553-1.1292-0.13825-0.013896-0.26406-0.048172-0.37432-0.11083-0.25654-0.14579-0.40061-0.43394-0.42869-0.83437a0.12313 0.12313 0 0 1 0.11501-0.13174 0.12313 0.12313 0 0 1 0.11711 0.069008c0.12564 0.01747 0.17685-0.00822 0.25512-0.07319 0.034198-0.028388 0.072261-0.069971 0.11292-0.1192-0.45098-0.20515-0.81763-0.2828-1.1062-0.27185zm1.9406 0.74236c-0.04072 0.082189-0.067492 0.15391-0.07319 0.20284-0.00521 0.044826 0.0027 0.065717 0.010461 0.079465 0.0035 0.00619 0.0085 0.01353 0.016729 0.020911 0.096202-0.048127 0.19801-0.090981 0.30321-0.12756-0.014956-0.010891-0.02838-0.020386-0.043914-0.031367-0.072633-0.051345-0.1436-0.098046-0.2133-0.14429zm1.3258 0.53325c-1.1974 0.029251-1.8391 0.57803-2.018 1.4345-0.12857 0.61569-0.11421 1.9194 0.21539 2.6495 0.4516 1.0004 1.6505 1.6604 2.9464 1.3049 1.2759-0.34998 2.2849-1.5187 2.3254-2.9925 0.0316-1.1509-0.76789-1.8452-1.8089-2.1664-6.59e-4 0.2023 0.01329 0.37621 0.03764 0.49979a0.10707 0.10707 0 0 1 0.02718 0.014638 0.10707 0.10707 0 0 1 0.02091 0.15056c-0.22897 0.29971-0.56355 0.40742-0.86364 0.34086-0.30009-0.066562-0.56417-0.29947-0.68381-0.64826a0.10707 0.10707 0 0 1 0.066917-0.13593 0.10707 0.10707 0 0 1 0.11501 0.031368c0.058418-0.019583 0.10965-0.07271 0.14429-0.15056 0.033184-0.074583 0.069952-0.17881 0.10665-0.30322-0.22587-0.023852-0.4358-0.034058-0.63153-0.029276z" fill="#fff" stroke-opacity=".59237" stroke-width=".38544"/>
    <g transform="translate(1.0008 1.0005)" display="none" fill="none" opacity=".8" stroke-width=".05">
        <rect transform="rotate(90)" x="3.3425" y="-12.657" width="9.3148" height="9.3148" display="inline" opacity="1" stroke="#000"/>
        <rect x="3" y="4" width="10" height="8" opacity="1" stroke="#0091ff" stroke-linecap="round" stroke-linejoin="round"/>
        <rect transform="rotate(90)" x="3" y="-12" width="10" height="8" display="inline" opacity="1" stroke="#00ff03" stroke-linecap="round" stroke-linejoin="round"/>
    </g>
</svg>
