<?xml version="1.0" encoding="UTF-8"?>
<svg version="1.1" viewBox="0 0 18.001 18" xmlns="http://www.w3.org/2000/svg">
    <g transform="translate(1.0008 -1092.8)">
        <rect x="9.5745e-5" y="1093.8" width="16" height="16" rx="1.5001" ry="1.5001" fill="#f43f36"/>
        <path transform="translate(-1.0008 1092.8)" d="m2.5 1c-0.83103 0-1.5 0.66897-1.5 1.5v0.5c0-0.83103 0.66897-1.5 1.5-1.5h13c0.83103 0 1.5 0.66897 1.5 1.5v-0.5c0-0.83103-0.66897-1.5-1.5-1.5z" fill="#fff" opacity=".2"/>
        <path d="m14.5 1109.8c0.83103 0 1.5-0.669 1.5-1.5v-0.5c0 0.831-0.66897 1.5-1.5 1.5h-13c-0.83103 0-1.5-0.669-1.5-1.5v0.5c0 0.831 0.66897 1.5 1.5 1.5z" opacity=".2"/>
    </g>
    <g transform="translate(1.0008 1.0005)">
        <path transform="translate(-1.0008 -1.0005)" d="m9 4c-1.6666-1e-7 -3.3328 0.41733-4.166 0.83398v4.166c0 2.4998 2.0829 4.1668 4.166 5 2.0832-0.83325 4.168-2.5002 4.168-5v-4.166c-0.83325-0.41664-2.5014-0.83398-4.168-0.83398zm0 0.96484 0.99023 0.14062-0.12109 0.52539a3 3 0 0 1 2.1309 2.8398l0.53711 0.029297c-0.047225 0.32997-0.095354 0.66026-0.14258 0.99023l-0.5332-0.12305a3 3 0 0 1-2.832 2.1309l-0.029297 0.53711-0.98828-0.14062 0.12305-0.5332a3 3 0 0 1-2.1328-2.832l-0.53711-0.029297 0.14258-0.99023 0.53125 0.12305a3 3 0 0 1 2.832-2.1309l0.029297-0.53711zm-0.068359 1.2695a2.273 2.273 0 0 0-2.082 1.5645l1.0371 0.24219-0.083984 0.58789-1.0684-0.058594a2.273 2.273 0 0 0 1.5645 2.082l0.24023-1.0371 0.58984 0.083984-0.058594 1.0723a2.273 2.273 0 0 0 2.0898-1.5684l-1.0449-0.24219 0.083985-0.58984 1.0684 0.058594a2.273 2.273 0 0 0-1.5664-2.0801l-0.24023 1.0371-0.58789-0.083984 0.058594-1.0684z" fill="#fff"/>
    </g>
    <g transform="translate(1.0008 1.0005)" display="none" fill="none" opacity=".8" stroke-width=".05">
        <rect transform="rotate(90)" x="3.3425" y="-12.657" width="9.3148" height="9.3148" display="inline" opacity="1" stroke="#000"/>
        <rect x="3" y="4" width="10" height="8" opacity="1" stroke="#0091ff" stroke-linecap="round" stroke-linejoin="round"/>
        <rect transform="rotate(90)" x="3" y="-12" width="10" height="8" display="inline" opacity="1" stroke="#00ff03" stroke-linecap="round" stroke-linejoin="round"/>
    </g>
</svg>
