<?xml version="1.0" encoding="UTF-8"?>
<svg version="1.1" viewBox="0 0 18.001 18" xmlns="http://www.w3.org/2000/svg">
    <g transform="translate(1.0008 -1092.8)">
        <rect x="9.5745e-5" y="1093.8" width="16" height="16" rx="1.5001" ry="1.5001" fill="#4caf50"/>
        <path transform="translate(-1.0008 1092.8)" d="m2.5 1c-0.83103 0-1.5 0.66897-1.5 1.5v0.5c0-0.83103 0.66897-1.5 1.5-1.5h13c0.83103 0 1.5 0.66897 1.5 1.5v-0.5c0-0.83103-0.66897-1.5-1.5-1.5z" fill="#fff" opacity=".2"/>
        <path d="m14.5 1109.8c0.83103 0 1.5-0.669 1.5-1.5v-0.5c0 0.831-0.66897 1.5-1.5 1.5h-13c-0.83103 0-1.5-0.669-1.5-1.5v0.5c0 0.831 0.66897 1.5 1.5 1.5z" opacity=".2"/>
    </g>
    <g transform="translate(1.0008 1.0005)">
        <path d="m10.271 3.0147c-0.09534 0.0068-0.18223 0.043219-0.28906 0.099609 0.25624-0.05793 0.51758 0.067445 0.51758 0.30078v9.1699c0 0.23334-0.26134 0.35676-0.51758 0.29883 0.21366 0.11278 0.3448 0.15169 0.62891 0.01758l1.7852-0.84375c0.29754-0.14046 0.60352-0.2714 0.60352-0.66016v-6.7949c0-0.38876-0.30598-0.52165-0.60352-0.66211l-1.7852-0.8418c-0.14205-0.06706-0.2445-0.090786-0.33984-0.083986zm-0.51758 0.27734-3.4414 3.1543 1.6465 1.2402 2.041-1.5352v-2.6504c0-0.07933-0.03898-0.1307-0.11133-0.16992-0.03757-0.02036-0.08358-0.033562-0.13477-0.039062zm-5.7949 2.123c-0.1029-2.856e-4 -0.19594 0.035415-0.27148 0.09375l-0.60156 0.5625c-0.052808 0.073407-0.085782 0.16261-0.085938 0.25977-2.71e-4 0.097525 0.031203 0.18791 0.083984 0.26172l6.6699 6.1152c0.05119-0.0055 0.0972-0.0187 0.13477-0.03906 0.07235-0.03922 0.11133-0.09059 0.11133-0.16992v-2.6504l-5.7969-4.3633c-0.040373-0.032596-0.13686-0.070142-0.24414-0.070314zm0.28906 2.9238-1.1641 1.0684c-0.052782 0.07381-0.084255 0.16419-0.083984 0.26172 1.555e-4 0.09715 0.033129 0.18636 0.085938 0.25977l0.60156 0.5625c0.075544 0.05833 0.16859 0.09403 0.27148 0.09375 0.10728-1.71e-4 0.20377-0.03772 0.24414-0.07031l1.3281-1-1.2832-1.1758z" color="#000000" fill="#fff" stroke-linecap="round" stroke-linejoin="round" stroke-width=".2" style="-inkscape-stroke:none;paint-order:markers stroke fill"/>
    </g>
    <g transform="translate(1.0008 1.0005)" display="none" fill="none" opacity=".8" stroke-width=".05">
        <rect transform="rotate(90)" x="3.3425" y="-12.657" width="9.3148" height="9.3148" display="inline" opacity="1" stroke="#000"/>
        <rect x="3" y="4" width="10" height="8" opacity="1" stroke="#0091ff" stroke-linecap="round" stroke-linejoin="round"/>
        <rect transform="rotate(90)" x="3" y="-12" width="10" height="8" display="inline" opacity="1" stroke="#00ff03" stroke-linecap="round" stroke-linejoin="round"/>
    </g>
</svg>
