<?xml version="1.0" encoding="UTF-8"?>
<svg version="1.1" viewBox="0 0 18.001 18" xmlns="http://www.w3.org/2000/svg">
    <g transform="translate(1.0008 -1092.8)">
        <rect x="9.5745e-5" y="1093.8" width="16" height="16" rx="1.5001" ry="1.5001" fill="#4caf50"/>
        <path transform="translate(-1.0008 1092.8)" d="m2.5 1c-0.83103 0-1.5 0.66897-1.5 1.5v0.5c0-0.83103 0.66897-1.5 1.5-1.5h13c0.83103 0 1.5 0.66897 1.5 1.5v-0.5c0-0.83103-0.66897-1.5-1.5-1.5z" fill="#fff" opacity=".2"/>
        <path d="m14.5 1109.8c0.83103 0 1.5-0.669 1.5-1.5v-0.5c0 0.831-0.66897 1.5-1.5 1.5h-13c-0.83103 0-1.5-0.669-1.5-1.5v0.5c0 0.831 0.66897 1.5 1.5 1.5z" opacity=".2"/>
    </g>
    <g transform="translate(1.0008 1.0005)">
        <g transform="matrix(-1 0 0 1 15.849 0)" fill="#fff" stroke="#000" stroke-linejoin="bevel" stroke-width=".3" style="mix-blend-mode:screen;paint-order:normal">
            <path d="m5.7614 3 2.6237 0.18343-1.3211 0.37098-2.906-0.26587zm3.3594 0.24938 2.7226 0.18961-0.76257 0.5235a0.1583 0.1583 0 0 0-0.0474-0.016488l-3.1698-0.29885zm-5.3937 0.169 3.0462 0.28648v3.5078l-3.0462-0.71105zm8.244 0.12572v3.0029l-0.79349 1.385v-3.8293a0.1583 0.1583 0 0 0-0.0041-0.014427zm-4.4951 0.22671 3.5449 0.33388v4.1014l-3.5449-0.82852zm-3.749 3.4275 3.0462 0.80791v3.3203l-3.0462-1.2098zm8.244 0.045342v2.9287l-0.79349 2.3619v-3.7201zm-4.4951 0.94188 3.5449 0.93982v3.8747l-3.5449-1.4056z" color="#000000" fill-rule="evenodd" stroke="none" style="-inkscape-stroke:none;paint-order:markers stroke fill"/>
        </g>
    </g>
    <g transform="translate(1.0008 1.0005)" display="none" fill="none" opacity=".8" stroke-width=".05">
        <rect transform="rotate(90)" x="3.3425" y="-12.657" width="9.3148" height="9.3148" display="inline" opacity="1" stroke="#000"/>
        <rect x="3" y="4" width="10" height="8" opacity="1" stroke="#0091ff" stroke-linecap="round" stroke-linejoin="round"/>
        <rect transform="rotate(90)" x="3" y="-12" width="10" height="8" display="inline" opacity="1" stroke="#00ff03" stroke-linecap="round" stroke-linejoin="round"/>
    </g>
</svg>
