<?xml version="1.0" encoding="UTF-8"?>
<svg version="1.1" viewBox="0 0 18.001 18" xmlns="http://www.w3.org/2000/svg">
    <g transform="translate(1.0008 -1092.8)">
        <rect x="9.5745e-5" y="1093.8" width="16" height="16" rx="1.5001" ry="1.5001" fill="#4caf50"/>
        <path transform="translate(-1.0008 1092.8)" d="m2.5 1c-0.83103 0-1.5 0.66897-1.5 1.5v0.5c0-0.83103 0.66897-1.5 1.5-1.5h13c0.83103 0 1.5 0.66897 1.5 1.5v-0.5c0-0.83103-0.66897-1.5-1.5-1.5z" fill="#fff" opacity=".2"/>
        <g transform="translate(-22.32 1056.5)"></g>
        <path d="m14.5 1109.8c0.83103 0 1.5-0.669 1.5-1.5v-0.5c0 0.831-0.66897 1.5-1.5 1.5h-13c-0.83103 0-1.5-0.669-1.5-1.5v0.5c0 0.831 0.66897 1.5 1.5 1.5z" opacity=".2"/>
    </g>
    <g transform="translate(1.0008 1.0005)">
        <path d="m6.959 3.2222c-1.008 0.027025-1.9643 0.74021-2.2404 1.7172-0.97112 0.19412-1.717 1.1229-1.7172 2.11-0.036796 0.98979 0.67792 1.9495 1.6457 2.1768 0.31985 0.082566 0.65836 0.083843 0.98105 0.015901 0.040748-0.067187-0.00112 0.065263 0.1113 0.17649 0.55108 0.83083 1.6533 1.2402 2.6108 0.95084 0.43413-0.12456 0.83086-0.37636 1.1289-0.71552 0.03938 0.016363 0.2658 0.10695 0.38638 0.12402 0.85622 0.19404 1.7974-0.33325 2.0782-1.1655 0.072894-0.19825 0.10858-0.40906 0.10971-0.62011-0.027296 0.014465 0.22298-0.13349 0.28939-0.20193 0.64353-0.51351 0.85525-1.4898 0.45157-2.2133-0.28929-0.55464-0.87133-0.93192-1.4899-1.0001-0.3198-0.71224-1.1837-1.1078-1.9319-0.88406-0.21067 0.059567-0.41175 0.16142-0.58195 0.29734 0.037016-0.097726-0.18436-0.20085-0.26395-0.28462-0.42131-0.31549-0.94485-0.48523-1.4708-0.48337-0.032605-5.694e-4 -0.064475-8.711e-4 -0.096992 0zm1.6298 1.5264h2.2404c0.09478 0 0.1749 0.076947 0.1749 0.17172v1.0558c0 0.094778-0.08006 0.17331-0.1749 0.17331h-2.2404c-0.094845 0-0.17172-0.078465-0.17172-0.17331v-1.0558c0-0.094849 0.076947-0.17172 0.17172-0.17172zm-4.1341 1.2275h3.0195c0.12255 0 0.21784 0.10931 0.21784 0.23851v1.0939c0 0.1292-0.095284 0.23851-0.21784 0.23851h-3.0195c-0.12255 0-0.21784-0.1093-0.21784-0.23851v-1.0939c0-0.1292 0.095284-0.23851 0.21784-0.23851zm4.1341 1.3992h2.2404c0.09478 0 0.1749 0.076946 0.1749 0.17172v1.0558c0 0.09478-0.08006 0.17331-0.1749 0.17331h-2.2404c-0.094845 0-0.17172-0.078465-0.17172-0.17331v-1.0558c0-0.094849 0.076947-0.17172 0.17172-0.17172zm1.0892 2.8509c-0.62667 0-1.1496 0.43503-1.1496 0.98741s0.52293 0.989 1.1496 0.989 1.148-0.43662 1.148-0.989-0.52134-0.98741-1.148-0.98741zm-2.5981 0.91904c-0.51592 0-0.94925 0.35781-0.94925 0.81569s0.43333 0.81728 0.94925 0.81728 0.94766-0.3594 0.94766-0.81728-0.43174-0.81569-0.94766-0.81569z" color="#000000" fill="#fff" stroke-linecap="round" stroke-linejoin="round" stroke-width=".016491" style="-inkscape-stroke:none"/>
    </g>
    <g transform="translate(1.0008 1.0005)" display="none" fill="none" opacity=".8" stroke-width=".05">
        <rect transform="rotate(90)" x="3.3425" y="-12.657" width="9.3148" height="9.3148" display="inline" opacity="1" stroke="#000"/>
        <rect x="3" y="4" width="10" height="8" opacity="1" stroke="#0091ff" stroke-linecap="round" stroke-linejoin="round"/>
        <rect transform="rotate(90)" x="3" y="-12" width="10" height="8" display="inline" opacity="1" stroke="#00ff03" stroke-linecap="round" stroke-linejoin="round"/>
    </g>
</svg>
