<?xml version="1.0" encoding="UTF-8"?>
<svg version="1.1" viewBox="0 0 18.001 18" xmlns="http://www.w3.org/2000/svg">
    <g transform="translate(1.0008 -1092.8)">
        <rect x="9.5745e-5" y="1093.8" width="16" height="16" rx="1.5001" ry="1.5001" fill="#3f51b5"/>
        <path transform="translate(-1.0008 1092.8)" d="m2.5 1c-0.83103 0-1.5 0.66897-1.5 1.5v0.5c0-0.83103 0.66897-1.5 1.5-1.5h13c0.83103 0 1.5 0.66897 1.5 1.5v-0.5c0-0.83103-0.66897-1.5-1.5-1.5z" fill="#fff" opacity=".2"/>
        <path d="m14.5 1109.8c0.83103 0 1.5-0.669 1.5-1.5v-0.5c0 0.831-0.66897 1.5-1.5 1.5h-13c-0.83103 0-1.5-0.669-1.5-1.5v0.5c0 0.831 0.66897 1.5 1.5 1.5z" opacity=".2"/>
    </g>
    <g transform="translate(1.0008 1.0005)" fill="#fff">
        <path transform="translate(-1.0008 -1.0005)" d="m6.5 4v5h-2.5v0.5h2.5v4.5h0.5v-4.5h7v-0.5h-7v-5h-0.5z" stroke-linecap="square" style="paint-order:markers stroke fill"/>
        <path d="m3.4428 3.0192s0.026195 1.6465 0.35412 3.1898c0.18492 0.8703 0.46209 1.6492 0.81055 2.3301 0.34845 0.68083 0.7865 1.2334 1.3965 1.3945 0.18498 0.048861 0.37995 0.012426 0.5293-0.078125 0.14934-0.090551 0.25902-0.22211 0.35352-0.37109 0.18898-0.29797 0.32257-0.6788 0.44922-1.0605s0.24474-0.76475 0.36719-1.0312c0.061222-0.13325 0.12426-0.23645 0.17383-0.29102 0.049566-0.054562 0.065298-0.052693 0.074219-0.052734 0.094265-4.344e-4 0.1492 0.034174 0.24219 0.17188 0.092988 0.1377 0.18491 0.36334 0.2793 0.62109 0.18878 0.51552 0.38066 1.1668 0.86719 1.5703 0.1363 0.11303 0.30006 0.17678 0.46094 0.17578 0.16088-9.941e-4 0.30539-0.061317 0.42773-0.14453 0.24468-0.16643 0.42764-0.42415 0.58594-0.69336 0.31659-0.53841 0.26664-1.1592 0.26664-1.1592s-0.27883 0.5096-0.60484 0.93257c-0.1683 0.21834-0.39903 0.41755-0.52898 0.50594-0.064975 0.044194-0.11385 0.058368-0.15039 0.058594-0.036538 2.258e-4 -0.073487-0.0064894-0.13867-0.060547-0.31941-0.26489-0.52119-0.82859-0.71484-1.3574-0.096827-0.26442-0.19311-0.51702-0.33594-0.72852-0.14282-0.2115-0.37175-0.3939-0.6582-0.39258-0.18144 8.363e-4 -0.33464 0.099266-0.44141 0.2168s-0.18683 0.25922-0.25977 0.41797c-0.14588 0.3175-0.26263 0.708-0.38672 1.082-0.12409 0.37403-0.25751 0.73205-0.39648 0.95117-0.069488 0.10956-0.13969 0.18153-0.19141 0.21289s-0.077563 0.036704-0.14258 0.019531c-0.38164-0.10081-0.76131-0.51584-1.0801-1.1387-0.31877-0.62283-0.57337-1.4281-0.76758-2.2207-0.38842-1.5852-0.84045-3.0706-0.84045-3.0706z" color="#000000" style="-inkscape-stroke:none;paint-order:markers stroke fill"/>
        <path d="m11.817 3.0131-0.93561 3.6618 0.19895 0.91768 0.61478-0.70977 0.93561-3.6618z" style="paint-order:markers stroke fill"/>
    </g>
    <g transform="translate(1.0008 1.0005)" display="none" fill="none" opacity=".8" stroke-width=".05">
        <rect transform="rotate(90)" x="3.3425" y="-12.657" width="9.3148" height="9.3148" display="inline" opacity="1" stroke="#000"/>
        <rect x="3" y="4" width="10" height="8" opacity="1" stroke="#0091ff" stroke-linecap="round" stroke-linejoin="round"/>
        <rect transform="rotate(90)" x="3" y="-12" width="10" height="8" display="inline" opacity="1" stroke="#00ff03" stroke-linecap="round" stroke-linejoin="round"/>
    </g>
</svg>
