<?xml version="1.0" encoding="UTF-8"?>
<svg version="1.1" viewBox="0 0 18.001 18" xmlns="http://www.w3.org/2000/svg">
    <g transform="translate(1.0008 -1092.8)">
        <rect x="9.5745e-5" y="1093.8" width="16" height="16" rx="1.5001" ry="1.5001" fill="#f43f36"/>
        <path transform="translate(-1.0008 1092.8)" d="m2.5 1c-0.83103 0-1.5 0.66897-1.5 1.5v0.5c0-0.83103 0.66897-1.5 1.5-1.5h13c0.83103 0 1.5 0.66897 1.5 1.5v-0.5c0-0.83103-0.66897-1.5-1.5-1.5z" fill="#fff" opacity=".2"/>
        <g transform="translate(-22.32 1056.5)"></g>
        <path d="m14.5 1109.8c0.83103 0 1.5-0.669 1.5-1.5v-0.5c0 0.831-0.66897 1.5-1.5 1.5h-13c-0.83103 0-1.5-0.669-1.5-1.5v0.5c0 0.831 0.66897 1.5 1.5 1.5z" opacity=".2"/>
    </g>
    <g transform="translate(1.0008 1.0005)">
        <g stroke="#03a9f4" stroke-width="1.5">
            <path transform="translate(-1.0008 -1.0005)" d="m7.5 4a0.6099 0.6099 0 0 0-0.59766 0.49023l-1.8027 9.0195a0.4099 0.4099 0 0 0 0.40039 0.49023h7a0.4099 0.4099 0 0 0 0.40234-0.49023l-1.8027-9.0195a0.6099 0.6099 0 0 0-0.59961-0.49023h-3zm0.11328 0.75h2.7734l1.6973 8.5h-6.168l1.6973-8.5z" color="#000000" fill="#fff" stroke="none" style="-inkscape-stroke:none;paint-order:markers stroke fill"/>
        </g>
        <rect x="7.598" y="4.5" width=".80395" height="7" fill="#fff" style="paint-order:markers stroke fill"/>
        <path d="m6.7672 6.5h2.4657l-0.41095 1.1076h-1.6438z" fill="#fff" stroke-width=".84315" style="paint-order:markers stroke fill"/>
    </g>
    <g transform="translate(1.0008 1.0005)" display="none" fill="none" opacity=".8" stroke-width=".05">
        <rect transform="rotate(90)" x="3.3425" y="-12.657" width="9.3148" height="9.3148" display="inline" opacity="1" stroke="#000"/>
        <rect x="3" y="4" width="10" height="8" opacity="1" stroke="#0091ff" stroke-linecap="round" stroke-linejoin="round"/>
        <rect transform="rotate(90)" x="3" y="-12" width="10" height="8" display="inline" opacity="1" stroke="#00ff03" stroke-linecap="round" stroke-linejoin="round"/>
    </g>
</svg>
