<?xml version="1.0" encoding="UTF-8"?>
<svg version="1.1" viewBox="0 0 18.001 18" xmlns="http://www.w3.org/2000/svg">
    <g transform="translate(1.0008 -1092.8)">
        <rect x="9.5745e-5" y="1093.8" width="16" height="16" rx="1.5001" ry="1.5001" fill="#f43f36"/>
        <path transform="translate(-1.0008 1092.8)" d="m2.5 1c-0.83103 0-1.5 0.66897-1.5 1.5v0.5c0-0.83103 0.66897-1.5 1.5-1.5h13c0.83103 0 1.5 0.66897 1.5 1.5v-0.5c0-0.83103-0.66897-1.5-1.5-1.5z" fill="#fff" opacity=".2"/>
        <path d="m14.5 1109.8c0.83103 0 1.5-0.669 1.5-1.5v-0.5c0 0.831-0.66897 1.5-1.5 1.5h-13c-0.83103 0-1.5-0.669-1.5-1.5v0.5c0 0.831 0.66897 1.5 1.5 1.5z" opacity=".2"/>
    </g>
    <g transform="translate(1.0008 1.0005)">
        <path d="m8.0092 3.6423c-0.18928 0.0022892-0.37796 0.021736-0.56372 0.058103 0.060127 0.084876 0.11626 0.17279 0.16812 0.26332 0.71266 1.2939 0.4168 2.9347-0.6427 3.5185-0.60819 0.33458-1.3594 0.17861-2.0498-0.21895 0.21875 1.3748 1.3188 2.4401 2.6999 2.6147v1.9396l-1.4786-2.1115-3.1425-0.77638 1.8568 2.6517 2.9719 0.73429 0.1706 0.042036 0.17184-0.042036 2.9719-0.73429 1.8568-2.6517-3.1425 0.77638-1.4786 2.1103v-1.9335c1.5757-0.18668 2.7627-1.5224 2.763-3.1091-4e-6 -1.7299-1.4027-3.132-3.1326-3.1314zm0.7232 1.6256c0.1268 0 0.22871 0.11628 0.22871 0.26084v1.1732c0 0.14456-0.1019 0.26084-0.22871 0.26084s-0.22871-0.11628-0.22871-0.26084v-1.1732c0-0.14456 0.1019-0.26084 0.22871-0.26084zm1.0718 0c0.1268 0 0.22871 0.11628 0.22871 0.26084v1.1732c0 0.14456-0.10191 0.26084-0.22871 0.26084s-0.22871-0.11628-0.22871-0.26084v-1.1732c0-0.14456 0.1019-0.26084 0.22871-0.26084zm0.37582 2.0645c0.06954-0.00663 0.13804 0.020512 0.1842 0.072941 0.0785 0.090584 0.0691 0.22756-0.02101 0.30659-0.45817 0.40045-0.81484 0.65323-1.1126 0.79739-0.29781 0.14416-0.5544 0.18411-0.77142 0.10508-0.21701-0.07902-0.34506-0.26199-0.42526-0.4401-0.080199-0.17811-0.12563-0.36673-0.17307-0.53158-0.033124-0.11572 0.033857-0.23639 0.14958-0.2695 0.11536-0.033208 0.23585 0.033124 0.2695 0.14835 0.050502 0.1755 0.095735 0.34963 0.15206 0.47471 0.05633 0.12508 0.11082 0.1849 0.17678 0.20893 0.065962 0.024023 0.19315 0.028168 0.43268-0.087772 0.23953-0.11595 0.5736-0.34733 1.0149-0.73311 0.03473-0.029871 0.07799-0.048039 0.12362-0.051919z" fill="#fff" stroke-width=".26153" style="paint-order:markers stroke fill"/>
    </g>
    <g transform="translate(1.0008 1.0005)" display="none" fill="none" opacity=".8" stroke-width=".05">
        <rect transform="rotate(90)" x="3.3425" y="-12.657" width="9.3148" height="9.3148" display="inline" opacity="1" stroke="#000"/>
        <rect x="3" y="4" width="10" height="8" opacity="1" stroke="#0091ff" stroke-linecap="round" stroke-linejoin="round"/>
        <rect transform="rotate(90)" x="3" y="-12" width="10" height="8" display="inline" opacity="1" stroke="#00ff03" stroke-linecap="round" stroke-linejoin="round"/>
    </g>
</svg>
