<?xml version="1.0" encoding="UTF-8"?>
<svg version="1.1" viewBox="0 0 18.001 18" xmlns="http://www.w3.org/2000/svg">
    <g transform="translate(1.0008 -1092.8)">
        <rect x="9.5745e-5" y="1093.8" width="16" height="16" rx="1.5001" ry="1.5001" fill="#673ab7"/>
        <path transform="translate(-1.0008 1092.8)" d="m2.5 1c-0.83103 0-1.5 0.66897-1.5 1.5v0.5c0-0.83103 0.66897-1.5 1.5-1.5h13c0.83103 0 1.5 0.66897 1.5 1.5v-0.5c0-0.83103-0.66897-1.5-1.5-1.5z" fill="#fff" opacity=".2"/>
        <path d="m14.5 1109.8c0.83103 0 1.5-0.669 1.5-1.5v-0.5c0 0.831-0.66897 1.5-1.5 1.5h-13c-0.83103 0-1.5-0.669-1.5-1.5v0.5c0 0.831 0.66897 1.5 1.5 1.5z" opacity=".2"/>
    </g>
    <g transform="translate(1.0008 1.0005)" fill="#fff">
        <path transform="translate(-1.0008 -1.0005)" d="m4.7246 10.5c-0.40108 0-0.72461 0.32353-0.72461 0.72461v2.0527c0 0.40108 0.32353 0.72266 0.72461 0.72266h8.5527c0.40108 0 0.72266-0.32158 0.72266-0.72266v-2.0527c0-0.40108-0.32158-0.72461-0.72266-0.72461h-8.5527zm0.17969 0.58398h1.6113c0.22314 0 0.40234 0.17921 0.40234 0.40234v1.6113c0 0.22314-0.17921 0.40234-0.40234 0.40234h-1.6113c-0.22314 0-0.4043-0.17921-0.4043-0.40234v-1.6113c0-0.22314 0.18116-0.40234 0.4043-0.40234zm3.291 0h1.6113c0.22314 0 0.40234 0.17921 0.40234 0.40234v1.6113c0 0.22314-0.17921 0.40234-0.40234 0.40234h-1.6113c-0.22314 0-0.40234-0.17921-0.40234-0.40234v-1.6113c-1e-7 -0.22314 0.17921-0.40234 0.40234-0.40234zm3.291 0h1.6113c0.22314 0 0.40234 0.17921 0.40234 0.40234v1.6113c0 0.22314-0.17921 0.40234-0.40234 0.40234h-1.6113c-0.22314 0-0.40234-0.17921-0.40234-0.40234v-1.6113c0-0.22314 0.17921-0.40234 0.40234-0.40234z" stroke-width=".46291" style="paint-order:markers stroke fill"/>
        <path d="m7.5 8 1.5 5e-7 -1 1-1-1z" stroke-width=".5" style="paint-order:markers stroke fill"/>
    </g>
    <g transform="translate(1.0008 1.0005)" display="none" fill="none" opacity=".8" stroke-width=".05">
        <rect transform="rotate(90)" x="3.3425" y="-12.657" width="9.3148" height="9.3148" display="inline" opacity="1" stroke="#000"/>
        <rect x="3" y="4" width="10" height="8" opacity="1" stroke="#0091ff" stroke-linecap="round" stroke-linejoin="round"/>
        <rect transform="rotate(90)" x="3" y="-12" width="10" height="8" display="inline" opacity="1" stroke="#00ff03" stroke-linecap="round" stroke-linejoin="round"/>
    </g>
</svg>
