<?xml version="1.0" encoding="UTF-8"?>
<svg version="1.1" viewBox="0 0 18.001 18" xmlns="http://www.w3.org/2000/svg">
    <g transform="translate(1.0008 -1092.8)">
        <rect x="9.5745e-5" y="1093.8" width="16" height="16" rx="1.5001" ry="1.5001" fill="#4caf50"/>
        <path transform="translate(-1.0008 1092.8)" d="m2.5 1c-0.83103 0-1.5 0.66897-1.5 1.5v0.5c0-0.83103 0.66897-1.5 1.5-1.5h13c0.83103 0 1.5 0.66897 1.5 1.5v-0.5c0-0.83103-0.66897-1.5-1.5-1.5z" fill="#fff" opacity=".2"/>
        <path d="m14.5 1109.8c0.83103 0 1.5-0.669 1.5-1.5v-0.5c0 0.831-0.66897 1.5-1.5 1.5h-13c-0.83103 0-1.5-0.669-1.5-1.5v0.5c0 0.831 0.66897 1.5 1.5 1.5z" opacity=".2"/>
    </g>
    <g transform="translate(1.0008 1.0005)">
        <path d="m7.9999 3a1.2137 1.2137 0 0 0-1.213 1.213 1.2137 1.2137 0 0 0 1.213 1.2154 1.2137 1.2137 0 0 0 1.2154-1.2154 1.2137 1.2137 0 0 0-1.2154-1.213zm-1.084 3.405c-0.23137-0.00292-0.37965 0.0048-0.37965 0.0048s0.65193 0.92425 0.73304 1.4637c0.22066 1.4675-1.5467 3.1501-0.73304 4.3911 0.55153 0.8412 2.9274 0.73066 2.9274 0.73066s-0.64954-0.92424-0.73066-1.4637c-0.22066-1.4675 1.5443-3.1501 0.73066-4.3911-0.41365-0.63091-1.8536-0.72675-2.5477-0.73543z" fill="#fff" stroke-linecap="round" stroke-linejoin="round" stroke-width=".83377" style="paint-order:markers stroke fill"/>
    </g>
    <g transform="translate(1.0008 1.0005)" display="none" fill="none" opacity=".8" stroke-width=".05">
        <rect transform="rotate(90)" x="3.3425" y="-12.657" width="9.3148" height="9.3148" display="inline" opacity="1" stroke="#000"/>
        <rect x="3" y="4" width="10" height="8" opacity="1" stroke="#0091ff" stroke-linecap="round" stroke-linejoin="round"/>
        <rect transform="rotate(90)" x="3" y="-12" width="10" height="8" display="inline" opacity="1" stroke="#00ff03" stroke-linecap="round" stroke-linejoin="round"/>
    </g>
</svg>
