<?xml version="1.0" encoding="UTF-8"?>
<svg version="1.1" viewBox="0 0 18.001 18" xmlns="http://www.w3.org/2000/svg">
    <g transform="translate(1.0008 -1092.8)">
        <rect x="9.5745e-5" y="1093.8" width="16" height="16" rx="1.5001" ry="1.5001" fill="#e91e63"/>
        <path transform="translate(-1.0008 1092.8)" d="m2.5 1c-0.83103 0-1.5 0.66897-1.5 1.5v0.5c0-0.83103 0.66897-1.5 1.5-1.5h13c0.83103 0 1.5 0.66897 1.5 1.5v-0.5c0-0.83103-0.66897-1.5-1.5-1.5z" fill="#fff" opacity=".2"/>
        <g transform="translate(-22.32 1056.5)"></g>
        <path d="m14.5 1109.8c0.83103 0 1.5-0.669 1.5-1.5v-0.5c0 0.831-0.66897 1.5-1.5 1.5h-13c-0.83103 0-1.5-0.669-1.5-1.5v0.5c0 0.831 0.66897 1.5 1.5 1.5z" opacity=".2"/>
    </g>
    <g transform="translate(1.0008 1.0005)">
        <path d="m6.1955 3.3365a1.0235 1.0235 0 0 0-0.26602 0.074411l-2.4909 1.0678a0.72294 0.72294 0 0 0-0.43902 0.66412v7.1435a0.31371 0.31371 0 0 0 0.43716 0.28834l2.8964-1.2408 2.9299 1.2557a1.0226 1.0226 0 0 0 0.80736 0l2.4928-1.0678a0.7215 0.7215 0 0 0 0.43716-0.66412v-6.9946a0.41197 0.41197 0 0 0-0.57483-0.3795l-2.7588 1.1831-2.9299-1.2557a1.0235 1.0235 0 0 0-0.54134-0.074411zm0.29206 0.93572c0.030406-9.885e-4 0.065367 0.00545 0.10045 0.020463 0.9542 0.4081 1.907 0.81948 2.8611 1.2278 0.12037 0.051509 0.21765 0.19834 0.21765 0.32927v5.7148c0 0.1384-0.10342 0.20696-0.23067 0.15254-0.96354-0.41205-1.9256-0.82666-2.889-1.2389-0.11802-0.050504-0.21393-0.19531-0.21393-0.32369v-5.6924c0-0.11449 0.063186-0.18678 0.1544-0.18975z" fill="#fff" stroke-width=".95246" style="paint-order:markers stroke fill"/>
    </g>
    <g transform="translate(1.0008 1.0005)" display="none" fill="none" opacity=".8" stroke-width=".05">
        <rect transform="rotate(90)" x="3.3425" y="-12.657" width="9.3148" height="9.3148" display="inline" opacity="1" stroke="#000"/>
        <rect x="3" y="4" width="10" height="8" opacity="1" stroke="#0091ff" stroke-linecap="round" stroke-linejoin="round"/>
        <rect transform="rotate(90)" x="3" y="-12" width="10" height="8" display="inline" opacity="1" stroke="#00ff03" stroke-linecap="round" stroke-linejoin="round"/>
    </g>
</svg>
