<?xml version="1.0" encoding="UTF-8"?>
<svg version="1.1" viewBox="0 0 18.001 18" xmlns="http://www.w3.org/2000/svg">
    <g transform="translate(1.0008 -1092.8)">
        <rect x="9.5745e-5" y="1093.8" width="16" height="16" rx="1.5001" ry="1.5001" fill="#4caf50"/>
        <path transform="translate(-1.0008 1092.8)" d="m2.5 1c-0.83103 0-1.5 0.66897-1.5 1.5v0.5c0-0.83103 0.66897-1.5 1.5-1.5h13c0.83103 0 1.5 0.66897 1.5 1.5v-0.5c0-0.83103-0.66897-1.5-1.5-1.5z" fill="#fff" opacity=".2"/>
        <path d="m14.5 1109.8c0.83103 0 1.5-0.669 1.5-1.5v-0.5c0 0.831-0.66897 1.5-1.5 1.5h-13c-0.83103 0-1.5-0.669-1.5-1.5v0.5c0 0.831 0.66897 1.5 1.5 1.5z" opacity=".2"/>
    </g>
    <g transform="translate(1.0008 1.0005)">
        <path transform="translate(-1.0008 -1.0005)" d="m4.5 4c-0.277 0-0.5 0.223-0.5 0.5v4c2.4853 0 4.5-2.0147 4.5-4.5h-4zm5 0c0 0.34119-0.03163 0.67559-0.091797 1h3.5918v3.5938c0.325-0.060395 0.65815-0.09375 1-0.09375v-4c0-0.277-0.223-0.5-0.5-0.5h-4zm-4.5 5.4082c-0.32441 0.060166-0.65881 0.091797-1 0.091797v4c0 0.277 0.223 0.5 0.5 0.5h4c0-0.34145 0.033494-0.67536 0.09375-1h-3.5938v-3.5918zm9 0.091797c-2.4853 0-4.5 2.0147-4.5 4.5v0.001953h3.502v-0.001953h0.49805c0.277 0 0.5-0.223 0.5-0.5v-0.49805h0.001953v-3.502h-0.001953z" fill="#fff" stroke-linejoin="round" style="paint-order:markers stroke fill"/>
    </g>
    <g transform="translate(1.0008 1.0005)" display="none" fill="none" opacity=".8" stroke-width=".05">
        <rect transform="rotate(90)" x="3.3425" y="-12.657" width="9.3148" height="9.3148" display="inline" opacity="1" stroke="#000"/>
        <rect x="3" y="4" width="10" height="8" opacity="1" stroke="#0091ff" stroke-linecap="round" stroke-linejoin="round"/>
        <rect transform="rotate(90)" x="3" y="-12" width="10" height="8" display="inline" opacity="1" stroke="#00ff03" stroke-linecap="round" stroke-linejoin="round"/>
    </g>
</svg>
