<?xml version="1.0" encoding="UTF-8"?>
<svg version="1.1" viewBox="0 0 18.001 18" xmlns="http://www.w3.org/2000/svg">
    <g transform="translate(1.0008 -1092.8)">
        <rect x="9.5745e-5" y="1093.8" width="16" height="16" rx="1.5001" ry="1.5001" fill="#e91e63"/>
        <path transform="translate(-1.0008 1092.8)" d="m2.5 1c-0.83103 0-1.5 0.66897-1.5 1.5v0.5c0-0.83103 0.66897-1.5 1.5-1.5h13c0.83103 0 1.5 0.66897 1.5 1.5v-0.5c0-0.83103-0.66897-1.5-1.5-1.5z" fill="#fff" opacity=".2"/>
        <path d="m14.5 1109.8c0.83103 0 1.5-0.669 1.5-1.5v-0.5c0 0.831-0.66897 1.5-1.5 1.5h-13c-0.83103 0-1.5-0.669-1.5-1.5v0.5c0 0.831 0.66897 1.5 1.5 1.5z" opacity=".2"/>
    </g>
    <g transform="translate(1.0008 1.0005)">
        <path d="m4.2617 3s0.52018 1.433 0.67801 2.173c0.10148 0.47581 0.1775 1.2535 0.21986 1.739h5.6837c0.045195-0.48544 0.12536-1.263 0.22695-1.739 0.15777-0.73917 0.66808-2.173 0.66808-2.173zm0.69504 4.3475v0.43404c0 0.24086 0.19318 0.43546 0.43405 0.43546h1.739v3.9135c0 0.48173 0.38777 0.86952 0.86953 0.86952 0.48173 0 0.86953-0.38777 0.86953-0.86952v-3.9135h1.7404c0.24086 0 0.43404-0.1946 0.43404-0.43546v-0.43404h-5.6525zm3.0426 4.3475a0.43478 0.43478 0 0 1 0.43546 0.43546 0.43478 0.43478 0 0 1-0.43546 0.43404 0.43478 0.43478 0 0 1-0.43404-0.43404 0.43478 0.43478 0 0 1 0.43404-0.43546z" fill="#fff" stroke-width=".69595" style="paint-order:markers stroke fill"/>
    </g>
    <g transform="translate(1.0008 1.0005)" display="none" fill="none" opacity=".8" stroke-width=".05">
        <rect transform="rotate(90)" x="3.3425" y="-12.657" width="9.3148" height="9.3148" display="inline" opacity="1" stroke="#000"/>
        <rect x="3" y="4" width="10" height="8" opacity="1" stroke="#0091ff" stroke-linecap="round" stroke-linejoin="round"/>
        <rect transform="rotate(90)" x="3" y="-12" width="10" height="8" display="inline" opacity="1" stroke="#00ff03" stroke-linecap="round" stroke-linejoin="round"/>
    </g>
</svg>
