<?xml version="1.0" encoding="UTF-8"?>
<svg version="1.1" viewBox="0 0 18.001 18" xmlns="http://www.w3.org/2000/svg" xmlns:xlink="http://www.w3.org/1999/xlink">
    <defs>
        <linearGradient id="linearGradient4465" x1="3.5167" x2="14.653" y1="1101.8" y2="1101.8" gradientUnits="userSpaceOnUse">
            <stop stop-color="#e5a50a" offset="0"/>
            <stop stop-color="#a4751b" offset=".60647"/>
            <stop stop-color="#63452c" offset="1"/>
        </linearGradient>
    </defs>
    <g transform="translate(1.0008 -1092.8)">
        <path d="m2 1093.8h11.999c1.1079 0 1.9999 0.892 1.9999 2v11.999c0 1.1079-0.89196 1.9999-1.9999 1.9999h-11.999c-1.1079 0-1.9999-0.892-1.9999-1.9999v-11.999c0-1.108 0.89196-2 1.9999-2z" fill="url(#linearGradient4465)" stroke-linecap="round" stroke-linejoin="round" stroke-width=".046884"/>
        <g transform="translate(-22.32 1056.5)">
            <g transform="matrix(.37187 0 0 .37187 38.802 63.239)"></g>
        </g>
        <path transform="translate(-1.0008 1092.8)" d="m3.002 1c-1.108 0-2.0038 0.89197-2.002 2l8.429e-4 0.5005c0-1.108 0.89197-2 2-2h12c1.108 0 2 0.89197 2 2l-8.43e-4 -0.5005c-0.001866-1.108-0.89197-2-2-2z" fill="#fff" opacity=".3"/>
        <path d="m13.998 1109.8c1.108 0 2.002-0.892 2.002-2v-0.5c0 1.108-0.89197 2-2 2h-12c-1.108 0-2-0.892-2-2l5e-8 0.5c1.108e-7 1.108 0.89197 2 2 2z" opacity=".3"/>
    </g>
    <g transform="translate(1.0008 1.0005)">
        <g transform="translate(-1.0008 -1.0005)">
            <path d="m11.405 4.5666c-0.02539-9.93e-5 -0.05067 0.00342-0.07506 0.01043-0.07286 0.019396-0.13418 0.068599-0.16889 0.13553l-2.4833 0.66513-0.022936-0.085488-2.5334 0.67973c-0.048596-0.024235-0.10208-0.037071-0.15638-0.037531-0.19677 3.541e-4 -0.35619 0.15978-0.35655 0.35655-1.64e-5 0.12706 0.067471 0.24457 0.17723 0.30859v0.047957h-0.17723c-0.098942 0-0.17932 0.080374-0.17932 0.17932v0.17932h-0.71518c-0.39577 0-0.71309 0.31733-0.71309 0.71309v5.0021c0 0.39577 0.31733 0.7131 0.71309 0.7131h8.5738c0.39577 0 0.7131-0.31733 0.7131-0.7131v-5.0021c0-0.39577-0.31733-0.71309-0.7131-0.71309h-6.7869v-0.17932c0-0.098942-0.080374-0.17932-0.17932-0.17932h-0.17723v-0.050042c0.042591-0.027498 0.07884-0.063748 0.10634-0.10634l2.5417-0.68182-0.022936-0.085488 2.4812-0.66514c0.06389 0.042278 0.14282 0.055181 0.21685 0.035446 0.14267-0.038165 0.22754-0.18459 0.18974-0.32736-0.030127-0.11547-0.133-0.19708-0.25229-0.20017zm-0.97581 2.9733h2.8586c0.11044 0 0.17932 0.068873 0.17932 0.17932v5.0021c0 0.11044-0.06888 0.17932-0.17932 0.17932h-2.8586zm-3.2152 0.71518c0.40394 7.331e-4 0.79783 0.12596 1.128 0.35863h-2.2519c0.32903-0.23185 0.72134-0.35704 1.1239-0.35863zm4.8534 0.17932c-0.39516-4.419e-4 -0.71562 0.32001-0.71518 0.71518 7.1e-4 0.39435 0.32083 0.71354 0.71518 0.71309 0.39354-7.081e-4 0.71239-0.31956 0.7131-0.71309 4.4e-4 -0.39435-0.31874-0.71447-0.7131-0.71518zm-0.26897 0.15013c0.0652-9.161e-4 0.11861 0.051559 0.11885 0.11676 9.34e-4 0.066022-0.05283 0.11978-0.11885 0.11885-0.06521-2.379e-4 -0.11768-0.053649-0.11676-0.11885 2.4e-4 -0.064388 0.05237-0.11652 0.11676-0.11676zm-6.0982 0.38574h3.0275c0.091996 0.10983 0.1717 0.22939 0.2377 0.35655h-3.4987c0.064682-0.12697 0.14298-0.24652 0.23353-0.35655zm-0.37323 0.71518h3.7781c0.032484 0.1166 0.054122 0.23596 0.064637 0.35655h-3.9095c0.011198-0.12065 0.033533-0.24001 0.066722-0.35655zm-0.066722 0.71309h3.9095c-0.011198 0.12065-0.033533 0.24001-0.066722 0.35655h-3.7781c-0.032484-0.1166-0.054121-0.23596-0.064637-0.35655zm6.2525 0.17932c-0.09027 0.0091-0.16055 0.08448-0.16055 0.17723 0 0.09894 0.08038 0.17932 0.17932 0.17932h0.17723c0.09894 0 0.17932-0.08038 0.17932-0.17932 0-0.09894-0.08038-0.17723-0.17932-0.17723h-0.17723c-0.0062 0-0.01275-6.07e-4 -0.01877 0zm0.89241 0c-0.09027 0.0091-0.16055 0.08448-0.16055 0.17723 0 0.09894 0.08038 0.17932 0.17932 0.17932h0.17932c0.09894 0 0.17723-0.08038 0.17723-0.17932 0-0.09894-0.0783-0.17723-0.17723-0.17723h-0.17932c-0.0062 0-0.01275-6.07e-4 -0.01877 0zm-6.9406 0.53586h3.4987c-0.064682 0.12697-0.14299 0.24652-0.23353 0.35655h-3.0275c-0.091996-0.10983-0.1717-0.22939-0.2377-0.35655zm6.0482 0.35655c-0.09027 0.0091-0.16055 0.08656-0.16055 0.17932 0 0.09894 0.08038 0.17723 0.17932 0.17723h0.17723c0.09894 0 0.17932-0.0783 0.17932-0.17723 0-0.09894-0.08038-0.17932-0.17932-0.17932h-0.17723c-0.0062 0-0.01275-6.08e-4 -0.01877 0zm0.89241 0c-0.09027 0.0091-0.16055 0.08656-0.16055 0.17932 0 0.09894 0.08038 0.17723 0.17932 0.17723h0.17932c0.09894 0 0.17723-0.0783 0.17723-0.17723 0-0.09894-0.0783-0.17932-0.17723-0.17932h-0.17932c-0.0062 0-0.01275-6.08e-4 -0.01877 0zm-6.3171 0.35655h2.2519c-0.32961 0.23226-0.72271 0.35747-1.1259 0.35863-0.40322-0.0012-0.79632-0.12637-1.1259-0.35863z" color="#000000" fill="#fff" stroke-width="1.0676" style="-inkscape-stroke:none"/>
        </g>
    </g>
    <g transform="translate(1.0008 1.0005)" display="none" fill="none" opacity=".96293" stroke-linecap="round" stroke-linejoin="round" stroke-width=".05">
        <rect x="3" y="4" width="10" height="8" opacity="1" stroke="#003966"/>
        <rect transform="rotate(90)" x="3" y="-12" width="10" height="8" display="inline" opacity="1" stroke="#006601"/>
    </g>
</svg>
