<?xml version="1.0" encoding="UTF-8"?>
<svg version="1.1" viewBox="0 0 18.001 18" xmlns="http://www.w3.org/2000/svg">
    <g transform="translate(1.0008 -1092.8)">
        <rect x="9.5745e-5" y="1093.8" width="16" height="16" rx="1.5001" ry="1.5001" fill="#3f51b5"/>
        <path transform="translate(-1.0008 1092.8)" d="m2.5 1c-0.83103 0-1.5 0.66897-1.5 1.5v0.5c0-0.83103 0.66897-1.5 1.5-1.5h13c0.83103 0 1.5 0.66897 1.5 1.5v-0.5c0-0.83103-0.66897-1.5-1.5-1.5z" fill="#fff" opacity=".2"/>
        <path d="m14.5 1109.8c0.83103 0 1.5-0.669 1.5-1.5v-0.5c0 0.831-0.66897 1.5-1.5 1.5h-13c-0.83103 0-1.5-0.669-1.5-1.5v0.5c0 0.831 0.66897 1.5 1.5 1.5z" opacity=".2"/>
    </g>
    <g transform="translate(1.0008 1.0005)">
        <path d="m12 3.0066s-3.7732 1.0584-5.709 3.8227c-1.3884 1.9826-1.6919 4.5083-1.7572 5.3315h-0.13037c-0.22313 0-0.40333 0.17884-0.40333 0.40196v0.02716c0 0.22313 0.1802 0.40333 0.40333 0.40333h6.6883c0.22313 0 0.40333-0.1802 0.40333-0.40333v-0.02716c0-0.22313-0.1802-0.40196-0.40333-0.40196h-0.19283c-0.11119-0.63412-0.50697-2.2126-0.35845-3.9252 0.19018-2.1932 1.4596-5.2291 1.4596-5.2291zm-2.3891 3.5733c0.01576 0.013398 0.6782 0.083102 0.68307 0.10321 0.0049 0.020108-0.55162 0.38419-0.5595 0.40333-0.0079 0.019134 0.13033 0.66815 0.11272 0.679-0.017619 0.010854-0.53615-0.40582-0.55678-0.4074-0.020629-0.0015992-0.59533 0.33253-0.6111 0.31913-0.015762-0.013405 0.2208-0.63581 0.21592-0.65591-0.0048671-0.020108-0.49947-0.46431-0.49159-0.48345 0 0 0.67089 0.013565 0.68851 0.00271 0.017619-0.010854 0.28764-0.61811 0.30826-0.61653 0.020626 0.00158 0.19472 0.64251 0.21049 0.65592zm-1.8438 2.0733c0.00271-6.57e-4 0.00452-6.647e-4 0.00542 0 0.029905 0.021255-0.2928 1.1548-0.28111 1.1896 0.011702 0.034772 0.95478 0.74445 0.94379 0.7795-0.010972 0.03501-1.19 0.07998-1.2195 0.10185-0.02946 0.02187-0.41281 1.1363-0.44949 1.1367-0.036684 3.8e-4 -0.44268-1.1059-0.47259-1.1271-0.029905-0.02126-1.2091-0.04127-1.2209-0.07605-0.011692-0.034773 0.91515-0.7635 0.92614-0.79848 0.010972-0.035008-0.33365-1.1623-0.30419-1.1842 0.02946-0.021874 1.0089 0.63457 1.0457 0.63419 0.035544-3.678e-4 0.94282-0.63554 1.0267-0.65591z" fill="#fff" stroke-linecap="square" stroke-width=".86495" style="paint-order:markers stroke fill"/>
    </g>
    <g transform="translate(1.0008 1.0005)" display="none" fill="none" opacity=".8" stroke-width=".05">
        <rect transform="rotate(90)" x="3.3425" y="-12.657" width="9.3148" height="9.3148" display="inline" opacity="1" stroke="#000"/>
        <rect x="3" y="4" width="10" height="8" opacity="1" stroke="#0091ff" stroke-linecap="round" stroke-linejoin="round"/>
        <rect transform="rotate(90)" x="3" y="-12" width="10" height="8" display="inline" opacity="1" stroke="#00ff03" stroke-linecap="round" stroke-linejoin="round"/>
    </g>
</svg>
