<?xml version="1.0" encoding="UTF-8"?>
<svg version="1.1" viewBox="0 0 18.001 18" xmlns="http://www.w3.org/2000/svg">
    <g transform="translate(1.0008 -1092.8)">
        <rect x="9.5745e-5" y="1093.8" width="16" height="16" rx="1.5001" ry="1.5001" fill="#795548"/>
        <path transform="translate(-1.0008 1092.8)" d="m2.5 1c-0.83103 0-1.5 0.66897-1.5 1.5v0.5c0-0.83103 0.66897-1.5 1.5-1.5h13c0.83103 0 1.5 0.66897 1.5 1.5v-0.5c0-0.83103-0.66897-1.5-1.5-1.5z" fill="#fff" opacity=".2"/>
        <path d="m14.5 1109.8c0.83103 0 1.5-0.669 1.5-1.5v-0.5c0 0.831-0.66897 1.5-1.5 1.5h-13c-0.83103 0-1.5-0.669-1.5-1.5v0.5c0 0.831 0.66897 1.5 1.5 1.5z" opacity=".2"/>
    </g>
    <g transform="translate(1.0008 1.0005)">
        <g transform="matrix(.69465 0 0 .69465 -1.9808 -1.971)" fill="#fff" stroke-linecap="round" stroke-linejoin="round">
            <path d="m7.1702 7.1564v6.5446h2.617v-1.3106h-1.3064v-3.9234h1.3064v-1.3106h-1.3064zm2.617 1.3106v3.9234h1.3106v-3.9234z" stroke-width="2.011" style="paint-order:markers stroke fill"/>
            <path d="m13.715 7.1564v1.3106h1.3064v-1.3106zm1.3064 1.3106v3.9234h1.3106v-3.9234zm0 3.9234h-1.3064v1.3106h1.3064zm-1.3064 0v-3.9234h-1.3106v3.9234z" stroke-width="2.011" style="paint-order:markers stroke fill"/>
            <path d="m18.949 7.1564v1.3106h2.617v-1.3106zm0 1.3106h-1.3106v1.3064h1.3106zm0 1.3064v1.3106h1.3064v-1.3106zm1.3064 1.3106v1.3064h1.3106v-1.3064zm0 1.3064h-2.617v1.3106h2.617z" stroke-width="2.011" style="paint-order:markers stroke fill"/>
            <path d="m7.1702 15.007v6.5446h2.617v-1.3106h-1.3064v-1.3064h1.3064v-1.3106h-1.3064v-1.3064h1.3064v-1.3106h-1.3064zm2.617 1.3106v1.3064h1.3106v-1.3064zm0 2.617v1.3064h1.3106v-1.3064z" stroke-width="2.011" style="paint-order:markers stroke fill"/>
            <path d="m13.715 15.007v1.3106h1.3064v-1.3106zm1.3064 1.3106v3.9234h1.3106v-3.9234zm0 3.9234h-1.3064v1.3106h1.3064zm-1.3064 0v-3.9234h-1.3106v3.9234z" stroke-width="2.011" style="paint-order:markers stroke fill"/>
            <path d="m17.638 15.007v2.617h1.3106v-2.617zm1.3106 2.617v1.3106h1.3064v-1.3106zm1.3064 0h1.3106v-2.617h-1.3106zm0 1.3106v2.617h1.3106v-2.617zm-1.3064 0h-1.3106v2.617h1.3106z" stroke-width="2.8439" style="paint-order:markers stroke fill"/>
        </g>
    </g>
    <g transform="translate(1.0008 1.0005)" display="none" fill="none" opacity=".8" stroke-width=".05">
        <rect transform="rotate(90)" x="3.3425" y="-12.657" width="9.3148" height="9.3148" display="inline" opacity="1" stroke="#000"/>
        <rect x="3" y="4" width="10" height="8" opacity="1" stroke="#0091ff" stroke-linecap="round" stroke-linejoin="round"/>
        <rect transform="rotate(90)" x="3" y="-12" width="10" height="8" display="inline" opacity="1" stroke="#00ff03" stroke-linecap="round" stroke-linejoin="round"/>
    </g>
</svg>
