<?xml version="1.0" encoding="UTF-8"?>
<svg version="1.1" viewBox="0 0 18.001 18" xmlns="http://www.w3.org/2000/svg">
    <g transform="translate(1.0008 -1092.8)">
        <rect x="9.5745e-5" y="1093.8" width="16" height="16" rx="1.5001" ry="1.5001" fill="#673ab7"/>
        <path transform="translate(-1.0008 1092.8)" d="m2.5 1c-0.83103 0-1.5 0.66897-1.5 1.5v0.5c0-0.83103 0.66897-1.5 1.5-1.5h13c0.83103 0 1.5 0.66897 1.5 1.5v-0.5c0-0.83103-0.66897-1.5-1.5-1.5z" fill="#fff" opacity=".2"/>
        <g transform="translate(-22.32 1056.5)"></g>
        <path d="m14.5 1109.8c0.83103 0 1.5-0.669 1.5-1.5v-0.5c0 0.831-0.66897 1.5-1.5 1.5h-13c-0.83103 0-1.5-0.669-1.5-1.5v0.5c0 0.831 0.66897 1.5 1.5 1.5z" opacity=".2"/>
    </g>
    <g transform="translate(1.0008 1.0005)">
        <path d="m10.294 3.0112c-0.53154-0.055589-1.0655 0.10721-1.5885 0.21734-0.4545 0.095716-1.358 0.34511-1.3516 0.40618 0.0019 0.018248 0.35684-0.017949 0.77457-0.013795 0.34215 0.00341 0.75033 0.027271 1.1491 0.057951 0.25816 0.019862 0.64921 0.12935 0.58118 0.28713-0.19925 0.46219-1.6888 0.45292-2.9809 0.53845-0.97893 0.064801-1.8011 0.16934-1.8869 0.75301-0.041677 0.28362 0.21525 0.68025 0.54342 0.95157 0.67318 0.55655 1.6832 1.0545 2.7021 1.4828 0 0-1.1491-0.020049-1.7442 0.11812-0.74321 0.17256-1.5249 0.46159-2.1331 0.92945-0.35574 0.27365-0.64832 0.69299-0.58022 1.1366 0.10314 0.67192 0.85037 1.0724 1.4617 1.3698 0.60293 0.29334 1.2154 0.44684 1.852 0.53214 1.0098 0.13529 3.0415-0.0664 3.0562-0.04099 0.07642 0.13235-0.53614 0.34432-1.0258 0.46016-1.1206 0.26513-2.2014 0.53226-3.0044 0.72095-0.028457 0.0067-0.060629 0.08233-0.0314 0.08188 1.0324-0.01588 2.2673-0.104 3.3789-0.31361 0.68684-0.12952 1.4429-0.32818 2.0096-0.60828 0.32001-0.15817 0.79524-0.4486 0.75219-0.67052-0.05379-0.27725-0.63619-0.39077-1.0023-0.44145-1.2183-0.16869-2.7248 0.076755-3.9754-0.27835-0.47569-0.13507-1.0288-0.25263-1.0541-0.57191-0.035172-0.44503 0.42024-0.77569 0.77588-1.0445 0.34173-0.25828 1.2964-0.54218 2.0118-0.71258 0.78317-0.18652 1.6129-0.36161 1.614-0.41378 0.002042-0.10526-1.2532-0.61905-2.1555-1.0687-0.75051-0.37398-1.4789-0.65446-1.4512-0.93933 0.06101-0.62717 1.9089-0.6843 3.2044-0.77929 0.51929-0.038075 1.1548-0.10737 1.1853-1.0174 0.016315-0.48725-0.55818-1.0738-1.0868-1.129z" color="#000000" fill="#fff" stroke-width="1.0747" style="-inkscape-stroke:none"/>
    </g>
    <g transform="translate(1.0008 1.0005)" display="none" fill="none" opacity=".8" stroke-width=".05">
        <rect transform="rotate(90)" x="3.3425" y="-12.657" width="9.3148" height="9.3148" display="inline" opacity="1" stroke="#000"/>
        <rect x="3" y="4" width="10" height="8" opacity="1" stroke="#0091ff" stroke-linecap="round" stroke-linejoin="round"/>
        <rect transform="rotate(90)" x="3" y="-12" width="10" height="8" display="inline" opacity="1" stroke="#00ff03" stroke-linecap="round" stroke-linejoin="round"/>
    </g>
</svg>
