<?xml version="1.0" encoding="UTF-8"?>
<svg version="1.1" viewBox="0 0 18.001 18" xmlns="http://www.w3.org/2000/svg" xmlns:xlink="http://www.w3.org/1999/xlink">
    <defs>
        <linearGradient id="linearGradient4461" x1="10.5" x2="10.5" y1="-9.5005" y2="-9.0005" gradientTransform="rotate(90.002 .00019338 1.0006)" gradientUnits="userSpaceOnUse" xlink:href="#linearGradient4459"/>
        <linearGradient id="linearGradient4459">
            <stop stop-color="#ff000f" offset="0"/>
            <stop stop-color="#19ff00" offset="1"/>
        </linearGradient>
        <linearGradient id="linearGradient4507" x1="10.5" x2="10.5" y1="9.5" y2="9" gradientTransform="translate(1.0008 1.0005)" gradientUnits="userSpaceOnUse" xlink:href="#linearGradient4459"/>
        <linearGradient id="linearGradient4891" x1="-5.4999" x2="-5.4999" y1="6.5001" y2="7.0001" gradientTransform="rotate(-89.999 1.0007 -.00017629)" gradientUnits="userSpaceOnUse" xlink:href="#linearGradient4845"/>
        <linearGradient id="linearGradient4845">
            <stop stop-color="#ff8300" offset="0"/>
            <stop stop-color="#00ff94" offset="1"/>
        </linearGradient>
        <linearGradient id="linearGradient4648" x1="-5.4998" x2="-5.4998" y1="-6.5002" y2="-7.0002" gradientTransform="rotate(180 .50041 .50026)" gradientUnits="userSpaceOnUse" xlink:href="#linearGradient4845"/>
    </defs>
    <g transform="translate(1.0008 -1092.8)">
        <rect x="9.5745e-5" y="1093.8" width="16" height="16" rx="1.5001" ry="1.5001" fill="#f43f36"/>
        <path transform="translate(-1.0008 1092.8)" d="m2.5 1c-0.83103 0-1.5 0.66897-1.5 1.5v0.5c0-0.83103 0.66897-1.5 1.5-1.5h13c0.83103 0 1.5 0.66897 1.5 1.5v-0.5c0-0.83103-0.66897-1.5-1.5-1.5z" fill="#fff" opacity=".2"/>
        <path d="m14.5 1109.8c0.83103 0 1.5-0.669 1.5-1.5v-0.5c0 0.831-0.66897 1.5-1.5 1.5h-13c-0.83103 0-1.5-0.669-1.5-1.5v0.5c0 0.831 0.66897 1.5 1.5 1.5z" opacity=".2"/>
    </g>
    <g transform="translate(1.0008 1.0005)">
        <path transform="translate(-1.0008 -1.0005)" d="m5 5c-0.5525 0-0.99414 0.44752-0.99414 1l-0.0058594 6c0 0.5525 0.44752 1 1 1h5.1973c0.049448-0.17554 0.15899-0.31737 0.27148-0.41016 0.14137-0.1166 0.289-0.18019 0.43359-0.22656 0.066766-0.02143 0.14184-0.019916 0.21094-0.035156-0.01696-0.11685-0.025202-0.30759-0.044922-0.36914-0.03364-0.10502-0.055727-0.1292-0.085937-0.16406-0.085731-0.051018-0.17247-0.098223-0.25781-0.16406-0.36912-0.2848-0.75391-0.75066-0.75391-1.3809 0-0.4642 0.082927-0.91466 0.16016-1.2832 0.074417-0.35458 0.13383-0.70438 0.13477-0.67578-1.13e-4 -0.012728 0.001509-0.037829 0.005859-0.074219 0.021912-0.18241 0.10169-0.29159 0.18555-0.375 0.074559-0.074181 0.15836-0.12188 0.22461-0.15234l0.001953-0.0019531c0.01283-0.00588 0.010325-0.0056525 0.015625-0.0078125 0.0023-0.001102 0.001006-5.831e-4 0.003906-0.0019531h0.001953c0.0028-0.00131 0.005013-0.0026263 0.007813-0.0039063h0.001953c0.11788-0.053884 0.23212-0.084246 0.34766-0.10742 0.23947-0.04802 0.50231-0.066406 0.76758-0.066406 0.26528 0 0.52812 0.018406 0.76758 0.066406 0.11697 0.023456 0.23242 0.054311 0.35156 0.10938-0.00997-0.00428 0.008259 0.0030832 0.005859 0.0019532h0.001953c0.01453 0.00684-0.001295-6.869e-4 0.003907 0.0019531 0.006053 0.00246-0.009971-0.0029838 0.005859 0.0039063l0.001953 0.0019531c0.0026 6.3e-4 0.005214 0.0012822 0.007812 0.0019531 0.066638 0.030439 0.14949 0.079569 0.22461 0.1543h0.001953c0.085924 0.085451 0.16239 0.20074 0.18359 0.37109 5e-6 0.0013 5e-6 0.0026063 0 0.0039063l0.003906 0.058594c3.08e-4 0.007899 0 0.0024788 0 0.011719-4.05e-4 -0.036569 0.061509 0.32132 0.13672 0.67969 0.077569 0.36957 0.16211 0.82001 0.16211 1.2832 0 0.62926-0.3862 1.0957-0.75586 1.3809-0.086663 0.066863-0.17177 0.11318-0.25781 0.16406-0.02913 0.03374-0.049864 0.057538-0.083984 0.16406-0.01974 0.061658-0.027952 0.25231-0.044922 0.36914 0.068481 0.01516 0.14282 0.013926 0.20898 0.035156 0.14354 0.046037 0.29199 0.10815 0.43555 0.22656 0.090998 0.075048 0.17946 0.18165 0.23633 0.3125 0.33819-0.16032 0.57227-0.50305 0.57227-0.90234v-5c0-0.5525-0.44752-1-1-1h-4l-1-1h-3zm6.8301 3c-0.24 0-0.4798 0.018517-0.66992 0.056641-0.09505 0.019066-0.17784 0.043048-0.24414 0.074219-0.0033 0.00153-0.006466 0.0042094-0.009766 0.0058594-0.0049 0.0020299-0.009002 0.0037093-0.013672 0.0058593-0.03168 0.014471-0.059181 0.03-0.082031 0.052734-0.0201 0.019992-0.039179 0.048528-0.042969 0.080078-5.13e-4 0.00429 0 0.0072688 0 0.011719 0 0.00184-7.6e-5 0.0060325 0 0.0078125-0.0024 0.12948-0.072767 0.42414-0.14648 0.77539-0.07505 0.35757-0.15039 0.77858-0.15039 1.1797 0 0.42009 0.26462 0.75605 0.56055 0.98438 0.10106 0.07797 0.20538 0.14404 0.30664 0.19727 0.0765 0.08462 0.14835 0.19182 0.20703 0.375 0.06411 0.20012 0.10997 0.49253 0.11914 0.93555-0.22168 0.0106-0.43472 0.042226-0.60742 0.097656-0.10776 0.03456-0.19982 0.077272-0.26953 0.13476-0.06971 0.0575-0.11719 0.13423-0.11719 0.22266s0.047482 0.16515 0.11719 0.22266c0.06971 0.0575 0.16177 0.10215 0.26953 0.13672 0.21552 0.06914 0.49416 0.10156 0.77344 0.10156 0.27925 0 0.5579-0.032433 0.77344-0.10156 0.10776-0.03456 0.19983-0.07922 0.26953-0.13672 0.06971-0.05751 0.11719-0.13423 0.11719-0.22266s-0.047472-0.16516-0.11719-0.22266c-0.06971-0.0575-0.16177-0.1002-0.26953-0.13476-0.17259-0.05537-0.386-0.087027-0.60742-0.097656 0.0091-0.44304 0.055037-0.73539 0.11914-0.93555 0.05868-0.18318 0.12859-0.29037 0.20508-0.375 0.10126-0.05322 0.20754-0.1193 0.30859-0.19727 0.29592-0.22831 0.56055-0.56428 0.56055-0.98438 0-0.4011-0.075344-0.82213-0.15039-1.1797-0.073719-0.35127-0.14593-0.64593-0.14844-0.77539 8.8e-5 -0.00178 0-0.0059725 0-0.0078125 0-0.00442 5.21e-4 -0.0073988 0-0.011719-0.0039-0.031339-0.021016-0.060187-0.041016-0.080078-0.02286-0.022728-0.050351-0.038263-0.082031-0.052734-0.0048-0.00209-0.010735-0.0037694-0.015625-0.0058593-0.0033-0.0015901-0.004512-0.0043294-0.007812-0.0058594-0.06631-0.031164-0.14908-0.055157-0.24414-0.074219-0.19016-0.038117-0.42991-0.056641-0.66992-0.056641zm0 0.1543c0.24625 0 0.49312 0.016728 0.67383 0.048828 0.08934 0.01587 0.16128 0.036036 0.20703 0.056641 0.02027 0.011802 0.034548 0.022275 0.042968 0.03125-0.0074 0.00642-0.020665 0.016092-0.041015 0.025391-0.04564 0.020839-0.11862 0.042549-0.20898 0.058594-0.18073 0.0321-0.4276 0.046875-0.67383 0.046875-0.24625 0-0.49312-0.014773-0.67383-0.046875-0.09036-0.016048-0.1653-0.037752-0.21094-0.058594-0.02027-0.00927-0.033625-0.018987-0.041015-0.025391 0.0083-0.00901 0.022559-0.019336 0.042969-0.03125 0.04576-0.020599 0.11964-0.040767 0.20898-0.056641 0.18073-0.032101 0.4276-0.048828 0.67383-0.048828zm0.011719 1.457c0.3086 0 0.61549 0.025503 0.85156 0.076172 0.08746 0.018771 0.16707 0.041097 0.23242 0.068359 0.0057 0.037297 0.010965 0.074933 0.015625 0.11133 0.0036 0.036826 0.008502 0.090935 0.013672 0.11914 0.0773 0.41598-0.11046 0.74403-0.36328 0.98242-0.13498 0.12727-0.28788 0.22643-0.42578 0.29297-0.1379 0.06653-0.2632 0.097656-0.32422 0.097656-0.06103 0-0.18336-0.031113-0.31641-0.095703-0.13304-0.0646-0.28078-0.15955-0.41211-0.2793-0.22504-0.20518-0.39797-0.47644-0.38672-0.79492 0.0019-0.05328 0.006366-0.10789 0.009766-0.16797 0.0041-0.056069 0.010535-0.15235 0.015625-0.19922 0.0026-0.023895 0.005213-0.043778 0.007813-0.066406 0.06519-0.027175 0.14123-0.04962 0.22852-0.068359 0.23608-0.050675 0.5449-0.076172 0.85352-0.076172z" fill="#fff"/>
    </g>
    <g transform="translate(1.0008 1.0005)" display="none" fill="none" opacity=".67119" stroke-width=".05">
        <rect transform="rotate(90)" x="3.3425" y="-12.657" width="9.3148" height="9.3148" display="inline" opacity="1" stroke="#000"/>
        <rect x="3" y="4" width="10" height="8" opacity="1" stroke="#0091ff" stroke-linecap="round" stroke-linejoin="round"/>
        <rect transform="rotate(90)" x="3" y="-12" width="10" height="8" display="inline" opacity="1" stroke="#00ff03" stroke-linecap="round" stroke-linejoin="round"/>
    </g>
    <g display="none" fill="none" stroke-linecap="square" stroke-width=".05">
        <path d="m8.0008 10h5.6574v3.6573h-5.6574z" display="inline" opacity=".62506" stroke="url(#linearGradient4507)" style="paint-order:markers stroke fill"/>
        <path d="m13.658 8.0007-2.46e-4 5.6574-3.6573-1.59e-4 2.46e-4 -5.6574z" display="inline" opacity=".62506" stroke="url(#linearGradient4461)" style="paint-order:markers stroke fill"/>
        <path d="m4.3436 10 5.3e-5 -5.6574 3.6573 3.43e-5 -5.3e-5 5.6574z" display="inline" opacity=".62506" stroke="url(#linearGradient4891)" style="paint-order:markers stroke fill"/>
        <path d="m10.001 8.0005-5.6574 1.936e-4 -1.252e-4 -3.6573 5.6574-1.936e-4z" display="inline" opacity=".62506" stroke="url(#linearGradient4648)" style="paint-order:markers stroke fill"/>
    </g>
</svg>
