<?xml version="1.0" encoding="UTF-8"?>
<svg version="1.1" viewBox="0 0 18.001 18" xmlns="http://www.w3.org/2000/svg">
    <g transform="translate(1.0008 -1092.8)">
        <rect x="9.5745e-5" y="1093.8" width="16" height="16" rx="1.5001" ry="1.5001" fill="#3f51b5"/>
        <path transform="translate(-1.0008 1092.8)" d="m2.5 1c-0.83103 0-1.5 0.66897-1.5 1.5v0.5c0-0.83103 0.66897-1.5 1.5-1.5h13c0.83103 0 1.5 0.66897 1.5 1.5v-0.5c0-0.83103-0.66897-1.5-1.5-1.5z" fill="#fff" opacity=".2"/>
        <path d="m14.5 1109.8c0.83103 0 1.5-0.669 1.5-1.5v-0.5c0 0.831-0.66897 1.5-1.5 1.5h-13c-0.83103 0-1.5-0.669-1.5-1.5v0.5c0 0.831 0.66897 1.5 1.5 1.5z" opacity=".2"/>
    </g>
    <g transform="translate(1.0008 1.0005)">
        <g transform="matrix(.64232 0 0 .64232 -1.6142 -1.2287)">
            <path d="m7.1836 6.584v15.568h3.5938v-6.5859h3.5918v-3.5938h-3.5918v-1.7949h4.7891v-3.5937zm1.1992 1.1992h5.9844v1.1953h-4.7891v4.1934h3.5918v1.1953h-3.5918v6.5859h-1.1953v-11.375z" color="#000000" fill="#fff" stroke-linecap="round" style="-inkscape-stroke:none"/>
        </g>
        <g transform="matrix(.61267 0 0 .61267 -1.2257 -.572)">
            <path d="m16.891 11.373-0.15039 0.37695-0.45508 1.1387c-0.04004 0.01632-0.07962 0.03323-0.11914 0.05078l-1.5039-0.63672-1.3223 1.332 0.65039 1.4961c-0.01276 0.02981-0.02505 0.05975-0.03711 0.08984l-1.5137 0.60352v1.877l1.5156 0.60547c0.0165 0.04064 0.03301 0.08099 0.05078 0.12109l-0.63672 1.502 1.332 1.3223 1.498-0.65039c0.02873 0.01241 0.05694 0.02535 0.08594 0.03711l0.60547 1.5137h1.877l0.60352-1.5078c0.0434-0.01712 0.0861-0.03613 0.12891-0.05469l1.4961 0.63281 1.3223-1.332-0.64648-1.4902c0.01373-0.03227 0.02615-0.06505 0.03906-0.09766l1.5078-0.60155v-1.877l-1.5176-0.60547c-0.01608-0.03988-0.03153-0.07978-0.04883-0.11914l0.63672-1.5039-1.332-1.3223-1.498 0.65039c-0.02931-0.01257-0.05831-0.02521-0.08789-0.03711l-0.60352-1.5137zm0.8125 1.1992h0.25195l0.5 1.2539 0.26953 0.08789c0.16026 0.05133 0.31547 0.11586 0.46484 0.19336l0.25391 0.13086 1.2441-0.53906 0.17969 0.17773-0.5293 1.248 0.13476 0.25195c0.08326 0.15678 0.15087 0.3212 0.20508 0.49024l0.08789 0.26953 1.2539 0.5v0.25195l-1.25 0.5-0.08594 0.27148c-0.05134 0.16365-0.11674 0.32215-0.19531 0.47461l-0.13086 0.25391 0.53516 1.2324-0.17773 0.17969-1.2363-0.52148-0.25195 0.13086c-0.15991 0.0838-0.32567 0.15337-0.49805 0.20703l-0.27344 0.08398-0.5 1.252h-0.25195l-0.5-1.252-0.26758-0.08594c-0.16032-0.05186-0.31748-0.11725-0.4668-0.19531l-0.25391-0.13281-1.2441 0.53906-0.17969-0.17774 0.5293-1.248-0.13477-0.25391c-0.08382-0.15672-0.15425-0.32114-0.20898-0.49023l-0.08594-0.26758-1.252-0.5v-0.25195l1.2559-0.50195 0.08594-0.26953c0.05125-0.16082 0.11577-0.3169 0.19336-0.4668l0.13086-0.25195-0.53906-1.2422 0.17773-0.17969 1.252 0.5293 0.25195-0.13476c0.1562-0.08373 0.31975-0.15416 0.48828-0.20898l0.26758-0.08594zm0.12695 2.1406c-1.1248-2.02e-4 -2.0495 0.92402-2.0508 2.0488-2.01e-4 1.1259 0.92492 2.051 2.0508 2.0508 1.1248-0.0013 2.049-0.92597 2.0488-2.0508-0.0013-1.1238-0.92507-2.0475-2.0488-2.0488z" color="#000000" fill="#fff" stroke-linecap="round" style="-inkscape-stroke:none"/>
        </g>
    </g>
    <g transform="translate(1.0008 1.0005)" display="none" fill="none" opacity=".8" stroke-width=".05">
        <rect transform="rotate(90)" x="3.3425" y="-12.657" width="9.3148" height="9.3148" display="inline" opacity="1" stroke="#000"/>
        <rect x="3" y="4" width="10" height="8" opacity="1" stroke="#0091ff" stroke-linecap="round" stroke-linejoin="round"/>
        <rect transform="rotate(90)" x="3" y="-12" width="10" height="8" display="inline" opacity="1" stroke="#00ff03" stroke-linecap="round" stroke-linejoin="round"/>
    </g>
</svg>
