<?xml version="1.0" encoding="UTF-8"?>
<svg version="1.1" viewBox="0 0 18.001 18" xmlns="http://www.w3.org/2000/svg">
    <g transform="translate(1.0008 -1092.8)">
        <rect x="9.5745e-5" y="1093.8" width="16" height="16" rx="1.5001" ry="1.5001" fill="#673ab7"/>
        <path transform="translate(-1.0008 1092.8)" d="m2.5 1c-0.83103 0-1.5 0.66897-1.5 1.5v0.5c0-0.83103 0.66897-1.5 1.5-1.5h13c0.83103 0 1.5 0.66897 1.5 1.5v-0.5c0-0.83103-0.66897-1.5-1.5-1.5z" fill="#fff" opacity=".2"/>
        <path d="m14.5 1109.8c0.83103 0 1.5-0.669 1.5-1.5v-0.5c0 0.831-0.66897 1.5-1.5 1.5h-13c-0.83103 0-1.5-0.669-1.5-1.5v0.5c0 0.831 0.66897 1.5 1.5 1.5z" opacity=".2"/>
    </g>
    <g transform="translate(1.0008 1.0005)">
        <path d="m7.849 4.1468c-0.5607 0-1.0198 0.45912-1.0198 1.0198 0 0.024095 9.048e-4 0.047585 0.00258 0.071269-0.97487 0.30333-1.804 0.79322-2.3973 1.384-0.12649-0.056563-0.26652-0.088119-0.41337-0.088119-0.5607 0-1.0211 0.45912-1.0211 1.0198 0 0.36669 0.19802 0.68971 0.49112 0.8695-0.020715 0.22053-0.00793 0.44193 0.044058 0.66217 0.17604 0.74582 0.75592 1.3129 1.5369 1.6587-0.00264 0.02957-0.0039 0.05919-0.0039 0.08941 0 0.5607 0.45912 1.0198 1.0198 1.0198 0.45315 0 0.83888-0.30039 0.97056-0.71144 0.52479 0.0056 1.078-0.05412 1.6393-0.1866 0.30741-0.07256 0.60253-0.16404 0.88377-0.27083 0.18694 0.24219 0.47968 0.39912 0.80728 0.39912 0.5607 0 1.0198-0.45912 1.0198-1.0198 0-0.13976-0.02883-0.27364-0.08034-0.39523 0.10502-0.090022 0.2063-0.1818 0.29933-0.27731 0.63047-0.64724 0.98462-1.427 0.89024-2.1977 0.28836-0.18073 0.48205-0.50093 0.48205-0.86435 0-0.5607-0.45912-1.0211-1.0198-1.0211-0.23655 0-0.45494 0.082148-0.62848 0.21899-0.21698-0.13227-0.4568-0.24351-0.71402-0.33303-0.52549-0.1829-1.1274-0.2792-1.7688-0.27731-0.010308 3.06e-5 -0.020782 0.0011832-0.031104 0.0013224-0.11185-0.44153-0.51376-0.77102-0.98872-0.77102zm0 0.45225c0.31676 0 0.56888 0.25081 0.56888 0.56757s-0.25211 0.56888-0.56888 0.56888c-0.31676 0-0.56888-0.25211-0.56888-0.56888 0-0.31676 0.25211-0.56757 0.56888-0.56757zm0.9991 0.7697c0.60388-0.00376 1.1645 0.085697 1.6405 0.25139 0.21045 0.073246 0.40307 0.16036 0.57665 0.26046-0.06682 0.13559-0.10496 0.28792-0.10496 0.44836 0 0.5607 0.45912 1.0198 1.0198 1.0198 0.03374 0 0.06685-0.00195 0.09978-0.00522 0.0357 0.57726-0.24015 1.1835-0.77492 1.7325-0.07492 0.076921-0.15639 0.15177-0.24103 0.22547-0.18029-0.16016-0.41661-0.25787-0.67513-0.25787-0.5607 0-1.0198 0.45912-1.0198 1.0198 0 0.07194 0.00767 0.14209 0.022028 0.20992-0.2536 0.09511-0.51963 0.17686-0.79691 0.24232-0.51388 0.1213-1.0196 0.17636-1.4967 0.17364-0.070706-0.49304-0.49773-0.87597-1.0095-0.87597-0.37064 0-0.69738 0.20093-0.87597 0.4989-0.66158-0.30214-1.1034-0.76267-1.2375-1.3308-0.031968-0.13543-0.044024-0.27297-0.040171-0.41208 0.028747 0.00244 0.057473 0.0039 0.086818 0.0039 0.5607 0 1.0198-0.45912 1.0198-1.0198 0-0.25026-0.091175-0.48029-0.24232-0.65828 0.52927-0.50976 1.2797-0.94912 2.164-1.2258 0.1761 0.30825 0.50829 0.51833 0.88634 0.51833 0.49148 0 0.90451-0.354 0.9991-0.81897zm3.132 0.39134c0.31676 0 0.56888 0.25211 0.56888 0.56888s-0.25211 0.56757-0.56888 0.56757-0.56888-0.25081-0.56888-0.56757 0.25211-0.56888 0.56888-0.56888zm-7.9594 1.2246c0.31676 0 0.56757 0.25211 0.56757 0.56888 0 0.31676-0.25081 0.56888-0.56757 0.56888s-0.56888-0.25211-0.56888-0.56888c0-0.31676 0.25211-0.56888 0.56888-0.56888zm6.3678 2.51c0.31676 0 0.56888 0.25211 0.56888 0.56888 0 0.31676-0.25211 0.56888-0.56888 0.56888s-0.56887-0.25211-0.56887-0.56888c0-0.31676 0.25211-0.56888 0.56887-0.56888zm-4.3009 0.7697c0.31676 0 0.56888 0.25211 0.56888 0.56888 0 0.31676-0.25211 0.56888-0.56888 0.56888s-0.56888-0.25211-0.56888-0.56888c0-0.31676 0.25211-0.56888 0.56888-0.56888z" color="#000000" fill="#fff" stroke-linecap="square" stroke-width=".66347" style="-inkscape-stroke:none;paint-order:markers stroke fill"/>
    </g>
    <g transform="translate(1.0008 1.0005)" display="none" fill="none" opacity=".8" stroke-width=".05">
        <rect transform="rotate(90)" x="3.3425" y="-12.657" width="9.3148" height="9.3148" display="inline" opacity="1" stroke="#000"/>
        <rect x="3" y="4" width="10" height="8" opacity="1" stroke="#0091ff" stroke-linecap="round" stroke-linejoin="round"/>
        <rect transform="rotate(90)" x="3" y="-12" width="10" height="8" display="inline" opacity="1" stroke="#00ff03" stroke-linecap="round" stroke-linejoin="round"/>
    </g>
</svg>
