<?xml version="1.0" encoding="UTF-8"?>
<svg version="1.1" viewBox="0 0 18.001 18" xmlns="http://www.w3.org/2000/svg">
    <g transform="translate(1.0008 -1092.8)">
        <rect x="9.5745e-5" y="1093.8" width="16" height="16" rx="1.5001" ry="1.5001" fill="#f43f36"/>
        <path transform="translate(-1.0008 1092.8)" d="m2.5 1c-0.83103 0-1.5 0.66897-1.5 1.5v0.5c0-0.83103 0.66897-1.5 1.5-1.5h13c0.83103 0 1.5 0.66897 1.5 1.5v-0.5c0-0.83103-0.66897-1.5-1.5-1.5z" fill="#fff" opacity=".2"/>
        <path d="m14.5 1109.8c0.83103 0 1.5-0.669 1.5-1.5v-0.5c0 0.831-0.66897 1.5-1.5 1.5h-13c-0.83103 0-1.5-0.669-1.5-1.5v0.5c0 0.831 0.66897 1.5 1.5 1.5z" opacity=".2"/>
    </g>
    <g transform="translate(1.0008 1.0005)">
        <path d="m12.812 7.5546-4.3664-4.3659c-0.25122-0.25145-0.65903-0.25145-0.91054 0l-0.90667 0.90675 1.15 1.15c0.26735-0.090263 0.57379-0.029758 0.7868 0.18331 0.21413 0.21438 0.27422 0.52344 0.18169 0.79168l1.1084 1.1084c0.26817-0.092411 0.57756-0.032688 0.79169 0.1818 0.29937 0.29928 0.29937 0.78422 0 1.0836-0.29941 0.29946-0.78436 0.29946-1.0839 0-0.22509-0.22528-0.28077-0.55601-0.16675-0.83335l-1.0338-1.0338-9.45e-5 2.7203c0.072956 0.036143 0.14187 0.084351 0.20268 0.14491 0.29928 0.29924 0.29928 0.7841 0 1.0839-0.29936 0.29923-0.78452 0.29923-1.0836 0-0.29932-0.29971-0.29932-0.78458 0-1.0839 0.073988-0.073842 0.15957-0.12973 0.2509-0.16719v-2.7455c-0.09138-0.037312-0.17687-0.092781-0.25095-0.16722-0.22673-0.22655-0.28132-0.55931-0.16506-0.83772l-1.1337-1.1339-2.9937 2.9935c-0.25153 0.25165-0.25153 0.65945 0 0.91097l4.3661 4.3659c0.25137 0.25146 0.65903 0.25146 0.91071 0l4.3459-4.3452c0.25146-0.25158 0.25146-0.6595 0-0.91105" fill="#fff" stroke-width=".85932"/>
    </g>
    <g transform="translate(1.0008 1.0005)" display="none" fill="none" opacity=".8" stroke-width=".05">
        <rect transform="rotate(90)" x="3.3425" y="-12.657" width="9.3148" height="9.3148" display="inline" opacity="1" stroke="#000"/>
        <rect x="3" y="4" width="10" height="8" opacity="1" stroke="#0091ff" stroke-linecap="round" stroke-linejoin="round"/>
        <rect transform="rotate(90)" x="3" y="-12" width="10" height="8" display="inline" opacity="1" stroke="#00ff03" stroke-linecap="round" stroke-linejoin="round"/>
    </g>
</svg>
