<?xml version="1.0" encoding="UTF-8"?>
<svg version="1.1" viewBox="0 0 18.001 18" xmlns="http://www.w3.org/2000/svg">
    <g transform="translate(1.0008 -1092.8)">
        <rect x="9.5745e-5" y="1093.8" width="16" height="16" rx="1.5001" ry="1.5001" fill="#e91e63"/>
        <path transform="translate(-1.0008 1092.8)" d="m2.5 1c-0.83103 0-1.5 0.66897-1.5 1.5v0.5c0-0.83103 0.66897-1.5 1.5-1.5h13c0.83103 0 1.5 0.66897 1.5 1.5v-0.5c0-0.83103-0.66897-1.5-1.5-1.5z" fill="#fff" opacity=".2"/>
        <path d="m14.5 1109.8c0.83103 0 1.5-0.669 1.5-1.5v-0.5c0 0.831-0.66897 1.5-1.5 1.5h-13c-0.83103 0-1.5-0.669-1.5-1.5v0.5c0 0.831 0.66897 1.5 1.5 1.5z" opacity=".2"/>
    </g>
    <g transform="translate(1.0008 1.0005)">
        <path transform="translate(-1.0008 -1.0005)" d="m4.5 4c-0.277 0-0.5 0.223-0.5 0.5v9c0 0.277 0.223 0.5 0.5 0.5h2c0.277 0 0.5-0.223 0.5-0.5v-9c0-0.277-0.223-0.5-0.5-0.5h-2zm0 0.5h2v1.5996h-2v-1.5996zm4.0996 0.072266c-0.15998 0.011184-0.31188 0.10007-0.39844 0.25l-0.70117 1.2148v0.99805l0.066406-0.11523 1.7324 1-0.79883 1.3848-1-0.57812v0.61914l0.73242 0.42188-0.73242 1.2695v0.99805l3.2988-5.7129c0.1385-0.23989 0.058248-0.54509-0.18164-0.68359l-1.7324-1c-0.089958-0.051938-0.18917-0.073116-0.28516-0.066406zm0.035156 0.5 1.7324 1-0.80078 1.3848-1.7324-1 0.80078-1.3848zm-4.1348 1.5625h2v1.5996h-2v-1.5996zm7.3926 0.5c-0.07262 0.00556-0.14542 0.027454-0.21289 0.066406l-1.2168 0.70312-0.49805 0.86133 0.11523-0.064453 1 1.7324-1.3848 0.79883-0.57617-1-0.044922 0.078125-0.26562 0.45703v0.001953l0.42383 0.73047-1.2676 0.73242-0.03125 0.052734-0.43359 0.75v0.042969l5.6797-3.2793c0.23989-0.1385 0.32014-0.4437 0.18164-0.68359l-1-1.7324c-0.08656-0.14993-0.2365-0.23686-0.39648-0.24805-0.024-0.00168-0.048056-0.00185-0.072266 0zm0.03711 0.49805 1 1.7324-1.3867 0.80078-1-1.7324 1.3867-0.80078zm-7.4297 1.1348h2v1.5996h-2v-1.5996zm0 2.1328h2v1.5996h-2v-1.5996zm7.5996 0.099609-0.86523 0.5h0.13281v2h-1.5996v-1.1523l-0.5332 0.30664v0.8457h-1.4648l-0.056641 0.033203c-0.0046211 0.002686-0.015987 0.006889-0.021484 0.009766l-0.20703 0.11914c-0.020451 0.12113-0.062328 0.23494-0.12305 0.33789h6.1406c0.277 0 0.5-0.223 0.5-0.5v-2c0-0.277-0.223-0.5-0.5-0.5h-1.4023zm-0.19726 0.5h1.5996v2h-1.5996v-2z" color="#000000" fill="#fff" style="-inkscape-stroke:none;paint-order:markers stroke fill"/>
    </g>
    <g transform="translate(1.0008 1.0005)" display="none" fill="none" opacity=".8" stroke-width=".05">
        <rect transform="rotate(90)" x="3.3425" y="-12.657" width="9.3148" height="9.3148" display="inline" opacity="1" stroke="#000"/>
        <rect x="3" y="4" width="10" height="8" opacity="1" stroke="#0091ff" stroke-linecap="round" stroke-linejoin="round"/>
        <rect transform="rotate(90)" x="3" y="-12" width="10" height="8" display="inline" opacity="1" stroke="#00ff03" stroke-linecap="round" stroke-linejoin="round"/>
    </g>
</svg>
