<?xml version="1.0" encoding="UTF-8"?>
<svg version="1.1" viewBox="0 0 18.001 18" xmlns="http://www.w3.org/2000/svg">
    <g transform="translate(1.0008 -1092.8)">
        <rect x="9.5745e-5" y="1093.8" width="16" height="16" rx="1.5001" ry="1.5001" fill="#f43f36"/>
        <path transform="translate(-1.0008 1092.8)" d="m2.5 1c-0.83103 0-1.5 0.66897-1.5 1.5v0.5c0-0.83103 0.66897-1.5 1.5-1.5h13c0.83103 0 1.5 0.66897 1.5 1.5v-0.5c0-0.83103-0.66897-1.5-1.5-1.5z" fill="#fff" opacity=".2"/>
        <path d="m14.5 1109.8c0.83103 0 1.5-0.669 1.5-1.5v-0.5c0 0.831-0.66897 1.5-1.5 1.5h-13c-0.83103 0-1.5-0.669-1.5-1.5v0.5c0 0.831 0.66897 1.5 1.5 1.5z" opacity=".2"/>
    </g>
    <g transform="translate(1.0008 1.0005)">
        <path transform="translate(-1.0008 -1.0005)" d="m6.5 4c-0.554 0-1 0.446-1 1v8c0 0.554 0.446 1 1 1h5c0.554 0 1-0.446 1-1v-8c0-0.554-0.446-1-1-1h-5zm2.5 2.6816c0.61033 0 1.1074 0.49711 1.1074 1.1074 0 0.43473-0.2519 0.80988-0.61719 0.99023-0.10993 0.054274 0.011079 0.19457 0.091797 0.10352 0.2027-0.22868 0.49679-0.37305 0.82617-0.37305 0.61033 0 1.1074 0.49711 1.1074 1.1074 0 0.61033-0.49711 1.1035-1.1074 1.1035-0.60565 0-1.0991-0.48596-1.1055-1.0898-0.001133-0.10713-0.16602-0.11876-0.16602 0.025391-1e-7 0.22702 0.21909 1.4322 0.33594 1.6621-0.12753-0.032162-0.34105-0.058593-0.47266-0.058593s-0.34316 0.026433-0.4707 0.058593c0.11686-0.22988 0.33398-1.4351 0.33398-1.6621 0-0.14415-0.16293-0.13252-0.16406-0.025391-0.0063863 0.60388-0.50178 1.0898-1.1074 1.0898-0.61031 0-1.1055-0.49318-1.1055-1.1035 0-0.61033 0.49516-1.1074 1.1055-1.1074 0.32939 0 0.62541 0.14435 0.82812 0.37305 0.08072 0.091059 0.20173-0.04924 0.091797-0.10352-0.36528-0.18036-0.61719-0.55551-0.61719-0.99023 0-0.61033 0.49516-1.1074 1.1055-1.1074z" fill="#fff" stroke-linecap="round" stroke-linejoin="round" stroke-width="1.0801" style="paint-order:markers stroke fill"/>
    </g>
    <g transform="translate(1.0008 1.0005)" display="none" fill="none" opacity=".8" stroke-width=".05">
        <rect transform="rotate(90)" x="3.3425" y="-12.657" width="9.3148" height="9.3148" display="inline" opacity="1" stroke="#000"/>
        <rect x="3" y="4" width="10" height="8" opacity="1" stroke="#0091ff" stroke-linecap="round" stroke-linejoin="round"/>
        <rect transform="rotate(90)" x="3" y="-12" width="10" height="8" display="inline" opacity="1" stroke="#00ff03" stroke-linecap="round" stroke-linejoin="round"/>
    </g>
</svg>
