<?xml version="1.0" encoding="UTF-8"?>
<svg version="1.1" viewBox="0 0 18.001 18" xmlns="http://www.w3.org/2000/svg">
    <g transform="translate(1.0008 -1092.8)">
        <rect x="9.5745e-5" y="1093.8" width="16" height="16" rx="1.5001" ry="1.5001" fill="#9c27b0"/>
        <path transform="translate(-1.0008 1092.8)" d="m2.5 1c-0.83103 0-1.5 0.66897-1.5 1.5v0.5c0-0.83103 0.66897-1.5 1.5-1.5h13c0.83103 0 1.5 0.66897 1.5 1.5v-0.5c0-0.83103-0.66897-1.5-1.5-1.5z" fill="#fff" opacity=".2"/>
        <path d="m14.5 1109.8c0.83103 0 1.5-0.669 1.5-1.5v-0.5c0 0.831-0.66897 1.5-1.5 1.5h-13c-0.83103 0-1.5-0.669-1.5-1.5v0.5c0 0.831 0.66897 1.5 1.5 1.5z" opacity=".2"/>
    </g>
    <path d="m8.8084 4.414c-0.14748 0.0015712-0.29394 0.013656-0.43954 0.034593-0.58239 0.083748-1.14 0.32207-1.6055 0.70407-0.76318 0.62626-1.1648 1.5545-1.109 2.4948l-0.47006 0.038663 0.23808 2.0695 0.79157-0.089535c-0.11235-0.38714-0.16376-0.84235-0.13634-1.3267 0.014633-0.25844 0.052023-0.50509 0.10581-0.73663l-0.13023 0.010179c-0.045544-0.80944 0.30006-1.6056 0.96454-2.1509 0.81371-0.66772 1.9619-0.83357 2.9486-0.42326 0.8476 0.35249 1.4432 1.0726 1.6198 1.9128l-0.10581 0.012209c0.14203 0.34006 0.24263 0.73758 0.28488 1.168 0.03098 0.31571 0.02844 0.62018-0.0041 0.90349l0.84651-0.073256-0.20959-2.1061-0.41105 0.048837c-0.19568-0.98637-0.89169-1.8303-1.868-2.2363-0.42125-0.17519-0.86802-0.25907-1.3105-0.25436zm-0.16483 0.85262c-0.16969 0.0025004-0.31293 0.1068-0.41105 0.24419-0.098114 0.13739-0.16763 0.313-0.22384 0.52093-0.0087933 0.032507-0.016323 0.067701-0.024418 0.10174 0.20263 0.13892 0.37168 0.36482 0.49855 0.64099 0.20779 0.45234 0.31178 1.0546 0.27471 1.7093-0.03707 0.65473-0.20838 1.2391-0.46599 1.6666-0.075862 0.1259-0.16111 0.23917-0.25233 0.33576 0.011053 0.04648 0.022946 0.09756 0.034593 0.13837 0.045987 0.16114 0.088828 0.3591 0.089535 0.5311 7.078e-4 0.172-0.038237 0.30169-0.12209 0.37238-0.46114 0.38876-1.3507 0.39102-2.1468 0.28895-0.39804-0.05103-0.76963-0.12449-1.0541-0.17093-0.14222-0.02322-0.26112-0.03881-0.36018-0.04274-0.049527-2e-3 -0.094627-2e-3 -0.14244 0.0081-0.047815 0.01011-0.11785 0.03225-0.15669 0.11192-0.088555 0.18168-0.14165 0.42902-0.16686 0.6532-0.012605 0.11209-0.016926 0.21628-0.010179 0.30727 0.00338 0.04549 0.00898 0.08745 0.022383 0.13023 0.013402 0.04278 0.031437 0.09502 0.097675 0.13634 0.57374 0.35793 1.1763 0.47011 1.752 0.52907 2.1034 0.21541 4.1442 0.08289 6.1433-0.17704 0.39365-0.05118 0.9942-0.16741 1.4427-0.48634 0.22427-0.15946 0.41242-0.3764 0.49448-0.6593s0.05305-0.62049-0.11395-1.0093c-0.02073-0.04827-0.06581-0.0815-0.09767-0.0936-0.03186-0.01211-0.05371-0.01211-0.07325-0.01221-0.03908-2.11e-4 -0.06809 0.0045-0.10175 0.01221-0.06732 0.01545-0.14728 0.0409-0.24419 0.07325-0.19381 0.06471-0.45196 0.15752-0.74273 0.24215-0.58154 0.16927-1.2907 0.29917-1.8049 0.14448-0.30825-0.09272-0.56473-0.3966-0.59012-0.71221-0.0054-0.06753-0.01075-0.1503-0.01628-0.2218-0.20174-0.11006-0.38623-0.29495-0.54128-0.52902-0.27489-0.415-0.47112-0.99561-0.53518-1.6483-0.064061-0.65264 0.016724-1.2574 0.20552-1.7195 0.069375-0.16978 0.15462-0.32296 0.25436-0.44971-0.038466-0.10962-0.07939-0.21225-0.12413-0.30727-0.089476-0.19003-0.19283-0.34963-0.32151-0.46802-0.12868-0.1184-0.28999-0.19388-0.46599-0.19128zm1.6523 0.69797c-0.03067-0.00147-0.06122-7.886e-4 -0.09157 0.00203-0.67202 0.068651-1.1156 1.1544-0.99099 2.4256 0.12473 1.2713 0.77055 2.2468 1.4427 2.1794 0.67253-0.06849 1.1163-1.1555 0.99099-2.4276-0.11885-1.2036-0.7077-2.1534-1.3512-2.1794zm-2.7471 0.13837c-0.67494-0.036544-1.2809 0.96845-1.3532 2.2445-0.072127 1.2768 0.41729 2.3404 1.0927 2.3747 0.67425 0.034381 1.2789-0.96999 1.3512-2.2445 0.072076-1.2753-0.41615-2.3383-1.0907-2.3747zm3.0483 2.1549c0.05595-0.00281 0.11019 0.00543 0.16076 0.024418 0.26564 0.10091 0.37214 0.4705 0.23808 0.82616-0.13402 0.35578-0.45814 0.56336-0.72442 0.46396-0.2676-0.099576-0.37529-0.47099-0.24012-0.8282 0.10596-0.27943 0.3344-0.47583 0.5657-0.48634zm-3.0829 0.085465c0.019311-2.924e-4 0.039403 9.78e-5 0.059012 0.00203 0.31357 0.031089 0.5395 0.34175 0.50465 0.6939-0.034593 0.35235-0.31708 0.61297-0.63082 0.58198-0.31357-0.031087-0.5395-0.34175-0.50465-0.6939 0.03243-0.33033 0.28213-0.57963 0.5718-0.58401z" fill="#fff" stroke-opacity=".59237" stroke-width=".23129"/>
    <g transform="translate(1.0008 1.0005)" display="none" fill="none" opacity=".8" stroke-width=".05">
        <rect transform="rotate(90)" x="3.3425" y="-12.657" width="9.3148" height="9.3148" display="inline" opacity="1" stroke="#000"/>
        <rect x="3" y="4" width="10" height="8" opacity="1" stroke="#0091ff" stroke-linecap="round" stroke-linejoin="round"/>
        <rect transform="rotate(90)" x="3" y="-12" width="10" height="8" display="inline" opacity="1" stroke="#00ff03" stroke-linecap="round" stroke-linejoin="round"/>
    </g>
</svg>
