<?xml version="1.0" encoding="UTF-8"?>
<svg version="1.1" viewBox="0 0 18.001 18" xmlns="http://www.w3.org/2000/svg">
    <g transform="translate(1.0008 -1092.8)">
        <rect x="9.5745e-5" y="1093.8" width="16" height="16" rx="1.5001" ry="1.5001" fill="#00bcd4"/>
        <path transform="translate(-1.0008 1092.8)" d="m2.5 1c-0.83103 0-1.5 0.66897-1.5 1.5v0.5c0-0.83103 0.66897-1.5 1.5-1.5h13c0.83103 0 1.5 0.66897 1.5 1.5v-0.5c0-0.83103-0.66897-1.5-1.5-1.5z" fill="#fff" opacity=".2"/>
        <path d="m14.5 1109.8c0.83103 0 1.5-0.669 1.5-1.5v-0.5c0 0.831-0.66897 1.5-1.5 1.5h-13c-0.83103 0-1.5-0.669-1.5-1.5v0.5c0 0.831 0.66897 1.5 1.5 1.5z" opacity=".2"/>
    </g>
    <g transform="translate(1.0008 1.0005)">
        <path transform="translate(-1.0008 -1.0005)" d="m9 3.998c-0.087784 0-0.17557 0.022187-0.25391 0.068359l-3.8281 2.248-0.0058594 0.0019531c-0.0043681 0.0025603-0.0064909 0.0050445-0.0097656 0.0078126-0.14616 0.090902-0.23613 0.25083-0.23633 0.42383v4.5039c-3.114e-4 0.17734 0.093327 0.34158 0.24609 0.43164l3.834 2.25c0.078194 0.046157 0.16508 0.0692 0.25 0.070312 0.0032884 4.3e-5 0.006483 2.5e-5 0.0097656 0 0.0065651-4.8e-5 0.012997 3.18e-4 0.019531 0-1.599e-4 -7.08e-4 1.586e-4 -0.001247 0-0.001953 0.077233-0.003628 0.15434-0.024655 0.22852-0.068359l3.834-2.25c0.15277-0.09006 0.2464-0.2543 0.24609-0.43164v-4.5039c-2.02e-4 -0.17745-0.095155-0.34014-0.24805-0.42969 7.71e-4 -5.809e-4 0.001177-0.0013727 0.001953-0.0019532l-0.00586-0.0019531-3.8281-2.248c-0.078338-0.046172-0.16612-0.068359-0.25391-0.068359zm0 1.0781 2.8457 1.6719-2.8457 1.6719-2.8438-1.6719 2.8438-1.6719zm-3.334 2.5469 2.834 1.6641v3.3418l-2.834-1.6641v-3.3418zm6.668 0v3.3418l-2.834 1.6641v-3.3418l2.834-1.6641z" color="#000000" fill="#fff" stroke-linecap="round" stroke-linejoin="round" style="-inkscape-stroke:none"/>
    </g>
    <g transform="translate(1.0008 1.0005)" display="none" fill="none" opacity=".8" stroke-width=".05">
        <rect transform="rotate(90)" x="3.3425" y="-12.657" width="9.3148" height="9.3148" display="inline" opacity="1" stroke="#000"/>
        <rect x="3" y="4" width="10" height="8" opacity="1" stroke="#0091ff" stroke-linecap="round" stroke-linejoin="round"/>
        <rect transform="rotate(90)" x="3" y="-12" width="10" height="8" display="inline" opacity="1" stroke="#00ff03" stroke-linecap="round" stroke-linejoin="round"/>
    </g>
</svg>
