<?xml version="1.0" encoding="UTF-8"?>
<svg version="1.1" viewBox="0 0 18.001 18" xmlns="http://www.w3.org/2000/svg">
    <g transform="translate(1.0008 -1092.8)">
        <rect x="9.5745e-5" y="1093.8" width="16" height="16" rx="1.5001" ry="1.5001" fill="#607d8b"/>
        <path transform="translate(-1.0008 1092.8)" d="m2.5 1c-0.83103 0-1.5 0.66897-1.5 1.5v0.5c0-0.83103 0.66897-1.5 1.5-1.5h13c0.83103 0 1.5 0.66897 1.5 1.5v-0.5c0-0.83103-0.66897-1.5-1.5-1.5z" fill="#fff" opacity=".2"/>
        <path d="m14.5 1109.8c0.83103 0 1.5-0.669 1.5-1.5v-0.5c0 0.831-0.66897 1.5-1.5 1.5h-13c-0.83103 0-1.5-0.669-1.5-1.5v0.5c0 0.831 0.66897 1.5 1.5 1.5z" opacity=".2"/>
    </g>
    <g transform="translate(1.0008 1.0005)">
        <g transform="translate(-6.5008 -6.5005)" stroke-width="1px">
            <path d="m14.634 18.509q0.41931 0 0.73694-0.01271 0.33036-0.02541 0.54637-0.07624v-1.9695q-0.12706-0.06353-0.41931-0.10165-0.27954-0.05082-0.68615-0.05082-0.26683 0-0.57179 0.03812-0.29225 0.03812-0.54637 0.16519-0.24142 0.11435-0.40661 0.33036-0.16518 0.2033-0.16518 0.54637 0 0.63532 0.40661 0.88942 0.40661 0.24142 1.1054 0.24142zm-0.10165-5.9212q0.71158 0 1.1944 0.1906 0.49555 0.17789 0.78779 0.52096 0.30495 0.33036 0.43202 0.80054 0.12706 0.45743 0.12706 1.0165v4.1296q-0.15248 0.02541-0.43202 0.07624-0.26683 0.03812-0.6099 0.07624t-0.74968 0.06353q-0.3939 0.03812-0.78779 0.03812-0.55908 0-1.0292-0.11435-0.47014-0.11436-0.81322-0.35578-0.34307-0.25413-0.53367-0.66073t-0.1906-0.97838q0-0.54637 0.21601-0.94028 0.22872-0.3939 0.6099-0.63532 0.3812-0.24142 0.88942-0.35578 0.50826-0.11436 1.0673-0.11436 0.17789 0 0.36848 0.02541 0.1906 0.01271 0.35578 0.05082 0.17789 0.02541 0.30495 0.05082t0.17789 0.03812v-0.33036q0-0.29225-0.06353-0.57179-0.06353-0.29225-0.22872-0.50826-0.16518-0.22872-0.45743-0.35578-0.27954-0.13977-0.73694-0.13977-0.58449 0-1.0292 0.08894-0.43202 0.07624-0.64803 0.16518l-0.13977-0.97838q0.22872-0.10165 0.76236-0.1906 0.53367-0.10165 1.1563-0.10165zm1.7281-2.338-1.7916 1.7407-0.5972-0.53367 1.6264-1.9568z" fill="#fff" stroke-width=".70044px"/>
        </g>
    </g>
    <g transform="translate(1.0008 1.0005)" display="none" fill="none" opacity=".8" stroke-width=".05">
        <rect transform="rotate(90)" x="3.3425" y="-12.657" width="9.3148" height="9.3148" display="inline" opacity="1" stroke="#000"/>
        <rect x="3" y="4" width="10" height="8" opacity="1" stroke="#0091ff" stroke-linecap="round" stroke-linejoin="round"/>
        <rect transform="rotate(90)" x="3" y="-12" width="10" height="8" display="inline" opacity="1" stroke="#00ff03" stroke-linecap="round" stroke-linejoin="round"/>
    </g>
</svg>
