<?xml version="1.0" encoding="UTF-8"?>
<svg version="1.1" viewBox="0 0 18.001 18" xmlns="http://www.w3.org/2000/svg">
    <defs>
        <linearGradient id="linearGradient4461" x1="10.5" x2="10.5" y1="-9.5005" y2="-9.0005" gradientTransform="rotate(90.002 .00019338 1.0006)" gradientUnits="userSpaceOnUse">
            <stop stop-color="#ff000f" offset="0"/>
            <stop stop-color="#19ff00" offset="1"/>
        </linearGradient>
        <linearGradient id="linearGradient4891" x1="-5.4999" x2="-5.4999" y1="6.5001" y2="7.0001" gradientTransform="rotate(-89.999 1.0007 -.00017629)" gradientUnits="userSpaceOnUse">
            <stop stop-color="#ff8300" offset="0"/>
            <stop stop-color="#00ff94" offset="1"/>
        </linearGradient>
    </defs>
    <g transform="translate(1.0008 -1092.8)">
        <rect x="9.5745e-5" y="1093.8" width="16" height="16" rx="1.5001" ry="1.5001" fill="#2196f3"/>
        <path transform="translate(-1.0008 1092.8)" d="m2.5 1c-0.83103 0-1.5 0.66897-1.5 1.5v0.5c0-0.83103 0.66897-1.5 1.5-1.5h13c0.83103 0 1.5 0.66897 1.5 1.5v-0.5c0-0.83103-0.66897-1.5-1.5-1.5z" fill="#fff" opacity=".2"/>
        <path d="m14.5 1109.8c0.83103 0 1.5-0.669 1.5-1.5v-0.5c0 0.831-0.66897 1.5-1.5 1.5h-13c-0.83103 0-1.5-0.669-1.5-1.5v0.5c0 0.831 0.66897 1.5 1.5 1.5z" opacity=".2"/>
    </g>
    <g transform="translate(.97122 1.0156)">
        <path transform="translate(-.97122 -1.0156)" d="m7.9707 4.0156c-0.125 0-0.22806 0.093428-0.24805 0.21094l-0.1875 1.3242c-0.305 0.1275-0.58818 0.29218-0.8457 0.49219l-1.2441-0.50195c-0.1125-0.042499-0.24218-7.81e-5 -0.30469 0.10742l-1 1.7324c-0.0625 0.1075-0.036406 0.2428 0.058594 0.32031l1.0566 0.82617c-0.020001 0.16-0.035156 0.32329-0.035156 0.48828s0.015156 0.32829 0.035156 0.48828l-1.0566 0.82617c-0.095 0.075001-0.12109 0.21032-0.058594 0.32031l1 1.7324c0.0625 0.1075 0.19219 0.15242 0.30469 0.10742l1.2441-0.50195c0.25749 0.1975 0.5407 0.36469 0.8457 0.49219l0.1875 1.3242c0.02 0.1175 0.12306 0.21094 0.24805 0.21094h2c0.125 0 0.2261-0.093438 0.24609-0.21094l0.091797-0.64648h-0.80859v-2.4746c-0.16737 0.053095-0.3442 0.082031-0.5293 0.082031-0.96751 0-1.75-0.7825-1.75-1.75 0-0.96751 0.7825-1.75 1.75-1.75 0.78825 0 1.4523 0.5187 1.6719 1.2344h2.0781l1.0215-0.79883c0.094999-0.075001 0.12305-0.21032 0.060546-0.32031l-1-1.7324c-0.0625-0.1075-0.19219-0.15242-0.30469-0.10742l-1.2461 0.50195c-0.25749-0.1975-0.53875-0.36469-0.84375-0.49219l-0.1875-1.3242c-0.0225-0.1175-0.125-0.21094-0.25-0.21094h-2zm2.0293 4.9844v3.6582h3.6582v-3.6582h-3.6582zm0.068359 0.066406 0.44336 0.375h2.6348l0.44531-0.375-0.375 0.44531v2.6348l0.375 0.44531-0.44531-0.375h-2.6348l-0.44336 0.375 0.37305-0.44531v-2.6348l-0.37305-0.44531zm1.7617 0.52148a0.44994 0.37187 0 0 0-0.44922 0.37109 0.44994 0.37187 0 0 0 0.44922 0.37305 0.44994 0.37187 0 0 0 0.44922-0.37305 0.44994 0.37187 0 0 0-0.44922-0.37109zm-0.35352 0.92188c-0.032281 0.006575-0.05664 0.036036-0.05664 0.070312v1.4199c0 0.03918 0.033095 0.072266 0.072266 0.072266h0.67578c0.03917 0 0.070312-0.033096 0.070312-0.072266v-1.4199c0-0.039173-0.031142-0.070312-0.070312-0.070312h-0.67578c-0.004897 0-0.011014-9.4e-4 -0.015626 0z" fill="#fff"/>
    </g>
    <g transform="translate(1.0008 1.0005)" display="none" fill="none" opacity=".67119" stroke-width=".05">
        <rect transform="rotate(90)" x="3.3425" y="-12.657" width="9.3148" height="9.3148" display="inline" opacity="1" stroke="#000"/>
        <rect x="3" y="4" width="10" height="8" opacity="1" stroke="#0091ff" stroke-linecap="round" stroke-linejoin="round"/>
        <rect transform="rotate(90)" x="3" y="-12" width="10" height="8" display="inline" opacity="1" stroke="#00ff03" stroke-linecap="round" stroke-linejoin="round"/>
    </g>
    <g display="none" fill="none" stroke-linecap="square" stroke-width=".05">
        <path d="m13.658 8.0007-2.46e-4 5.6574-3.6573-1.59e-4 2.46e-4 -5.6574z" display="inline" opacity=".62506" stroke="url(#linearGradient4461)" style="paint-order:markers stroke fill"/>
        <path d="m4.3436 10 5.3e-5 -5.6574 3.6573 3.43e-5 -5.3e-5 5.6574z" display="inline" opacity=".62506" stroke="url(#linearGradient4891)" style="paint-order:markers stroke fill"/>
    </g>
</svg>
