<?xml version="1.0" encoding="UTF-8"?>
<svg version="1.1" viewBox="0 0 18.001 18" xmlns="http://www.w3.org/2000/svg">
    <g transform="translate(1.0008 -1092.8)">
        <rect x="9.5745e-5" y="1093.8" width="16" height="16" rx="1.5001" ry="1.5001" fill="#673ab7"/>
        <path transform="translate(-1.0008 1092.8)" d="m2.5 1c-0.83103 0-1.5 0.66897-1.5 1.5v0.5c0-0.83103 0.66897-1.5 1.5-1.5h13c0.83103 0 1.5 0.66897 1.5 1.5v-0.5c0-0.83103-0.66897-1.5-1.5-1.5z" fill="#fff" opacity=".2"/>
        <path d="m14.5 1109.8c0.83103 0 1.5-0.669 1.5-1.5v-0.5c0 0.831-0.66897 1.5-1.5 1.5h-13c-0.83103 0-1.5-0.669-1.5-1.5v0.5c0 0.831 0.66897 1.5 1.5 1.5z" opacity=".2"/>
    </g>
    <g transform="translate(1.0008 1.0005)">
        <g transform="matrix(.56732 0 0 .56732 -62.854 -50.89)" stroke-width="1.7627">
            <g transform="matrix(.12546 0 0 .12546 113.48 92.375)" stroke-width="10.718">
                <g stroke-width="10.718">
                    <path transform="matrix(6.0807,0,0,6.0807,-184.89,-3.2133)" d="m55.336 3.957c-1.7254-0.036424-4.3855 1.3715-5.623 2.9688-0.08223-0.049337-0.16406-0.16531-0.16406-0.29688 0.04934-0.49337-0.21437-0.9034-0.57617-1.1172-0.74005-0.37825-1.4462 2.647e-4 -1.7422 0.54297-0.08223 0.13156-0.21496 0.2134-0.33008 0.16406-0.13156 0-0.24609-0.13097-0.24609-0.24609-0.08223-0.41114-0.32878-0.73984-0.70703-0.9043-0.78939-0.32891-1.6126 0.13104-1.7441 0.87109-0.04934 0.13156-0.13098 0.24609-0.24609 0.24609-0.13156 0.049337-0.2459-0.048944-0.32812-0.16406-0.24668-0.37825-0.65917-0.625-1.0703-0.625-0.65782 0-1.2503 0.54335-1.2832 1.2012v0.097656c0 0.13156-0.08183 0.24754-0.16406 0.29688h-0.04883c-1.365-1.7761-4.6875-3.404-6.332-2.8613-1.3321 0.46048-0.70678 7.0051 0.6582 8.7812 0.24668 0.32891 0.46054 0.57578 0.625 0.74024-0.04934 0.13156-0.16531 0.24609-0.29688 0.24609-0.21379 0-0.40976 0.08328-0.57422 0.21484-0.87162 0.82228-0.37943 1.9893 0.49219 2.2031 0.13156 0.04934 0.24805 0.16336 0.24805 0.29492s-0.08328 0.29719-0.21484 0.33008c-0.16446 0.08223-0.32937 0.16367-0.46094 0.32812-0.65782 0.95384 0.0017 2.0234 0.90625 2.0234 0.13156 0 0.24558 0.08133 0.29492 0.21289s0.04953 0.24785-0.08203 0.33008c-0.24668 0.24668-0.37746 0.57538-0.32812 0.9043 0.04934 0.46048 0.32859 0.87101 0.78906 1.0684 0.24668 0.13156 0.49355 0.13137 0.74024 0.08203 0.13156-0.04934 0.2459 0.0012 0.32812 0.13281 0.08223 0.08223 0.08172 0.2459 0.04883 0.32812-0.13156 0.24669-0.16426 0.54269-0.08203 0.82227 0.13156 0.46048 0.46027 0.78918 0.9043 0.9043 0.41114 0.08223 0.70695-0.04863 0.9043-0.13086 0.08223-0.04934-0.5423 1.4971-0.98633 2.5332-0.13156 0.32891 0.21437 0.70547 0.57617 0.54102 1.365-0.62493 3.6504-1.6936 3.6504-1.6113 0.08223 0.87162 1.0696 1.496 2.0234 0.87109 0.21379-0.13156 0.32957-0.37687 0.37891-0.57422 0.04934-0.13156 0.16367-0.24805 0.32812-0.24805 0.16446 0 0.29523 0.08359 0.32813 0.24805 0.04934 0.21379 0.13242 0.37707 0.29687 0.49219 0.95385 0.74005 2.0232 0.13189 2.1055-0.78906 0-0.13156 0.08133-0.24558 0.21289-0.29492s0.24785-1.96e-4 0.33008 0.08203c0.24668 0.24668 0.54218 0.41016 0.87109 0.41016 0.41114 0 0.82168-0.21386 1.0684-0.625 0.16446-0.24668 0.2134-0.49335 0.16406-0.82227 0-0.13156 0.05058-0.2459 0.13281-0.32812 0.08223-0.08223 0.2459-0.08223 0.32812 0 0.24668 0.13156 0.54269 0.21309 0.82227 0.13086 0.46048-0.08223 0.82156-0.45996 0.95312-0.87109 0.08223-0.29602 0.04954-0.57507-0.08203-0.87109-0.04934-0.13156-0.04789-0.24785 0.05078-0.33008s0.21301-0.13086 0.32812-0.13086c0.29602 0.04934 0.54238 0.04953 0.78906-0.08203 0.37825-0.16446 0.6248-0.49316 0.70703-0.9043s-0.04855-0.79074-0.32812-1.0703c-0.08223-0.08223-0.13137-0.21301-0.08203-0.32812 0.04934-0.11512 0.16336-0.21289 0.29492-0.21289 0.29602 0 0.62492-0.08339 0.82227-0.33008 0.70716-0.74005 0.37923-1.7434-0.41016-2.0723-0.13157-0.04934-0.21484-0.16367-0.21484-0.32812 0-0.14801 0.11648-0.26367 0.24805-0.26367 0.24668-0.04934 0.46054-0.16367 0.625-0.32812 0.65782-0.87162 0.13138-1.9407-0.74024-2.0723-0.13156 0-0.24805-0.13293-0.24805-0.24805v-0.08203c0.13156-0.13156 0.24765-0.29433 0.41211-0.54102 1.3321-1.7761 1.9406-8.3222 0.625-8.832-0.20146-0.067838-0.4293-0.10222-0.67579-0.10742zm-19.018 2.0078c0.77256-0.051264 1.9293 0.44425 2.7207 1.0918-0.11512 0.13156-0.19676 0.29648-0.24609 0.46094-0.08223 0.24668-0.08223 0.49355 0 0.74023 0.04934 0.11512 1.96e-4 0.2459-0.08203 0.32812-0.08223 0.082228-0.19656 0.13332-0.32813 0.083984-0.24668-0.098674-0.49355-0.13301-0.74023-0.050781-0.44403 0.13156-0.82207 0.4946-0.9043 0.95508-0.04934 0.32891-9.02e-4 0.6571 0.21289 0.95313 0.04934 0.08223 0.08223 0.19656 0 0.32812l-0.13086 0.13281c-0.29602-0.04934-0.49375-0.16542-0.6582-0.41211-0.7565-1.0361-0.88849-4.308-0.14844-4.5547 0.09251-0.030836 0.19432-0.049317 0.30469-0.056641zm18.043 0.03125c0.1077 0.00867 0.20828 0.027758 0.30078 0.058594 0.74005 0.24668 0.60919 3.5186-0.13086 4.5547-0.13156 0.16446-0.29648 0.28074-0.46094 0.33008-0.08223 0-0.11472-0.08348-0.16406-0.13281-0.08223-0.08223-0.08223-0.2459 0-0.32812 0.13156-0.19735 0.21484-0.41152 0.21484-0.6582 0.04934-0.29602-0.08359-0.57527-0.24805-0.78906-0.24668-0.32891-0.57488-0.49414-0.95312-0.49414-0.16446 0-0.32968-1.967e-4 -0.49414 0.082031-0.11512 0.049337-0.2459 1.967e-4 -0.32812-0.082031-0.08223-0.082228-0.13137-0.19656-0.08203-0.32812 0.08223-0.24668 0.08223-0.49355 0-0.74023-0.03289-0.21379-0.11598-0.34551-0.29688-0.42773 0.80583-0.64754 1.8887-1.1056 2.6426-1.0449zm-13.939 8.5605a1.5294 1.5294 0 0 1 1.5293 1.5293 1.5294 1.5294 0 0 1-1.5293 1.5293 1.5294 1.5294 0 0 1-1.5293-1.5293 1.5294 1.5294 0 0 1 1.5293-1.5293zm9.9824 0a1.5294 1.5294 0 0 1 1.5293 1.5293 1.5294 1.5294 0 0 1-1.5293 1.5293 1.5294 1.5294 0 0 1-1.5293-1.5293 1.5294 1.5294 0 0 1 1.5293-1.5293zm-4.9668 0.89453c0.76472-0.0062 1.5293 0.19896 1.5293 0.63477 0 0.87162-0.70702 1.5293-1.5293 1.5293-0.87162 0-1.5293-0.70702-1.5293-1.5293 0-0.41114 0.76458-0.6286 1.5293-0.63477z" fill="#fff" stroke-width="1.7627"/>
                </g>
            </g>
        </g>
    </g>
    <g transform="translate(1.0008 1.0005)" display="none" fill="none" opacity=".8" stroke-width=".05">
        <rect transform="rotate(90)" x="3.3425" y="-12.657" width="9.3148" height="9.3148" display="inline" opacity="1" stroke="#000"/>
        <rect x="3" y="4" width="10" height="8" opacity="1" stroke="#0091ff" stroke-linecap="round" stroke-linejoin="round"/>
        <rect transform="rotate(90)" x="3" y="-12" width="10" height="8" display="inline" opacity="1" stroke="#00ff03" stroke-linecap="round" stroke-linejoin="round"/>
    </g>
</svg>
