<?xml version="1.0" encoding="UTF-8"?>
<svg version="1.1" viewBox="0 0 18.001 18" xmlns="http://www.w3.org/2000/svg">
    <g transform="translate(1.0008 -1092.8)">
        <rect x="9.5745e-5" y="1093.8" width="16" height="16" rx="1.5001" ry="1.5001" fill="#e91e63"/>
        <path transform="translate(-1.0008 1092.8)" d="m2.5 1c-0.83103 0-1.5 0.66897-1.5 1.5v0.5c0-0.83103 0.66897-1.5 1.5-1.5h13c0.83103 0 1.5 0.66897 1.5 1.5v-0.5c0-0.83103-0.66897-1.5-1.5-1.5z" fill="#fff" opacity=".2"/>
        <path d="m14.5 1109.8c0.83103 0 1.5-0.669 1.5-1.5v-0.5c0 0.831-0.66897 1.5-1.5 1.5h-13c-0.83103 0-1.5-0.669-1.5-1.5v0.5c0 0.831 0.66897 1.5 1.5 1.5z" opacity=".2"/>
    </g>
    <g transform="translate(1.0008 1.0005)" display="none">
        <g transform="matrix(.019531 0 0 .019531 3 3)">
            <path d="m504.6 297.42-55.473-155.29c-13.296-37.221-48.554-62.067-88.079-62.067h-210.09c-39.525 0-74.783 24.845-88.079 62.067l-55.472 155.29c-13.922 38.973-7.987 82.285 15.905 116.08 17.318 24.493 53.611 24.62 71.1 0.249l55.094-76.776c6.832-9.521 17.833-15.167 29.551-15.167h153.89c11.719 0 22.719 5.646 29.551 15.167l55.094 76.776c17.489 24.371 53.782 24.244 71.1-0.249 23.893-33.792 29.828-77.104 15.906-116.08z" fill="#407093"/>
            <path d="m177.43 144.77h-19.794c-1.148 0-2.078-0.931-2.078-2.078v-19.794c0-3.444-2.792-6.235-6.235-6.235h-21.337c-3.444 0-6.235 2.792-6.235 6.235v19.794c0 1.148-0.931 2.078-2.078 2.078h-19.795c-3.444 0-6.235 2.792-6.235 6.235v21.337c0 3.444 2.792 6.235 6.235 6.235h19.794c1.148 0 2.078 0.931 2.078 2.078v19.794c0 3.444 2.792 6.235 6.235 6.235h21.337c3.444 0 6.235-2.792 6.235-6.235v-19.794c0-1.148 0.931-2.078 2.078-2.078h19.794c3.444 0 6.235-2.792 6.235-6.235v-21.337c1e-3 -3.443-2.791-6.235-6.234-6.235z" fill="#dae7ef"/>
            <circle cx="313.92" cy="253.1" r="37.824" fill="#dae7ef"/>
            <circle cx="198.2" cy="253.1" r="37.824" fill="#dae7ef"/>
            <circle cx="256.17" cy="152.46" r="22.492" fill="#dae7ef"/>
            <path d="m372.92 121.1c-6.973 0-12.626 5.653-12.626 12.626s5.653 12.626 12.626 12.626c6.974 0 12.626-5.653 12.626-12.626s-5.652-12.626-12.626-12.626z" fill="#f6e266"/>
            <path d="m372.92 202.47c6.974 0 12.626-5.653 12.626-12.626s-5.653-12.626-12.626-12.626-12.626 5.653-12.626 12.626 5.653 12.626 12.626 12.626z" fill="#86f1a7"/>
            <circle cx="400.98" cy="161.78" r="12.626" fill="#dd5790"/>
            <path d="m357.49 161.78c0-6.973-5.653-12.626-12.627-12.626-6.973 0-12.626 5.653-12.626 12.626s5.653 12.626 12.626 12.626c6.974 1e-3 12.627-5.653 12.627-12.626z" fill="#61a2f9"/>
            <path d="m313.92 298.42c-24.992 0-45.324-20.332-45.324-45.324s20.332-45.324 45.324-45.324 45.324 20.333 45.324 45.324-20.331 45.324-45.324 45.324zm0-75.648c-16.721 0-30.324 13.604-30.324 30.324s13.604 30.324 30.324 30.324 30.324-13.603 30.324-30.324-13.603-30.324-30.324-30.324z" fill="#dd5790"/>
            <path d="m198.2 298.42c-24.992 0-45.324-20.333-45.324-45.324s20.332-45.324 45.324-45.324 45.324 20.333 45.324 45.324-20.332 45.324-45.324 45.324zm0-75.648c-16.721 0-30.324 13.604-30.324 30.324s13.604 30.324 30.324 30.324 30.324-13.604 30.324-30.324-13.604-30.324-30.324-30.324z" fill="#dd5790"/>
        </g>
    </g>
    <path d="m6.9492 5.5645c-0.77197 0-1.461 0.48394-1.7207 1.2109l-1.084 3.0332c-0.27191 0.76119-0.15414 1.6076 0.3125 2.2676 0.33824 0.47838 1.0471 0.48186 1.3887 0.0059l1.0742-1.5c0.13344-0.18596 0.34926-0.29688 0.57812-0.29688h3.0059c0.22889 0 0.44273 0.11092 0.57617 0.29688l1.0762 1.5c0.34158 0.476 1.0504 0.47252 1.3887-0.0059 0.46666-0.66 0.58246-1.5064 0.31055-2.2676l-1.082-3.0332c-0.25969-0.72697-0.94873-1.2109-1.7207-1.2109zm-0.46094 0.71484c0.00409-4.158e-4 0.00751 0 0.011719 0h0.41797c0.067246 0 0.12109 0.053828 0.12109 0.12109v0.38672c0 0.022402 0.018594 0.041016 0.041016 0.041016h0.38672c0.067246 0 0.12111 0.053848 0.12109 0.12109v0.41797c0 0.067247-0.053828 0.12109-0.12109 0.12109h-0.38672c-0.022402 1e-7 -0.041016 0.018594-0.041016 0.041016v0.38672c0 0.067247-0.053828 0.12109-0.12109 0.12109h-0.41797c-0.067247 0-0.12109-0.053828-0.12109-0.12109v-0.38672c1e-7 -0.022402-0.018594-0.041016-0.041016-0.041016h-0.38672c-0.067247 0-0.12109-0.053828-0.12109-0.12109v-0.41797c0-0.067247 0.053828-0.12109 0.12109-0.12109h0.38672c0.022402 0 0.041016-0.018594 0.041016-0.041016v-0.38672c1e-7 -0.063044 0.047961-0.11486 0.10937-0.12109zm4.7832 0.085937c0.0042-2.131e-4 0.0094 0 0.01367 0 0.13621 0 0.24609 0.1099 0.24609 0.24609s-0.10988 0.24805-0.24609 0.24805c-0.13619 0-0.24805-0.11186-0.24805-0.24805 0-0.13194 0.10408-0.23949 0.23438-0.24609zm-2.2676 0.17383a0.4393 0.4393 0 0 1 0.43945 0.43945 0.4393 0.4393 0 0 1-0.43945 0.43945 0.4393 0.4393 0 0 1-0.43945-0.43945 0.4393 0.4393 0 0 1 0.43945-0.43945zm1.707 0.375c0.0083-8.419e-4 0.01688 0 0.02539 0 0.13621 0 0.24609 0.1099 0.24609 0.24609s-0.10988 0.24611-0.24609 0.24609c-0.13619 0-0.24609-0.1099-0.24609-0.24609 0-0.12768 0.09635-0.23346 0.2207-0.24609zm1.1211 0a0.2466 0.2466 0 0 1 0.24609 0.24609 0.2466 0.2466 0 0 1-0.24609 0.24609 0.2466 0.2466 0 0 1-0.24609-0.24609 0.2466 0.2466 0 0 1 0.24609-0.24609zm-0.54688 0.54688c0.13619 0 0.24609 0.11186 0.24609 0.24805s-0.10988 0.24609-0.24609 0.24609c-0.13619 0-0.24805-0.1099-0.24805-0.24609s0.11186-0.24805 0.24805-0.24805zm-3.4141 0.59766c0.48813 0 0.88672 0.39666 0.88672 0.88477s-0.39859 0.88477-0.88672 0.88477-0.88477-0.39666-0.88477-0.88477 0.39664-0.88477 0.88477-0.88477zm2.2617 0c0.48813 0 0.88477 0.39666 0.88477 0.88477s-0.39662 0.88477-0.88477 0.88477c-0.48812 0-0.88672-0.39664-0.88672-0.88477-1e-7 -0.48813 0.39859-0.88477 0.88672-0.88477z" fill="#fff" stroke-width=".019531"/>
    <g transform="translate(1.0008 1.0005)" display="none" fill="none" opacity=".8" stroke-width=".05">
        <rect transform="rotate(90)" x="3.3425" y="-12.657" width="9.3148" height="9.3148" display="inline" opacity="1" stroke="#000"/>
        <rect x="3" y="4" width="10" height="8" opacity="1" stroke="#0091ff" stroke-linecap="round" stroke-linejoin="round"/>
        <rect transform="rotate(90)" x="3" y="-12" width="10" height="8" display="inline" opacity="1" stroke="#00ff03" stroke-linecap="round" stroke-linejoin="round"/>
    </g>
</svg>
