<?xml version="1.0" encoding="UTF-8"?>
<svg version="1.1" viewBox="0 0 18.001 18" xmlns="http://www.w3.org/2000/svg">
    <g transform="translate(1.0008 -1092.8)">
        <rect x="9.5745e-5" y="1093.8" width="16" height="16" rx="1.5001" ry="1.5001" fill="#3f51b5"/>
        <path transform="translate(-1.0008 1092.8)" d="m2.5 1c-0.83103 0-1.5 0.66897-1.5 1.5v0.5c0-0.83103 0.66897-1.5 1.5-1.5h13c0.83103 0 1.5 0.66897 1.5 1.5v-0.5c0-0.83103-0.66897-1.5-1.5-1.5z" fill="#fff" opacity=".2"/>
        <path d="m14.5 1109.8c0.83103 0 1.5-0.669 1.5-1.5v-0.5c0 0.831-0.66897 1.5-1.5 1.5h-13c-0.83103 0-1.5-0.669-1.5-1.5v0.5c0 0.831 0.66897 1.5 1.5 1.5z" opacity=".2"/>
    </g>
    <g transform="translate(1.0008 1.0005)" fill="#fff">
        <g transform="matrix(.68845 -.40519 .40519 .68845 -1.7477 5.734)">
            <path transform="matrix(1.0788 .63495 -.63495 1.0788 5.0818 -6.7912)" d="m8.7812 5.1035v7.793h1.207v-2.7246l0.45508-0.64258 2.1914 3.3672h1.3965l-2.6699-4.3262 2.4824-3.4668h-1.3848l-2.4707 3.2969v-3.2969h-1.207zm-1.9961 0.023438c-0.017369-0.001492-0.035321-9.896e-4 -0.052734 0.0019531-0.023217 0.0039199-0.046846 0.012729-0.068359 0.025391l-1.377 0.81055c-0.086056 0.050648-0.11784 0.15514-0.083984 0.24414l0.40625 0.98633c-0.15832 0.21136-0.28656 0.44155-0.38281 0.68359l-1.0605 0.1582c-0.09467 0.016325-0.16654 0.097929-0.16602 0.19727l0.013672 1.5977c5.292e-4 0.099333 0.075066 0.18044 0.17188 0.19531l1.0625 0.14453c0.05106 0.11826 0.10307 0.23602 0.16992 0.34961 0.066851 0.11359 0.14406 0.21827 0.22266 0.32031l-0.38867 0.99609c-0.035014 0.090125-0.0016567 0.19569 0.085938 0.24609l1.3926 0.78711c0.086586 0.048682 0.19274 0.027737 0.25195-0.048828l0.6543-0.85156c0.20688 0.025443 0.41652 0.031099 0.62695 0.013672v-1.6113c-0.56383 0.10777-1.1587-0.13857-1.4668-0.66211-0.39202-0.66608-0.17194-1.522 0.49414-1.9141 0.30484-0.17941 0.651-0.2294 0.97266-0.16797v-1.6094c-0.22354-0.020048-0.45153-0.017283-0.67773 0.013672l-0.66406-0.83789c-0.035493-0.040374-0.084611-0.063883-0.13672-0.068359z" fill="#fff"/>
        </g>
    </g>
    <g transform="translate(1.0008 1.0005)" display="none" fill="none" opacity=".8" stroke-width=".05">
        <rect transform="rotate(90)" x="3.3425" y="-12.657" width="9.3148" height="9.3148" display="inline" opacity="1" stroke="#000"/>
        <rect x="3" y="4" width="10" height="8" opacity="1" stroke="#0091ff" stroke-linecap="round" stroke-linejoin="round"/>
        <rect transform="rotate(90)" x="3" y="-12" width="10" height="8" display="inline" opacity="1" stroke="#00ff03" stroke-linecap="round" stroke-linejoin="round"/>
    </g>
</svg>
