<?xml version="1.0" encoding="UTF-8"?>
<svg version="1.1" viewBox="0 0 18.001 18" xmlns="http://www.w3.org/2000/svg">
    <g transform="translate(1.0008 -1092.8)">
        <rect x="9.5745e-5" y="1093.8" width="16" height="16" rx="1.5001" ry="1.5001" fill="#ff9800"/>
        <path transform="translate(-1.0008 1092.8)" d="m2.5 1c-0.83103 0-1.5 0.66897-1.5 1.5v0.5c0-0.83103 0.66897-1.5 1.5-1.5h13c0.83103 0 1.5 0.66897 1.5 1.5v-0.5c0-0.83103-0.66897-1.5-1.5-1.5z" fill="#fff" opacity=".2"/>
        <path d="m14.5 1109.8c0.83103 0 1.5-0.669 1.5-1.5v-0.5c0 0.831-0.66897 1.5-1.5 1.5h-13c-0.83103 0-1.5-0.669-1.5-1.5v0.5c0 0.831 0.66897 1.5 1.5 1.5z" opacity=".2"/>
    </g>
    <g transform="translate(1.0008 1.0005)">
        <path d="m3.583 3.1494c-0.30025 0.30327-0.5543 0.78642-0.57798 1.293-0.02856 0.61105 0.06517 1.0276 0.27608 1.5949 0.21842 0.58749 0.72831 0.8019 1.1242 0.87392 0.19819 0.035672 0.38153 0.038682 0.51442 0.033765 0 0 0.41051-0.05408 0.72098-0.42703 0.25202-0.30275 0.32772-0.75475 0.32772-0.75475 0.0062362-0.062464 0.0087256-0.1327-0.013903-0.35155-0.02263-0.21885-0.1843-0.56412-0.61969-0.8044-0.19356-0.10677-0.37123-0.19003-0.56606-0.27608-0.19482-0.08605-0.2894-0.12743-0.37936-0.1728-0.23275-0.11514-0.38607-0.24717-0.53825-0.44888-0.13299-0.17626-0.18255-0.31824-0.26813-0.5601zm2.8442 2.7409c-0.017911 0.1157-0.10057 0.54455-0.42107 0.92953-0.27947 0.33571-0.62843 0.48591-0.83817 0.55017 0.025179 0.037325 0.048902 0.074953 0.075475 0.11123 0.20406 0.27857 0.44936 0.52769 0.72694 0.73687 0.6839 0.51435 1.6226 1.0924 2.6357 1.6366 0.044869-0.15106 0.076228-0.31152 0.10129-0.47867l0.12314-0.82228 0.67729 0.48463c0.77559 0.55519 1.1353 1.2913 1.3208 1.8948 0.631 0.27302 1.2425 0.50875 1.7935 0.68126 0.12352 0.03868 0.25764-0.0097 0.32971-0.11718 0.04045-0.06028 0.05448-0.13014 0.04568-0.19862-0.0068-0.05327-0.02765-0.10539-0.06356-0.14896-1.2997-1.5753-3.621-3.6595-5.317-4.741-0.38216-0.24333-0.82632-0.40777-1.1897-0.51839zm2.7846 3.5612c-0.07376 0.49182-0.2163 0.99956-0.57798 1.4082-0.18496 0.20898-0.38362 0.55212-0.24033 1.0288 0.14329 0.47672 0.85772 0.83335 1.5135 0.45682 0.398-0.22853 0.60175-0.63391 0.49456-1.0547-0.14836-0.58236-0.43427-1.2984-1.1897-1.8392zm-2.5026 0.17478c-0.073759 0.49182-0.2163 0.99956-0.57798 1.4082-0.18496 0.20898-0.38362 0.55013-0.24033 1.0269 0.14329 0.47672 0.85772 0.83335 1.5135 0.45682 0.398-0.22853 0.60175-0.63192 0.49456-1.0527-0.14836-0.58236-0.43427-1.2984-1.1897-1.8392zm-2.5026 0.1728c-0.073758 0.49182-0.2163 1.0015-0.57798 1.4102-0.18496 0.20898-0.38362 0.55013-0.24033 1.0269 0.14329 0.47672 0.85772 0.83335 1.5135 0.45682 0.398-0.22853 0.60175-0.63391 0.49456-1.0547-0.14836-0.58236-0.43427-1.2984-1.1897-1.8392z" fill="#fff" stroke-width=".94793" style="paint-order:markers stroke fill"/>
    </g>
    <g transform="translate(1.0008 1.0005)" display="none" fill="none" opacity=".8" stroke-width=".05">
        <rect transform="rotate(90)" x="3.3425" y="-12.657" width="9.3148" height="9.3148" display="inline" opacity="1" stroke="#000"/>
        <rect x="3" y="4" width="10" height="8" opacity="1" stroke="#0091ff" stroke-linecap="round" stroke-linejoin="round"/>
        <rect transform="rotate(90)" x="3" y="-12" width="10" height="8" display="inline" opacity="1" stroke="#00ff03" stroke-linecap="round" stroke-linejoin="round"/>
    </g>
</svg>
