<?xml version="1.0" encoding="UTF-8"?>
<svg version="1.1" viewBox="0 0 18.001 18" xmlns="http://www.w3.org/2000/svg">
    <g transform="translate(1.0008 -1092.8)">
        <rect x="9.5745e-5" y="1093.8" width="16" height="16" rx="1.5001" ry="1.5001" fill="#f43f36"/>
        <path transform="translate(-1.0008 1092.8)" d="m2.5 1c-0.83103 0-1.5 0.66897-1.5 1.5v0.5c0-0.83103 0.66897-1.5 1.5-1.5h13c0.83103 0 1.5 0.66897 1.5 1.5v-0.5c0-0.83103-0.66897-1.5-1.5-1.5z" fill="#fff" opacity=".2"/>
        <path d="m14.5 1109.8c0.83103 0 1.5-0.669 1.5-1.5v-0.5c0 0.831-0.66897 1.5-1.5 1.5h-13c-0.83103 0-1.5-0.669-1.5-1.5v0.5c0 0.831 0.66897 1.5 1.5 1.5z" opacity=".2"/>
    </g>
    <g transform="translate(1.0008 1.0005)">
        <g transform="matrix(.031746 0 0 .031746 2.9999 2.9999)">
            <path d="m264.47 135.36c-2.688-0.92-5.289-1.773-7.787-2.594-19.825-6.501-26.68-9.312-26.68-20.351 0-9.572 6.799-16.26 16.533-16.26 7.986 0 13.502 3.307 19.039 11.41 2.156 3.158 6.348 4.188 9.721 2.389l19.148-10.205c1.762-0.938 3.076-2.541 3.652-4.453 0.576-1.91 0.367-3.973-0.582-5.729-11.123-20.596-27.912-31.037-49.9-31.037-16.592 0-30.648 5.227-40.654 15.117-9.918 9.803-15.16 23.453-15.16 39.471 0 33.607 21.297 47.508 58.063 60.156 21.045 7.311 25.965 10.137 25.965 21.121 0 13.578-11.727 23.434-27.885 23.434-0.486 0-0.98-8e-3 -1.48-0.025-17.377-0.607-22.725-9.088-30.789-28.297-12.947-30.814-28.082-67.734-29.205-70.543-0.012-0.031-0.025-0.064-0.037-0.096-16.416-39.535-49.057-62.209-89.555-62.209-53.417 0-96.874 45.246-96.874 100.86 0 55.598 43.457 100.83 96.873 100.83 29.217 0 56.559-13.49 75.016-37.014 1.674-2.133 2.064-5.004 1.025-7.508l-11.541-27.781c-1.125-2.711-3.729-4.514-6.66-4.619-2.945-0.105-5.654 1.512-6.971 4.135-9.977 19.9-29.469 32.262-50.869 32.262-31.658 0-57.414-27.053-57.414-60.303 0-33.26 25.756-60.32 57.414-60.32 23.029 0 44.1 14.273 52.432 35.516l28.642 68.148 3.293 7.617c13.811 33.602 34.273 48.652 66.359 48.797h0.133c38.348 0 67.268-26.699 67.268-62.103 0-35.499-19.34-49.208-50.533-59.818z" fill="#fff"/>
        </g>
    </g>
    <g transform="translate(1.0008 1.0005)" display="none" fill="none" opacity=".8" stroke-width=".05">
        <rect transform="rotate(90)" x="3.3425" y="-12.657" width="9.3148" height="9.3148" display="inline" opacity="1" stroke="#000"/>
        <rect x="3" y="4" width="10" height="8" opacity="1" stroke="#0091ff" stroke-linecap="round" stroke-linejoin="round"/>
        <rect transform="rotate(90)" x="3" y="-12" width="10" height="8" display="inline" opacity="1" stroke="#00ff03" stroke-linecap="round" stroke-linejoin="round"/>
    </g>
</svg>
