<?xml version="1.0" encoding="UTF-8"?>
<svg version="1.1" viewBox="0 0 18.001 18" xmlns="http://www.w3.org/2000/svg">
    <g transform="translate(1.0008 -1092.8)">
        <rect x="9.5745e-5" y="1093.8" width="16" height="16" rx="1.5001" ry="1.5001" fill="#ffc107"/>
        <path transform="translate(-1.0008 1092.8)" d="m2.5 1c-0.83103 0-1.5 0.66897-1.5 1.5v0.5c0-0.83103 0.66897-1.5 1.5-1.5h13c0.83103 0 1.5 0.66897 1.5 1.5v-0.5c0-0.83103-0.66897-1.5-1.5-1.5z" fill="#fff" opacity=".2"/>
        <path d="m14.5 1109.8c0.83103 0 1.5-0.669 1.5-1.5v-0.5c0 0.831-0.66897 1.5-1.5 1.5h-13c-0.83103 0-1.5-0.669-1.5-1.5v0.5c0 0.831 0.66897 1.5 1.5 1.5z" opacity=".2"/>
    </g>
    <g transform="translate(1.0008 1.0005)">
        <path d="m7.2122 2.9995c-0.071394 0.00718-0.1267 0.067584-0.1267 0.14098v0.31586c0.52603 0.010206 1.2996 0.010227 1.8274 0v-0.31586c0-0.078288-0.062695-0.14185-0.14098-0.14098-0.30878 0.00345-1.227 0.010006-1.5454 0-0.00489-1.536e-4 -0.00951-4.783e-4 -0.014276 0zm-0.58354 0.91368 0.34263 5.4821c0.34591 0.23284 1.7214 0.24414 2.0558 0l0.34263-5.4821c-0.45825 0.031055-2.2894 0.030538-2.741 0zm-0.1499 4.9485-2.1343 0.53358 3.6547 1.8274 3.6547-1.8274-2.1343-0.53358-0.03569 0.56213a0.45689 0.45689 0 0 1-0.18738 0.34085c-0.20541 0.14996-0.39539 0.1826-0.61031 0.21771-0.21492 0.035122-0.44786 0.048961-0.68348 0.048182-0.23562-7.74e-4 -0.47103-0.016611-0.68526-0.051751-0.21423-0.035141-0.39998-0.069648-0.60139-0.20522a0.45689 0.45689 0 0 1-0.20165-0.34977zm-2.1343 0.91725v0.77449l3.4263 2.4466v-1.4348zm7.3094 0-3.4263 1.7863v1.4348l3.4263-2.4466z" fill="#fff" stroke-linecap="square" stroke-linejoin="round" stroke-opacity=".11445" stroke-width=".76517" style="paint-order:markers stroke fill"/>
    </g>
    <g transform="translate(1.0008 1.0005)" display="none" fill="none" opacity=".8" stroke-width=".05">
        <rect transform="rotate(90)" x="3.3425" y="-12.657" width="9.3148" height="9.3148" display="inline" opacity="1" stroke="#000"/>
        <rect x="3" y="4" width="10" height="8" opacity="1" stroke="#0091ff" stroke-linecap="round" stroke-linejoin="round"/>
        <rect transform="rotate(90)" x="3" y="-12" width="10" height="8" display="inline" opacity="1" stroke="#00ff03" stroke-linecap="round" stroke-linejoin="round"/>
    </g>
</svg>
