<?xml version="1.0" encoding="UTF-8"?>
<svg version="1.1" viewBox="0 0 18.001 18" xmlns="http://www.w3.org/2000/svg">
    <g transform="translate(1.0008 -1092.8)">
        <rect x="9.5745e-5" y="1093.8" width="16" height="16" rx="1.5001" ry="1.5001" fill="#8bc34a"/>
        <path transform="translate(-1.0008 1092.8)" d="m2.5 1c-0.83103 0-1.5 0.66897-1.5 1.5v0.5c0-0.83103 0.66897-1.5 1.5-1.5h13c0.83103 0 1.5 0.66897 1.5 1.5v-0.5c0-0.83103-0.66897-1.5-1.5-1.5z" fill="#fff" opacity=".2"/>
        <path d="m14.5 1109.8c0.83103 0 1.5-0.669 1.5-1.5v-0.5c0 0.831-0.66897 1.5-1.5 1.5h-13c-0.83103 0-1.5-0.669-1.5-1.5v0.5c0 0.831 0.66897 1.5 1.5 1.5z" opacity=".2"/>
    </g>
    <g transform="translate(1.0008 1.0005)">
        <g transform="matrix(.7371 0 0 .75452 1.7902 -2.5562)" fill="#fff" stroke-width="0">
            <path transform="matrix(1.3567 0 0 1.3253 -3.7864 2.0619)" d="m9 4c-1.5545 0-3.0481 0.76119-3.9414 1.9238l0.62891 0.35938c0.76216-0.95507 2.0149-1.5684 3.3125-1.5684 2.2935-1e-7 4.2871 1.9374 4.2871 4.2852 0 2.3477-1.9935 4.2852-4.2871 4.2852-1.2938 0-2.6148-0.69636-3.377-1.6465l-0.625 0.35742c0.89352 1.1578 2.4511 2.0039 4.002 2.0039 2.6922 0 5-2.24 5-5s-2.3078-5-5-5zm-5 2.1426v5.7148l5-2.8574-5-2.8574zm5.002 0c-0.87752 0-1.5023 0.24773-2.0488 0.86523l0.64844 0.36914c0.40709-0.41157 0.78543-0.51953 1.4004-0.51953 1.2454 0 2.1426 0.85929 2.1426 2.1426 0 1.2833-0.89717 2.1426-2.1426 2.1426-0.6264 0-1.0696-0.16466-1.4785-0.58984l-0.63867 0.36524c0.54647 0.61758 1.2397 0.93945 2.1172 0.93945 1.6482 0 2.8555-1.1702 2.8555-2.8574s-1.2072-2.8574-2.8555-2.8574z" fill="#fff" stroke-width="0"/>
        </g>
    </g>
    <g transform="translate(1.0008 1.0005)" display="none" fill="none" opacity=".8" stroke-width=".05">
        <rect transform="rotate(90)" x="3.3425" y="-12.657" width="9.3148" height="9.3148" display="inline" opacity="1" stroke="#000"/>
        <rect x="3" y="4" width="10" height="8" opacity="1" stroke="#0091ff" stroke-linecap="round" stroke-linejoin="round"/>
        <rect transform="rotate(90)" x="3" y="-12" width="10" height="8" display="inline" opacity="1" stroke="#00ff03" stroke-linecap="round" stroke-linejoin="round"/>
    </g>
</svg>
