<?xml version="1.0" encoding="UTF-8"?>
<svg version="1.1" viewBox="0 0 18.001 18" xmlns="http://www.w3.org/2000/svg">
    <g transform="translate(1.0008 -1092.8)">
        <rect x="9.5745e-5" y="1093.8" width="16" height="16" rx="1.5001" ry="1.5001" fill="#607d8b"/>
        <path transform="translate(-1.0008 1092.8)" d="m2.5 1c-0.83103 0-1.5 0.66897-1.5 1.5v0.5c0-0.83103 0.66897-1.5 1.5-1.5h13c0.83103 0 1.5 0.66897 1.5 1.5v-0.5c0-0.83103-0.66897-1.5-1.5-1.5z" fill="#fff" opacity=".2"/>
        <path d="m14.5 1109.8c0.83103 0 1.5-0.669 1.5-1.5v-0.5c0 0.831-0.66897 1.5-1.5 1.5h-13c-0.83103 0-1.5-0.669-1.5-1.5v0.5c0 0.831 0.66897 1.5 1.5 1.5z" opacity=".2"/>
    </g>
    <path d="m9.5836 4.1599c-0.17711 3.485e-4 -0.35802 0.010947-0.54322 0.033951-3.5697 0.44333-3.6273 4.218-0.48131 5.1147 2.7225 0.77668 0.56198 2.5114 0.62511 3.6668 0.063453 1.155 2.3676 1.5737 4.184-1.4599 1.7004-2.8402-0.18329-7.3626-3.7846-7.3555zm-4.5695 3.4371c-0.016527-5.25e-5 -0.033256 0.00123-0.049929 0.00199-0.01721 7.962e-4 -0.034582 0.0023-0.051925 4e-3 -0.55486 0.054171-0.96041 0.55076-0.9067 1.1104 0.053786 0.55993 0.54756 0.97087 1.1024 0.91669 0.55486-0.054903 0.96073-0.55271 0.9067-1.1124-0.050514-0.52489-0.48821-0.91906-1.0006-0.92068zm0.33352 0.75292c0.096041 0.00259 0.18413 0.043988 0.24165 0.13581 0.15504 0.24776-0.15733 0.57275-0.39344 0.63509-0.25024 0.066083-0.36559 0.0024716-0.3475-0.33752 0.011826-0.22304 0.24413-0.41394 0.45735-0.43138 0.013961-0.00115 0.02822-0.00236 0.04194-0.00199zm7.6451 0.01398c0.08478-0.022358 0.09516 0.64789-0.03395 1.1284-0.21322 0.7929-0.95036 2.0202-1.4439 2.5883-0.37855 0.43578-0.8017 0.61667-1.3121 0.69301-1.0619 0.20875 0.06413-1.5736 0.84679-1.4759 0.78265 0.09768 1.6235-1.5377 1.8134-2.5364 0.05208-0.2737 0.09664-0.38868 0.12981-0.39743zm-6.2251 1.9872c-0.12722 5.37e-4 -0.25668 0.01593-0.38545 0.04993-0.82411 0.2176-1.3162 1.0681-1.1004 1.8993 0.21574 0.83118 1.0572 1.328 1.8813 1.1104 0.82411-0.2176 1.3182-1.0681 1.1024-1.8993-0.18203-0.70131-0.81086-1.1633-1.4979-1.1603zm0.85078 1.1044c0.024449-3e-3 0.042923 0.02989 0.053923 0.11583 0.11594 0.90492-0.50154 1.1591-0.703 1.2123-0.68015 0.17962-0.75932-0.25654-0.063909-0.4893 0.37296-0.12485 0.60704-0.82596 0.71298-0.8388z" fill="#fff" stroke-width=".03926"/>
    <g transform="translate(1.0008 1.0005)" display="none" fill="none" opacity=".8" stroke-width=".05">
        <rect transform="rotate(90)" x="3.3425" y="-12.657" width="9.3148" height="9.3148" display="inline" opacity="1" stroke="#000"/>
        <rect x="3" y="4" width="10" height="8" opacity="1" stroke="#0091ff" stroke-linecap="round" stroke-linejoin="round"/>
        <rect transform="rotate(90)" x="3" y="-12" width="10" height="8" display="inline" opacity="1" stroke="#00ff03" stroke-linecap="round" stroke-linejoin="round"/>
    </g>
</svg>
