<?xml version="1.0" encoding="UTF-8"?>
<svg version="1.1" viewBox="0 0 18.001 18" xmlns="http://www.w3.org/2000/svg">
    <g transform="translate(1.0008 -1092.8)">
        <rect x="9.5745e-5" y="1093.8" width="16" height="16" rx="1.5001" ry="1.5001" fill="#673ab7"/>
        <path transform="translate(-1.0008 1092.8)" d="m2.5 1c-0.83103 0-1.5 0.66897-1.5 1.5v0.5c0-0.83103 0.66897-1.5 1.5-1.5h13c0.83103 0 1.5 0.66897 1.5 1.5v-0.5c0-0.83103-0.66897-1.5-1.5-1.5z" fill="#fff" opacity=".2"/>
        <path d="m14.5 1109.8c0.83103 0 1.5-0.669 1.5-1.5v-0.5c0 0.831-0.66897 1.5-1.5 1.5h-13c-0.83103 0-1.5-0.669-1.5-1.5v0.5c0 0.831 0.66897 1.5 1.5 1.5z" opacity=".2"/>
    </g>
    <path d="m7 4v3h-3v4h3v3h4v-3h3v-4h-3v-3h-4zm2 0.98633 0.58789 1.0176h-1.1738l0.58594-1.0176zm0 3.248a0.76541 0.76541 0 0 1 0.76562 0.76562 0.76541 0.76541 0 0 1-0.76562 0.76562 0.76541 0.76541 0 0 1-0.76367-0.76562 0.76541 0.76541 0 0 1 0.76367-0.76562zm-2.9941 0.17773v1.1758l-1.0176-0.58789 1.0176-0.58789zm5.9902 0 1.0176 0.58789-1.0176 0.58789v-1.1758zm-3.582 3.584h1.1738l-0.58789 1.0176-0.58594-1.0176z" fill="#fff" stroke-linecap="square" stroke-linejoin="round" stroke-opacity=".11445" style="paint-order:markers stroke fill"/>
    <g transform="translate(1.0008 1.0005)" display="none" fill="none" opacity=".8" stroke-width=".05">
        <rect transform="rotate(90)" x="3.3425" y="-12.657" width="9.3148" height="9.3148" display="inline" opacity="1" stroke="#000"/>
        <rect x="3" y="4" width="10" height="8" opacity="1" stroke="#0091ff" stroke-linecap="round" stroke-linejoin="round"/>
        <rect transform="rotate(90)" x="3" y="-12" width="10" height="8" display="inline" opacity="1" stroke="#00ff03" stroke-linecap="round" stroke-linejoin="round"/>
    </g>
</svg>
