<?xml version="1.0" encoding="UTF-8"?>
<svg version="1.1" viewBox="0 0 18.001 18" xmlns="http://www.w3.org/2000/svg">
    <g transform="translate(1.0008 -1092.8)">
        <rect x="9.5745e-5" y="1093.8" width="16" height="16" rx="1.5001" ry="1.5001" fill="#ff9800"/>
        <path transform="translate(-1.0008 1092.8)" d="m2.5 1c-0.83103 0-1.5 0.66897-1.5 1.5v0.5c0-0.83103 0.66897-1.5 1.5-1.5h13c0.83103 0 1.5 0.66897 1.5 1.5v-0.5c0-0.83103-0.66897-1.5-1.5-1.5z" fill="#fff" opacity=".2"/>
        <path d="m14.5 1109.8c0.83103 0 1.5-0.669 1.5-1.5v-0.5c0 0.831-0.66897 1.5-1.5 1.5h-13c-0.83103 0-1.5-0.669-1.5-1.5v0.5c0 0.831 0.66897 1.5 1.5 1.5z" opacity=".2"/>
    </g>
    <g transform="translate(1.0008 1.0005)">
        <g transform="translate(8.25e-4,1.1314)">
            <path d="m4.3644 2.5932c0.00223 0.037969-0.00167 0.090377-0.00391 0.13281-0.00446 0.037969-0.0092 0.078659-0.013672 0.12109h-0.089844c-0.13624 0-0.33199-0.01785-0.41016-0.03125l0.00586 0.25977c0.10497 0.00446 0.27839 0.013672 0.39453 0.013672h0.072266c-0.00893 0.09157-0.015064 0.18521-0.019531 0.28125-0.31268 0.14741-0.55078 0.44626-0.55078 0.73437 0 0.22558 0.13969 0.32422 0.30273 0.32422 0.11837 0 0.23627-0.036242 0.3457-0.089844 0.00893 0.031268 0.020364 0.062763 0.029297 0.091797l0.25586-0.078125c-0.017867-0.053605-0.035147-0.11018-0.050781-0.16602 0.16974-0.14071 0.34815-0.37594 0.46875-0.67969 0.15411 0.060302 0.23242 0.18045 0.23242 0.31445 0 0.21888-0.17442 0.43747-0.60547 0.48438l0.14844 0.23438c0.54942-0.082637 0.73438-0.38989 0.73438-0.70703 0-0.25908-0.17256-0.46201-0.43164-0.54688 0.0134-0.042435 0.032081-0.088713 0.041016-0.11328l-0.27344-0.064453c-0.00223 0.033501-0.010597 0.088144-0.019531 0.13281h-0.041016c-0.10944 0-0.22483 0.016447-0.33203 0.041016 0.00223-0.067003 0.00892-0.13612 0.015625-0.20312 0.27471-0.011167 0.57409-0.037924 0.79297-0.078125l-0.00195-0.25977c-0.24568 0.058069-0.48729 0.088443-0.75977 0.099609 0.0067-0.044668 0.016737-0.085079 0.023437-0.12305 0.00893-0.033501 0.01785-0.074471 0.03125-0.11914zm0.48828 0.87695c-0.075936 0.18091-0.17628 0.31634-0.28125 0.42578-0.017868-0.11167-0.025391-0.2329-0.025391-0.36914v-0.00781c0.087103-0.026803 0.18827-0.046597 0.30664-0.048831zm-0.56055 0.16602c0.00446 0.15411 0.022308 0.30684 0.046875 0.44531-0.080403 0.046902-0.16012 0.074219-0.22266 0.074219-0.07147 0-0.10352-0.037907-0.10352-0.10938 0-0.1273 0.11179-0.29625 0.2793-0.41016zm1.5195 0.5918v0.28125h1.4375v-0.28125zm-2.2793 0.6543c-0.29492 0-0.5332 0.23828-0.5332 0.5332v5.1973c0 0.29492 0.23828 0.53125 0.5332 0.53125h8.9355c0.29492 0 0.53125-0.23633 0.53125-0.53125v-5.1973c0-0.29492-0.23633-0.5332-0.53125-0.5332zm0.4668 0.99805h1.0684v1.0664h-1.0684zm1.6016 0h1.0664v1.0664h-1.0664zm1.5996 0h1.0664v1.0664h-1.0664zm1.5996 0h1.0664v1.0664h-1.0664zm1.5996 0h1.5996v2.666h-1.0664v-1.5996h-0.5332zm-6.4004 1.5996h1.6016v1.0664h-1.6016zm2.1348 0h1.0664v1.0664h-1.0664zm1.5996 0h1.0664v1.0664h-1.0664zm1.5996 0h1.0664v1.0664h-1.0664zm-5.334 1.5996h1.6016v1.0684h-1.6016zm2.1348 0h3.7324v1.0684h-3.7324zm4.2656 0h1.5996v1.0684h-1.5996z" fill="#fff" style="paint-order:markers stroke fill"/>
        </g>
    </g>
    <g transform="translate(1.0008 1.0005)" display="none" fill="none" opacity=".8" stroke-width=".05">
        <rect transform="rotate(90)" x="3.3425" y="-12.657" width="9.3148" height="9.3148" display="inline" opacity="1" stroke="#000"/>
        <rect x="3" y="4" width="10" height="8" opacity="1" stroke="#0091ff" stroke-linecap="round" stroke-linejoin="round"/>
        <rect transform="rotate(90)" x="3" y="-12" width="10" height="8" display="inline" opacity="1" stroke="#00ff03" stroke-linecap="round" stroke-linejoin="round"/>
    </g>
</svg>
