<?xml version="1.0" encoding="UTF-8"?>
<svg version="1.1" viewBox="0 0 18.001 18" xmlns="http://www.w3.org/2000/svg">
    <g transform="translate(1.0008 -1092.8)">
        <rect x="4.7873e-5" y="1093.8" width="16" height="16" rx="1.5001" ry="1.5001" fill="#2196f3"/>
        <path transform="translate(-1.0008 1092.8)" d="m2.5 1c-0.83103 0-1.5 0.66897-1.5 1.5v0.5c0-0.83103 0.66897-1.5 1.5-1.5h13c0.83103 0 1.5 0.66897 1.5 1.5v-0.5c0-0.83103-0.66897-1.5-1.5-1.5z" fill="#fff" opacity=".2"/>
        <path d="m14.5 1109.8c0.83103 0 1.5-0.669 1.5-1.5v-0.5c0 0.831-0.66897 1.5-1.5 1.5h-13c-0.83103 0-1.5-0.669-1.5-1.5v0.5c0 0.831 0.66897 1.5 1.5 1.5z" opacity=".2"/>
    </g>
    <g transform="translate(1.0008 1.0005)" fill="#fff">
        <path d="m8.3914 4.0247 0.38411 2.4299-0.34097 0.469c-0.094448 0.12991-0.065896 0.31054 0.064019 0.40499l0.93801 0.68194c0.12991 0.094449 0.31054 0.065896 0.40499-0.064019l0.34097-0.469 2.4299-0.38411z" style="paint-order:markers stroke fill"/>
        <g transform="matrix(.71428 0 0 .71428 .85773 4.7861)" stroke-linecap="square">
            <path transform="translate(-1.0008,-1.0005)" d="m5.5 5.5c-0.277 0-0.5 0.223-0.5 0.5v4.3c0 0.277 0.223 0.5 0.5 0.5h7c0.277 0 0.5-0.223 0.5-0.5v-4.3c0-0.277-0.223-0.5-0.5-0.5zm0.75 1h5.5c0.1385 0 0.25 0.1115 0.25 0.25v2.8c0 0.1385-0.1115 0.25-0.25 0.25h-5.5c-0.1385 0-0.25-0.1115-0.25-0.25v-2.8c0-0.1385 0.1115-0.25 0.25-0.25z" style="paint-order:markers stroke fill"/>
            <path transform="translate(-1.0008,-1.0005)" d="m4 11.3v0.70004c0 0.277 0.223 0.5 0.5 0.5h9c0.277 0 0.5-0.223 0.5-0.5v-0.70004z" style="paint-order:markers stroke fill"/>
        </g>
        <path d="m10.083 3.0875c-0.01588 0.025493-0.02592 0.055543-0.02785 0.08774l-0.089622 1.4884c-0.00625 0.10303 0.071868 0.19128 0.17489 0.19751 0.10303 0.00622 0.19011-0.072717 0.19633-0.17574l0.09081-1.4875c0.0062-0.10303-0.07186-0.19129-0.17489-0.19751-0.07084-0.00428-0.13473 0.031064-0.16965 0.087148zm0.7044 1.7603c-0.06074 0.083449-0.04246 0.19953 0.04099 0.26027 0.08345 0.060742 0.19953 0.042459 0.26027-0.040989l0.87713-1.205c0.06075-0.083449 0.04246-0.19953-0.04099-0.26027-0.08345-0.060742-0.19953-0.042459-0.26027 0.040989zm0.49446 0.63896c-0.03288 0.049894-0.04125 0.11391-0.01644 0.17346 0.03968 0.095286 0.14781 0.14102 0.24309 0.10133l1.3767-0.57314c0.09528-0.039687 0.13984-0.14867 0.10015-0.24395-0.03969-0.095286-0.14866-0.13984-0.24395-0.10016l-1.3759 0.57197c-0.03573 0.01488-0.06398 0.04055-0.08372 0.070488z" style="paint-order:markers stroke fill"/>
    </g>
    <g transform="translate(1.0008 1.0005)" display="none" fill="none" opacity=".8" stroke-width=".05">
        <rect transform="rotate(90)" x="3.3425" y="-12.657" width="9.3148" height="9.3148" display="inline" opacity="1" stroke="#000"/>
        <rect x="3" y="4" width="10" height="8" opacity="1" stroke="#0091ff" stroke-linecap="round" stroke-linejoin="round"/>
        <rect transform="rotate(90)" x="3" y="-12" width="10" height="8" display="inline" opacity="1" stroke="#00ff03" stroke-linecap="round" stroke-linejoin="round"/>
    </g>
</svg>
