<?xml version="1.0" encoding="UTF-8"?>
<svg version="1.1" viewBox="0 0 18.001 18" xmlns="http://www.w3.org/2000/svg">
    <g transform="translate(1.0008 -1092.8)">
        <rect x="9.5745e-5" y="1093.8" width="16" height="16" rx="1.5001" ry="1.5001" fill="#673ab7"/>
        <path transform="translate(-1.0008 1092.8)" d="m2.5 1c-0.83103 0-1.5 0.66897-1.5 1.5v0.5c0-0.83103 0.66897-1.5 1.5-1.5h13c0.83103 0 1.5 0.66897 1.5 1.5v-0.5c0-0.83103-0.66897-1.5-1.5-1.5z" fill="#fff" opacity=".2"/>
        <path d="m14.5 1109.8c0.83103 0 1.5-0.669 1.5-1.5v-0.5c0 0.831-0.66897 1.5-1.5 1.5h-13c-0.83103 0-1.5-0.669-1.5-1.5v0.5c0 0.831 0.66897 1.5 1.5 1.5z" opacity=".2"/>
    </g>
    <g transform="translate(1.0008 1.0005)">
        <path transform="translate(-1.0008 -1.0005)" d="m7.5527 4.082c-0.032076-7.4e-5 -0.063419 0.0017-0.095703 0.00586h-0.087891v-0.00195c-0.88723-0.018963-1.7875 0.48392-2.0117 1.2363-0.052228 0.1824-0.072408 0.35508-0.076172 0.53125v2.1406c-0.76296 0.44474-1.2812 1.306-1.2812 2.2969 0 1.3481 0.95889 2.457 2.1895 2.6016 0.024912 0.02225 0.059175 0.03711 0.099609 0.03711h0.19531c0.075489 0 0.13477-0.04896 0.13477-0.10938v-5.0801c0-0.060429-0.059278-0.10938-0.13477-0.10938h-0.30273c-5.584e-4 -0.67557-0.00335-1.4136 0.00391-1.8828 0.027662-0.4388 0.42484-0.90182 0.97461-0.89648 0.00403 0.69839-0.00886 1.6222 0.00586 2.3203 0.046892 0.56767 0.67661 1.0364 1.3418 0.98828 0.41554-0.00864 0.83326 0.021583 1.2461-0.021484 0.62862-0.10088 1.0623-0.64989 1.0039-1.1855v-2.0977c0.57181-0.035747 1.0059 0.43789 1.0312 0.89453 0.0073 0.4776 0.0064 1.1958 0.0059 1.8516h-0.21289c-0.1428 0-0.25781 0.048952-0.25781 0.10938v5.0781c0 0.06042 0.11501 0.10938 0.25781 0.10938h0.45703c0.0083 0.01023 0.0075 0.02013-0.01172 0.03125-0.11275 0.07182-0.21928 0.14049-0.33398 0.20508-0.10299 0.058-0.21481 0.1214-0.31836 0.16406-0.08148 0.03357-0.14648 0.03711-0.14648 0.03711h-1.1602c-0.0032 0-0.0066 0.0017-0.0098 2e-3 -0.08328-0.23028-0.48827-0.4043-0.97461-0.4043-0.54662 0-0.98828 0.21994-0.98828 0.49219 0 0.27224 0.44166 0.49219 0.98828 0.49219 0.43992 0 0.81455-0.14212 0.94336-0.33984 0.01302 0.0036 0.02659 0.0059 0.04101 0.0059h1.2207c0.02806 0 0.1272-0.02422 0.1875-0.04687 0.15033-0.05646 0.24874-0.12864 0.42188-0.2168 0.18407-0.10078 0.52539-0.33398 0.52539-0.33398 0.06045-0.03352 0.07702-0.10351 0.03711-0.1543-0.01123-0.02757-0.04303-0.03887-0.06055-0.05469 0.92968-0.34914 1.5996-1.3288 1.5996-2.4825 0-1.0276-0.53156-1.917-1.3047-2.3457v-2.2109c-0.029424-0.22417-0.070975-0.50058-0.21289-0.7168-0.36814-0.63932-1.2289-0.9836-2.041-0.93164-0.23722-0.02579-0.49168 0.11223-0.55664 0.30469 0.00391 0.82376 0.00723 1.649 0 2.4727-0.027117 0.34506-0.42585 0.60826-0.82227 0.56445-0.28045 0.01043-0.59581 0.0011956-0.78711-0.20508-0.25778-0.23324-0.17237-0.56765-0.1875-0.85742 6.924e-4 -0.66913-0.0031566-1.3398 0.0039063-2.0078-0.10264-0.17768-0.31453-0.27878-0.53906-0.2793z" fill="#fff" stroke-width=".032455"/>
    </g>
    <g transform="translate(1.0008 1.0005)" display="none" fill="none" opacity=".8" stroke-width=".05">
        <rect transform="rotate(90)" x="3.3425" y="-12.657" width="9.3148" height="9.3148" display="inline" opacity="1" stroke="#000"/>
        <rect x="3" y="4" width="10" height="8" opacity="1" stroke="#0091ff" stroke-linecap="round" stroke-linejoin="round"/>
        <rect transform="rotate(90)" x="3" y="-12" width="10" height="8" display="inline" opacity="1" stroke="#00ff03" stroke-linecap="round" stroke-linejoin="round"/>
    </g>
</svg>
