<?xml version="1.0" encoding="UTF-8"?>
<svg version="1.1" viewBox="0 0 18.001 18" xmlns="http://www.w3.org/2000/svg">
    <g transform="translate(1.0008 -1092.8)">
        <rect x="9.5745e-5" y="1093.8" width="16" height="16" rx="1.5001" ry="1.5001" fill="#2196f3"/>
        <path transform="translate(-1.0008 1092.8)" d="m2.5 1c-0.83103 0-1.5 0.66897-1.5 1.5v0.5c0-0.83103 0.66897-1.5 1.5-1.5h13c0.83103 0 1.5 0.66897 1.5 1.5v-0.5c0-0.83103-0.66897-1.5-1.5-1.5z" fill="#fff" opacity=".2"/>
        <path d="m14.5 1109.8c0.83103 0 1.5-0.669 1.5-1.5v-0.5c0 0.831-0.66897 1.5-1.5 1.5h-13c-0.83103 0-1.5-0.669-1.5-1.5v0.5c0 0.831 0.66897 1.5 1.5 1.5z" opacity=".2"/>
    </g>
    <g transform="translate(1.0008 1.0005)">
        <path d="m8 2.9922c-2.7658 0-5.0078 2.242-5.0078 5.0078 0 2.766 2.242 5.0078 5.0078 5.0078 2.7659 0 5.0078-2.2419 5.0078-5.0078 0-2.7658-2.2419-5.0078-5.0078-5.0078zm0 0.72852c2.5272 0 4.5762 1.9159 4.5762 4.2793s-2.049 4.2793-4.5762 4.2793c-2.5271 0-4.5742-1.9159-4.5742-4.2793s2.0471-4.2793 4.5742-4.2793zm0.033203 0.48242c-1.3083 0-2.4657 0.63959-3.1797 1.623 0.76423-0.77354 1.9044-1.2656 3.1797-1.2656 0.85425 0 1.6479 0.22146 2.3086 0.59961h-3.8945l-1.7402 5.0586c0.051326 0.08185 0.10691 0.15778 0.16406 0.23242-0.00558-0.0056-0.011993-0.01-0.017578-0.01563 0.71404 0.98354 1.8714 1.623 3.1797 1.623s2.4657-0.63951 3.1797-1.623c-0.42284 0.42794-0.95991 0.7684-1.5723 0.98828v-3.4141c0-1.7158 0.25121-2.0418 1.6641-2.0527-0.02945-0.044176-0.06045-0.088102-0.0918-0.13086-1e-3 -9.988e-4 -9.19e-4 -0.00294-2e-3 -0.00391-0.0098-0.013387-0.02025-0.02675-0.15625-0.19141-0.1383-0.16749-0.17691-0.2074-0.21675-0.24804-0.01724-0.017568-0.035164-0.03549-0.052734-0.052734-0.70865-0.69696-1.6794-1.127-2.752-1.127zm-0.80469 4.0859v3.3438c-0.37353-0.06274-0.72813-0.16839-1.0586-0.31055z" fill="#fff"/>
    </g>
    <g transform="translate(1.0008 1.0005)" display="none" fill="none" opacity=".8" stroke-width=".05">
        <rect transform="rotate(90)" x="3.3425" y="-12.657" width="9.3148" height="9.3148" display="inline" opacity="1" stroke="#000"/>
        <rect x="3" y="4" width="10" height="8" opacity="1" stroke="#0091ff" stroke-linecap="round" stroke-linejoin="round"/>
        <rect transform="rotate(90)" x="3" y="-12" width="10" height="8" display="inline" opacity="1" stroke="#00ff03" stroke-linecap="round" stroke-linejoin="round"/>
    </g>
</svg>
