<?xml version="1.0" encoding="UTF-8"?>
<svg version="1.1" viewBox="0 0 18.001 18" xmlns="http://www.w3.org/2000/svg">
    <g transform="translate(1.0008 -1092.8)">
        <rect x="9.5745e-5" y="1093.8" width="16" height="16" rx="1.5001" ry="1.5001" fill="#f43f36"/>
        <path transform="translate(-1.0008 1092.8)" d="m2.5 1c-0.83103 0-1.5 0.66897-1.5 1.5v0.5c0-0.83103 0.66897-1.5 1.5-1.5h13c0.83103 0 1.5 0.66897 1.5 1.5v-0.5c0-0.83103-0.66897-1.5-1.5-1.5z" fill="#fff" opacity=".2"/>
        <path d="m14.5 1109.8c0.83103 0 1.5-0.669 1.5-1.5v-0.5c0 0.831-0.66897 1.5-1.5 1.5h-13c-0.83103 0-1.5-0.669-1.5-1.5v0.5c0 0.831 0.66897 1.5 1.5 1.5z" opacity=".2"/>
    </g>
    <g transform="translate(1.0008 1.0005)">
        <path d="m8 2.9981-0.91338 0.44579 0.91338 0.44579 0.91338-0.44579zm-1.1848 0.64194-0.82819 1.6187 0.82026 0.79847 0.7311-1.4265 0.26153-0.51118zm2.3677 0-0.98273 0.47948 0.99065 1.9377 0.82224-0.80045zm-4.7373 1.0917-0.91338 0.44778 0.91338 0.44381 0.40419-0.19813 0.50722-0.24766zm7.1089 0-0.91338 0.44778 0.7846 0.38239 0.12878 0.061421 0.1268-0.061421 0.7846-0.38239zm-5.9261 0.64194-0.56269 0.2754-0.42202 0.20407 0.19813 0.38834 0.79649 1.5494 0.82026-0.80045zm4.7433 0-0.83017 1.6187 0.82026 0.79847 0.99462-1.9377zm-7.0277 0.039626v5.3892l0.95301 0.46561v-4.0399l0.82026 1.6009-0.00198 0.00397 0.27144 0.52901 0.50325 0.24568 1.0085-1.1095v4.0399l0.95301 0.46363v-5.3892l-0.71922-0.35069-0.35267-0.17436-1.0778 1.0541c-0.00943 0.0059-0.021182 0.010236-0.031701 0.013869l-0.00792 0.011888c-0.011836 0.00569-0.025316 0.00954-0.037645 0.011888-0.0039 6.072e-4 -0.00795 0.00168-0.011888 0.00198-0.02826 0.00305-0.054256-0.00136-0.079252-0.013869h-0.00198l-0.00199-0.00198c-0.025917-0.013586-0.04706-0.035483-0.061421-0.063402l-1.1313-2.2032zm9.3122 0-0.99264 0.48542-1.1313 2.2032c-0.01435 0.027919-0.03551 0.049816-0.06142 0.063402l-2e-3 0.00198h-2e-3c-0.025 0.012508-0.05099 0.016923-0.07926 0.013869-4e-3 -2.942e-4 -8e-3 -0.00137-0.01189-0.00198-0.01232-0.00235-0.02581-0.0062-0.03764-0.011888l-0.0079-0.011888c-0.01052-0.00363-0.02227-0.00796-0.0317-0.013869l-1.0778-1.0541-0.35267 0.17436-0.71922 0.35069v5.3892l0.95301-0.46363v-4.0399l1.0085 1.1095 0.50325-0.24568 0.27144-0.52901-2e-3 -0.00397 0.82026-1.6009v4.0399l0.95301-0.46561zm-4.6561 1.0521-0.91338 0.44579 0.91338 0.44579 0.9114-0.44579z" fill="#fff" stroke-width="1.0144" style="-inkscape-stroke:none"/>
    </g>
    <g transform="translate(1.0008 1.0005)" display="none" fill="none" opacity=".8" stroke-width=".05">
        <rect transform="rotate(90)" x="3.3425" y="-12.657" width="9.3148" height="9.3148" display="inline" opacity="1" stroke="#000"/>
        <rect x="3" y="4" width="10" height="8" opacity="1" stroke="#0091ff" stroke-linecap="round" stroke-linejoin="round"/>
        <rect transform="rotate(90)" x="3" y="-12" width="10" height="8" display="inline" opacity="1" stroke="#00ff03" stroke-linecap="round" stroke-linejoin="round"/>
    </g>
</svg>
