<?xml version="1.0" encoding="UTF-8"?>
<svg version="1.1" viewBox="0 0 18.001 18" xmlns="http://www.w3.org/2000/svg">
    <g transform="translate(1.0008 -1092.8)">
        <rect x="9.5745e-5" y="1093.8" width="16" height="16" rx="1.5001" ry="1.5001" fill="#3f51b5"/>
        <path transform="translate(-1.0008 1092.8)" d="m2.5 1c-0.83103 0-1.5 0.66897-1.5 1.5v0.5c0-0.83103 0.66897-1.5 1.5-1.5h13c0.83103 0 1.5 0.66897 1.5 1.5v-0.5c0-0.83103-0.66897-1.5-1.5-1.5z" fill="#fff" opacity=".2"/>
        <path d="m14.5 1109.8c0.83103 0 1.5-0.669 1.5-1.5v-0.5c0 0.831-0.66897 1.5-1.5 1.5h-13c-0.83103 0-1.5-0.669-1.5-1.5v0.5c0 0.831 0.66897 1.5 1.5 1.5z" opacity=".2"/>
    </g>
    <g transform="translate(1.0008 1.0005)">
        <path transform="translate(-1.0008 -1.0005)" d="m5.5371 4c-0.020431 0-0.037109 0.016678-0.037109 0.037109v9.9258c0 0.020431 0.016678 0.037109 0.037109 0.037109h6.9277c0.020431 0 0.035156-0.016678 0.035156-0.037109v-9.9258c0-0.020431-0.014725-0.037109-0.035156-0.037109h-6.9277zm0.46289 0.5h3.5v3h-3.5v-3zm1.5977 0.5-0.76367 2h0.28516l0.18359-0.51172h0.90039l0.18359 0.51172h0.28125l-0.76367-2h-0.30664zm0.15234 0.26758 0.36914 0.99414h-0.73438l0.36523-0.99414zm-1.75 3.2324h3v0.5h-3v-0.5zm4 0h2v2.5h-2v-2.5zm-4 1h3.5v0.5h-3.5v-0.5zm0 1h3.5v0.5h-3.5v-0.5zm0 1h4v0.5h-4v-0.5zm0 1h3v0.5h-3v-0.5z" fill="#fff" style="paint-order:markers stroke fill"/>
    </g>
    <g transform="translate(1.0008 1.0005)" display="none" fill="none" opacity=".8" stroke-width=".05">
        <rect transform="rotate(90)" x="3.3425" y="-12.657" width="9.3148" height="9.3148" display="inline" opacity="1" stroke="#000"/>
        <rect x="3" y="4" width="10" height="8" opacity="1" stroke="#0091ff" stroke-linecap="round" stroke-linejoin="round"/>
        <rect transform="rotate(90)" x="3" y="-12" width="10" height="8" display="inline" opacity="1" stroke="#00ff03" stroke-linecap="round" stroke-linejoin="round"/>
    </g>
</svg>
