<?xml version="1.0" encoding="UTF-8"?>
<svg version="1.1" viewBox="0 0 18.001 18" xmlns="http://www.w3.org/2000/svg">
    <g transform="translate(1.0008 -1092.8)">
        <rect x="9.5745e-5" y="1093.8" width="16" height="16" rx="1.5001" ry="1.5001" fill="#4caf50"/>
        <path transform="translate(-1.0008 1092.8)" d="m2.5 1c-0.83103 0-1.5 0.66897-1.5 1.5v0.5c0-0.83103 0.66897-1.5 1.5-1.5h13c0.83103 0 1.5 0.66897 1.5 1.5v-0.5c0-0.83103-0.66897-1.5-1.5-1.5z" fill="#fff" opacity=".2"/>
        <path d="m14.5 1109.8c0.83103 0 1.5-0.669 1.5-1.5v-0.5c0 0.831-0.66897 1.5-1.5 1.5h-13c-0.83103 0-1.5-0.669-1.5-1.5v0.5c0 0.831 0.66897 1.5 1.5 1.5z" opacity=".2"/>
    </g>
    <g transform="translate(1.0008 1.0005)">
        <path d="m5.6711 3.0004c-0.41676-0.0097352-0.9304 0.14403-1.3904 0.53822-0.45999 0.39419-0.83123 1.0467-0.86441 1.9463-0.046935 1.2727 0.64769 2.0965 1.4556 2.5361 0.36904 0.20083 0.96025 0.52457 1.4882 0.8114h-0.7883c-0.49887 0-1.015 0.18304-1.4312 0.53414-0.41619 0.3511-0.72442 0.89439-0.72442 1.5494 0 0.52099 0.10945 1.0278 0.41318 1.4298s0.81447 0.65374 1.4257 0.65374c1.6891-8e-5 3.3905 0 5.0736 0 0.41676 0.0097 0.9304-0.14403 1.3904-0.53822 0.45999-0.39419 0.83123-1.0467 0.86441-1.9463 0.04694-1.2727-0.64769-2.0965-1.4556-2.5361-0.36871-0.20065-0.95942-0.52486-1.4869-0.8114h0.78558c0.49887 0 1.0163-0.18304 1.4325-0.53414 0.41619-0.3511 0.72442-0.89439 0.72442-1.5494 0-0.52099-0.10945-1.0278-0.41318-1.4298s-0.81447-0.65374-1.4257-0.65374c-1.6878 1.222e-4 -3.3923 0-5.0736 0zm5.0736 0.83451c0.40742 0 0.60783 0.12103 0.75976 0.32211 0.15192 0.20109 0.24328 0.5275 0.24328 0.92693 0 0.40308-0.17023 0.69305-0.42812 0.91062-0.2579 0.21756-0.6109 0.33842-0.89295 0.33842-0.80732 0-1.2266 0.00168-2.422 0-0.00183-6.1e-6 -0.00382 0-0.00542 0-0.2308 0-0.4159 0.18646-0.4159 0.41725v1.7968c-0.84479-0.46343-1.7334-0.94371-2.3119-1.2586-0.63649-0.34637-1.0571-0.78483-1.0207-1.7723 0.025666-0.69599 0.27838-1.0924 0.57219-1.3442 0.29382-0.25179 0.66444-0.34088 0.82771-0.33706 1.6993 7.306e-4 3.3953-2.2e-6 5.094-2.2e-6zm-2.3282 3.6167c0.84476 0.46378 1.7333 0.94508 2.3119 1.2599 0.63649 0.34637 1.0571 0.78483 1.0207 1.7723-0.02566 0.69599-0.27974 1.0924-0.57355 1.3442-0.29382 0.25178-0.66444 0.34088-0.82771 0.33706-1.6989-6.87e-4 -3.3944 0-5.0927 0-0.40742 0-0.60783-0.12103-0.75976-0.32212s-0.24464-0.5275-0.24464-0.92693c0-0.40308 0.17023-0.69305 0.42813-0.91062s0.6109-0.33842 0.89295-0.33842h2.4233c0.00321-4.16e-4 0.00633-8.395e-4 0.00951-0.00137 0.22829-0.0029 0.41182-0.1869 0.41182-0.41589z" fill="#fff" stroke-width=".69588" style="paint-order:markers stroke fill"/>
    </g>
    <g transform="translate(1.0008 1.0005)" display="none" fill="none" opacity=".8" stroke-width=".05">
        <rect transform="rotate(90)" x="3.3425" y="-12.657" width="9.3148" height="9.3148" display="inline" opacity="1" stroke="#000"/>
        <rect x="3" y="4" width="10" height="8" opacity="1" stroke="#0091ff" stroke-linecap="round" stroke-linejoin="round"/>
        <rect transform="rotate(90)" x="3" y="-12" width="10" height="8" display="inline" opacity="1" stroke="#00ff03" stroke-linecap="round" stroke-linejoin="round"/>
    </g>
</svg>
