<?xml version="1.0" encoding="UTF-8"?>
<svg version="1.1" viewBox="0 0 18.001 18" xmlns="http://www.w3.org/2000/svg">
    <g transform="translate(1.0008 -1092.8)">
        <rect x="9.5745e-5" y="1093.8" width="16" height="16" rx="1.5001" ry="1.5001" fill="#2196f3"/>
        <path transform="translate(-1.0008 1092.8)" d="m2.5 1c-0.83103 0-1.5 0.66897-1.5 1.5v0.5c0-0.83103 0.66897-1.5 1.5-1.5h13c0.83103 0 1.5 0.66897 1.5 1.5v-0.5c0-0.83103-0.66897-1.5-1.5-1.5z" fill="#fff" opacity=".2"/>
        <path d="m14.5 1109.8c0.83103 0 1.5-0.669 1.5-1.5v-0.5c0 0.831-0.66897 1.5-1.5 1.5h-13c-0.83103 0-1.5-0.669-1.5-1.5v0.5c0 0.831 0.66897 1.5 1.5 1.5z" opacity=".2"/>
    </g>
    <g transform="translate(1.0008 1.0005)" fill="#fff" stroke="#222" stroke-linecap="square" stroke-width="1.4">
        <g transform="matrix(.71428 0 0 .71428 3.7149 .78609)">
            <g transform="translate(-1.0008,-1.0005)">
                <path transform="matrix(1.4 0 0 1.4 -5.6013 -1.5007)" d="m7.9297 5c-0.19786 0-0.35742 0.15957-0.35742 0.35742v0.14453h2.5c0.21236 0 0.40919 0.08087 0.56055 0.21289h1.7617c0.098928 0 0.17774 0.078806 0.17774 0.17773v2c0 0.098928-0.078807 0.17969-0.17774 0.17969h-0.08789c0.032695 0.089613 0.050781 0.18545 0.050781 0.28516v0.42969h0.57227c0.19785 0 0.35742-0.15957 0.35742-0.35742v-3.0723c0-0.19786-0.15957-0.35742-0.35742-0.35742h-5zm4.4277 4.1426v0.85742h1.2871c0.19786 0 0.35547-0.15957 0.35547-0.35742v-0.5h-1.6426z" color="#000000" fill="#fff" stroke="none" style="-inkscape-stroke:none;paint-order:markers stroke fill"/>
            </g>
        </g>
        <g transform="matrix(.71428 0 0 .71428 .85773 1.7861)">
            <g transform="translate(-1.0008,-1.0005)">
                <path transform="matrix(1.4 0 0 1.4 -1.6012 -2.9007)" d="m5.0723 6c-0.19786 0-0.35742 0.15957-0.35742 0.35742v3.0723c0 0.19786 0.15957 0.35742 0.35742 0.35742h0.57227v-0.71484h-0.037109c-0.098928 0-0.17773-0.08076-0.17773-0.17969v-2c0-0.098928 0.078806-0.17773 0.17773-0.17773h3.9297c0.098928 0 0.17773 0.078806 0.17773 0.17773v0.60938h0.71484v-1.1445c0-0.19786-0.15957-0.35742-0.35742-0.35742h-5zm-1.0723 4.1426v0.5c0 0.19786 0.15957 0.35742 0.35742 0.35742h1.2871v-0.85742h-1.6445z" color="#000000" fill="#fff" stroke="none" style="-inkscape-stroke:none;paint-order:markers stroke fill"/>
            </g>
        </g>
        <g transform="matrix(.71428 0 0 .71428 2.2863 3.7861)">
            <g transform="translate(-1.0008,-1.0005)">
                <path transform="matrix(1.4 0 0 1.4 -3.6013 -5.7008)" d="m6.5 8c-0.19786 0-0.35547 0.15957-0.35547 0.35742v3.0723c0 0.19786 0.15761 0.35742 0.35547 0.35742h5c0.19786 0 0.35742-0.15956 0.35742-0.35742v-3.0723c0-0.19786-0.15957-0.35742-0.35742-0.35742h-5zm0.53711 0.71484h3.9277c0.098928 0 0.17969 0.078806 0.17969 0.17773v2c0 0.098928-0.080759 0.17969-0.17969 0.17969h-3.9277c-0.098928 0-0.17969-0.08076-0.17969-0.17969v-2c0-0.098928 0.08076-0.17773 0.17969-0.17773zm-1.6074 3.4277v0.5c0 0.19786 0.15957 0.35742 0.35742 0.35742h6.4277c0.19786 0 0.35742-0.15957 0.35742-0.35742v-0.5h-7.1426z" color="#000000" fill="#fff" stroke="none" style="-inkscape-stroke:none;paint-order:markers stroke fill"/>
            </g>
        </g>
    </g>
    <g transform="translate(1.0008 1.0005)" display="none" fill="none" opacity=".8" stroke-width=".05">
        <rect transform="rotate(90)" x="3.3425" y="-12.657" width="9.3148" height="9.3148" display="inline" opacity="1" stroke="#000"/>
        <rect x="3" y="4" width="10" height="8" opacity="1" stroke="#0091ff" stroke-linecap="round" stroke-linejoin="round"/>
        <rect transform="rotate(90)" x="3" y="-12" width="10" height="8" display="inline" opacity="1" stroke="#00ff03" stroke-linecap="round" stroke-linejoin="round"/>
    </g>
</svg>
