<?xml version="1.0" encoding="UTF-8"?>
<svg version="1.1" viewBox="0 0 18.001 18" xmlns="http://www.w3.org/2000/svg">
    <g transform="translate(1.0008 -1092.8)">
        <rect x="9.5745e-5" y="1093.8" width="16" height="16" rx="1.5001" ry="1.5001" fill="#2196f3"/>
        <path transform="translate(-1.0008 1092.8)" d="m2.5 1c-0.83103 0-1.5 0.66897-1.5 1.5v0.5c0-0.83103 0.66897-1.5 1.5-1.5h13c0.83103 0 1.5 0.66897 1.5 1.5v-0.5c0-0.83103-0.66897-1.5-1.5-1.5z" fill="#fff" opacity=".2"/>
        <path d="m14.5 1109.8c0.83103 0 1.5-0.669 1.5-1.5v-0.5c0 0.831-0.66897 1.5-1.5 1.5h-13c-0.83103 0-1.5-0.669-1.5-1.5v0.5c0 0.831 0.66897 1.5 1.5 1.5z" opacity=".2"/>
    </g>
    <g transform="translate(1.0008 1.0005)">
        <path class="st0" d="m11.518 7.3853c0.34028 0 0.61472 0.26345 0.61472 0.61472 0 0.34028-0.26345 0.61472-0.61472 0.61472-0.34028 0-0.61471-0.26345-0.61471-0.61472 0.01097-0.35126 0.27442-0.61472 0.61471-0.61472m-7.0362 0c0.34028 0 0.61471 0.26345 0.61471 0.61472 0 0.34028-0.26344 0.61472-0.61471 0.61472-0.34028 0-0.61472-0.26345-0.61472-0.61472s0.27442-0.61472 0.61472-0.61472m3.5236-0.80132c0.77938 0 1.4051 0.62569 1.4051 1.4051 0 0.77938-0.62569 1.4051-1.4051 1.4051-0.77938 0-1.4051-0.62569-1.4051-1.4051 0-0.77938 0.62569-1.4051 1.4051-1.4051m0-0.86715c-1.0318 0-1.91 0.7025-2.1844 1.6575-0.24149-0.50494-0.74646-0.85618-1.3392-0.85618-0.81229 0-1.4819 0.6696-1.4819 1.4819s0.6696 1.4819 1.4819 1.4819c0.59276 0 1.1087-0.35126 1.3392-0.85618 0.27442 0.955 1.1526 1.6575 2.1844 1.6575s1.899-0.69155 2.1844-1.6356c0.24149 0.49397 0.74646 0.83424 1.3282 0.83424 0.81229 0 1.4819-0.6696 1.4819-1.4819s-0.6696-1.4819-1.4819-1.4819c-0.58178 0-1.0867 0.34028-1.3282 0.83424-0.27442-0.94403-1.1526-1.6356-2.1844-1.6356" fill="#fff" stroke-width=".69887"/>
    </g>
    <g transform="translate(1.0008 1.0005)" display="none" fill="none" opacity=".8" stroke-width=".05">
        <rect transform="rotate(90)" x="3.3425" y="-12.657" width="9.3148" height="9.3148" display="inline" opacity="1" stroke="#000"/>
        <rect x="3" y="4" width="10" height="8" opacity="1" stroke="#0091ff" stroke-linecap="round" stroke-linejoin="round"/>
        <rect transform="rotate(90)" x="3" y="-12" width="10" height="8" display="inline" opacity="1" stroke="#00ff03" stroke-linecap="round" stroke-linejoin="round"/>
    </g>
</svg>
