<?xml version="1.0" encoding="UTF-8"?>
<svg version="1.1" viewBox="0 0 18.001 18" xmlns="http://www.w3.org/2000/svg">
    <g transform="translate(1.0008 -1092.8)">
        <rect x="9.5745e-5" y="1093.8" width="16" height="16" rx="1.5001" ry="1.5001" fill="#2196f3"/>
        <path transform="translate(-1.0008 1092.8)" d="m2.5 1c-0.83103 0-1.5 0.66897-1.5 1.5v0.5c0-0.83103 0.66897-1.5 1.5-1.5h13c0.83103 0 1.5 0.66897 1.5 1.5v-0.5c0-0.83103-0.66897-1.5-1.5-1.5z" fill="#fff" opacity=".2"/>
        <path d="m14.5 1109.8c0.83103 0 1.5-0.669 1.5-1.5v-0.5c0 0.831-0.66897 1.5-1.5 1.5h-13c-0.83103 0-1.5-0.669-1.5-1.5v0.5c0 0.831 0.66897 1.5 1.5 1.5z" opacity=".2"/>
    </g>
    <g transform="translate(1.0008 1.0005)">
        <g transform="translate(.025436 -.047314)">
            <g transform="translate(-1.0008,-1.0005)">
                <path d="m8.5391 7.4609-4.5391 4.5391v2h2l4.5391-4.5391zm0 1.0625 0.93945 0.9375-2.0391 2.0391h-1.8789l2.9785-2.9766z" color="#000000" fill="#fff" stroke-linecap="square" stroke-width="1.5" style="-inkscape-stroke:none"/>
            </g>
            <path transform="translate(-1.0008,-1.0005)" d="m12.525 4.0957c-0.36779-0.00368-0.73685 0.13311-1.0215 0.41211l-1.3047 1.2773-0.75977-0.75977-0.95703 0.95703 3.5176 3.5176 0.95703-0.95703-0.72266-0.72266 1.2832-1.2578c0.56928-0.558 0.57949-1.4659 0.02148-2.0352-0.279-0.28464-0.64588-0.42796-1.0137-0.43164z" fill="#fff" style="paint-order:markers stroke fill"/>
        </g>
    </g>
    <g transform="translate(1.0008 1.0005)" display="none" fill="none" opacity=".8" stroke-width=".05">
        <rect transform="rotate(90)" x="3.3425" y="-12.657" width="9.3148" height="9.3148" display="inline" opacity="1" stroke="#000"/>
        <rect x="3" y="4" width="10" height="8" opacity="1" stroke="#0091ff" stroke-linecap="round" stroke-linejoin="round"/>
        <rect transform="rotate(90)" x="3" y="-12" width="10" height="8" display="inline" opacity="1" stroke="#00ff03" stroke-linecap="round" stroke-linejoin="round"/>
    </g>
</svg>
