<?xml version="1.0" encoding="UTF-8"?>
<svg version="1.1" viewBox="0 0 18.001 18" xmlns="http://www.w3.org/2000/svg">
    <g transform="translate(1.0008 -1092.8)">
        <rect x="9.5745e-5" y="1093.8" width="16" height="16" rx="1.5001" ry="1.5001" fill="#ff9800"/>
        <path transform="translate(-1.0008 1092.8)" d="m2.5 1c-0.83103 0-1.5 0.66897-1.5 1.5v0.5c0-0.83103 0.66897-1.5 1.5-1.5h13c0.83103 0 1.5 0.66897 1.5 1.5v-0.5c0-0.83103-0.66897-1.5-1.5-1.5z" fill="#fff" opacity=".2"/>
        <path d="m14.5 1109.8c0.83103 0 1.5-0.669 1.5-1.5v-0.5c0 0.831-0.66897 1.5-1.5 1.5h-13c-0.83103 0-1.5-0.669-1.5-1.5v0.5c0 0.831 0.66897 1.5 1.5 1.5z" opacity=".2"/>
    </g>
    <g transform="translate(1.0008 1.0005)">
        <path d="m3.8332 3c-0.46163 0-0.83324 0.37159-0.83324 0.83324v2.9169c0 0.46163 0.37159 0.83324 0.83324 0.83324h2.9169c0.46163 0 0.83324-0.37159 0.83324-0.83324v-2.9169c0-0.46163-0.37159-0.83324-0.83324-0.83324zm5.4166 0c-0.46163 0-0.83324 0.37159-0.83324 0.83324v2.9169c0 0.46163 0.37159 0.83324 0.83324 0.83324h2.9169c0.46163 0 0.83324-0.37159 0.83324-0.83324v-2.9169c0-0.46163-0.37159-0.83324-0.83324-0.83324zm-4.264 0.99226c0.35104 0 0.63255 0.11887 0.84271 0.35477 0.21018 0.23477 0.31534 0.55027 0.31534 0.94605 0 0.39464-0.10516 0.70881-0.31534 0.94466-0.21018 0.23477-0.49168 0.35204-0.84271 0.35204-0.35216 0-0.63279-0.11727-0.8441-0.35204-0.21018-0.23478-0.31535-0.54891-0.31534-0.94466 0-0.39576 0.10516-0.71124 0.31534-0.94605 0.2113-0.23589 0.49193-0.35477 0.8441-0.35477zm0 0.27592c-0.24596 0-0.4405 0.091216-0.58584 0.27457-0.14422 0.18335-0.21748 0.43391-0.21748 0.75029 0 0.31527 0.073261 0.56423 0.21748 0.74757 0.14534 0.18335 0.33988 0.27457 0.58584 0.27457s0.44137-0.091223 0.58447-0.27457c0.14422-0.18335 0.21612-0.43231 0.21612-0.74757 0-0.31639-0.071904-0.56696-0.21612-0.75029-0.1431-0.18335-0.33852-0.27457-0.58447-0.27457zm-1.1526 4.1484c-0.46163 0-0.83324 0.37159-0.83324 0.83324v2.9169c0 0.46163 0.37159 0.83324 0.83324 0.83324h2.9169c0.46163 0 0.83324-0.37159 0.83324-0.83324v-2.9169c0-0.46163-0.37159-0.83324-0.83324-0.83324zm5.4166 0c-0.46163 0-0.83324 0.37159-0.83324 0.83324v2.9169c0 0.46163 0.37159 0.83324 0.83324 0.83324h2.9169c0.46163 0 0.83324-0.37159 0.83324-0.83324v-2.9169c0-0.46163-0.37159-0.83324-0.83324-0.83324zm-0.00271 1.0371h0.86581c0.25825 0 0.45696 0.054422 0.59671 0.16175 0.13974 0.10733 0.20932 0.26018 0.20932 0.45806 0 0.15316-0.03583 0.27508-0.10738 0.36564s-0.17672 0.14619-0.31534 0.16855c0.16658 0.03578 0.29571 0.1116 0.38738 0.22564 0.09279 0.11292 0.14 0.25416 0.14 0.42409 0 0.2236-0.07631 0.39601-0.22835 0.51787s-0.36911 0.18214-0.64972 0.18214h-0.89845v-2.5038zm0.33845 0.27864v0.75439h0.50156c0.16546 0 0.28922-0.02958 0.36971-0.09107 0.08161-0.06261 0.12233-0.15799 0.12233-0.28544 0-0.12633-0.04072-0.22147-0.12233-0.28408-0.08049-0.062606-0.20426-0.093791-0.36971-0.093791h-0.50156zm0 1.0303v0.91752h0.5437c0.18223 0 0.3165-0.03791 0.4037-0.11282 0.08832-0.07602 0.13321-0.19121 0.13321-0.34661 0-0.15652-0.04489-0.27282-0.13321-0.34661-0.0872-0.0749-0.22147-0.11146-0.4037-0.11146h-0.5437z" fill="#fff" stroke-width=".69593"/>
    </g>
    <g transform="translate(1.0008 1.0005)" display="none" fill="none" opacity=".8" stroke-width=".05">
        <rect transform="rotate(90)" x="3.3425" y="-12.657" width="9.3148" height="9.3148" display="inline" opacity="1" stroke="#000"/>
        <rect x="3" y="4" width="10" height="8" opacity="1" stroke="#0091ff" stroke-linecap="round" stroke-linejoin="round"/>
        <rect transform="rotate(90)" x="3" y="-12" width="10" height="8" display="inline" opacity="1" stroke="#00ff03" stroke-linecap="round" stroke-linejoin="round"/>
    </g>
</svg>
