<?xml version="1.0" encoding="UTF-8"?>
<svg version="1.1" viewBox="0 0 18.001 18" xmlns="http://www.w3.org/2000/svg" xmlns:xlink="http://www.w3.org/1999/xlink">
    <g transform="translate(1.0008 -1092.8)">
        <rect x="9.5745e-5" y="1093.8" width="16" height="16" rx="1.5001" ry="1.5001" fill="#f43f36"/>
        <path transform="translate(-1.0008 1092.8)" d="m2.5 1c-0.83103 0-1.5 0.66897-1.5 1.5v0.5c0-0.83103 0.66897-1.5 1.5-1.5h13c0.83103 0 1.5 0.66897 1.5 1.5v-0.5c0-0.83103-0.66897-1.5-1.5-1.5z" fill="#fff" opacity=".2"/>
        <path d="m14.5 1109.8c0.83103 0 1.5-0.669 1.5-1.5v-0.5c0 0.831-0.66897 1.5-1.5 1.5h-13c-0.83103 0-1.5-0.669-1.5-1.5v0.5c0 0.831 0.66897 1.5 1.5 1.5z" opacity=".2"/>
    </g>
    <g transform="translate(1.0008 1.0005)" display="none">
        <image x="2.5" y="2.5" width="11" height="11" image-rendering="optimizeSpeed" preserveAspectRatio="none" xlink:href="../../../../../openjdk-8.png"/>
    </g>
    <g fill="#fff">
        <path d="m8.5129 4.0005c0.20867 1.6894-0.88674 2.6946-1.3053 3.8745-4.889e-4 0.00138-0.00149 0.00258-0.00197 0.00396-0.67758-0.099542-1.3363-0.045026-1.8749 0.17997-0.55059 0.23-0.9826 0.66022-1.0937 1.2559-0.24269-0.021173-0.38799 1.4316 0.39555 1.8987 0.42209-0.36562 0.87827-0.59283 1.9006-0.62695 0.15396-0.61218-1.1478-0.99159-1.7978-1.1788 0.077077-0.41319 0.35145-0.69727 0.78913-0.88011 0.40701-0.17003 0.949-0.23037 1.5189-0.1602-0.43407 1.3873-0.64536 2.837-0.61311 4.3333 0.013724 0.63667 0.56876 0.97565 1.0502 0.98691 0.76305 0.01784 0.48058-0.8435 1.7899-0.83462 1.6989 0.01152 0.88944 1.0749 1.9699 1.1432 0.72167 0.04561 1.0222-0.27086 1.1946-0.80297 0.25427-0.78488-0.02163-2.989-0.39555-4.5054 0.04866 0.080722 0.10065 0.17556 0.15229 0.28084 0.16192 0.33015 0.32701 0.74771 0.47664 1.1056 0.07481 0.17893 0.14627 0.343 0.21558 0.47862 0.0693 0.13562 0.10928 0.24194 0.2492 0.34018 0.06996 0.04911 0.22894 0.08412 0.34018 0.01978s0.2238-0.13888 0.2492-0.21162c0.0508-0.14548 0.22398-0.31934 0.23536-0.58344 0.0025-0.05286-0.16987-1.1429-0.23931-1.5486-0.08048-0.47016-0.15525-0.81583-0.36984-0.80298-0.21459 0.012855-0.05637 1.5215-0.25909 1.6732-0.04159 0.031122-0.07753 0.060832-0.10878 0.089-0.10854-0.26273-0.21344-0.53689-0.33424-0.7832-0.088214-0.17987-0.17707-0.34267-0.27689-0.47862s-0.20458-0.26138-0.38962-0.31051c-0.050175-0.013486-0.10059-0.0095498-0.14636 0.0059333-0.040312-0.12318-0.08035-0.23944-0.12064-0.3382-0.5463-1.339-1.9034-3.219-3.2-3.6233zm1.1669 2.3793c0.70069 5.894e-4 1.2683 0.56904 1.2678 1.2697-5.89e-4 0.69992-0.56784 1.2672-1.2678 1.2678-0.70069 5.031e-4 -1.2691-0.56706-1.2697-1.2678-5.035e-4 -0.70146 0.56827-1.2702 1.2697-1.2697z"/>
        <path d="m5.7188 8.5615 0.86561 0.041379-0.27101 1.3169-1.1741-0.8448z" style="paint-order:markers stroke fill"/>
    </g>
    <g transform="translate(1.0008 1.0005)" display="none" fill="none" opacity=".8" stroke-width=".05">
        <rect transform="rotate(90)" x="3.3425" y="-12.657" width="9.3148" height="9.3148" display="inline" opacity="1" stroke="#000"/>
        <rect x="3" y="4" width="10" height="8" opacity="1" stroke="#0091ff" stroke-linecap="round" stroke-linejoin="round"/>
        <rect transform="rotate(90)" x="3" y="-12" width="10" height="8" display="inline" opacity="1" stroke="#00ff03" stroke-linecap="round" stroke-linejoin="round"/>
    </g>
</svg>
