<?xml version="1.0" encoding="UTF-8"?>
<svg version="1.1" viewBox="0 0 18.001 18" xmlns="http://www.w3.org/2000/svg">
    <g transform="translate(1.0008 -1092.8)">
        <rect x="9.5745e-5" y="1093.8" width="16" height="16" rx="1.5001" ry="1.5001" fill="#03a9f4"/>
        <path transform="translate(-1.0008 1092.8)" d="m2.5 1c-0.83103 0-1.5 0.66897-1.5 1.5v0.5c0-0.83103 0.66897-1.5 1.5-1.5h13c0.83103 0 1.5 0.66897 1.5 1.5v-0.5c0-0.83103-0.66897-1.5-1.5-1.5z" fill="#fff" opacity=".2"/>
        <path d="m14.5 1109.8c0.83103 0 1.5-0.669 1.5-1.5v-0.5c0 0.831-0.66897 1.5-1.5 1.5h-13c-0.83103 0-1.5-0.669-1.5-1.5v0.5c0 0.831 0.66897 1.5 1.5 1.5z" opacity=".2"/>
    </g>
    <g transform="translate(1.0008 1.0005)">
        <path d="m7.0094 3.0008c-0.034363 0.0021-0.070374 0.00909-0.10885 0.022367-0.1373 0.047365-0.19103 0.15085-0.22814 0.19385-0.062778 0.072729-0.11773 0.15288-0.16253 0.23709-0.067801 0.12743-0.1099 0.25617-0.1506 0.37426-0.048662 0.14121-0.087399 0.28346-0.12376 0.42347-0.082299 0.31687-0.12379 0.6306-0.20726 0.9185-0.089567 0.30894-0.12772 0.60836-0.27734 0.80223-0.14758 0.1912-0.42735 0.30427-0.70082 0.4682-0.25729 0.15423-0.54852 0.27554-0.83353 0.4369-0.12699 0.071893-0.2556 0.14664-0.38023 0.23112-0.10568 0.071634-0.22258 0.14708-0.32953 0.24752-0.077184 0.072481-0.14283 0.15289-0.2013 0.23709-0.0336 0.048387-0.14537 0.13553-0.1506 0.30419-0.00527 0.16988 0.10158 0.26324 0.13271 0.31462 0.053421 0.08817 0.11557 0.17392 0.18937 0.252 0.10129 0.10717 0.2131 0.18945 0.31462 0.26691 0.11983 0.091422 0.24387 0.17316 0.36681 0.252 0.27573 0.17681 0.55953 0.31369 0.80818 0.48163 0.26417 0.17842 0.53873 0.30397 0.67546 0.5025 0.13904 0.20187 0.15999 0.5062 0.23261 0.82009 0.06758 0.29209 0.093125 0.60658 0.15806 0.92743 0.02866 0.14164 0.058953 0.28589 0.099904 0.42944 0.034103 0.11956 0.068267 0.24924 0.12972 0.38023 0.040264 0.08582 0.090048 0.16971 0.14911 0.24454 0.035767 0.04532 0.085391 0.14641 0.21621 0.19981 0.14801 0.06042 0.27412 0.01625 0.34743 0.0075 0.10262-0.01231 0.21308-0.03245 0.32208-0.07605 0.14386-0.05754 0.25844-0.14228 0.36234-0.21173 0.12591-0.08418 0.24292-0.17629 0.35638-0.2684 0.2545-0.20663 0.47224-0.43376 0.70827-0.6203 0.2522-0.19932 0.45284-0.42683 0.68143-0.49505 0.23419-0.06988 0.53242 0.01029 0.85735 0.04026 0.2992 0.02759 0.60632 0.10097 0.93194 0.13718 0.14303 0.0159 0.28758 0.0294 0.43689 0.0328h0.0015c0.11914 0.0027 0.25861 0.01615 0.40856-0.01342 0.0988-0.01949 0.18724-0.0561 0.2684-0.0999 0.06549-0.03534 0.15294-0.07987 0.22367-0.16849 0.07764-0.09731 0.10386-0.20239 0.12675-0.28182 0.02667-0.09256 0.04959-0.19671 0.04623-0.31015-0.0047-0.1579-0.05295-0.29161-0.08499-0.40707-0.04026-0.14514-0.091197-0.28536-0.14313-0.42051-0.11764-0.30605-0.26785-0.58417-0.37277-0.86635-0.11361-0.30551-0.27205-0.56891-0.26542-0.80963 0.0066-0.24033 0.17862-0.49328 0.30866-0.79177 0.12024-0.27601 0.28492-0.54624 0.419-0.84544 0.05927-0.13228 0.1174-0.26718 0.16551-0.41005 0.03839-0.114 0.09548-0.24512 0.10885-0.40259 0.0097-0.11423-0.0084-0.22134-0.02982-0.31611-0.01816-0.080459-0.03556-0.18975-0.11034-0.29374-0.06699-0.093163-0.1539-0.1405-0.21621-0.17744-0.07928-0.046998-0.16758-0.085162-0.26392-0.10885-0.14738-0.036233-0.2846-0.032194-0.40409-0.035783-0.14922-0.0045-0.29623 7.634e-4 -0.43987 0.00895-0.32707 0.018567-0.63772 0.075474-0.93789 0.086483-0.32585 0.011948-0.62706 0.073749-0.85735-0.00895-0.2246-0.08065-0.41244-0.31557-0.65314-0.52787-0.22557-0.19895-0.43124-0.43877-0.67398-0.65907-0.10828-0.098263-0.22047-0.19668-0.34146-0.28778-0.10026-0.075488-0.20953-0.16663-0.34892-0.23261-0.10563-0.050002-0.21412-0.077581-0.31611-0.096919-0.053263-0.010101-0.13698-0.043573-0.24006-0.037277zm2.4315 3.1225h0.71125l-0.16849 2.4424h-0.37427zm-1.5701 0.81269c0.66096 0 1.2794 0.5767 1.2794 1.3196 0 0.74291-0.6184 1.3182-1.2794 1.3182-0.66096 0-1.2794-0.57522-1.2794-1.3182 0-0.74291 0.6184-1.3196 1.2794-1.3196zm0 0.55767c-0.30147 0-0.59197 0.31378-0.59197 0.76195 0 0.44818 0.2905 0.76046 0.59197 0.76046 0.30147-8e-7 0.59345-0.31229 0.59345-0.76046 0-0.44818-0.29199-0.76195-0.59345-0.76195zm1.5985 1.3539h0.65459v0.59345h-0.65459z" color="#000000" color-rendering="auto" dominant-baseline="auto" fill="#fff" image-rendering="auto" shape-rendering="auto" solid-color="#000000" stroke-width=".76344" style="font-feature-settings:normal;font-variant-alternates:normal;font-variant-caps:normal;font-variant-ligatures:normal;font-variant-numeric:normal;font-variant-position:normal;isolation:auto;mix-blend-mode:normal;paint-order:stroke markers fill;shape-padding:0;text-decoration-color:#000000;text-decoration-line:none;text-decoration-style:solid;text-indent:0;text-orientation:mixed;text-transform:none;white-space:normal"/>
    </g>
    <g transform="translate(1.0008 1.0005)" display="none" fill="none" opacity=".8" stroke-width=".05">
        <rect transform="rotate(90)" x="3.3425" y="-12.657" width="9.3148" height="9.3148" display="inline" opacity="1" stroke="#000"/>
        <rect x="3" y="4" width="10" height="8" opacity="1" stroke="#0091ff" stroke-linecap="round" stroke-linejoin="round"/>
        <rect transform="rotate(90)" x="3" y="-12" width="10" height="8" display="inline" opacity="1" stroke="#00ff03" stroke-linecap="round" stroke-linejoin="round"/>
    </g>
</svg>
