<?xml version="1.0" encoding="UTF-8"?>
<svg version="1.1" viewBox="0 0 18.001 18" xmlns="http://www.w3.org/2000/svg">
    <g transform="translate(1.0008 -1092.8)">
        <rect x="9.5745e-5" y="1093.8" width="16" height="16" rx="1.5001" ry="1.5001" fill="#f43f36"/>
        <path transform="translate(-1.0008 1092.8)" d="m2.5 1c-0.83103 0-1.5 0.66897-1.5 1.5v0.5c0-0.83103 0.66897-1.5 1.5-1.5h13c0.83103 0 1.5 0.66897 1.5 1.5v-0.5c0-0.83103-0.66897-1.5-1.5-1.5z" fill="#fff" opacity=".2"/>
        <path d="m14.5 1109.8c0.83103 0 1.5-0.669 1.5-1.5v-0.5c0 0.831-0.66897 1.5-1.5 1.5h-13c-0.83103 0-1.5-0.669-1.5-1.5v0.5c0 0.831 0.66897 1.5 1.5 1.5z" opacity=".2"/>
    </g>
    <g transform="translate(1.0008 1.0005)">
        <g transform="matrix(.78904 0 0 .78904 1.5442 1.6057)">
            <path transform="translate(-1.0008 -1.0005)" d="m13.018 3.2168c-0.95307 0.00901-1.8963 0.31485-2.8125 0.81055-0.5003 0.27067-0.93468 0.64531-1.1992 0.77148-2.8062-0.50682-5.8417 1.8062-6.1484 5.8008-0.011785 0.1534-0.016901 0.39387-0.00391 0.62695 0.012999 0.23308 0.027594 0.44283 0.12305 0.59766l0.00586 0.01172 0.074219 0.08008 0.035156 0.0098c1.5964 0.4808 3.7571-0.0256 5.0605-0.57031 0.36138 0.10914 0.82539 0.18478 1.4316 0.20703h0.017578l0.019531-0.0039c0.12966-0.03377 0.23537-0.10423 0.28711-0.20898 0.051738-0.10476 0.042374-0.22119 0.00586-0.33008-0.03295-0.09826-0.087959-0.1988-0.1582-0.30078 0.51695-0.08541 0.91695 0.01739 1.2344 0.17969 0.25364 0.12968 0.45395 0.30076 0.61133 0.45508 0.15277 0.1498 0.24706 0.27428 0.35938 0.35352 0.07382 0.08049 0.02881 0.16847 0.0098 0.26562-0.05805 0.14989-0.18671 0.34956-0.33008 0.56641-0.28674 0.43368-0.65067 0.94139-0.59766 1.4629 0.02672 0.26282 0.094 0.46135 0.15625 0.5957s0.12695 0.21094 0.12695 0.21094l0.15039 0.18359 0.08008-0.22461c0.18011-0.50992 0.53094-0.64136 0.88867-0.81445 0.17887-0.08655 0.36095-0.18069 0.49609-0.3457 0.10912-0.13324 0.13999-0.34603 0.15234-0.57422 0.40146 0.16157 0.74658 0.17089 1.0176 0.06055 0.31469-0.12814 0.59404-0.28042 1.1074-0.20117l0.30078 0.04492-0.16797-0.25391c-0.15046-0.22913-0.37062-0.6176-0.84375-0.82031l-2e-3 -2e-3h-0.0039c-0.25442-0.095434-0.5616-0.13184-0.8203-0.21484-0.25608-0.082156-0.4429-0.1952-0.52734-0.43164-0.017137-0.33113-0.026774-1.3628-0.22852-2.4629-0.20154-1.099-0.58874-2.2658-1.4199-2.8516 0.0038 0.00864 0.0075 0.016941 0.01172 0.025391l-0.044923-0.050782c0.0115 0.00777 0.02187 0.017403 0.0332 0.025391-0.08449-0.19057-0.08129-0.42748-2e-3 -0.67578 0.08294-0.25956 0.24836-0.52606 0.46094-0.74023 0.19602-0.19751 0.45026-0.39339 0.68164-0.57031 0.23138-0.17693 0.43723-0.32848 0.5625-0.47266l0.19141-0.2207-0.29102-0.00391c-0.03077-3.307e-4 -0.06105-2.908e-4 -0.0918 0zm-7.2793 5.7012c0.025276-0.00333 0.049906-0.00311 0.072266 0 0.02385 0.00331 0.044691 0.010013 0.064453 0.021484 0.19338 0.28055-0.62303 1.3204-1.0254 0.99023-0.1597-0.22712 0.50954-0.96178 0.88867-1.0117zm5.1816 0.019531c0.07508-0.00121 0.1496-7.411e-4 0.2207 0.00195 0.34127 0.012932 0.6206 0.075555 0.67969 0.22656 0.13694 0.34999-2.4418 0.35932-0.41016 1.3125 0.50529 0.32402 0.50572 0.81508 0.45898 0.75195-0.35407-0.33956-1.0105-1.0382-2.3105-0.76172-0.038045-0.043427-0.077575-0.086674-0.11914-0.13086-0.23716-0.2521-0.52622-0.51008-0.80273-0.73438 0.26184-0.17528 0.57814-0.35877 1.0059-0.50586 0.16412-0.056442 0.75177-0.15165 1.2773-0.16016zm-4.7852 1.2422c0.1938-5e-3 0.39981 0.01479 0.61719 0.03125 0.00582 0.0084 0.011627 0.01659 0.017578 0.02539 0.095213 0.14073 0.19588 0.33262 0.37109 0.52539 0.13582 0.14943 0.31688 0.29418 0.57031 0.41992-1.0395 0.40318-2.353 0.76817-3.6367 0.62891-0.021797-0.0024-0.037585-0.0018-0.046875 0 0.044574-0.01383 0.36184-0.16041 1.1797-1.1816 0.27933-0.34881 0.58653-0.44034 0.92773-0.44922z" color="#000000" fill="#fff" fill-rule="evenodd" style="-inkscape-stroke:none"/>
        </g>
    </g>
    <g transform="translate(1.0008 1.0005)" display="none" fill="none" opacity=".8" stroke-width=".05">
        <rect transform="rotate(90)" x="3.3425" y="-12.657" width="9.3148" height="9.3148" display="inline" opacity="1" stroke="#000"/>
        <rect x="3" y="4" width="10" height="8" opacity="1" stroke="#0091ff" stroke-linecap="round" stroke-linejoin="round"/>
        <rect transform="rotate(90)" x="3" y="-12" width="10" height="8" display="inline" opacity="1" stroke="#00ff03" stroke-linecap="round" stroke-linejoin="round"/>
    </g>
</svg>
