<?xml version="1.0" encoding="UTF-8"?>
<svg version="1.1" viewBox="0 0 18.001 18" xmlns="http://www.w3.org/2000/svg">
    <g transform="translate(1.0008 -1092.8)">
        <rect x="9.5745e-5" y="1093.8" width="16" height="16" rx="1.5001" ry="1.5001" fill="#3f51b5"/>
        <path transform="translate(-1.0008 1092.8)" d="m2.5 1c-0.83103 0-1.5 0.66897-1.5 1.5v0.5c0-0.83103 0.66897-1.5 1.5-1.5h13c0.83103 0 1.5 0.66897 1.5 1.5v-0.5c0-0.83103-0.66897-1.5-1.5-1.5z" fill="#fff" opacity=".2"/>
        <path d="m14.5 1109.8c0.83103 0 1.5-0.669 1.5-1.5v-0.5c0 0.831-0.66897 1.5-1.5 1.5h-13c-0.83103 0-1.5-0.669-1.5-1.5v0.5c0 0.831 0.66897 1.5 1.5 1.5z" opacity=".2"/>
    </g>
    <g transform="translate(1.0008 1.0005)">
        <path d="m11.359 3.1729a1.6414 1.6414 0 0 0-1.6413 1.6413 1.6414 1.6414 0 0 0 0.021939 0.20156l-3.9174 1.8579a1.6414 1.6414 0 0 0-1.1805-0.51556 1.6414 1.6414 0 0 0-1.6413 1.6413 1.6414 1.6414 0 0 0 1.6413 1.6426 1.6414 1.6414 0 0 0 1.1888-0.51145l3.9092 1.8538a1.6414 1.6414 0 0 0-0.021939 0.20019 1.6414 1.6414 0 0 0 1.6413 1.6426 1.6414 1.6414 0 0 0 1.6413-1.6426 1.6414 1.6414 0 0 0-1.1299-1.5481v-3.262a1.6414 1.6414 0 0 0 1.1299-1.5604 1.6414 1.6414 0 0 0-1.6413-1.6413zm0.09324 0.34554a0.71692 0.341 11.88 0 1 0.31126 0.030166 0.71692 0.341 11.88 0 1 0.63211 0.48128 0.71692 0.341 11.88 0 1-0.77196 0.18648 0.71692 0.341 11.88 0 1-0.63074-0.48128 0.71692 0.341 11.88 0 1 0.45934-0.21664zm-1.2738 2.4229a1.6414 1.6414 0 0 0 0.66776 0.42232v3.273a1.6414 1.6414 0 0 0-0.66639 0.42095l-3.9106-1.8538a1.6414 1.6414 0 0 0 0.013711-0.20431 1.6414 1.6414 0 0 0-0.021939-0.20019l3.9174-1.8579zm-5.4435 0.76234a0.71692 0.341 11.88 0 1 0.31126 0.030166 0.71692 0.341 11.88 0 1 0.63211 0.48128 0.71692 0.341 11.88 0 1-0.77196 0.18648 0.71692 0.341 11.88 0 1-0.63074-0.48128 0.71692 0.341 11.88 0 1 0.45934-0.21664zm6.7174 3.1852a0.71692 0.341 11.88 0 1 0.31126 0.030167 0.71692 0.341 11.88 0 1 0.63211 0.48128 0.71692 0.341 11.88 0 1-0.77196 0.18648 0.71692 0.341 11.88 0 1-0.63074-0.48128 0.71692 0.341 11.88 0 1 0.45934-0.21664z" fill="#fff" stroke-linecap="round" stroke-linejoin="round" stroke-width=".69085"/>
    </g>
    <g transform="translate(1.0008 1.0005)" display="none" fill="none" opacity=".8" stroke-width=".05">
        <rect transform="rotate(90)" x="3.3425" y="-12.657" width="9.3148" height="9.3148" display="inline" opacity="1" stroke="#000"/>
        <rect x="3" y="4" width="10" height="8" opacity="1" stroke="#0091ff" stroke-linecap="round" stroke-linejoin="round"/>
        <rect transform="rotate(90)" x="3" y="-12" width="10" height="8" display="inline" opacity="1" stroke="#00ff03" stroke-linecap="round" stroke-linejoin="round"/>
    </g>
</svg>
