<?xml version="1.0" encoding="UTF-8"?>
<svg version="1.1" viewBox="0 0 18.001 18" xmlns="http://www.w3.org/2000/svg" xmlns:xlink="http://www.w3.org/1999/xlink">
    <g transform="translate(1.0008 -1092.8)">
        <rect x="9.5745e-5" y="1093.8" width="16" height="16" rx="1.5001" ry="1.5001" fill="#ffc107"/>
        <path transform="translate(-1.0008 1092.8)" d="m2.5 1c-0.83103 0-1.5 0.66897-1.5 1.5v0.5c0-0.83103 0.66897-1.5 1.5-1.5h13c0.83103 0 1.5 0.66897 1.5 1.5v-0.5c0-0.83103-0.66897-1.5-1.5-1.5z" fill="#fff" opacity=".2"/>
        <path d="m14.5 1109.8c0.83103 0 1.5-0.669 1.5-1.5v-0.5c0 0.831-0.66897 1.5-1.5 1.5h-13c-0.83103 0-1.5-0.669-1.5-1.5v0.5c0 0.831 0.66897 1.5 1.5 1.5z" opacity=".2"/>
    </g>
    <g transform="translate(1.0008 1.0005)" display="none">
        <image x="2.8746" y="2.8746" width="10.251" height="10.251" image-rendering="optimizeSpeed" preserveAspectRatio="none" xlink:href="../../../../../org.duckstation.DuckStation.png"/>
    </g>
    <path d="m9.6855 4.0312-2.3633 1.3867 0.0019532 0.15039-0.4375 0.25586 0.0097656-0.94727s-0.54673-0.32837-0.85742-0.52344l-0.87109 0.52539-0.0058594 1.0234 0.80273 0.46094-0.92578 0.54297-0.0019531 3.7012 1.6426 0.96094-0.0097656 1.75c-0.0012 0.18064 0.095114 0.34788 0.25195 0.4375l1.127 0.64062c0.15455 0.08795 0.34419 0.087257 0.49805-0.001953l0.55078-0.32031c0.15114-0.08815 0.24521-0.24889 0.24805-0.42383l0.0058594-0.40625 0.32031 0.18945c0.15632 0.09295 0.35078 0.093653 0.50781 0.001953l0.55078-0.32031c0.15114-0.08815 0.24521-0.24889 0.24805-0.42383l0.009765-0.63086c0.0031-0.17606-0.086698-0.34075-0.23633-0.43359l-0.32031-0.19726 0.005859-0.35352c4.47e-4 -0.029318-0.003278-0.057864-0.007812-0.085938l0.65039-0.38086 0.001953-0.51172 0.25 0.15234a0.50005 0.50005 0 0 0 0.51367 0.003906l1.377-0.81445a0.50005 0.50005 0 0 0 0.24609-0.41992l0.011719-0.51367a0.50005 0.50005 0 0 0-0.25781-0.44727s-0.73516-0.4086-1.2285-0.70898l0.011718-1.9668s-1.4797-0.82376-2.3203-1.3516zm2 2.6641v0.59375l-0.49805 0.3125v-0.5918l0.49805-0.31445zm-1.1934 0.68945v0.5918l-0.49805 0.3125v-0.5918l0.49805-0.3125zm1.0957 0.30078c0.50413 0.31651 1.3926 0.81055 1.3926 0.81055l-0.011719 0.51367-1.377 0.8125-1.3809-0.83594-0.013672-0.49023 1.3906-0.81055zm-1.6543 3.5957-0.0058594 0.42188 0.56055 0.34961-0.009765 0.63086-0.55078 0.32031-1.1016-0.6543-0.011719-0.41211 1.1191-0.65625zm-2.7559 0.57812 0.88672 0.51758 0.23828-0.14062-0.0078125 0.42578 0.56055 0.34766-0.0097657 0.63281-0.55078 0.32031-1.125-0.64062 0.0078125-1.4629z" fill="#fff" style="paint-order:markers stroke fill"/>
    <g transform="translate(1.0008 1.0005)" display="none" fill="none" opacity=".8" stroke-width=".05">
        <rect transform="rotate(90)" x="3.3425" y="-12.657" width="9.3148" height="9.3148" display="inline" opacity="1" stroke="#000"/>
        <rect x="3" y="4" width="10" height="8" opacity="1" stroke="#0091ff" stroke-linecap="round" stroke-linejoin="round"/>
        <rect transform="rotate(90)" x="3" y="-12" width="10" height="8" display="inline" opacity="1" stroke="#00ff03" stroke-linecap="round" stroke-linejoin="round"/>
    </g>
</svg>
