<?xml version="1.0" encoding="UTF-8"?>
<svg version="1.1" viewBox="0 0 18.001 18" xmlns="http://www.w3.org/2000/svg" xmlns:xlink="http://www.w3.org/1999/xlink">
    <g transform="translate(1.0008 -1092.8)">
        <rect x="9.5745e-5" y="1093.8" width="16" height="16" rx="1.5001" ry="1.5001" fill="#ff9800"/>
        <path transform="translate(-1.0008 1092.8)" d="m2.5 1c-0.83103 0-1.5 0.66897-1.5 1.5v0.5c0-0.83103 0.66897-1.5 1.5-1.5h13c0.83103 0 1.5 0.66897 1.5 1.5v-0.5c0-0.83103-0.66897-1.5-1.5-1.5z" fill="#fff" opacity=".2"/>
        <g transform="translate(-22.32 1056.5)">
            <g transform="matrix(.37187 0 0 .37187 38.802 63.239)"></g>
        </g>
        <path d="m14.5 1109.8c0.83103 0 1.5-0.669 1.5-1.5v-0.5c0 0.831-0.66897 1.5-1.5 1.5h-13c-0.83103 0-1.5-0.669-1.5-1.5v0.5c0 0.831 0.66897 1.5 1.5 1.5z" opacity=".2"/>
    </g>
    <g transform="translate(1.0008 1.0005)">
        <path transform="translate(-1.0008 -1.0005)" d="m4.502 4a0.50084 0.50084 0 0 0-0.50195 0.50195v6.998a0.50084 0.50084 0 0 0 0.50195 0.5h2.8438v-1.582h-2.127v-0.75781h2.127v-0.75977h-2.127v-0.75977h2.127v-1.6406c0-0.29832 0.13629-0.56775 0.34766-0.75195v-0.82227l0.58203 0.57812c0.023725-0.0017325 0.046192-0.0039062 0.070312-0.0039062h0.84766l-1.25-1.248a0.85585 0.85585 0 0 0-0.60547-0.25195h-2.8359zm3.8457 2a0.50084 0.50084 0 0 0-0.50195 0.50195v6.998a0.50084 0.50084 0 0 0 0.50195 0.5h5.1523a0.4995 0.4995 0 0 0 0.5-0.49805v-4.6875a0.85126 0.85126 0 0 0-0.24805-0.60156l-1.9629-1.9609a0.85585 0.85585 0 0 0-0.60547-0.25195h-2.8359zm3.1914 0.92578 1.5469 1.5371h-1.5469v-1.5371zm-0.33203 2.3438a1.7427 1.7427 0 0 1 1.4531 1.7187 1.7427 1.7427 0 0 1-0.11523 0.60547l-0.50781-0.29492a1.1618 1.1618 0 0 0 0.041016-0.31055 1.1618 1.1618 0 0 0-0.87109-1.123v-0.5957zm-0.58008 0.0039063v0.5918a1.1618 1.1618 0 0 0-0.87305 1.1191l-0.57031 0.14453a1.7427 1.7427 0 0 1-0.0097657-0.14062 1.7427 1.7427 0 0 1 1.4531-1.7148zm-0.72461 2.2715a1.1618 1.1618 0 0 0 1.0137 0.60547 1.1618 1.1618 0 0 0 0.82812-0.34961l0.51367 0.29688a1.7427 1.7427 0 0 1-1.3418 0.63281 1.7427 1.7427 0 0 1-1.5898-1.0391l0.57617-0.14648z" fill="#fff" style="paint-order:markers stroke fill"/>
    </g>
    <g transform="translate(1.0008 1.0005)" display="none" fill="none" opacity=".8" stroke-width=".05">
        <rect transform="rotate(90)" x="3.3425" y="-12.657" width="9.3148" height="9.3148" display="inline" opacity="1" stroke="#000"/>
        <rect x="3" y="4" width="10" height="8" opacity="1" stroke="#0091ff" stroke-linecap="round" stroke-linejoin="round"/>
        <rect transform="rotate(90)" x="3" y="-12" width="10" height="8" display="inline" opacity="1" stroke="#00ff03" stroke-linecap="round" stroke-linejoin="round"/>
    </g>
</svg>
