<?xml version="1.0" encoding="UTF-8"?>
<svg version="1.1" viewBox="0 0 18.001 18" xmlns="http://www.w3.org/2000/svg">
    <g transform="translate(1.0008 -1092.8)">
        <rect x="9.5745e-5" y="1093.8" width="16" height="16" rx="1.5001" ry="1.5001" fill="#9c27b0"/>
        <path transform="translate(-1.0008 1092.8)" d="m2.5 1c-0.83103 0-1.5 0.66897-1.5 1.5v0.5c0-0.83103 0.66897-1.5 1.5-1.5h13c0.83103 0 1.5 0.66897 1.5 1.5v-0.5c0-0.83103-0.66897-1.5-1.5-1.5z" fill="#fff" opacity=".2"/>
        <g transform="translate(-22.32 1056.5)"></g>
        <path d="m14.5 1109.8c0.83103 0 1.5-0.669 1.5-1.5v-0.5c0 0.831-0.66897 1.5-1.5 1.5h-13c-0.83103 0-1.5-0.669-1.5-1.5v0.5c0 0.831 0.66897 1.5 1.5 1.5z" opacity=".2"/>
    </g>
    <g transform="translate(1.0008 1.0005)">
        <path transform="translate(-1.0008 -1.0005)" d="m4.4531 4 4.5469 4.5469 4.5488-4.5469h-9.0957zm-0.45312 0.45312v9.0957l4.5488-4.5488-4.5488-4.5469zm10 0.0019531-4.5469 4.5449 4.5469 4.5469v-9.0918zm-5.0527 0.11523c0.011732-4.845e-4 0.023186 0 0.035156 0 0.43518 0 0.68359 0.31213 0.68359 0.88281 0 0.61759-0.29848 0.97852-0.83789 0.97852-0.16938 0-0.32478-0.037064-0.46289-0.10742l0.087891-0.25586c0.10945 0.052117 0.25057 0.083984 0.37305 0.083984 0.33355-2e-7 0.50651-0.22238 0.51172-0.64453-0.10684 0.14593-0.27136 0.22656-0.4668 0.22656-0.31792 0-0.53516-0.21788-0.53516-0.54883 0-0.35342 0.24763-0.60022 0.61133-0.61523zm0.0058594 0.28125c-0.1798 0-0.29102 0.12293-0.29102 0.30273 0 0.18762 0.12032 0.31055 0.31055 0.31055 0.14593-2e-7 0.27665-0.076738 0.34961-0.20703-0.0443-0.26319-0.1711-0.40625-0.36914-0.40625zm-3.3301 3.2188c0.016382-6.993e-4 0.031971 0 0.048828 0 0.16938 0 0.32673 0.037063 0.46484 0.10742l-0.087891 0.25391c-0.10945-0.052117-0.25057-0.082031-0.37305-0.082031-0.33355 0-0.50651 0.22043-0.51172 0.64258 0.10684-0.14593 0.27136-0.22656 0.4668-0.22656 0.31792 0 0.53516 0.21984 0.53516 0.55078 0 0.36482-0.26342 0.61523-0.64648 0.61523-0.43518 0-0.68359-0.31408-0.68359-0.88477 0-0.59829 0.27928-0.95489 0.78711-0.97656zm6.8535 0c0.011556-4.037e-4 0.023349 0 0.035157 0 0.35179 0 0.5957 0.17951 0.5957 0.44531 0 0.18502-0.11966 0.3476-0.32812 0.43359 0.21108 0.085994 0.39844 0.20491 0.39844 0.46289 0 0.30749-0.27252 0.51953-0.68164 0.51953-0.3987 0-0.67188-0.19838-0.67188-0.49023 0-0.20326 0.12942-0.36584 0.3457-0.44141-0.16156-0.083388-0.28711-0.20364-0.28711-0.41992 0-0.29283 0.23556-0.49725 0.59375-0.50977zm0.007813 0.27344c-0.16938 0-0.27539 0.08911-0.27539 0.2168 0 0.14853 0.13531 0.22131 0.30469 0.28906 0.16156-0.036482 0.27148-0.14054 0.27148-0.27344 0-0.13811-0.12358-0.23242-0.30078-0.23242zm-6.9824 0.69336c-0.13482 0.0087795-0.25386 0.082928-0.32227 0.20508 0.0443 0.26319 0.16914 0.40625 0.36719 0.40625 0.1798 0 0.29297-0.12098 0.29297-0.30078 0-0.18762-0.12032-0.31055-0.31055-0.31055-0.0091206 0-0.018356-5.853e-4 -0.027344 0zm6.9258 0.070312c-0.16938 0.033876-0.27148 0.13728-0.27148 0.27539 0 0.16417 0.1496 0.27148 0.37109 0.27148 0.20065 0 0.32031-0.089105 0.32031-0.22461 0-0.1772-0.20103-0.24409-0.41992-0.32227zm-3.4277 0.3457-4.5469 4.5469h9.0957l-4.5488-4.5469zm0.11719 2.1348h0.31836v1.1543h0.32031v0.27734h-0.32031v0.39453h-0.32617v-0.39453h-0.86328v-0.17383l0.87109-1.2578zm-0.0078125 0.38672-0.50781 0.76367h0.50781v-0.76367z" fill="#fff" style="paint-order:markers stroke fill"/>
    </g>
    <g transform="translate(1.0008 1.0005)" display="none" fill="none" opacity=".8" stroke-width=".05">
        <rect transform="rotate(90)" x="3.3425" y="-12.657" width="9.3148" height="9.3148" display="inline" opacity="1" stroke="#000"/>
        <rect x="3" y="4" width="10" height="8" opacity="1" stroke="#0091ff" stroke-linecap="round" stroke-linejoin="round"/>
        <rect transform="rotate(90)" x="3" y="-12" width="10" height="8" display="inline" opacity="1" stroke="#00ff03" stroke-linecap="round" stroke-linejoin="round"/>
    </g>
</svg>
