<?xml version="1.0" encoding="UTF-8"?>
<svg version="1.1" viewBox="0 0 18.001 18" xmlns="http://www.w3.org/2000/svg">
    <g transform="translate(1.0008 -1092.8)">
        <rect x="9.5745e-5" y="1093.8" width="16" height="16" rx="1.5001" ry="1.5001" fill="#4caf50"/>
        <path transform="translate(-1.0008 1092.8)" d="m2.5 1c-0.83103 0-1.5 0.66897-1.5 1.5v0.5c0-0.83103 0.66897-1.5 1.5-1.5h13c0.83103 0 1.5 0.66897 1.5 1.5v-0.5c0-0.83103-0.66897-1.5-1.5-1.5z" fill="#fff" opacity=".2"/>
        <path d="m14.5 1109.8c0.83103 0 1.5-0.669 1.5-1.5v-0.5c0 0.831-0.66897 1.5-1.5 1.5h-13c-0.83103 0-1.5-0.669-1.5-1.5v0.5c0 0.831 0.66897 1.5 1.5 1.5z" opacity=".2"/>
    </g>
    <g transform="translate(1.0008 1.0005)">
        <path d="m3 3 0.062999 4.9999s-0.062999 2.7332-0.062999 2.9164c0 1.1541 0.92963 2.0837 2.0837 2.0837h5.8326c1.1541 0 2.0837-0.92963 2.0837-2.0837 0-0.16103-0.10035-2.9164-0.10035-2.9164l0.10035-4.9999zm1.2125 0.68778c0.20955-2.617e-4 0.37949 0.16968 0.37923 0.37923-4.889e-4 0.20902-0.17021 0.37813-0.37923 0.37787-0.20902 2.615e-4 -0.37874-0.16885-0.37923-0.37787-2.616e-4 -0.20955 0.16968-0.37949 0.37923-0.37923zm1.5155 0c0.20902 4.893e-4 0.37813 0.17021 0.37787 0.37923-4.872e-4 0.20849-0.16938 0.37739-0.37787 0.37787-0.20902 2.616e-4 -0.37874-0.16885-0.37923-0.37787-2.617e-4 -0.20955 0.16968-0.37949 0.37923-0.37923zm1.5142 0c0.20955-2.618e-4 0.37949 0.16968 0.37923 0.37923-4.886e-4 0.20902-0.17021 0.37813-0.37923 0.37787-0.20902 2.616e-4 -0.37874-0.16885-0.37923-0.37787-2.617e-4 -0.20955 0.16968-0.37949 0.37923-0.37923zm1.5155 0c0.20902 4.89e-4 0.37813 0.17021 0.37787 0.37923-4.871e-4 0.20849-0.16938 0.37739-0.37787 0.37787-0.20902 2.616e-4 -0.37874-0.16885-0.37923-0.37787-2.617e-4 -0.20955 0.16968-0.37949 0.37923-0.37923zm1.5142 0c0.20955-2.618e-4 0.3795 0.16968 0.37923 0.37923-4.89e-4 0.20902-0.17021 0.37813-0.37923 0.37787-0.20849-4.876e-4 -0.37739-0.16938-0.37787-0.37787-2.61e-4 -0.20902 0.16885-0.37874 0.37787-0.37923zm1.5155 0c0.20955-2.618e-4 0.3795 0.16968 0.37923 0.37923-4.89e-4 0.20902-0.17021 0.37813-0.37923 0.37787-0.20902 2.616e-4 -0.37874-0.16885-0.37923-0.37787-2.62e-4 -0.20955 0.16968-0.37949 0.37923-0.37923zm-1.6637 1.4707c0.38013 0 0.68908 0.12283 0.92838 0.36836 0.23805 0.24553 0.35748 0.56602 0.35748 0.96234 0 0.22933-0.04483 0.43684-0.13457 0.62254-0.09098 0.1857-0.23532 0.36503-0.43224 0.53827h0.50156v0.33302h-1.0262v-0.33302c0.22184-0.12089 0.3946-0.2838 0.51923-0.49069 0.12339-0.20689 0.18486-0.43603 0.18486-0.68778 0-0.29787-0.08151-0.53844-0.24603-0.72043-0.16576-0.18071-0.38324-0.27049-0.65244-0.27049s-0.48657 0.089776-0.65108 0.27049c-0.16451 0.18071-0.24738 0.42129-0.24738 0.72043 0 0.25176 0.062829 0.48089 0.18622 0.68778 0.12338 0.20689 0.29456 0.3698 0.51516 0.49069v0.33302h-1.0154v-0.33302h0.49205c-0.20066-0.17573-0.34512-0.35516-0.4336-0.53962-0.088488-0.18445-0.13321-0.39706-0.13321-0.63885 7e-7 -0.38511 0.12102-0.70053 0.36156-0.94606 0.23929-0.24427 0.54802-0.367 0.92567-0.367zm-2.9142 0.32079 0.058445 0.41321c-0.59162 0.0829-1.0291 0.5672-1.0738 1.139l0.40234-0.35884 0.27729 0.30991-0.93242 0.83325-0.83325-0.93381 0.31127-0.27729 0.35884 0.40234c0.055633-0.76665 0.63902-1.417 1.4313-1.5278zm-1.4354 3.1806h0.3602l1.1323 2.8055h-0.39962l-0.32079-0.83867h-1.1839l-0.32079 0.83867h-0.39962zm4.3877 0.1237 0.83325 0.93242-0.31127 0.27729-0.35884-0.40234c-0.055508 0.76678-0.63892 1.417-1.4313 1.5278l-0.058452-0.41321c0.59194-0.08295 1.0294-0.56679 1.0738-1.139l-0.40234 0.35884-0.27729-0.30991zm-4.2069 0.16991c-0.023516 0.13063-0.078147 0.3096-0.16175 0.5369l-0.30447 0.80743h0.93242l-0.30583-0.80743c-0.083603-0.2273-0.13688-0.40627-0.16039-0.5369z" fill="#fff" stroke-linecap="round" stroke-linejoin="round" stroke-width=".41756" style="paint-order:markers stroke fill"/>
    </g>
    <g transform="translate(1.0008 1.0005)" display="none" fill="none" opacity=".8" stroke-width=".05">
        <rect transform="rotate(90)" x="3.3425" y="-12.657" width="9.3148" height="9.3148" display="inline" opacity="1" stroke="#000"/>
        <rect x="3" y="4" width="10" height="8" opacity="1" stroke="#0091ff" stroke-linecap="round" stroke-linejoin="round"/>
        <rect transform="rotate(90)" x="3" y="-12" width="10" height="8" display="inline" opacity="1" stroke="#00ff03" stroke-linecap="round" stroke-linejoin="round"/>
    </g>
</svg>
