<?xml version="1.0" encoding="UTF-8"?>
<svg version="1.1" viewBox="0 0 18.001 18" xmlns="http://www.w3.org/2000/svg">
    <g transform="translate(1.0008 -1092.8)">
        <rect x="9.5745e-5" y="1093.8" width="16" height="16" rx="1.5001" ry="1.5001" fill="#673ab7"/>
        <path transform="translate(-1.0008 1092.8)" d="m2.5 1c-0.83103 0-1.5 0.66897-1.5 1.5v0.5c0-0.83103 0.66897-1.5 1.5-1.5h13c0.83103 0 1.5 0.66897 1.5 1.5v-0.5c0-0.83103-0.66897-1.5-1.5-1.5z" fill="#fff" opacity=".2"/>
        <path d="m14.5 1109.8c0.83103 0 1.5-0.669 1.5-1.5v-0.5c0 0.831-0.66897 1.5-1.5 1.5h-13c-0.83103 0-1.5-0.669-1.5-1.5v0.5c0 0.831 0.66897 1.5 1.5 1.5z" opacity=".2"/>
    </g>
    <g transform="translate(1.0008 1.0005)">
        <g transform="matrix(.69802 0 0 .69802 -2.0314 -2.0266)" stroke-linecap="round" stroke-linejoin="round">
            <path transform="matrix(1.4326 0 0 1.4326 1.4764 1.47)" d="m12.096 4c-0.60549 1e-7 -1.1016 0.49801-1.1016 1.1035 0 0.60551 0.49609 1.1016 1.1016 1.1016 0.6055 7e-7 1.1035-0.49609 1.1035-1.1016 0-0.60547-0.49801-1.1035-1.1035-1.1035zm-4.2305 0.041016a0.73976 0.73976 0 0 0-0.74023 0.74023 0.73976 0.73976 0 0 0 0.74023 0.74023 0.73976 0.73976 0 0 0 0.74023-0.74023 0.73976 0.73976 0 0 0-0.74023-0.74023zm1.3184 2.4473a1.6715 1.6715 0 0 0-1.6719 1.6719 1.6715 1.6715 0 0 0 1.6719 1.6719 1.6715 1.6715 0 0 0 1.6699-1.6719 1.6715 1.6715 0 0 0-1.6699-1.6719zm-4.0391 0.039063c-0.62436 0-1.1367 0.51237-1.1367 1.1367s0.51237 1.1387 1.1367 1.1387c0.62436 0 1.1367-0.51432 1.1367-1.1387s-0.51237-1.1367-1.1367-1.1367zm0 0.60352c0.2988 0 0.5332 0.23441 0.5332 0.5332 0 0.2988-0.23441 0.53516-0.5332 0.53516s-0.53516-0.23636-0.53516-0.53516 0.23636-0.5332 0.53516-0.5332zm7.125 3.4219c-0.94826 0-1.7227 0.77433-1.7227 1.7227 0 0.94826 0.77433 1.7246 1.7227 1.7246 0.94826 0 1.7246-0.77635 1.7246-1.7246s-0.77635-1.7227-1.7246-1.7227zm0 0.64258c0.6002 0 1.082 0.47986 1.082 1.0801 0 0.6002-0.48185 1.0801-1.082 1.0801-0.6002 0-1.0801-0.47986-1.0801-1.0801 0-0.6002 0.47986-1.0801 1.0801-1.0801zm-5.4316 0.18164a0.57747 0.57747 0 0 0-0.57812 0.57617 0.57747 0.57747 0 0 0 0.57812 0.57812 0.57747 0.57747 0 0 0 0.57812-0.57812 0.57747 0.57747 0 0 0-0.57812-0.57617z" fill="#fff" style="paint-order:markers stroke fill"/>
        </g>
        <g transform="matrix(.69802 0 0 .69802 -2.0314 -2.0266)" fill="#fff">
            <path transform="matrix(1.4326 0 0 1.4326 1.4764 1.47)" d="m11.627 5.2891-1.7793 1.8438 0.36328 0.35156 1.7812-1.8438-0.36524-0.35156zm-3.252 0.16406-0.44336 0.1875 0.17773 0.42383 0.44531-0.1875-0.17969-0.42383zm0.21875 0.51758-0.44531 0.1875 0.18555 0.44141 0.44531-0.1875-0.18555-0.44141zm-2.4707 1.5957-0.095703 0.50391 1.5996 0.17969 0.095703-0.50586-1.5996-0.17773zm4.0547 1.3457-0.5 0.37305 1.5488 2.084 0.50195-0.37305-1.5508-2.084zm-2.0312 0.64844-0.18945 0.3125 0.22852 0.13672 0.18945-0.31055-0.22852-0.13867zm-0.23828 0.39258-0.17578 0.28906 0.23242 0.13672 0.17383-0.28906-0.23047-0.13672zm-0.22266 0.36719-0.16602 0.26953 0.23242 0.13672 0.16406-0.26953-0.23047-0.13672zm-0.21289 0.34961-0.17383 0.28711 0.23047 0.13672 0.17383-0.28711-0.23047-0.13672zm-0.22266 0.36523-0.1875 0.3125 0.22852 0.13867 0.18945-0.3125-0.23047-0.13867z" style="paint-order:markers stroke fill"/>
        </g>
    </g>
    <g transform="translate(1.0008 1.0005)" display="none" fill="none" opacity=".8" stroke-width=".05">
        <rect transform="rotate(90)" x="3.3425" y="-12.657" width="9.3148" height="9.3148" display="inline" opacity="1" stroke="#000"/>
        <rect x="3" y="4" width="10" height="8" opacity="1" stroke="#0091ff" stroke-linecap="round" stroke-linejoin="round"/>
        <rect transform="rotate(90)" x="3" y="-12" width="10" height="8" display="inline" opacity="1" stroke="#00ff03" stroke-linecap="round" stroke-linejoin="round"/>
    </g>
</svg>
