<?xml version="1.0" encoding="UTF-8"?>
<svg version="1.1" viewBox="0 0 18.001 18" xmlns="http://www.w3.org/2000/svg">
    <g transform="translate(1.0008 -1092.8)">
        <rect x="9.5745e-5" y="1093.8" width="16" height="16" rx="1.5001" ry="1.5001" fill="#3f51b5"/>
        <path transform="translate(-1.0008 1092.8)" d="m2.5 1c-0.83103 0-1.5 0.66897-1.5 1.5v0.5c0-0.83103 0.66897-1.5 1.5-1.5h13c0.83103 0 1.5 0.66897 1.5 1.5v-0.5c0-0.83103-0.66897-1.5-1.5-1.5z" fill="#fff" opacity=".2"/>
        <path d="m14.5 1109.8c0.83103 0 1.5-0.669 1.5-1.5v-0.5c0 0.831-0.66897 1.5-1.5 1.5h-13c-0.83103 0-1.5-0.669-1.5-1.5v0.5c0 0.831 0.66897 1.5 1.5 1.5z" opacity=".2"/>
    </g>
    <g transform="translate(1.0008 1.0005)">
        <path transform="translate(-1.0008 -1.0005)" d="m9 4-0.67578 3.0391a2.0788 2.0788 0 0 0-0.28711 0.125l-1.7461-0.87305 0.87305 1.7461a2.0788 2.0788 0 0 0-0.125 0.28906l-3.0391 0.67383 3.0391 0.67383a2.0788 2.0788 0 0 0 0.125 0.28906l-0.87305 1.748 1.748-0.87305a2.0788 2.0788 0 0 0 0.28516 0.12305l0.67578 3.0391 0.67578-3.0391a2.0788 2.0788 0 0 0 0.28711-0.12305l1.748 0.87305-0.87305-1.748a2.0788 2.0788 0 0 0 0.125-0.28906l3.0371-0.67383-3.0332-0.67383a2.0788 2.0788 0 0 0-0.12695-0.29297l0.87109-1.7422-1.7422 0.87109a2.0788 2.0788 0 0 0-0.29492-0.12891l-0.67383-3.0332zm0 3.6543a1.3453 1.3453 0 0 1 1.3457 1.3457 1.3453 1.3453 0 0 1-1.3457 1.3457 1.3453 1.3453 0 0 1-1.3438-1.3457 1.3453 1.3453 0 0 1 1.3438-1.3457zm0 0.59766a0.74858 0.74858 0 0 0-0.74805 0.74805 0.74858 0.74858 0 0 0 0.74805 0.75 0.74858 0.74858 0 0 0 0.75-0.75 0.74858 0.74858 0 0 0-0.75-0.74805z" fill="#fff" stroke-linecap="round" stroke-linejoin="round" stroke-width=".5197" style="paint-order:markers stroke fill"/>
    </g>
    <g transform="translate(1.0008 1.0005)" display="none" fill="none" opacity=".8" stroke-width=".05">
        <rect transform="rotate(90)" x="3.3425" y="-12.657" width="9.3148" height="9.3148" display="inline" opacity="1" stroke="#000"/>
        <rect x="3" y="4" width="10" height="8" opacity="1" stroke="#0091ff" stroke-linecap="round" stroke-linejoin="round"/>
        <rect transform="rotate(90)" x="3" y="-12" width="10" height="8" display="inline" opacity="1" stroke="#00ff03" stroke-linecap="round" stroke-linejoin="round"/>
    </g>
</svg>
