<?xml version="1.0" encoding="UTF-8"?>
<svg version="1.1" viewBox="0 0 18.001 18" xmlns="http://www.w3.org/2000/svg">
    <g transform="translate(1.0008 -1092.8)">
        <rect x="9.5745e-5" y="1093.8" width="16" height="16" rx="1.5001" ry="1.5001" fill="#ffc107"/>
        <path transform="translate(-1.0008 1092.8)" d="m2.5 1c-0.83103 0-1.5 0.66897-1.5 1.5v0.5c0-0.83103 0.66897-1.5 1.5-1.5h13c0.83103 0 1.5 0.66897 1.5 1.5v-0.5c0-0.83103-0.66897-1.5-1.5-1.5z" fill="#fff" opacity=".2"/>
        <path d="m14.5 1109.8c0.83103 0 1.5-0.669 1.5-1.5v-0.5c0 0.831-0.66897 1.5-1.5 1.5h-13c-0.83103 0-1.5-0.669-1.5-1.5v0.5c0 0.831 0.66897 1.5 1.5 1.5z" opacity=".2"/>
    </g>
    <g transform="translate(1.0008 1.0005)">
        <g transform="translate(.00031315 -1.9278)" fill="#fff" stroke-width=".10402" aria-label="2048">
            <path d="m3.4937 11.097h1.4323v0.34537h-1.9259v-0.34537q0.23363-0.24176 0.63588-0.64807 0.40428-0.40834 0.50789-0.52618 0.19706-0.22144 0.27426-0.37381 0.079231-0.1544 0.079231-0.3027 0-0.24176-0.17065-0.39412-0.16862-0.15237-0.44085-0.15237-0.193 0-0.40834 0.067042-0.21331 0.067042-0.4571 0.20316v-0.41444q0.24785-0.099547 0.4632-0.15034 0.21535-0.050789 0.39412-0.050789 0.47132 0 0.75168 0.23566t0.28036 0.62979q0 0.1869-0.071105 0.35552-0.069073 0.16659-0.25395 0.39412-0.050789 0.058915-0.32302 0.3413-0.27223 0.28036-0.76793 0.78622z"/>
            <path d="m6.6649 8.6794q-0.31692 0-0.47742 0.31286-0.15846 0.31083-0.15846 0.93655 0 0.62369 0.15846 0.93655 0.16049 0.31083 0.47742 0.31083 0.31896 0 0.47742-0.31083 0.16049-0.31286 0.16049-0.93655 0-0.62572-0.16049-0.93655-0.15846-0.31286-0.47742-0.31286zm0-0.32505q0.50992 0 0.77809 0.40428 0.2702 0.40225 0.2702 1.1702 0 0.7659-0.2702 1.1702-0.26817 0.40225-0.77809 0.40225t-0.78012-0.40225q-0.26817-0.40428-0.26817-1.1702 0-0.76793 0.26817-1.1702 0.2702-0.40428 0.78012-0.40428z"/>
            <path d="m9.562 8.7667-1.0361 1.6192h1.0361zm-0.10767-0.35756h0.51602v1.9767h0.43272v0.3413h-0.43272v0.71511h-0.40834v-0.71511h-1.3693v-0.39616z"/>
            <path d="m11.959 10.002q-0.29255 0-0.46117 0.15643-0.16659 0.15643-0.16659 0.43069t0.16659 0.43069q0.16862 0.15643 0.46117 0.15643 0.29254 0 0.46116-0.15643 0.16862-0.15846 0.16862-0.43069 0-0.27426-0.16862-0.43069-0.16659-0.15643-0.46116-0.15643zm-0.41038-0.17471q-0.2641-0.06501-0.41241-0.24582-0.14627-0.18081-0.14627-0.44085 0-0.36365 0.25801-0.57493 0.26004-0.21128 0.71105-0.21128 0.45304 0 0.71105 0.21128t0.25801 0.57493q0 0.26004-0.1483 0.44085-0.14627 0.18081-0.40834 0.24582 0.29661 0.069073 0.46117 0.2702 0.16659 0.20112 0.16659 0.49164 0 0.44085-0.2702 0.67651-0.26817 0.23566-0.76996 0.23566-0.5018 0-0.772-0.23566-0.26817-0.23566-0.26817-0.67651 0-0.29051 0.16659-0.49164t0.4632-0.2702zm-0.15034-0.64807q0 0.23566 0.14627 0.36771 0.1483 0.13205 0.41444 0.13205 0.2641 0 0.41241-0.13205 0.15034-0.13205 0.15034-0.36771t-0.15034-0.36771q-0.1483-0.13205-0.41241-0.13205-0.26614 0-0.41444 0.13205-0.14627 0.13205-0.14627 0.36771z"/>
        </g>
    </g>
    <g transform="translate(1.0008 1.0005)" display="none" fill="none" opacity=".8" stroke-width=".05">
        <rect transform="rotate(90)" x="3.3425" y="-12.657" width="9.3148" height="9.3148" display="inline" opacity="1" stroke="#000"/>
        <rect x="3" y="4" width="10" height="8" opacity="1" stroke="#0091ff" stroke-linecap="round" stroke-linejoin="round"/>
        <rect transform="rotate(90)" x="3" y="-12" width="10" height="8" display="inline" opacity="1" stroke="#00ff03" stroke-linecap="round" stroke-linejoin="round"/>
    </g>
</svg>
