<?xml version="1.0" encoding="UTF-8"?>
<svg version="1.1" viewBox="0 0 18.001 18" xmlns="http://www.w3.org/2000/svg">
    <g transform="translate(1.0008 -1092.8)">
        <rect x="9.5745e-5" y="1093.8" width="16" height="16" rx="1.5001" ry="1.5001" fill="#e91e63"/>
        <path transform="translate(-1.0008 1092.8)" d="m2.5 1c-0.83103 0-1.5 0.66897-1.5 1.5v0.5c0-0.83103 0.66897-1.5 1.5-1.5h13c0.83103 0 1.5 0.66897 1.5 1.5v-0.5c0-0.83103-0.66897-1.5-1.5-1.5z" fill="#fff" opacity=".2"/>
        <path d="m14.5 1109.8c0.83103 0 1.5-0.669 1.5-1.5v-0.5c0 0.831-0.66897 1.5-1.5 1.5h-13c-0.83103 0-1.5-0.669-1.5-1.5v0.5c0 0.831 0.66897 1.5 1.5 1.5z" opacity=".2"/>
    </g>
    <g transform="translate(1.0008 1.0005)" display="none">
        <g transform="matrix(.69593 0 0 .69593 -1.9993 -2.0054)" fill="#fff">
            <path d="m8.1406 8.6449c-0.52973 0-0.95703 0.42535-0.95703 0.95508v4.6738c0 0.52973 0.4273 0.95508 0.95703 0.95508h2.0371v0.83984c0 0.52973 0.42535 0.95703 0.95508 0.95703h2.0371v0.83984c0 0.52973 0.4273 0.95703 0.95703 0.95703h2.6348v0.68882h-1.4961c-0.16583 0-0.29883 0.133-0.29883 0.29883s0.133 0.29883 0.29883 0.29883h4.7891c0.16583 0 0.30078-0.133 0.30078-0.29883s-0.13495-0.29883-0.30078-0.29883h-1.4961v-0.68882h2.0371c0.52973 0 0.95703-0.4273 0.95703-0.95703v-4.6738c0-0.52973-0.4273-0.95508-0.95703-0.95508h-2.0371v-0.83984c0-0.52973-0.4273-0.95703-0.95703-0.95703h-2.0371v-0.83984c0-0.52973-0.42535-0.95508-0.95508-0.95508zm0.060547 0.59766h6.3477c0.23196 0 0.41797 0.18796 0.41797 0.41992v0.77734h-3.834c-0.52973 0-0.95508 0.4273-0.95508 0.95703v3.2344h-1.9766c-0.23196 0-0.41797-0.18601-0.41797-0.41797v-4.5508c0-0.23196 0.18601-0.41992 0.41797-0.41992zm2.9941 1.7969h6.3457c0.23196 0 0.41992 0.18601 0.41992 0.41797v0.7793h-3.834c-0.52973 0-0.95703 0.42535-0.95703 0.95508v3.2344h-1.9746c-0.23196 0-0.41992-0.18601-0.41992-0.41797v-4.5508c0-0.23196 0.18796-0.41797 0.41992-0.41797zm2.9922 1.7949h6.3477c0.23196 0 0.41797 0.18796 0.41797 0.41992v4.5508c0 0.23196-0.18601 0.41797-0.41797 0.41797h-6.3477c-0.23196 0-0.41797-0.18601-0.41797-0.41797v-4.5508c0-0.23196 0.18601-0.41992 0.41797-0.41992z" stroke-linecap="round" stroke-linejoin="round" stroke-width="1.48" style="paint-order:markers stroke fill"/>
            <path d="m14.045 14.531v3.1055c0 0.17947 0.14475 0.32422 0.32422 0.32422h5.9844c0.17947 0 0.32422-0.14475 0.32422-0.32422v-1.1406c-0.52642 0.04303-1.5309 0.07073-2.8926-0.15039-1.872-0.30398-2.8013-1.021-3.6777-1.7617-0.02079-0.01757-0.04174-0.03511-0.0625-0.05273z" color="#000000" style="-inkscape-stroke:none"/>
            <path d="m11.07 12.844v2.9961c0 0.17947 0.14475 0.32422 0.32422 0.32422h1.5254v-2.5293c-0.50803-0.34732-1.0908-0.63723-1.8496-0.79102z" style="paint-order:markers stroke fill"/>
            <path d="m9.5625 12.715c-0.59409 0.01838-1.0822 0.12145-1.4707 0.25v1.0801c0 0.17947 0.14475 0.32226 0.32422 0.32227h1.541v-1.6523c-0.13577-0.0043-0.26802-0.0039-0.39453 0z" stroke-linecap="round" stroke-linejoin="round" stroke-width=".63149" style="paint-order:markers stroke fill"/>
        </g>
    </g>
    <g fill="#fff">
        <path d="m9.7012 11.201v1.2988h-0.70117c-0.277 0-0.5 0.223-0.5 0.5v0.5h4v-0.5c0-0.277-0.223-0.5-0.5-0.5h-0.70117v-1.2988h-1.5977z" style="paint-order:markers stroke fill"/>
        <path d="m5.5 6.748v1.252h1.5v-1.0176c-0.42988-0.14545-0.91831-0.22912-1.5-0.23438zm3.5 1.6035v1.6484h3.5v-0.92578c-1.3062 0.20799-2.6698 0.13907-3.3066-0.52539-0.064568-0.067368-0.12922-0.13248-0.19336-0.19727z" stroke-linecap="square" stroke-linejoin="round" stroke-opacity=".11445" style="paint-order:markers stroke fill"/>
        <path d="m10.501 6.9746v-1.4741c0-0.554-0.446-1-1-1h-4.5c-0.554 0-1 0.446-1 1v3c0 0.554 0.446 1 1 1h2.8985l0.10146-1h-3v-3h4.5v1.3372z" style="paint-order:markers stroke fill"/>
        <path d="m8.5008 6.5005c-0.554 0-1 0.446-1 1v3c0 0.554 0.446 1 1 1h4.5c0.554 0 1-0.446 1-1v-3c0-0.554-0.446-1-1-1zm0 1h4.5v3h-4.5z" style="paint-order:markers stroke fill"/>
    </g>
    <g transform="translate(1.0008 1.0005)" display="none" fill="none" opacity=".8" stroke-width=".05">
        <rect transform="rotate(90)" x="3.3425" y="-12.657" width="9.3148" height="9.3148" display="inline" opacity="1" stroke="#000"/>
        <rect x="3" y="4" width="10" height="8" opacity="1" stroke="#0091ff" stroke-linecap="round" stroke-linejoin="round"/>
        <rect transform="rotate(90)" x="3" y="-12" width="10" height="8" display="inline" opacity="1" stroke="#00ff03" stroke-linecap="round" stroke-linejoin="round"/>
    </g>
</svg>
