<?xml version="1.0" encoding="UTF-8"?>
<svg version="1.1" viewBox="0 0 18.001 18" xmlns="http://www.w3.org/2000/svg">
    <g transform="translate(1.0008 -1092.8)">
        <rect x="9.5745e-5" y="1093.8" width="16" height="16" rx="1.5001" ry="1.5001" fill="#00bcd4"/>
        <path transform="translate(-1.0008 1092.8)" d="m2.5 1c-0.83103 0-1.5 0.66897-1.5 1.5v0.5c0-0.83103 0.66897-1.5 1.5-1.5h13c0.83103 0 1.5 0.66897 1.5 1.5v-0.5c0-0.83103-0.66897-1.5-1.5-1.5z" fill="#fff" opacity=".2"/>
        <path d="m14.5 1109.8c0.83103 0 1.5-0.669 1.5-1.5v-0.5c0 0.831-0.66897 1.5-1.5 1.5h-13c-0.83103 0-1.5-0.669-1.5-1.5v0.5c0 0.831 0.66897 1.5 1.5 1.5z" opacity=".2"/>
    </g>
    <g transform="translate(1.0008 1.0005)">
        <path transform="translate(-1.0008 -1.0005)" d="m5.5 4a1.5 1.5 0 0 0-1.5 1.5 1.5 1.5 0 0 0 1 1.4102v4.1797a1.5 1.5 0 0 0-1 1.4102 1.5 1.5 0 0 0 1.5 1.5 1.5 1.5 0 0 0 1.4102-1h4.1816a1.5 1.5 0 0 0 1.4082 1 1.5 1.5 0 0 0 1.5-1.5 1.5 1.5 0 0 0-1-1.4141v-4.1758a1.5 1.5 0 0 0 1-1.4102 1.5 1.5 0 0 0-1.5-1.5 1.5 1.5 0 0 0-1.4082 1h-4.1758a1.5 1.5 0 0 0-1.416-1zm1.4102 2h4.1816a1.5 1.5 0 0 0 0.054687 0.13867l-0.2793 0.37109a0.75 0.75 0 0 0-0.11719-0.0097656 0.75 0.75 0 0 0-0.70508 0.5h-2.0879a0.75 0.75 0 0 1 0-0.0019531 0.75 0.75 0 0 0-0.70703-0.49805 0.75 0.75 0 0 0-0.11719 0.0097656l-0.27734-0.36914a1.5 1.5 0 0 0 0.054687-0.14062zm-0.76953 0.85547 0.36914 0.27734a0.75 0.75 0 0 0-0.0097656 0.11719 0.75 0.75 0 0 0 0.5 0.70703v2.0879a0.75 0.75 0 0 0-0.5 0.70508 0.75 0.75 0 0 0 0.0097656 0.11719l-0.36719 0.27734a1.5 1.5 0 0 1-0.0019531 0 1.5 1.5 0 0 0-0.14062-0.058593v-4.1758a1.5 1.5 0 0 0 0.14062-0.054687zm5.7188 0a1.5 1.5 0 0 0 0.14062 0.054687v4.1797a1.5 1.5 0 0 0-0.13867 0.05664l-0.36914-0.27734a0.75 0.75 0 0 0 0.007812-0.11914 0.75 0.75 0 0 0-0.5-0.70703v-2.0859a0.75 0.75 0 0 0 0.5-0.70703 0.75 0.75 0 0 0-0.009766-0.11719l0.36914-0.27734zm-3.9023 0.64453h2.0879a0.75 0.75 0 0 0 0.45508 0.45703v2.0879a0.75 0.75 0 0 0-0.45508 0.45508h-2.0879a0.75 0.75 0 0 1 0-0.001953 0.75 0.75 0 0 0-0.45703-0.45508v-2.0859a0.75 0.75 0 0 0 0.45703-0.45703zm0 3.5h2.0879a0.75 0.75 0 0 0 0.70508 0.5 0.75 0.75 0 0 0 0.11719-0.009766l0.2793 0.37109a1.5 1.5 0 0 0-0.054687 0.13867h-4.1758a1.5 1.5 0 0 0-0.058594-0.14258l0.27539-0.36719a0.75 0.75 0 0 0 0.11719 0.009766 0.75 0.75 0 0 0 0.70703-0.5z" fill="#fff" stroke-linecap="round" stroke-linejoin="round" style="paint-order:markers stroke fill"/>
    </g>
    <g transform="translate(1.0008 1.0005)" display="none" fill="none" opacity=".8" stroke-width=".05">
        <rect transform="rotate(90)" x="3.3425" y="-12.657" width="9.3148" height="9.3148" display="inline" opacity="1" stroke="#000"/>
        <rect x="3" y="4" width="10" height="8" opacity="1" stroke="#0091ff" stroke-linecap="round" stroke-linejoin="round"/>
        <rect transform="rotate(90)" x="3" y="-12" width="10" height="8" display="inline" opacity="1" stroke="#00ff03" stroke-linecap="round" stroke-linejoin="round"/>
    </g>
</svg>
