<?xml version="1.0" encoding="UTF-8"?>
<svg version="1.1" viewBox="0 0 18.001 18" xmlns="http://www.w3.org/2000/svg">
    <g transform="translate(1.0008 -1092.8)">
        <rect x="9.5745e-5" y="1093.8" width="16" height="16" rx="1.5001" ry="1.5001" fill="#607d8b"/>
        <path transform="translate(-1.0008 1092.8)" d="m2.5 1c-0.83103 0-1.5 0.66897-1.5 1.5v0.5c0-0.83103 0.66897-1.5 1.5-1.5h13c0.83103 0 1.5 0.66897 1.5 1.5v-0.5c0-0.83103-0.66897-1.5-1.5-1.5z" fill="#fff" opacity=".2"/>
        <path d="m14.5 1109.8c0.83103 0 1.5-0.669 1.5-1.5v-0.5c0 0.831-0.66897 1.5-1.5 1.5h-13c-0.83103 0-1.5-0.669-1.5-1.5v0.5c0 0.831 0.66897 1.5 1.5 1.5z" opacity=".2"/>
    </g>
    <g transform="translate(1.0008 1.0005)" fill="#fff" stroke-linecap="round" stroke-linejoin="round">
        <path transform="translate(-1.0008 -1.0005)" d="m9 7a3.5 3.5 0 0 0-3.5 3.5 3.5 3.5 0 0 0 3.5 3.5 3.5 3.5 0 0 0 3.5-3.5 3.5 3.5 0 0 0-3.5-3.5zm-0.33398 1.5h0.66992v1.8066l1.5645 0.9043-0.33594 0.58008-1.8984-1.0957v-2.1953z" stroke-width=".5" style="paint-order:markers stroke fill"/>
        <path transform="translate(-1.0008 -1.0005)" d="m8.5391 4c-0.021308 0-0.039062 0.06037-0.039062 0.039062v2.2754h0.19141v1.252h0.61914v-1.252h0.18945v-2.2754c0-0.021308-0.015801-0.039062-0.037109-0.039062s-0.039062 0.017756-0.039062 0.039062v0.0019531c-6.384e-4 0.02074-0.01816 0.037109-0.039062 0.037109-0.020903 0-0.036474-0.016365-0.037109-0.037109v-0.0019531c0-0.021308-0.017754-0.039062-0.039062-0.039062s-0.039062 0.017756-0.039063 0.039062v0.0019531c-6.385e-4 0.02074-0.016208 0.037109-0.037109 0.037109-0.020903 0-0.038428-0.016365-0.039062-0.037109v-0.0019531c0-0.021308-0.017754-0.039062-0.039062-0.039062s-0.037109 0.017756-0.037109 0.039062v0.0019531c-6.384e-4 0.02074-0.01816 0.037109-0.039062 0.037109-0.020903 0-0.038426-0.016365-0.039062-0.037109v-0.0019531c0-0.021308-0.017754-0.039062-0.039062-0.039062s-0.037109 0.017756-0.037109 0.039062v0.0019531c-6.385e-4 0.02074-0.01816 0.037109-0.039062 0.037109-0.020903 0-0.038428-0.016365-0.039062-0.037109v-0.0019531c0-0.021308-0.015801-0.039062-0.037109-0.039062s-0.039062 0.017756-0.039062 0.039062v0.0019531c-6.387e-4 0.02074-0.018162 0.037109-0.039063 0.037109-0.020903 0-0.036474-0.016365-0.037109-0.037109v-0.0019531c0-0.021308-0.017754-0.039062-0.039062-0.039062s-0.039062 0.017756-0.039062 0.039062v0.0019531c-6.385e-4 0.02074-0.016208 0.037109-0.037109 0.037109-0.020903 0-0.038428-0.016365-0.039062-0.037109v-0.0019531c0-0.021308-0.017754-0.039062-0.039062-0.039062z" stroke-width=".53787" style="paint-order:markers stroke fill"/>
        <path transform="translate(-1.0008 -1.0005)" d="m10.879 5.4102a1 1 0 0 0-0.91211 0.58203 1 1 0 0 0 0.34766 1.2422l-0.24219 0.5293 0.30273 0.13867 0.24219-0.52734a1 1 0 0 0 1.168-0.54883 1 1 0 0 0-0.49219-1.3262 1 1 0 0 0-0.41406-0.089844zm-0.064453 0.33984a0.66267 0.66267 0 0 1 0.33789 0.058594 0.66267 0.66267 0 0 1 0.32812 0.87695 0.66267 0.66267 0 0 1-0.71875 0.37695l0.14258-0.31055-0.30469-0.13867-0.14062 0.30859a0.66267 0.66267 0 0 1-0.18359-0.78906 0.66267 0.66267 0 0 1 0.53906-0.38281z" stroke-width=".5" style="paint-order:markers stroke fill"/>
    </g>
    <g transform="translate(1.0008 1.0005)" display="none" fill="none" opacity=".8" stroke-width=".05">
        <rect transform="rotate(90)" x="3.3425" y="-12.657" width="9.3148" height="9.3148" display="inline" opacity="1" stroke="#000"/>
        <rect x="3" y="4" width="10" height="8" opacity="1" stroke="#0091ff" stroke-linecap="round" stroke-linejoin="round"/>
        <rect transform="rotate(90)" x="3" y="-12" width="10" height="8" display="inline" opacity="1" stroke="#00ff03" stroke-linecap="round" stroke-linejoin="round"/>
    </g>
</svg>
