<?xml version="1.0" encoding="UTF-8"?>
<svg version="1.1" viewBox="0 0 18.001 18" xmlns="http://www.w3.org/2000/svg" xmlns:xlink="http://www.w3.org/1999/xlink">
    <g transform="translate(1.0008 -1092.8)">
        <rect x="9.5745e-5" y="1093.8" width="16" height="16" rx="1.5001" ry="1.5001" fill="#2196f3"/>
        <path transform="translate(-1.0008 1092.8)" d="m2.5 1c-0.83103 0-1.5 0.66897-1.5 1.5v0.5c0-0.83103 0.66897-1.5 1.5-1.5h13c0.83103 0 1.5 0.66897 1.5 1.5v-0.5c0-0.83103-0.66897-1.5-1.5-1.5z" fill="#fff" opacity=".2"/>
        <g transform="translate(-22.32 1056.5)">
            <g transform="matrix(.37187 0 0 .37187 38.802 63.239)"></g>
        </g>
        <path d="m14.5 1109.8c0.83103 0 1.5-0.669 1.5-1.5v-0.5c0 0.831-0.66897 1.5-1.5 1.5h-13c-0.83103 0-1.5-0.669-1.5-1.5v0.5c0 0.831 0.66897 1.5 1.5 1.5z" opacity=".2"/>
    </g>
    <g transform="translate(1.0008 1.0005)">
        <path transform="translate(-1.0008 -1.0005)" d="m7 4v3h-3v0.5h3v3h-3v0.5h3v3h0.5v-3h3v3h0.5v-3h3v-0.5h-3v-3h3v-0.5h-3v-3h-0.5v3h-3v-3h-0.5zm0.5 3.5h3v3h-3v-3z" fill="#fff" style="paint-order:markers stroke fill"/>
        <text x="3.8141224" y="5.4999981" fill="#ffffff" font-family="Cantarell" font-size="2.8818px" font-weight="bold" stroke-width=".072046" style="font-variant-caps:normal;font-variant-east-asian:normal;font-variant-ligatures:normal;font-variant-numeric:normal;line-height:1.25" xml:space="preserve"><tspan x="3.8141224" y="5.4999981" fill="#ffffff" font-family="Cantarell" font-size="2.8818px" font-weight="bold" stroke-width=".072046" style="font-variant-caps:normal;font-variant-east-asian:normal;font-variant-ligatures:normal;font-variant-numeric:normal">1</tspan></text>
        <text x="7.200284" y="5.4715915" fill="#ffffff" font-family="Cantarell" font-size="2.8409px" font-weight="bold" stroke-width=".071023" style="font-variant-caps:normal;font-variant-east-asian:normal;font-variant-ligatures:normal;font-variant-numeric:normal;line-height:1.25" xml:space="preserve"><tspan x="7.200284" y="5.4715915" stroke-width=".071023">5</tspan><tspan x="7.200284" y="9.0227289"/></text>
        <text x="10.658263" y="5.4719892" fill="#ffffff" font-family="Cantarell" font-size="2.8011px" font-weight="bold" stroke-width=".070028" style="font-variant-caps:normal;font-variant-east-asian:normal;font-variant-ligatures:normal;font-variant-numeric:normal;line-height:1.25" xml:space="preserve"><tspan x="10.658263" y="5.4719892" fill="#ffffff" stroke-width=".070028">8</tspan></text>
        <text x="7.2305474" y="9" fill="#ffffff" font-family="Cantarell" font-size="2.8818px" font-weight="bold" stroke-width=".072046" style="font-variant-caps:normal;font-variant-east-asian:normal;font-variant-ligatures:normal;font-variant-numeric:normal;line-height:1.25" xml:space="preserve"><tspan x="7.2305474" y="9" fill="#ffffff" stroke-width=".072046">7</tspan></text>
        <text x="3.6184022" y="12.480028" fill="#ffffff" font-family="Cantarell" font-size="2.8531px" font-weight="bold" stroke-width=".071327" style="font-variant-caps:normal;font-variant-east-asian:normal;font-variant-ligatures:normal;font-variant-numeric:normal;line-height:1.25" xml:space="preserve"><tspan x="3.6184022" y="12.480028" fill="#ffffff" stroke-width=".071327">4</tspan></text>
    </g>
    <g transform="translate(1.0008 1.0005)" display="none" fill="none" opacity=".8" stroke-width=".05">
        <rect transform="rotate(90)" x="3.3425" y="-12.657" width="9.3148" height="9.3148" display="inline" opacity="1" stroke="#000"/>
        <rect x="3" y="4" width="10" height="8" opacity="1" stroke="#0091ff" stroke-linecap="round" stroke-linejoin="round"/>
        <rect transform="rotate(90)" x="3" y="-12" width="10" height="8" display="inline" opacity="1" stroke="#00ff03" stroke-linecap="round" stroke-linejoin="round"/>
    </g>
</svg>
