<?xml version="1.0" encoding="UTF-8"?>
<svg version="1.1" viewBox="0 0 18.001 18" xmlns="http://www.w3.org/2000/svg" xmlns:xlink="http://www.w3.org/1999/xlink">
    <g transform="translate(1.0008 -1092.8)">
        <rect x="9.5745e-5" y="1093.8" width="16" height="16" rx="1.5001" ry="1.5001" fill="#8bc34a"/>
        <path transform="translate(-1.0008 1092.8)" d="m2.5 1c-0.83103 0-1.5 0.66897-1.5 1.5v0.5c0-0.83103 0.66897-1.5 1.5-1.5h13c0.83103 0 1.5 0.66897 1.5 1.5v-0.5c0-0.83103-0.66897-1.5-1.5-1.5z" fill="#fff" opacity=".2"/>
        <g transform="translate(-22.32 1056.5)">
            <g transform="matrix(.37187 0 0 .37187 38.802 63.239)"></g>
        </g>
        <path d="m14.5 1109.8c0.83103 0 1.5-0.669 1.5-1.5v-0.5c0 0.831-0.66897 1.5-1.5 1.5h-13c-0.83103 0-1.5-0.669-1.5-1.5v0.5c0 0.831 0.66897 1.5 1.5 1.5z" opacity=".2"/>
    </g>
    <g transform="translate(1.0008 1.0005)">
        <path d="m11.946 3a1.0526 1.0526 0 0 0-1.0526 1.0526 1.0526 1.0526 0 0 0 1.0526 1.0526 1.0526 1.0526 0 0 0 1.0526-1.0526 1.0526 1.0526 0 0 0-1.0526-1.0526zm-0.01234 0.52629a0.52629 0.52629 0 0 1 0.01234 0 0.52629 0.52629 0 0 1 0.52629 0.52629 0.52629 0.52629 0 0 1-0.52629 0.52629 0.52629 0.52629 0 0 1-0.52629-0.52629 0.52629 0.52629 0 0 1 0.51395-0.52629zm-2.6191 2.1052a1.0526 1.0526 0 0 0-1.0526 1.0526 1.0526 1.0526 0 0 0 1.0526 1.0526 1.0526 1.0526 0 0 0 1.0526-1.0526 1.0526 1.0526 0 0 0-1.0526-1.0526zm2.6314 0a1.0526 1.0526 0 0 0-1.0526 1.0526 1.0526 1.0526 0 0 0 1.0526 1.0526 1.0526 1.0526 0 0 0 1.0526-1.0526 1.0526 1.0526 0 0 0-1.0526-1.0526zm-2.6438 0.52629a0.52629 0.52629 0 0 1 0.012335 0 0.52629 0.52629 0 0 1 0.52629 0.52629 0.52629 0.52629 0 0 1-0.52629 0.52629 0.52629 0.52629 0 0 1-0.52629-0.52629 0.52629 0.52629 0 0 1 0.51395-0.52629zm-5.2506 2.1052a1.0526 1.0526 0 0 0-1.0526 1.0526 1.0526 1.0526 0 0 0 1.0526 1.0526 1.0526 1.0526 0 0 0 1.0526-1.0526 1.0526 1.0526 0 0 0-1.0526-1.0526zm2.6314 0a1.0526 1.0526 0 0 0-1.0526 1.0526 1.0526 1.0526 0 0 0 1.0526 1.0526 1.0526 1.0526 0 0 0 1.0526-1.0526 1.0526 1.0526 0 0 0-1.0526-1.0526zm2.6314 0a1.0526 1.0526 0 0 0-1.0526 1.0526 1.0526 1.0526 0 0 0 1.0526 1.0526 1.0526 1.0526 0 0 0 1.0526-1.0526 1.0526 1.0526 0 0 0-1.0526-1.0526zm2.6314 0a1.0526 1.0526 0 0 0-1.0526 1.0526 1.0526 1.0526 0 0 0 1.0526 1.0526 1.0526 1.0526 0 0 0 1.0526-1.0526 1.0526 1.0526 0 0 0-1.0526-1.0526zm-5.2752 0.52629a0.52629 0.52629 0 0 1 0.012335 0 0.52629 0.52629 0 0 1 0.52629 0.52629 0.52629 0.52629 0 0 1-0.52629 0.52629 0.52629 0.52629 0 0 1-0.52629-0.52629 0.52629 0.52629 0 0 1 0.51395-0.52629zm-2.6191 2.1052a1.0526 1.0526 0 0 0-1.0526 1.0526 1.0526 1.0526 0 0 0 1.0526 1.0526 1.0526 1.0526 0 0 0 1.0526-1.0526 1.0526 1.0526 0 0 0-1.0526-1.0526zm2.6314 0a1.0526 1.0526 0 0 0-1.0526 1.0526 1.0526 1.0526 0 0 0 1.0526 1.0526 1.0526 1.0526 0 0 0 1.0526-1.0526 1.0526 1.0526 0 0 0-1.0526-1.0526zm2.6314 0a1.0526 1.0526 0 0 0-1.0526 1.0526 1.0526 1.0526 0 0 0 1.0526 1.0526 1.0526 1.0526 0 0 0 1.0526-1.0526 1.0526 1.0526 0 0 0-1.0526-1.0526zm2.6314 0a1.0526 1.0526 0 0 0-1.0526 1.0526 1.0526 1.0526 0 0 0 1.0526 1.0526 1.0526 1.0526 0 0 0 1.0526-1.0526 1.0526 1.0526 0 0 0-1.0526-1.0526zm-7.9067 0.52629a0.52629 0.52629 0 0 1 0.012335 0 0.52629 0.52629 0 0 1 0.52629 0.52629 0.52629 0.52629 0 0 1-0.52629 0.52629 0.52629 0.52629 0 0 1-0.52629-0.52629 0.52629 0.52629 0 0 1 0.51395-0.52629zm5.2629 0a0.52629 0.52629 0 0 1 0.012335 0 0.52629 0.52629 0 0 1 0.52629 0.52629 0.52629 0.52629 0 0 1-0.52629 0.52629 0.52629 0.52629 0 0 1-0.52629-0.52629 0.52629 0.52629 0 0 1 0.51395-0.52629zm2.6314 0a0.52629 0.52629 0 0 1 0.01234 0 0.52629 0.52629 0 0 1 0.52629 0.52629 0.52629 0.52629 0 0 1-0.52629 0.52629 0.52629 0.52629 0 0 1-0.52629-0.52629 0.52629 0.52629 0 0 1 0.51395-0.52629z" fill="#fff" stroke-linecap="square" stroke-width="2.1052" style="paint-order:markers stroke fill"/>
    </g>
    <g transform="translate(1.0008 1.0005)" display="none" fill="none" opacity=".8" stroke-width=".05">
        <rect transform="rotate(90)" x="3.3425" y="-12.657" width="9.3148" height="9.3148" display="inline" opacity="1" stroke="#000"/>
        <rect x="3" y="4" width="10" height="8" opacity="1" stroke="#0091ff" stroke-linecap="round" stroke-linejoin="round"/>
        <rect transform="rotate(90)" x="3" y="-12" width="10" height="8" display="inline" opacity="1" stroke="#00ff03" stroke-linecap="round" stroke-linejoin="round"/>
    </g>
</svg>
