<?xml version="1.0" encoding="UTF-8"?>
<svg version="1.1" viewBox="0 0 18.001 18" xmlns="http://www.w3.org/2000/svg">
    <g transform="translate(1.0008 -1092.8)">
        <rect x="9.5745e-5" y="1093.8" width="16" height="16" rx="1.5001" ry="1.5001" fill="#00bcd4"/>
        <path transform="translate(-1.0008 1092.8)" d="m2.5 1c-0.83103 0-1.5 0.66897-1.5 1.5v0.5c0-0.83103 0.66897-1.5 1.5-1.5h13c0.83103 0 1.5 0.66897 1.5 1.5v-0.5c0-0.83103-0.66897-1.5-1.5-1.5z" fill="#fff" opacity=".2"/>
        <path d="m14.5 1109.8c0.83103 0 1.5-0.669 1.5-1.5v-0.5c0 0.831-0.66897 1.5-1.5 1.5h-13c-0.83103 0-1.5-0.669-1.5-1.5v0.5c0 0.831 0.66897 1.5 1.5 1.5z" opacity=".2"/>
    </g>
    <g transform="translate(1.0008 1.0005)">
        <path transform="translate(-1.0008 -1.0005)" d="m6.0156 4c-0.40688-0.0095909-0.80075 0.14565-1.0918 0.42969-0.29105 0.28441-0.45508 0.67515-0.45508 1.082v1.6035c0 0.62858 7.365e-4 1.2562 0 1.8848v1.5566c0 0.64407 7.365e-4 1.2895 0 1.9336-0.00295 0.15309 0.020664 0.30256 0.066406 0.44531 3.682e-4 0.0015 0.00159 0.0024 0.00195 0.0039 0.012911 0.03983 0.026369 0.08004 0.042969 0.11914 0.014018 0.03356 0.030274 0.06678 0.046875 0.09961 0.00147 0.0036 0.00206 0.0061 0.00391 0.0098 0.00701 0.01549 0.01569 0.03139 0.023437 0.04687 0.048324 0.08816 0.10463 0.17058 0.16992 0.24805 0.10476 0.12358 0.22849 0.22998 0.36719 0.31445 0.03652 0.02249 0.074916 0.04489 0.11328 0.06445 0.16378 0.08411 0.3419 0.136 0.5293 0.15039 0.00553 3.77e-4 0.011675 0.0017 0.017578 2e-3 0.02324 0.0018 0.047072 0.0032 0.070312 0.0039 0.033569 0.0018 0.066041 0.0027 0.099609 2e-3 0.00258-3.78e-4 0.00522 3.59e-4 0.00781 0 0.042421-0.0015 0.084901-0.0042 0.12695-0.0098 0.20362-0.02398 0.40032-0.08922 0.57812-0.19141l0.025391-0.01563c0.055701-0.02986 0.11094-0.06019 0.16406-0.09375l2.832-1.6367 3.0234-1.7441c0.49505-0.28579 0.78552-0.82552 0.75196-1.3966-0.0089-0.19182-0.053563-0.38264-0.14062-0.55859-0.06382-0.14534-0.15633-0.27104-0.26367-0.38281-0.0048-0.00479-0.0093-0.010829-0.01367-0.015625-0.02471-0.024715-0.04803-0.049026-0.07422-0.072266-0.0214-0.019182-0.04427-0.036981-0.06641-0.054687-0.01623-0.01328-0.03223-0.026153-0.04883-0.039063-0.01438-0.010697-0.02821-0.020921-0.04297-0.03125-0.09259-0.066768-0.19068-0.12657-0.29102-0.17969-0.0077-0.00295-0.01569-0.00682-0.02344-0.00977l-5.832-3.3652c-0.21912-0.12653-0.4657-0.19722-0.71875-0.20312zm2.5215 1.8496 0.080078 0.015625 2.9492 1.7031c-0.48994 0.15333-0.90918 0.53741-1.0215 1.0625-0.05412 0.11701-0.04797 0.23823-0.04687 0.36914-0.0038 0.54323 0.0046 1.0877-0.0039 1.6309-0.032992-0.49634-0.30981-0.94633-0.74415-1.1973l-2.2461-1.2969v4.6406l-0.048828 0.02734c0.11409-0.50238-0.0082255-1.0591-0.4082-1.4199-0.074234-0.10604-0.18315-0.15989-0.29688-0.22461-0.53862-0.31594-1.0867-0.61682-1.6191-0.94336-0.058093-0.041327-0.11101-0.08926-0.16211-0.13867v-1.0781c7.336e-4 -0.62871 0-1.2572 0-1.8848v-0.48828c0.050924 0.049162 0.10417 0.095555 0.16211 0.13672 0.49767 0.30533 1.0091 0.58882 1.5137 0.88281 0.037663 0.017186 0.07354 0.036529 0.10938 0.056641l0.75 0.43359v-0.86523c6.5e-6 -0.40296 0.16266-0.7907 0.45117-1.0723 0.16574-0.16196 0.36593-0.27901 0.58203-0.34961zm1.9473 5.082c-0.0035 0.02557-0.0069 0.05086-0.01172 0.07617 3e-3 -0.01567 0.0034-0.03108 0.0059-0.04687 0.0015-0.01 0.0045-0.01926 0.0059-0.0293z" fill="#fff" fill-rule="evenodd"/>
    </g>
    <g transform="translate(1.0008 1.0005)" display="none" fill="none" opacity=".8" stroke-width=".05">
        <rect transform="rotate(90)" x="3.3425" y="-12.657" width="9.3148" height="9.3148" display="inline" opacity="1" stroke="#000"/>
        <rect x="3" y="4" width="10" height="8" opacity="1" stroke="#0091ff" stroke-linecap="round" stroke-linejoin="round"/>
        <rect transform="rotate(90)" x="3" y="-12" width="10" height="8" display="inline" opacity="1" stroke="#00ff03" stroke-linecap="round" stroke-linejoin="round"/>
    </g>
</svg>
