<?xml version="1.0" encoding="UTF-8"?>
<svg version="1.1" viewBox="0 0 18.001 18" xmlns="http://www.w3.org/2000/svg" xmlns:xlink="http://www.w3.org/1999/xlink">
    <g transform="translate(1.0008 -1092.8)">
        <rect x="9.5745e-5" y="1093.8" width="16" height="16" rx="1.5001" ry="1.5001" fill="#ffc107"/>
        <path transform="translate(-1.0008 1092.8)" d="m2.5 1c-0.83103 0-1.5 0.66897-1.5 1.5v0.5c0-0.83103 0.66897-1.5 1.5-1.5h13c0.83103 0 1.5 0.66897 1.5 1.5v-0.5c0-0.83103-0.66897-1.5-1.5-1.5z" fill="#fff" opacity=".2"/>
        <g transform="translate(-22.32 1056.5)">
            <g transform="matrix(.37187 0 0 .37187 38.802 63.239)"></g>
        </g>
        <path d="m14.5 1109.8c0.83103 0 1.5-0.669 1.5-1.5v-0.5c0 0.831-0.66897 1.5-1.5 1.5h-13c-0.83103 0-1.5-0.669-1.5-1.5v0.5c0 0.831 0.66897 1.5 1.5 1.5z" opacity=".2"/>
    </g>
    <path d="m4.5254 4.2637c-0.2916 0-0.52539 0.23379-0.52539 0.52539v8.4219c0 0.2916 0.23379 0.52539 0.52539 0.52539h3.6855c0.2916 0 0.52539-0.23379 0.52539-0.52539v-8.4219c0-0.2916-0.23379-0.52539-0.52539-0.52539h-3.6855zm5.2637 0c-0.2916 0-0.52539 0.23379-0.52539 0.52539v8.4219c0 0.2916 0.23379 0.52539 0.52539 0.52539h3.6855c0.2916 0 0.52539-0.23379 0.52539-0.52539v-8.4219c0-0.2916-0.23379-0.52539-0.52539-0.52539h-3.6855zm-3.4219 2.6309 0.023438 0.9375 0.85742 0.027344 0.24609-0.24609 0.50781 0.50781h-1.6016l0.0097656 0.43164h0.59961l-0.0019531-0.3457 0.57031 0.30273-0.23828 0.14453v0.81445l0.10742 0.12109-0.26562 0.26758-0.1543-0.23633h-0.58789l0.013672 0.55664 1.1055 0.007813 0.24609-0.24414 0.50781 0.50781h-1.8516l0.0058594 0.16602c0 0.12342 0.17383 0.23047 0.17383 0.23047l-0.36133 0.25977s-0.12891-0.13618-0.12891-0.27344l-0.0039062-0.38281h-1.0332l-0.19531 0.16602-0.45508-0.45312 1.6816 0.013672-0.0039062-0.55469h-0.66797v0.21484l-0.36914 0.1875-0.013672-1.627 0.33594 0.15625h0.70703l-0.0039063-0.43164h-1.4414l-0.25977-0.3457 1.6992 0.050781-0.0058593-0.71289 0.24609-0.21875zm5.1133 0.17773 0.58594 0.72461-0.28906 0.064453c0 0.20408-0.01105 0.39777-0.03125 0.58008l0.77734 0.0019532 0.25391-0.33789 0.58203 0.58203h-1.6543c-0.18935 1.1024-0.77448 1.7935-1.6992 2.2324l-0.060546-0.35547c0.86882-0.51971 1.241-1.1499 1.4043-1.877h-1.2949l-0.16406-0.25586 1.5098 0.0078125c0.06758-0.42609 0.080078-0.88072 0.080078-1.3672zm0.75781 0.41992c0.21729 0.089528 0.44561 0.16579 0.57812 0.36133l-0.33008 0.24805c-0.00791-0.2405-0.2403-0.37081-0.41211-0.5293l0.16406-0.080078zm-6.7656 1.2402v0.29102h0.66406l-0.0019532-0.29102h-0.66211zm0.94336 0 0.0058594 0.29102h0.59375l-0.0039062-0.29102h-0.5957zm5.3789 0.10352 0.18164 0.039062c-2e-6 0.86574 1.3984 1.541 1.3984 1.541l-0.32227 0.51172s-1.2578-0.96736-1.2578-2.0918zm-6.3223 0.36719v0.23633h0.66602v-0.23633h-0.66602zm0.95508 0 0.0058594 0.23633h0.58594l-0.0019531-0.23633h-0.58984z" fill="#fff" stroke-linecap="round" stroke-linejoin="round" stroke-width=".52636" style="paint-order:markers stroke fill"/>
    <g transform="translate(1.0008 1.0005)" display="none" fill="none" opacity=".8" stroke-width=".05">
        <rect transform="rotate(90)" x="3.3425" y="-12.657" width="9.3148" height="9.3148" display="inline" opacity="1" stroke="#000"/>
        <rect x="3" y="4" width="10" height="8" opacity="1" stroke="#0091ff" stroke-linecap="round" stroke-linejoin="round"/>
        <rect transform="rotate(90)" x="3" y="-12" width="10" height="8" display="inline" opacity="1" stroke="#00ff03" stroke-linecap="round" stroke-linejoin="round"/>
    </g>
</svg>
