<?xml version="1.0" encoding="UTF-8"?>
<svg version="1.1" viewBox="0 0 18.001 18" xmlns="http://www.w3.org/2000/svg">
    <g transform="translate(1.0008 -1092.8)">
        <rect x="9.5745e-5" y="1093.8" width="16" height="16" rx="1.5001" ry="1.5001" fill="#4caf50"/>
        <path transform="translate(-1.0008 1092.8)" d="m2.5 1c-0.83103 0-1.5 0.66897-1.5 1.5v0.5c0-0.83103 0.66897-1.5 1.5-1.5h13c0.83103 0 1.5 0.66897 1.5 1.5v-0.5c0-0.83103-0.66897-1.5-1.5-1.5z" fill="#fff" opacity=".2"/>
        <g transform="translate(-22.32 1056.5)"></g>
        <path d="m14.5 1109.8c0.83103 0 1.5-0.669 1.5-1.5v-0.5c0 0.831-0.66897 1.5-1.5 1.5h-13c-0.83103 0-1.5-0.669-1.5-1.5v0.5c0 0.831 0.66897 1.5 1.5 1.5z" opacity=".2"/>
    </g>
    <g transform="translate(1.0008 1.0005)">
        <path transform="translate(-1.0008 -1.0005)" d="m5 4v10h8v-0.5h-7.5v-3h7.5v-6.5zm2.3633 1.2734h0.42578l1.3105 3.4902c0.014723 0.038647 0.028021 0.063289 0.039063 0.076172 0.011042 0.012882 0.03775 0.023888 0.080078 0.03125l0.25391 0.044922v0.24219h-1.3438v-0.24219l0.32617-0.029297c0.014723 0 0.028133-0.00894 0.041016-0.027344 0.012882-0.020244 0.019531-0.038125 0.019531-0.054687 0-0.00736-0.00207-0.011831-0.00391-0.013672l-0.38867-1.0352h-1.3066l-0.375 1.0176c-0.00184 0.00368-0.00195 0.010217-0.00195 0.017578 0 0.022084 0.00894 0.044322 0.027344 0.066406 0.020244 0.020244 0.038124 0.029297 0.054687 0.029297l0.33398 0.029297v0.24219h-1.1367v-0.24219l0.32812-0.070312zm0.10352 0.72852-0.55078 1.4824h1.1055zm3.5332 0.36328c0.23372 0 0.41415 0.035762 0.54297 0.10938 0.12882 0.071773 0.21996 0.17196 0.27148 0.30078 0.05153 0.12698 0.07617 0.27176 0.07617 0.43555v1.5859c0 0.034966 0.01112 0.063854 0.0332 0.085937 0.02392 0.022084 0.05281 0.033429 0.08594 0.037109l0.27344 0.017579v0.2207h-0.83594l-0.07422-0.33398-0.08594 0.060547c-0.05521 0.040487-0.12869 0.087255-0.2207 0.14062-0.09202 0.05337-0.19438 0.10014-0.30664 0.14062-0.11042 0.040487-0.22161 0.060547-0.33203 0.060547-0.20428 0-0.37794-0.06694-0.52148-0.20312-0.1417-0.13618-0.21289-0.32314-0.21289-0.56055 0-0.1049 0.017881-0.20279 0.054687-0.29297 0.038647-0.090176 0.1143-0.17684 0.22656-0.25781 0.1141-0.082815 0.28318-0.16099 0.50586-0.23828 0.22452-0.079134 0.52267-0.15926 0.89258-0.24023v-0.24414c0-0.37175-0.17584-0.55664-0.52734-0.55664-0.09754 0-0.18213 0.00894-0.25391 0.027344-0.06993 0.018403-0.11888 0.031927-0.14648 0.042969v0.49219h-0.41211c-0.051529 0-0.09841-0.00894-0.14258-0.027344-0.044168-0.020244-0.066406-0.064833-0.066406-0.13477 0-0.15459 0.058-0.28137 0.17578-0.37891 0.11778-0.099378 0.26691-0.17274 0.44727-0.21875 0.18219-0.047849 0.36686-0.070313 0.55273-0.070313zm0.37305 1.2832c-0.25397 0.062571-0.45652 0.12504-0.60742 0.18945-0.14907 0.062571-0.26037 0.12699-0.33398 0.19141-0.07361 0.062571-0.12256 0.12711-0.14648 0.19336-0.02208 0.064412-0.0332 0.13124-0.0332 0.20117 0 0.11594 0.03576 0.22289 0.10938 0.32227 0.07545 0.097537 0.18011 0.14648 0.31445 0.14648 0.07545 0 0.1534-0.013298 0.23438-0.039063 0.08097-0.027605 0.15663-0.058784 0.22656-0.09375 0.06993-0.036807 0.12759-0.067985 0.16992-0.09375l0.066403-0.041015zm-5.373 3.3516v2h6.8097v-2z" fill="#fff" style="paint-order:markers stroke fill"/>
    </g>
    <g transform="translate(1.0008 1.0005)" display="none" fill="none" opacity=".8" stroke-width=".05">
        <rect transform="rotate(90)" x="3.3425" y="-12.657" width="9.3148" height="9.3148" display="inline" opacity="1" stroke="#000"/>
        <rect x="3" y="4" width="10" height="8" opacity="1" stroke="#0091ff" stroke-linecap="round" stroke-linejoin="round"/>
        <rect transform="rotate(90)" x="3" y="-12" width="10" height="8" display="inline" opacity="1" stroke="#00ff03" stroke-linecap="round" stroke-linejoin="round"/>
    </g>
</svg>
