<?xml version="1.0" encoding="UTF-8"?>
<svg version="1.1" viewBox="0 0 18.001 18" xmlns="http://www.w3.org/2000/svg">
    <g transform="translate(1.0008 -1092.8)">
        <rect x="9.5745e-5" y="1093.8" width="16" height="16" rx="1.5001" ry="1.5001" fill="#2196f3"/>
        <path transform="translate(-1.0008 1092.8)" d="m2.5 1c-0.83103 0-1.5 0.66897-1.5 1.5v0.5c0-0.83103 0.66897-1.5 1.5-1.5h13c0.83103 0 1.5 0.66897 1.5 1.5v-0.5c0-0.83103-0.66897-1.5-1.5-1.5z" fill="#fff" opacity=".2"/>
        <path d="m14.5 1109.8c0.83103 0 1.5-0.669 1.5-1.5v-0.5c0 0.831-0.66897 1.5-1.5 1.5h-13c-0.83103 0-1.5-0.669-1.5-1.5v0.5c0 0.831 0.66897 1.5 1.5 1.5z" opacity=".2"/>
    </g>
    <g transform="matrix(.99708 0 0 .99708 .012527 -.68548)">
        <path d="m8.1332 5.4029-0.015671 0.00588h-3.3849c-0.39668-7e-7 -0.71694 0.3199-0.71694 0.71694v6.0881c0 0.39704 0.32025 0.71694 0.71694 0.71694h0.78746v1.4985h0.32125l1.4985-1.4985h5.9921c0.39564 0 0.71302-0.3213 0.71302-0.71694v-6.094c0-0.39563-0.31739-0.71694-0.71302-0.71694zm0.58765 0.50146h4.6111c0.12541 1e-7 0.21352 0.090059 0.21352 0.21547v6.094c0 0.12541-0.0881 0.21743-0.21352 0.21743h-1.7199c1.1583-1.1666 1.4648-3.1291 0.31146-4.4192-0.82901-0.92697-2.345-1.2047-3.3105-0.31733-0.64248 0.59037-0.83442 1.6582-0.19784 2.3271 0.41065 0.43089 1.1459 0.55856 1.5965 0.11361 0.27983-0.27696 0.35974-0.76728 0.056806-1.0597-0.18016-0.17381-0.49518-0.22292-0.67776-0.023506-0.10423 0.11229-0.13347 0.30755-0.00784 0.41528 0.067159 0.057308 0.18272 0.071659 0.2429-0.00392 0.029729-0.03743 0.037823-0.10035-0.00588-0.13124-0.019879-0.013253-0.051031-0.016502-0.064642 0.00588-0.00385 0.00878-0.0062 0.024099 0.00392 0.029383 0.00385 0.00179 0.011753 0.00214 0.011753-0.00196v-0.00392c-6e-3 -9.85e-4 0-0.00347 0-0.00392 0.00341-0.00179 0.00979 0.00445 0.00979 0.00784 0.00313 0.011286-0.00742 0.021088-0.01763 0.023506-0.026236 6e-3 -0.044662-0.019993-0.05093-0.043095-0.00878-0.051847 0.040959-0.09239 0.088148-0.097942 0.095813-0.011199 0.16807 0.080976 0.17434 0.16846 0.012903 0.16539-0.14524 0.28524-0.29773 0.29187-0.27008 0.011912-0.45638-0.24504-0.46229-0.49559-0.0073428-0.42068 0.3956-0.71161 0.78942-0.7091 0.6338 0.0034948 1.0647 0.61171 1.0499 1.2066-0.023012 0.92276-0.91439 1.5447-1.7865 1.5083-1.3106-0.054623-2.1858-1.3247-2.1156-2.5661 0-1.1341 0.76963-2.1642 1.7688-2.7483z" color="#000000" fill="#fff" style="-inkscape-stroke:none"/>
    </g>
    <g transform="translate(1.0008 1.0005)" display="none" fill="none" opacity=".8" stroke-width=".05">
        <rect transform="rotate(90)" x="3.3425" y="-12.657" width="9.3148" height="9.3148" display="inline" opacity="1" stroke="#000"/>
        <rect x="3" y="4" width="10" height="8" opacity="1" stroke="#0091ff" stroke-linecap="round" stroke-linejoin="round"/>
        <rect transform="rotate(90)" x="3" y="-12" width="10" height="8" display="inline" opacity="1" stroke="#00ff03" stroke-linecap="round" stroke-linejoin="round"/>
    </g>
</svg>
