<?xml version="1.0" encoding="UTF-8"?>
<svg version="1.1" viewBox="0 0 18.001 18" xmlns="http://www.w3.org/2000/svg">
    <g transform="translate(1.0008 -1092.8)">
        <rect x="9.5745e-5" y="1093.8" width="16" height="16" rx="1.5001" ry="1.5001" fill="#222"/>
        <path transform="translate(-1.0008 1092.8)" d="m2.5 1c-0.83103 0-1.5 0.66897-1.5 1.5v0.5c0-0.83103 0.66897-1.5 1.5-1.5h13c0.83103 0 1.5 0.66897 1.5 1.5v-0.5c0-0.83103-0.66897-1.5-1.5-1.5z" fill="#fff" opacity=".2"/>
        <path d="m14.5 1109.8c0.83103 0 1.5-0.669 1.5-1.5v-0.5c0 0.831-0.66897 1.5-1.5 1.5h-13c-0.83103 0-1.5-0.669-1.5-1.5v0.5c0 0.831 0.66897 1.5 1.5 1.5z" opacity=".2"/>
    </g>
    <g transform="translate(1.0008 1.0005)">
        <path d="m3.2734 3v9.7108h0.88019v-0.53541h-0.4346v-1.1944h8.4626c0.30221 0 0.54492-0.24272 0.54492-0.54492v-6.8912c0-0.3022-0.24272-0.54492-0.54492-0.54492zm6.8661 1.0078c0.59819 0 1.0898 0.4936 1.0898 1.0918 0 0.59819-0.49165 1.0918-1.0898 1.0918-0.59819 2e-7 -1.0918-0.4936-1.0918-1.0918 0-0.59819 0.4936-1.0918 1.0918-1.0918zm-4.6953 0.13867c0.21804 1e-7 0.40891 0.11541 0.51367 0.28906 0.10476-0.17365 0.29368-0.28906 0.51172-0.28906 0.33132 0 0.60156 0.26775 0.60156 0.59766 0 0.17188-0.072975 0.32653-0.18945 0.43555l-0.93945 0.875-0.9082-0.875h-0.00195c-0.11599-0.10898-0.18946-0.26408-0.18946-0.43555 0-0.3299 0.27024-0.59766 0.60156-0.59766zm4.6953 0.58984c-0.20508 0-0.36523 0.1582-0.36523 0.36328s0.16015 0.36328 0.36523 0.36328 0.36328-0.1582 0.36328-0.36328-0.1582-0.36328-0.36328-0.36328zm0 2.981c0.07186 4.335e-4 0.14065 0.029211 0.19141 0.080078l0.81836 0.81836 0.19336 0.19141-0.17578 0.17578c-0.01 0.012679-0.02111 0.024444-0.0332 0.035157l-0.0059 0.00391-0.79688 0.79688c-0.1064 0.10589-0.27836 0.10589-0.38476 0-0.10719-0.10662-0.10719-0.2801 0-0.38672l0.3516-0.35157h-1.1602c-0.15041-6.863e-4 -0.27188-0.12302-0.27148-0.27344 6.817e-4 -0.14965 0.12183-0.2708 0.27148-0.27148h1.1602l-0.35156-0.35352c-0.10589-0.1064-0.10589-0.27837 0-0.38477 0.051239-0.051344 0.12082-0.080161 0.19336-0.080078zm-4.8418 0.091797c0.00775-3.925e-4 0.015593 0 0.023437 0 0.25107 0 0.45508 0.20206 0.45508 0.45312 0 0.25107-0.20401 0.45508-0.45508 0.45508s-0.45508-0.20401-0.45508-0.45508c0-0.24322 0.19145-0.44095 0.43164-0.45312zm1.2715 0c0.00775-3.925e-4 0.017546 0 0.025391 0 0.25107 0 0.45312 0.20206 0.45312 0.45312 1e-7 0.25107-0.20206 0.45508-0.45312 0.45508-0.25107 0-0.45703-0.20401-0.45703-0.45508 0-0.24322 0.19145-0.44095 0.43164-0.45312zm-1.2715 1.2715c0.00775-3.94e-4 0.015593 0 0.023437 0 0.25107 0 0.45508 0.20401 0.45508 0.45508s-0.20401 0.45508-0.45508 0.45508c-0.25107-1e-6 -0.45508-0.20401-0.45508-0.45508 0-0.24322 0.19145-0.44291 0.43164-0.45508zm1.2715 0c0.00775-3.94e-4 0.017546 0 0.025391 0 0.25107 0 0.45312 0.20401 0.45312 0.45508 1e-7 0.25107-0.20206 0.45508-0.45312 0.45508-0.25107-1e-6 -0.45703-0.20401-0.45703-0.45508 0-0.24322 0.19145-0.44291 0.43164-0.45508zm6.1573 2.3663c0 0.40306-0.32155 0.72852-0.72461 0.72852h-5.3932v0.53541h5.3932c0.40306 0 0.72461-0.3235 0.72461-0.72656zm-8.071 0.15467v1.3984l0.72656-0.54492 0.72656 0.54492v-1.3984z" fill="#fff"/>
    </g>
    <g transform="translate(1.0008 1.0005)" display="none" fill="none" opacity=".8" stroke-width=".05">
        <rect transform="rotate(90)" x="3.3425" y="-12.657" width="9.3148" height="9.3148" display="inline" opacity="1" stroke="#000"/>
        <rect x="3" y="4" width="10" height="8" opacity="1" stroke="#0091ff" stroke-linecap="round" stroke-linejoin="round"/>
        <rect transform="rotate(90)" x="3" y="-12" width="10" height="8" display="inline" opacity="1" stroke="#00ff03" stroke-linecap="round" stroke-linejoin="round"/>
    </g>
</svg>
