<?xml version="1.0" encoding="UTF-8"?>
<svg version="1.1" viewBox="0 0 18.001 18" xmlns="http://www.w3.org/2000/svg" xmlns:xlink="http://www.w3.org/1999/xlink">
    <g transform="translate(1.0008 -1092.8)">
        <rect x="9.5745e-5" y="1093.8" width="16" height="16" rx="1.5001" ry="1.5001" fill="#673ab7"/>
        <path transform="translate(-1.0008 1092.8)" d="m2.5 1c-0.83103 0-1.5 0.66897-1.5 1.5v0.5c0-0.83103 0.66897-1.5 1.5-1.5h13c0.83103 0 1.5 0.66897 1.5 1.5v-0.5c0-0.83103-0.66897-1.5-1.5-1.5z" fill="#fff" opacity=".2"/>
        <g transform="translate(-22.32 1056.5)">
            <g transform="matrix(.37187 0 0 .37187 38.802 63.239)"></g>
        </g>
        <path d="m14.5 1109.8c0.83103 0 1.5-0.669 1.5-1.5v-0.5c0 0.831-0.66897 1.5-1.5 1.5h-13c-0.83103 0-1.5-0.669-1.5-1.5v0.5c0 0.831 0.66897 1.5 1.5 1.5z" opacity=".2"/>
    </g>
    <g transform="translate(1.0008 1.0005)" fill="#fff" stroke-linecap="square" stroke-width="4.382">
        <path d="m10.344 3c-0.18975 0-0.34375 0.154-0.34375 0.34375v2.3145c0 0.18975 0.154 0.3418 0.34375 0.3418h0.64844c0.43611-0.86872 1.1392-1.5716 2.0078-2.0078v-0.64844c0-0.18975-0.15205-0.34375-0.3418-0.34375zm2.6562 2.1309c-0.33922 0.23637-0.63277 0.52992-0.86914 0.86914h0.52734c0.18975 0 0.3418-0.15205 0.3418-0.3418z" style="paint-order:markers stroke fill"/>
        <path d="m10.344 6.5c-0.18975 0-0.34375 0.154-0.34375 0.34375v0.43359c0.47181-0.1686 0.97134-0.27734 1.5-0.27734 0.52801 0 1.0287 0.10914 1.5 0.27734v-0.43359c0-0.18975-0.15205-0.34375-0.3418-0.34375zm1.1562 1.5c-0.5404 0-1.0439 0.1327-1.5 0.34961v0.80859c0 0.18975 0.154 0.3418 0.34375 0.3418h2.3145c0.18975 0 0.3418-0.15205 0.3418-0.3418v-0.81055c-0.45547-0.2162-0.96055-0.34766-1.5-0.34766z" style="paint-order:markers stroke fill"/>
        <path d="m6.8438 6.5c-0.18975 0-0.34375 0.154-0.34375 0.34375v0.64844c0.86936 0.43615 1.5734 1.1386 2.0098 2.0078h0.64844c0.18975 0 0.3418-0.15205 0.3418-0.3418v-2.3145c0-0.18975-0.15205-0.34375-0.3418-0.34375zm-0.34375 2.1289v0.5293c0 0.18975 0.154 0.3418 0.34375 0.3418h0.52734c-0.2369-0.33998-0.53092-0.63446-0.87109-0.87109z" style="paint-order:markers stroke fill"/>
        <path d="m6.8438 10c-0.18975 0-0.34375 0.154-0.34375 0.34375v2.3145c0 0.18975 0.154 0.3418 0.34375 0.3418h0.43359c-0.1682-0.47132-0.27734-0.97199-0.27734-1.5 0-0.52866 0.10875-1.0282 0.27734-1.5zm1.5039 0c-0.2163 0.45556-0.34766 0.96041-0.34766 1.5 0 0.53945 0.13146 1.0445 0.34766 1.5h0.81055c0.18975 0 0.3418-0.15205 0.3418-0.3418v-2.3145c0-0.18975-0.15205-0.34375-0.3418-0.34375z" style="paint-order:markers stroke fill"/>
        <rect x="3" y="3" width="3" height="3" ry=".34251" style="paint-order:markers stroke fill"/>
        <path d="m3.3438 6.5c-0.18975 0-0.34375 0.154-0.34375 0.34375v2.3145c0 0.18975 0.154 0.3418 0.34375 0.3418h0.81055c0.2162-0.45547 0.3457-0.96055 0.3457-1.5 0-0.53959-0.1294-1.0444-0.3457-1.5zm1.8789 0c0.16868 0.47192 0.27734 0.97119 0.27734 1.5 0 0.52795-0.10723 1.0287-0.27539 1.5h0.43359c0.18975 0 0.3418-0.15205 0.3418-0.3418v-2.3145c0-0.18975-0.15205-0.34375-0.3418-0.34375z" style="paint-order:markers stroke fill"/>
        <path d="m10.344 10c-0.18975 0-0.34375 0.154-0.34375 0.34375v2.3145c0 0.18975 0.154 0.3418 0.34375 0.3418h2.3145c0.18975 0 0.3418-0.15205 0.3418-0.3418v-0.64844c-0.869-0.43639-1.5718-1.1406-2.0078-2.0098zm1.7852 0c0.23664 0.34018 0.53112 0.6342 0.87109 0.87109v-0.52734c0-0.18975-0.15205-0.34375-0.3418-0.34375z" style="paint-order:markers stroke fill"/>
        <path d="m6.8438 3c-0.18975 0-0.34375 0.154-0.34375 0.34375v0.80859c0.45608 0.21691 0.9596 0.34766 1.5 0.34766 0.53945 0 1.0445-0.12951 1.5-0.3457v-0.81055c0-0.18975-0.15205-0.34375-0.3418-0.34375zm-0.34375 2.2227v0.43555c0 0.18975 0.154 0.3418 0.34375 0.3418h2.3145c0.18975 0 0.3418-0.15205 0.3418-0.3418v-0.43359c-0.47127 0.16816-0.97205 0.27539-1.5 0.27539-0.52881 0-1.0281-0.10866-1.5-0.27734z" style="paint-order:markers stroke fill"/>
    </g>
    <g transform="translate(1.0008 1.0005)" display="none" fill="none" opacity=".8" stroke-width=".05">
        <rect transform="rotate(90)" x="3.3425" y="-12.657" width="9.3148" height="9.3148" display="inline" opacity="1" stroke="#000"/>
        <rect x="3" y="4" width="10" height="8" opacity="1" stroke="#0091ff" stroke-linecap="round" stroke-linejoin="round"/>
        <rect transform="rotate(90)" x="3" y="-12" width="10" height="8" display="inline" opacity="1" stroke="#00ff03" stroke-linecap="round" stroke-linejoin="round"/>
    </g>
</svg>
