<?xml version="1.0" encoding="UTF-8"?>
<svg version="1.1" viewBox="0 0 18.001 18" xmlns="http://www.w3.org/2000/svg">
    <g transform="translate(1.0008 -1092.8)">
        <rect x="9.5745e-5" y="1093.8" width="16" height="16" rx="1.5001" ry="1.5001" fill="#f43f36"/>
        <path transform="translate(-1.0008 1092.8)" d="m2.5 1c-0.83103 0-1.5 0.66897-1.5 1.5v0.5c0-0.83103 0.66897-1.5 1.5-1.5h13c0.83103 0 1.5 0.66897 1.5 1.5v-0.5c0-0.83103-0.66897-1.5-1.5-1.5z" fill="#fff" opacity=".2"/>
        <path d="m14.5 1109.8c0.83103 0 1.5-0.669 1.5-1.5v-0.5c0 0.831-0.66897 1.5-1.5 1.5h-13c-0.83103 0-1.5-0.669-1.5-1.5v0.5c0 0.831 0.66897 1.5 1.5 1.5z" opacity=".2"/>
    </g>
    <g transform="translate(1.0008 1.0005)">
        <path transform="translate(-1.0008 -1.0005)" d="m8 4c-0.277 0-0.5 0.223-0.5 0.5v0.037109c-1.5375 0.21793-2.745 1.4253-2.9629 2.9629h-0.037109c-0.277 0-0.5 0.223-0.5 0.5v2c0 0.277 0.223 0.5 0.5 0.5h0.037109c0.21793 1.5375 1.4253 2.745 2.9629 2.9629v0.037109c0 0.277 0.223 0.5 0.5 0.5h2c0.277 0 0.5-0.223 0.5-0.5v-0.037109c1.5375-0.21793 2.745-1.4253 2.9629-2.9629h0.037109c0.277 0 0.5-0.223 0.5-0.5v-2c0-0.277-0.223-0.5-0.5-0.5h-0.037109c-0.21793-1.5375-1.4253-2.745-2.9629-2.9629v-0.037109c0-0.277-0.223-0.5-0.5-0.5h-2zm0.14258 0.5h1.7168c0.078431 0 0.14062 0.064147 0.14062 0.14258v1.7168c0 0.078431-0.062194 0.14062-0.14062 0.14062h-1.7168c-0.078431 0-0.14258-0.062194-0.14258-0.14062v-1.7168c0-0.078431 0.064147-0.14258 0.14258-0.14258zm-0.63477 2.084c0.039707 0.23675 0.24381 0.41602 0.49219 0.41602h2c0.24838 0 0.45248-0.17926 0.49219-0.41602 0.43283 0.14974 0.77408 0.49099 0.92383 0.92383-0.23675 0.039707-0.41602 0.24381-0.41602 0.49219v2c0 0.24838 0.17926 0.45248 0.41602 0.49219-0.14974 0.43283-0.491 0.77408-0.92383 0.92383-0.039707-0.23675-0.24381-0.41602-0.49219-0.41602h-2c-0.24838 0-0.45248 0.17926-0.49219 0.41602-0.43283-0.14974-0.77408-0.491-0.92383-0.92383 0.23675-0.039707 0.41602-0.24381 0.41602-0.49219v-2c0-0.24838-0.17926-0.45248-0.41602-0.49219 0.14974-0.43283 0.49099-0.77408 0.92383-0.92383zm-2.8652 1.416h1.7168c0.078431 0 0.14062 0.064147 0.14062 0.14258v1.7168c0 0.078431-0.062194 0.14062-0.14062 0.14062h-1.7168c-0.078431 0-0.14258-0.062194-0.14258-0.14062v-1.7168c0-0.078431 0.064147-0.14258 0.14258-0.14258zm7 0h1.7168c0.078431 0 0.14062 0.064147 0.14062 0.14258v1.7168c0 0.078431-0.062194 0.14062-0.14062 0.14062h-1.7168c-0.078431 0-0.14258-0.062194-0.14258-0.14062v-1.7168c0-0.078431 0.064147-0.14258 0.14258-0.14258zm-3.5 3.5h1.7168c0.078431 0 0.14062 0.064147 0.14062 0.14258v1.7168c0 0.078431-0.062194 0.14062-0.14062 0.14062h-1.7168c-0.078431 0-0.14258-0.062194-0.14258-0.14062v-1.7168c0-0.078431 0.064147-0.14258 0.14258-0.14258z" fill="#fff" style="paint-order:markers stroke fill"/>
    </g>
    <g transform="translate(1.0008 1.0005)" display="none" fill="none" opacity=".8" stroke-width=".05">
        <rect transform="rotate(90)" x="3.3425" y="-12.657" width="9.3148" height="9.3148" display="inline" opacity="1" stroke="#000"/>
        <rect x="3" y="4" width="10" height="8" opacity="1" stroke="#0091ff" stroke-linecap="round" stroke-linejoin="round"/>
        <rect transform="rotate(90)" x="3" y="-12" width="10" height="8" display="inline" opacity="1" stroke="#00ff03" stroke-linecap="round" stroke-linejoin="round"/>
    </g>
</svg>
