<?xml version="1.0" encoding="UTF-8"?>
<svg version="1.1" viewBox="0 0 18.001 18" xmlns="http://www.w3.org/2000/svg">
    <g transform="translate(1.0008 -1092.8)">
        <rect x="9.5745e-5" y="1093.8" width="16" height="16" rx="1.5001" ry="1.5001" fill="#4caf50"/>
        <path transform="translate(-1.0008 1092.8)" d="m2.5 1c-0.83103 0-1.5 0.66897-1.5 1.5v0.5c0-0.83103 0.66897-1.5 1.5-1.5h13c0.83103 0 1.5 0.66897 1.5 1.5v-0.5c0-0.83103-0.66897-1.5-1.5-1.5z" fill="#fff" opacity=".2"/>
        <path d="m14.5 1109.8c0.83103 0 1.5-0.669 1.5-1.5v-0.5c0 0.831-0.66897 1.5-1.5 1.5h-13c-0.83103 0-1.5-0.669-1.5-1.5v0.5c0 0.831 0.66897 1.5 1.5 1.5z" opacity=".2"/>
    </g>
    <g transform="translate(1.0008 1.0005)" fill="#fff" stroke-linecap="round" stroke-linejoin="round">
        <rect x="3" y="6" width="3.5" height="4" ry=".5" stroke-width=".5" style="paint-order:markers stroke fill"/>
        <rect x="6" y="3" width="4" height="2.5" ry=".5" stroke-width=".5" style="paint-order:markers stroke fill"/>
        <rect x="8" y="9.5" width="3.5" height="3.5" ry=".5" stroke-width=".5" style="paint-order:markers stroke fill"/>
        <path transform="translate(-1.0008 -1.0005)" d="m6 5c-0.277 0-0.5 0.223-0.5 0.5v1h0.5v-1h0.5v-0.5h-0.5z" stroke-width=".5" style="paint-order:markers stroke fill"/>
        <path d="m5.2516 3.757 0.75157 0.51545-0.75157 0.48455z" stroke-width=".5" style="paint-order:markers stroke fill"/>
        <path transform="translate(-1.0008 -1.0005)" d="m5.5 11.5v0.5c0 0.277 0.223 0.5 0.5 0.5h2.5v-0.5h-2.5v-0.5h-0.5z" stroke-width=".5" style="paint-order:markers stroke fill"/>
        <path d="m7.2484 10.708 0.75157 0.51545-0.75157 0.48455z" stroke-width=".5" style="paint-order:markers stroke fill"/>
        <path transform="translate(-1.0008 -1.0005)" d="m11.5 5v0.5h2v7h-0.5v0.5h0.5c0.277 0 0.5-0.223 0.5-0.5v-7c0-0.277-0.223-0.5-0.5-0.5h-2z" stroke-width=".5" style="paint-order:markers stroke fill"/>
        <rect transform="rotate(45)" x="10.072" y="-4.946" width=".87552" height=".87552" stroke-width=".43776" style="paint-order:markers stroke fill"/>
        <path transform="translate(-1.0008 -1.0005)" d="m8 8.5v0.5h2.5v1h0.5v-1c0-0.277-0.223-0.5-0.5-0.5h-2.5z" stroke-width=".5" style="paint-order:markers stroke fill"/>
        <rect transform="rotate(45)" x="10.073" y=".003514" width=".87552" height=".87552" stroke-width=".43776" style="paint-order:markers stroke fill"/>
    </g>
    <g transform="translate(1.0008 1.0005)" display="none" fill="none" opacity=".8" stroke-width=".05">
        <rect transform="rotate(90)" x="3.3425" y="-12.657" width="9.3148" height="9.3148" display="inline" opacity="1" stroke="#000"/>
        <rect x="3" y="4" width="10" height="8" opacity="1" stroke="#0091ff" stroke-linecap="round" stroke-linejoin="round"/>
        <rect transform="rotate(90)" x="3" y="-12" width="10" height="8" display="inline" opacity="1" stroke="#00ff03" stroke-linecap="round" stroke-linejoin="round"/>
    </g>
</svg>
