<?xml version="1.0" encoding="UTF-8"?>
<svg version="1.1" viewBox="0 0 18.001 18" xmlns="http://www.w3.org/2000/svg">
    <g transform="translate(1.0008 -1092.8)">
        <rect x="9.5745e-5" y="1093.8" width="16" height="16" rx="1.5001" ry="1.5001" fill="#607d8b"/>
        <path transform="translate(-1.0008 1092.8)" d="m2.5 1c-0.83103 0-1.5 0.66897-1.5 1.5v0.5c0-0.83103 0.66897-1.5 1.5-1.5h13c0.83103 0 1.5 0.66897 1.5 1.5v-0.5c0-0.83103-0.66897-1.5-1.5-1.5z" fill="#fff" opacity=".2"/>
        <g transform="translate(-22.32 1056.5)"></g>
        <path d="m14.5 1109.8c0.83103 0 1.5-0.669 1.5-1.5v-0.5c0 0.831-0.66897 1.5-1.5 1.5h-13c-0.83103 0-1.5-0.669-1.5-1.5v0.5c0 0.831 0.66897 1.5 1.5 1.5z" opacity=".2"/>
    </g>
    <g transform="translate(1.0008 1.0005)">
        <path transform="translate(-1.0008 -1.0005)" d="m4 4v3h3v-3h-3zm3.5 0v3h3v-3h-3zm3.5 0v3h3v-3h-3zm-5.5449 0.52539c0.38522 0 0.63477 0.19323 0.63477 0.50195 0 0.2131-0.1236 0.37114-0.32031 0.42578 0.25682 0.046446 0.42188 0.23028 0.42188 0.4707 0 0.33332-0.31289 0.55273-0.77734 0.55273-0.21037 0-0.40954-0.047734-0.60352-0.14062l0.082031-0.27734c0.16666 0.076498 0.3685 0.11328 0.53516 0.11328 0.24862 0 0.40234-0.088807 0.40234-0.25 0-0.18032-0.18931-0.29297-0.48438-0.29297h-0.16406v-0.27539h0.14062c0.24316 0 0.41211-0.11264 0.41211-0.2793 0-0.15026-0.14197-0.24609-0.34961-0.24609-0.1366 0-0.29741 0.043816-0.4668 0.12305l-0.080078-0.26172c0.18305-0.10382 0.40408-0.16406 0.61719-0.16406zm3.8008 0.023438h0.20898v1.9023h-0.34961v-1.4883l-0.44727 0.20117-0.13086-0.24805 0.71875-0.36719zm3.5 0h0.20898v1.9023h-0.34961v-1.4883l-0.44726 0.20117-0.13086-0.24805 0.71875-0.36719zm-8.7559 2.9512v3h3v-3h-3zm3.5 0v3h3v-3h-3zm3.5 0v3h3v-3h-3zm-2.0449 0.52539c0.38522 0 0.63477 0.19323 0.63477 0.50195 0 0.2131-0.1236 0.37114-0.32031 0.42578 0.25682 0.046446 0.42188 0.23028 0.42188 0.4707 0 0.33332-0.31289 0.55273-0.77734 0.55273-0.21037 0-0.40954-0.047734-0.60352-0.14062l0.082031-0.27734c0.16666 0.076498 0.3685 0.11328 0.53516 0.11328 0.24862 0 0.40234-0.088807 0.40234-0.25 0-0.18032-0.18931-0.29297-0.48438-0.29297h-0.16406v-0.27539h0.14062c0.24316 0 0.41211-0.11264 0.41211-0.2793 0-0.15026-0.14197-0.24609-0.34961-0.24609-0.1366 0-0.29741 0.043816-0.4668 0.12305l-0.080078-0.26172c0.18305-0.10382 0.40408-0.16406 0.61719-0.16406zm3.5 0c0.38522 0 0.63477 0.19323 0.63477 0.50195 0 0.2131-0.1236 0.37114-0.32031 0.42578 0.25682 0.046446 0.42188 0.23028 0.42188 0.4707 0 0.33332-0.31289 0.55273-0.77734 0.55273-0.21037 0-0.40954-0.047734-0.60352-0.14062l0.082031-0.27734c0.16666 0.076498 0.3685 0.11328 0.53516 0.11328 0.24862 0 0.40234-0.088807 0.40234-0.25 0-0.18032-0.18931-0.29297-0.48438-0.29297h-0.16406v-0.27539h0.14062c0.24316 0 0.41211-0.11264 0.41211-0.2793 0-0.15026-0.14197-0.24609-0.34961-0.24609-0.1366 0-0.29741 0.043816-0.4668 0.12305l-0.080078-0.26172c0.18305-0.10382 0.40408-0.16406 0.61719-0.16406zm-6.9961 0.013672c0.38796-1e-7 0.64062 0.21826 0.64062 0.5625 0 0.31146-0.20471 0.62029-0.69922 1.0547h0.76367v0.30664h-1.2734v-0.24414c0.58467-0.52183 0.8457-0.80842 0.8457-1.0625 0-0.18578-0.13377-0.30859-0.34961-0.30859-0.14207 0-0.30481 0.054-0.45508 0.16602l-0.09375-0.25391c0.16393-0.14207 0.3834-0.2207 0.62109-0.2207zm-1.459 2.9609v3h3v-3h-3zm3.5 0v3h3v-3h-3zm3.5 0v3h3v-3h-3zm-6.5938 0.40625h2.1875v2.1875h-2.1875v-2.1875zm4.5527 0.13281c0.38796 2e-6 0.64062 0.21826 0.64062 0.5625 0 0.31146-0.20471 0.62029-0.69922 1.0547h0.76367v0.30664h-1.2734v-0.24414c0.58467-0.52183 0.8457-0.80842 0.8457-1.0625 0-0.18578-0.13377-0.30859-0.34961-0.30859-0.14207 0-0.30481 0.054-0.45508 0.16602l-0.09375-0.25391c0.16393-0.14206 0.3834-0.2207 0.62109-0.2207zm3.5 0c0.38796 2e-6 0.64062 0.21826 0.64062 0.5625 0 0.31146-0.20471 0.62029-0.69922 1.0547h0.76367v0.30664h-1.2734v-0.24414c0.58467-0.52183 0.8457-0.80842 0.8457-1.0625 0-0.18578-0.13377-0.30859-0.34961-0.30859-0.14207 0-0.30481 0.054-0.45508 0.16602l-0.09375-0.25391c0.16392-0.14206 0.3834-0.2207 0.62109-0.2207zm-7 0.048829c-0.19957 0-0.4067 0.055118-0.57812 0.15234l0.074219 0.24609c0.15863-0.074198 0.30957-0.11523 0.4375-0.11523 0.19445 0 0.32617 0.089748 0.32617 0.23047 0 0.15607-0.15705 0.26172-0.38477 0.26172h-0.13086v0.25781h0.15234c0.27632 0 0.45312 0.10457 0.45312 0.27344 0 0.15096-0.14217 0.23633-0.375 0.23633-0.15607 0-0.34588-0.035783-0.50195-0.10742l-0.076172 0.25976c0.18166 0.086991 0.36744 0.13086 0.56445 0.13086 0.43495 0 0.72656-0.20544 0.72656-0.51758 0-0.22515-0.15207-0.39596-0.39258-0.43945 0.18422-0.051171 0.29883-0.19887 0.29883-0.39844 0-0.28912-0.23299-0.4707-0.59375-0.4707z" fill="#fff" style="paint-order:markers stroke fill"/>
    </g>
    <g transform="translate(1.0008 1.0005)" display="none" fill="none" opacity=".8" stroke-width=".05">
        <rect transform="rotate(90)" x="3.3425" y="-12.657" width="9.3148" height="9.3148" display="inline" opacity="1" stroke="#000"/>
        <rect x="3" y="4" width="10" height="8" opacity="1" stroke="#0091ff" stroke-linecap="round" stroke-linejoin="round"/>
        <rect transform="rotate(90)" x="3" y="-12" width="10" height="8" display="inline" opacity="1" stroke="#00ff03" stroke-linecap="round" stroke-linejoin="round"/>
    </g>
</svg>
