<?xml version="1.0" encoding="UTF-8"?>
<svg version="1.1" viewBox="0 0 18.001 18" xmlns="http://www.w3.org/2000/svg">
    <g transform="translate(1.0008 -1092.8)">
        <rect x="9.5745e-5" y="1093.8" width="16" height="16" rx="1.5001" ry="1.5001" fill="#8bc34a"/>
        <path transform="translate(-1.0008 1092.8)" d="m2.5 1c-0.83103 0-1.5 0.66897-1.5 1.5v0.5c0-0.83103 0.66897-1.5 1.5-1.5h13c0.83103 0 1.5 0.66897 1.5 1.5v-0.5c0-0.83103-0.66897-1.5-1.5-1.5z" fill="#fff" opacity=".2"/>
        <path d="m14.5 1109.8c0.83103 0 1.5-0.669 1.5-1.5v-0.5c0 0.831-0.66897 1.5-1.5 1.5h-13c-0.83103 0-1.5-0.669-1.5-1.5v0.5c0 0.831 0.66897 1.5 1.5 1.5z" opacity=".2"/>
    </g>
    <g transform="translate(1.0008 1.0005)">
        <g transform="matrix(.80174 0 0 .80174 -3.5194 -3.7825)" fill="#fff" stroke-width="1.5364" aria-label="^__^ (oo) (__) ">
            <path d="m10.845 8.4598 0.91225 1.1143h-0.3561l-0.7342-0.79022-0.7322 0.79022h-0.3561l0.91225-1.1143z"/>
            <path d="m16.835 11.269v0.41089h-4.9334v-0.41089z"/>
            <path d="m18.245 8.4598 0.91225 1.1143h-0.3561l-0.7342-0.79022-0.7322 0.79022h-0.3561l0.91225-1.1143z"/>
            <path d="m11.205 12.269q-0.26607 0.45613-0.39811 0.91025-0.13004 0.45213-0.13004 0.91225 0 0.45813 0.13004 0.91225 0.13204 0.45413 0.39811 0.91425h-0.32009q-0.30208-0.47613-0.45012-0.92626-0.14804-0.45212-0.14804-0.90025 0-0.44612 0.14804-0.89825t0.45012-0.92426z"/>
            <path d="m13.134 13.396q-0.28008 0-0.42412 0.21806t-0.14404 0.64618q0 0.42612 0.14404 0.64618 0.14404 0.21806 0.42412 0.21806 0.28208 0 0.42612-0.21806 0.14404-0.22006 0.14404-0.64618 0-0.42812-0.14404-0.64618t-0.42612-0.21806zm0-0.31209q0.46613 0 0.7122 0.30208 0.24807 0.30208 0.24807 0.87424 0 0.57416-0.24607 0.87624-0.24607 0.30008-0.7142 0.30008-0.46613 0-0.7122-0.30008-0.24607-0.30208-0.24607-0.87624 0-0.57216 0.24607-0.87424t0.7122-0.30208z"/>
            <path d="m15.6 13.396q-0.28008 0-0.42412 0.21806t-0.14404 0.64618q0 0.42612 0.14404 0.64618 0.14404 0.21806 0.42412 0.21806 0.28208 0 0.42612-0.21806 0.14404-0.22006 0.14404-0.64618 0-0.42812-0.14404-0.64618t-0.42612-0.21806zm0-0.31209q0.46613 0 0.7122 0.30208 0.24807 0.30208 0.24807 0.87424 0 0.57416-0.24607 0.87624-0.24607 0.30008-0.7142 0.30008-0.46613 0-0.7122-0.30008-0.24607-0.30208-0.24607-0.87624 0-0.57216 0.24607-0.87424t0.7122-0.30208z"/>
            <path d="m17.531 12.269h0.32009q0.30208 0.47213 0.45012 0.92426t0.14804 0.89825q0 0.45012-0.14804 0.90225t-0.45012 0.92426h-0.32009q0.26607-0.46413 0.39611-0.91826 0.13204-0.45413 0.13204-0.90825 0-0.45613-0.13204-0.91025-0.13004-0.45413-0.39611-0.91225z"/>
            <path d="m11.205 16.858c-0.17738 0.30408-0.31009 0.6075-0.39811 0.91025-0.08669 0.30142-0.13004 0.6055-0.13004 0.91225 0 0.30542 0.04335 0.6095 0.13004 0.91225 0.08803 0.30275 0.22073 0.6075 0.39811 0.91425h-0.32009c-0.20139-0.31742-0.35143-0.62618-0.45012-0.92626-0.09869-0.30142-0.14804-0.6015-0.14804-0.90025 0-0.29742 0.04935-0.59683 0.14804-0.89825s0.24874-0.6095 0.45012-0.92426z"/>
            <path d="m16.835 20.522v0.41089h-4.9334v-0.41089z"/>
            <path d="m17.531 16.858h0.32009c0.20139 0.31475 0.35143 0.62284 0.45012 0.92426s0.14804 0.60083 0.14804 0.89825c0 0.30008-0.04935 0.60083-0.14804 0.90225s-0.24874 0.6095-0.45012 0.92426h-0.32009c0.17738-0.30942 0.30942-0.6155 0.39611-0.91826 0.08802-0.30275 0.13204-0.6055 0.13204-0.90825 0-0.30408-0.04401-0.6075-0.13204-0.91025-0.08669-0.30275-0.21873-0.60684-0.39611-0.91225z"/>
        </g>
    </g>
    <g transform="translate(1.0008 1.0005)" display="none" fill="none" opacity=".8" stroke-width=".05">
        <rect transform="rotate(90)" x="3.3425" y="-12.657" width="9.3148" height="9.3148" display="inline" opacity="1" stroke="#000"/>
        <rect x="3" y="4" width="10" height="8" opacity="1" stroke="#0091ff" stroke-linecap="round" stroke-linejoin="round"/>
        <rect transform="rotate(90)" x="3" y="-12" width="10" height="8" display="inline" opacity="1" stroke="#00ff03" stroke-linecap="round" stroke-linejoin="round"/>
    </g>
</svg>
