<?xml version="1.0" encoding="UTF-8"?>
<svg version="1.1" viewBox="0 0 18.001 18" xmlns="http://www.w3.org/2000/svg">
    <g transform="translate(1.0008 -1092.8)">
        <rect x="9.5745e-5" y="1093.8" width="16" height="16" rx="1.5001" ry="1.5001" fill="#ffc107"/>
        <path transform="translate(-1.0008 1092.8)" d="m2.5 1c-0.83103 0-1.5 0.66897-1.5 1.5v0.5c0-0.83103 0.66897-1.5 1.5-1.5h13c0.83103 0 1.5 0.66897 1.5 1.5v-0.5c0-0.83103-0.66897-1.5-1.5-1.5z" fill="#fff" opacity=".2"/>
        <path d="m14.5 1109.8c0.83103 0 1.5-0.669 1.5-1.5v-0.5c0 0.831-0.66897 1.5-1.5 1.5h-13c-0.83103 0-1.5-0.669-1.5-1.5v0.5c0 0.831 0.66897 1.5 1.5 1.5z" opacity=".2"/>
    </g>
    <g transform="translate(1.0008 1.0005)">
        <g fill="#fff" stroke-width=".54115" aria-label="C.&amp;">
            <path d="m5.6325 9.9518q-0.21702 0.11556-0.44532 0.17193-0.2283 0.05919-0.48478 0.05919-0.80891 0-1.257-0.57215-0.44532-0.57215-0.44532-1.6094 0-1.0316 0.44814-1.6065 0.45096-0.57779 1.2542-0.57779 0.25648 0 0.48478 0.059188 0.2283 0.05637 0.44532 0.17193v0.58343q-0.20857-0.17193-0.44814-0.26212-0.23957-0.090192-0.48196-0.090192-0.55524 0-0.83145 0.42841t-0.27621 1.2937q0 0.86246 0.27621 1.2909 0.27621 0.42841 0.83145 0.42841 0.24803 0 0.48478-0.090192 0.23957-0.090192 0.44532-0.26212z"/>
            <path d="m7.4617 8.5702h0.71026v0.85964h-0.71026z"/>
            <path d="m11.1 7.5448 1.1725 1.5755q0.10992-0.13811 0.16347-0.34949 0.05355-0.21139 0.05355-0.50451 0-0.090192-0.0085-0.28749l-0.0028-0.019729h0.46223v0.10992q0 0.45378-0.10428 0.79763-0.10428 0.34104-0.31567 0.58906l0.47914 0.64543h-0.60031l-0.21984-0.30722q-0.23394 0.19729-0.49605 0.29312-0.26212 0.09583-0.56088 0.09583-0.60879 0-1.0062-0.37768-0.39741-0.3805-0.39741-0.95547 0-0.38613 0.19448-0.7159 0.19448-0.32976 0.58625-0.61161-0.14092-0.20293-0.20857-0.39741-0.06764-0.19448-0.06764-0.39459 0-0.42277 0.27903-0.66798 0.28185-0.24521 0.76945-0.24521 0.1832 0 0.3664 0.033822 0.18602 0.033822 0.38332 0.098647v0.51578q-0.1663-0.10992-0.34386-0.16065-0.17475-0.053551-0.36922-0.053551-0.27339 0-0.43123 0.12965-0.15784 0.12683-0.15784 0.34386 0 0.16629 0.08174 0.34949 0.08174 0.18038 0.29876 0.47069zm-0.36922 0.29312q-0.2593 0.20575-0.38895 0.43687-0.12683 0.2283-0.12683 0.4876 0 0.42559 0.28185 0.70744 0.28185 0.27903 0.71872 0.27903 0.11838 0 0.24803-0.033822t0.25366-0.098647q0.0761-0.042277 0.12401-0.073281 0.05073-0.033822 0.09583-0.070462z"/>
        </g>
    </g>
    <g transform="translate(1.0008 1.0005)" display="none" fill="none" opacity=".8" stroke-width=".05">
        <rect transform="rotate(90)" x="3.3425" y="-12.657" width="9.3148" height="9.3148" display="inline" opacity="1" stroke="#000"/>
        <rect x="3" y="4" width="10" height="8" opacity="1" stroke="#0091ff" stroke-linecap="round" stroke-linejoin="round"/>
        <rect transform="rotate(90)" x="3" y="-12" width="10" height="8" display="inline" opacity="1" stroke="#00ff03" stroke-linecap="round" stroke-linejoin="round"/>
    </g>
</svg>
