<?xml version="1.0" encoding="UTF-8"?>
<svg version="1.1" viewBox="0 0 18.001 18" xmlns="http://www.w3.org/2000/svg">
    <g transform="translate(1.0008 -1092.8)">
        <rect x="9.5745e-5" y="1093.8" width="16" height="16" rx="1.5001" ry="1.5001" fill="#3f51b5"/>
        <path transform="translate(-1.0008 1092.8)" d="m2.5 1c-0.83103 0-1.5 0.66897-1.5 1.5v0.5c0-0.83103 0.66897-1.5 1.5-1.5h13c0.83103 0 1.5 0.66897 1.5 1.5v-0.5c0-0.83103-0.66897-1.5-1.5-1.5z" fill="#fff" opacity=".2"/>
        <path d="m14.5 1109.8c0.83103 0 1.5-0.669 1.5-1.5v-0.5c0 0.831-0.66897 1.5-1.5 1.5h-13c-0.83103 0-1.5-0.669-1.5-1.5v0.5c0 0.831 0.66897 1.5 1.5 1.5z" opacity=".2"/>
    </g>
    <g transform="translate(1.0008 1.0005)">
        <path d="m4.8261 4.1686v0.5h1.6738v-0.5zm4.6738 0v0.5h1.6758v-0.5zm-4.416 0.66211c-0.51463 0-0.93684 0.38598-0.99414 0.88477-0.00847 0.023146-0.01531 0.047042-0.021484 0.072266l-1.0254 4.1875c-0.19757 0.80717 0.29439 1.6149 1.1016 1.8125 0.80717 0.19757 1.6149-0.29244 1.8125-1.0996l0.22266-0.91211a1 1 0 0 0 0.32031 0.054688 1 1 0 0 0 1-1h1a1 1 0 0 0 1 1 1 1 0 0 0 0.32031-0.052734l0.22266 0.91016c0.19757 0.80717 1.0073 1.2972 1.8145 1.0996 0.80717-0.19757 1.2972-1.0053 1.0996-1.8125l-1.0234-4.1875c-0.0049-0.02-0.01158-0.038441-0.01953-0.056641v-0.00195c-0.051028-0.50548-0.47672-0.89844-0.9961-0.89844h-1.418c-0.277 0-0.5 0.223-0.5 0.5h-2c0-0.277-0.223-0.5-0.5-0.5h-0.5zm0.10742 0.61914c0.00513-0.00107 0.010159 0 0.015625 0h0.58594c0.040998 0 0.075945 0.030305 0.080078 0.070312v0.58008c-0.079943 0.079943-0.1581 0.15826-0.23828 0.23828-0.074035 0.074035-0.19354 0.074035-0.26758 0-0.07991-0.07991-0.15811-0.15782-0.23828-0.23828v-0.57227c2e-7 -0.038265 0.026559-0.070605 0.0625-0.078125zm5.3086 0.00977a0.37187 0.37187 0 0 1 0.37305 0.37109 0.37187 0.37187 0 0 1-0.37305 0.37305 0.37187 0.37187 0 0 1-0.37109-0.37305 0.37187 0.37187 0 0 1 0.37109-0.37109zm-6.0449 0.73242h0.58203c0.079943 0.079943 0.15826 0.1581 0.23828 0.23828 0.074035 0.074035 0.074035 0.19354 0 0.26758-0.07991 0.07991-0.15782 0.15811-0.23828 0.23828h-0.57227c-0.043731 0-0.080078-0.034393-0.080078-0.078125v-0.58594c0-0.040998 0.030305-0.075948 0.070312-0.080078zm1.5098 0.00195h0.57227c0.043732 2e-7 0.080078 0.034393 0.080078 0.078125v0.58594c0 0.040998-0.032259 0.075948-0.072266 0.080078h-0.58008c-0.079943-0.079943-0.15826-0.1581-0.23828-0.23828-0.074035-0.074035-0.074035-0.19354 0-0.26758 0.07991-0.07991 0.15782-0.15811 0.23828-0.23828zm3.793 0.00977a0.37187 0.37187 0 0 1 0.37109 0.37109 0.37187 0.37187 0 0 1-0.37109 0.37109 0.37187 0.37187 0 0 1-0.37305-0.37109 0.37187 0.37187 0 0 1 0.37305-0.37109zm1.4863 0a0.37187 0.37187 0 0 1 0.37305 0.37109 0.37187 0.37187 0 0 1-0.37305 0.37109 0.37187 0.37187 0 0 1-0.37109-0.37109 0.37187 0.37187 0 0 1 0.37109-0.37109zm-4.2441 0.20117h0.63867v0.38281h-0.63867zm1.3633 0 0.63672 0.19141-0.63672 0.19141zm-2.8809 0.33008c0.00599-6.089e-4 0.011539 0 0.017578 0 0.048313 0 0.095795 0.019623 0.13281 0.056641 0.07991 0.07991 0.15811 0.15782 0.23828 0.23828v0.57227c-2e-7 0.043731-0.034393 0.080078-0.078125 0.080078h-0.58594c-0.040998 0-0.073995-0.032259-0.078125-0.072266v-0.58008c0.079943-0.079944 0.1581-0.15826 0.23828-0.23828 0.03239-0.03239 0.073274-0.052379 0.11523-0.056641zm5.0176 0.21094a0.37187 0.37187 0 0 1 0.37305 0.37305 0.37187 0.37187 0 0 1-0.37305 0.37109 0.37187 0.37187 0 0 1-0.37109-0.37109 0.37187 0.37187 0 0 1 0.37109-0.37305zm-2.8184 0.69336h0.63867v0.38281h-0.63867zm-1.2852 0.44336a0.63072 0.63072 0 0 1 0.63086 0.63086 0.63072 0.63072 0 0 1-0.63086 0.63086 0.63072 0.63072 0 0 1-0.63086-0.63086 0.63072 0.63072 0 0 1 0.63086-0.63086zm3.1992 0a0.63072 0.63072 0 0 1 0.63086 0.63086 0.63072 0.63072 0 0 1-0.63086 0.63086 0.63072 0.63072 0 0 1-0.62891-0.63086 0.63072 0.63072 0 0 1 0.62891-0.63086z" fill="#fff" stroke-width="1.0954" style="paint-order:markers stroke fill"/>
    </g>
    <g transform="translate(1.0008 1.0005)" display="none" fill="none" opacity=".8" stroke-width=".05">
        <rect transform="rotate(90)" x="3.3425" y="-12.657" width="9.3148" height="9.3148" display="inline" opacity="1" stroke="#000"/>
        <rect x="3" y="4" width="10" height="8" opacity="1" stroke="#0091ff" stroke-linecap="round" stroke-linejoin="round"/>
        <rect transform="rotate(90)" x="3" y="-12" width="10" height="8" display="inline" opacity="1" stroke="#00ff03" stroke-linecap="round" stroke-linejoin="round"/>
    </g>
</svg>
