<?xml version="1.0" encoding="UTF-8"?>
<svg version="1.1" viewBox="0 0 18.001 18" xmlns="http://www.w3.org/2000/svg">
    <g transform="translate(1.0008 -1092.8)">
        <rect x="9.5745e-5" y="1093.8" width="16" height="16" rx="1.5001" ry="1.5001" fill="#3f51b5"/>
        <path transform="translate(-1.0008 1092.8)" d="m2.5 1c-0.83103 0-1.5 0.66897-1.5 1.5v0.5c0-0.83103 0.66897-1.5 1.5-1.5h13c0.83103 0 1.5 0.66897 1.5 1.5v-0.5c0-0.83103-0.66897-1.5-1.5-1.5z" fill="#fff" opacity=".2"/>
        <path d="m14.5 1109.8c0.83103 0 1.5-0.669 1.5-1.5v-0.5c0 0.831-0.66897 1.5-1.5 1.5h-13c-0.83103 0-1.5-0.669-1.5-1.5v0.5c0 0.831 0.66897 1.5 1.5 1.5z" opacity=".2"/>
    </g>
    <g transform="translate(1.0008 1.0005)">
        <path d="m12.743 3.2566c-0.34266-0.34263-0.89771-0.34263-1.2404 1e-7 -0.22102 0.22187-0.30641 0.54477-0.22508 0.84721l-0.49516 0.49516-1.2413-1.2413-0.62114 0.62114 1.2413 1.2413-4.7754 4.7754c-0.18319-0.40148-0.53688-0.75559-0.75636-1.0964-0.81861-1.2711-1.1471-2.5865-0.57284-3.1598l0.22411-0.23378 0.27917 0.43953s0.2404-0.9203 0.42408-1.2703c-0.38046-0.26591-1.3988-0.28014-1.3988-0.28014l0.23571 0.36322-0.38447 0.36129c-0.7907 0.79077-0.46917 2.4605 0.65785 4.122 0.3347 0.49342 0.89351 1.1511 0.81819 1.8461 0.69491-0.07528 1.3526 0.4835 1.8461 0.81819 1.6615 1.1271 3.3321 1.4495 4.1229 0.65882l0.36032-0.38544 0.36322 0.2357s-0.01423-1.0183-0.28014-1.3988c-0.35003 0.18368-1.2703 0.42407-1.2703 0.42407l0.43953 0.27918-0.23379 0.2241c-0.57337 0.57418-1.8887 0.24576-3.1598-0.57284-0.34053-0.21929-0.69349-0.57111-1.0945-0.75447l4.7754-4.7754 1.2404 1.2404 0.62114-0.62114-1.2404-1.2404 0.49516-0.49516c0.30229 0.080686 0.6238-0.00603 0.84525-0.22701 0.34263-0.34266 0.34263-0.89771 1e-6 -1.2404zm-0.30816 0.30816c0.17267 0.17219 0.17309 0.45228 9.79e-4 0.625-0.17258 0.17307-0.45339 0.17307-0.62597 3e-7 -0.17213-0.17274-0.1717-0.45281 9.79e-4 -0.62501 0.17234-0.17172 0.4517-0.17172 0.62404-2e-7z" fill="#fff" stroke-linecap="square" stroke-opacity=".98032" stroke-width=".5595" style="paint-order:markers stroke fill"/>
    </g>
    <g transform="translate(1.0008 1.0005)" display="none" fill="none" opacity=".8" stroke-width=".05">
        <rect transform="rotate(90)" x="3.3425" y="-12.657" width="9.3148" height="9.3148" display="inline" opacity="1" stroke="#000"/>
        <rect x="3" y="4" width="10" height="8" opacity="1" stroke="#0091ff" stroke-linecap="round" stroke-linejoin="round"/>
        <rect transform="rotate(90)" x="3" y="-12" width="10" height="8" display="inline" opacity="1" stroke="#00ff03" stroke-linecap="round" stroke-linejoin="round"/>
    </g>
</svg>
