<?xml version="1.0" encoding="UTF-8"?>
<svg version="1.1" viewBox="0 0 18.001 18" xmlns="http://www.w3.org/2000/svg">
    <g transform="translate(1.0008 -1092.8)">
        <rect x="9.5745e-5" y="1093.8" width="16" height="16" rx="1.5001" ry="1.5001" fill="#9c27b0"/>
        <path transform="translate(-1.0008 1092.8)" d="m2.5 1c-0.83103 0-1.5 0.66897-1.5 1.5v0.5c0-0.83103 0.66897-1.5 1.5-1.5h13c0.83103 0 1.5 0.66897 1.5 1.5v-0.5c0-0.83103-0.66897-1.5-1.5-1.5z" fill="#fff" opacity=".2"/>
        <path d="m14.5 1109.8c0.83103 0 1.5-0.669 1.5-1.5v-0.5c0 0.831-0.66897 1.5-1.5 1.5h-13c-0.83103 0-1.5-0.669-1.5-1.5v0.5c0 0.831 0.66897 1.5 1.5 1.5z" opacity=".2"/>
    </g>
    <g transform="translate(1.0008 1.0005)">
        <path d="m7.407 5.8701c0.21269-0.76064 0.019799-1.6109-0.57723-2.2091-0.59508-0.59273-1.4354-0.78721-2.1917-0.582l1.2808 1.2804-0.33596 1.2543-1.2559 0.33596-1.2805-1.2797c-0.20439 0.75587-0.010253 1.5962 0.58359 2.1905 0.62242 0.62284 1.5194 0.80542 2.3038 0.5503l5.2759 5.2759c0.20839 0.20798 0.48178 0.31333 0.75469 0.31333 0.27339 0 0.54594-0.10535 0.75517-0.31333 0.41638-0.41561 0.41638-1.0911 0-1.5098l-5.3127-5.3068zm4.6495 6.6375c-0.22419 0-0.40607-0.18259-0.40607-0.40766 0-0.22578 0.18188-0.40766 0.40607-0.40766 0.22583 0 0.40848 0.18188 0.40848 0.40766 4.13e-4 0.22507-0.18223 0.40766-0.40848 0.40766z" fill="#fff" stroke-width=".82061"/>
    </g>
    <g transform="translate(1.0008 1.0005)" display="none" fill="none" opacity=".8" stroke-width=".05">
        <rect transform="rotate(90)" x="3.3425" y="-12.657" width="9.3148" height="9.3148" display="inline" opacity="1" stroke="#000"/>
        <rect x="3" y="4" width="10" height="8" opacity="1" stroke="#0091ff" stroke-linecap="round" stroke-linejoin="round"/>
        <rect transform="rotate(90)" x="3" y="-12" width="10" height="8" display="inline" opacity="1" stroke="#00ff03" stroke-linecap="round" stroke-linejoin="round"/>
    </g>
</svg>
