<?xml version="1.0" encoding="UTF-8"?>
<svg version="1.1" viewBox="0 0 18.001 18" xmlns="http://www.w3.org/2000/svg">
    <defs>
        <linearGradient id="linearGradient4461" x1="10.5" x2="10.5" y1="-9.5005" y2="-9.0005" gradientTransform="rotate(90.002 .00019338 1.0006)" gradientUnits="userSpaceOnUse">
            <stop stop-color="#ff000f" offset="0"/>
            <stop stop-color="#19ff00" offset="1"/>
        </linearGradient>
        <linearGradient id="linearGradient4891" x1="-5.4999" x2="-5.4999" y1="6.5001" y2="7.0001" gradientTransform="rotate(-89.999 1.0007 -.00017629)" gradientUnits="userSpaceOnUse">
            <stop stop-color="#ff8300" offset="0"/>
            <stop stop-color="#00ff94" offset="1"/>
        </linearGradient>
    </defs>
    <g transform="translate(1.0008 -1092.8)">
        <rect x="9.5745e-5" y="1093.8" width="16" height="16" rx="1.5001" ry="1.5001" fill="#00bcd4"/>
        <path transform="translate(-1.0008 1092.8)" d="m2.5 1c-0.83103 0-1.5 0.66897-1.5 1.5v0.5c0-0.83103 0.66897-1.5 1.5-1.5h13c0.83103 0 1.5 0.66897 1.5 1.5v-0.5c0-0.83103-0.66897-1.5-1.5-1.5z" fill="#fff" opacity=".2"/>
        <path d="m14.5 1109.8c0.83103 0 1.5-0.669 1.5-1.5v-0.5c0 0.831-0.66897 1.5-1.5 1.5h-13c-0.83103 0-1.5-0.669-1.5-1.5v0.5c0 0.831 0.66897 1.5 1.5 1.5z" opacity=".2"/>
    </g>
    <g transform="translate(1.0008 1.0005)">
        <g transform="translate(1e-4 2.8102e-5)">
            <path transform="translate(-1.0009 -1.0005)" d="m9 5.4629a7.0752 7.0752 0 0 0-5.002 2.0723l1.25 1.25a5.3064 5.3064 0 0 1 7.1641-0.29883c0.13464 0.050424 0.24432 0.14995 0.3125 0.27344a5.3064 5.3064 0 0 1 0.029297 0.025391l1.25-1.25a7.0752 7.0752 0 0 0-5.0039-2.0723zm-0.31445 2.6543a4.433 4.433 0 0 0-2.8184 1.2871l1.252 1.2539a2.661 2.661 0 0 1 2.4688-0.70898l0.36914-0.63672c0.14613-0.2513 0.45816-0.35773 0.72266-0.25781l0.005859 0.0019531 0.15625 0.0625 0.023437-0.16797 0.001954-0.0058594c0.0221-0.12992 0.087528-0.24511 0.17969-0.33203a4.433 4.433 0 0 0-2.3613-0.49609zm2.7676 0.83203c-0.046993 0-0.086235 0.035901-0.09375 0.080078l-0.070313 0.49805c-0.11466 0.047933-0.21959 0.1084-0.31641 0.18359l-0.46875-0.1875c-0.042294-0.015977-0.091734-0.0013515-0.11523 0.039062l-0.375 0.65234c-0.023497 0.040414-0.01423 0.090001 0.021484 0.11914l0.39648 0.3125c-0.00752 0.060151-0.011719 0.12157-0.011719 0.18359s0.0042 0.12149 0.011719 0.18164l-0.39648 0.3125c-0.035714 0.028196-0.044981 0.07779-0.021484 0.11914l0.375 0.65234c0.023496 0.040414 0.07294 0.05598 0.11523 0.039063l0.46875-0.1875c0.096802 0.074249 0.20174 0.13761 0.31641 0.18555l0.070313 0.49805c0.007519 0.044174 0.046761 0.078125 0.09375 0.078125h0.75195c0.046993 0 0.086235-0.033951 0.09375-0.078125l0.070313-0.49805c0.11466-0.047931 0.2196-0.11035 0.31641-0.18555l0.46875 0.1875c0.042294 0.015977 0.091738 0.001351 0.11523-0.039063l0.375-0.65234c0.023493-0.040414 0.014231-0.090001-0.021484-0.11914l-0.39844-0.3125c0.007516-0.060151 0.013672-0.11961 0.013672-0.18164s-0.006153-0.12345-0.013672-0.18359l0.39844-0.3125c0.035715-0.028196 0.046934-0.07779 0.023437-0.11914l-0.37695-0.65234c-0.023496-0.040414-0.07294-0.05598-0.11523-0.039062l-0.4668 0.1875c-0.096802-0.074249-0.2037-0.13566-0.31836-0.18359l-0.070313-0.49805c-0.008459-0.044174-0.046757-0.080078-0.09375-0.080078h-0.75195zm0.375 1.2227c0.36373 0 0.6582 0.29448 0.6582 0.6582 0 0.36373-0.29448 0.65625-0.6582 0.65625-0.36373 0-0.65625-0.29252-0.65625-0.65625s0.29252-0.6582 0.65625-0.6582zm-2.7129 0.61328a1.7604 1.7604 0 0 0-0.31055 0.003906 1.7604 1.7604 0 0 0-1.0488 0.50391l1.2441 1.2461 0.67773-0.67773-0.097656-0.16797-0.0019531-0.001953c-0.1394-0.24533-0.081203-0.57035 0.13867-0.75195a1.7604 1.7604 0 0 0-0.60156-0.1543z" fill="#fff" style="-inkscape-stroke:none;paint-order:markers stroke fill"/>
        </g>
    </g>
    <g transform="translate(1.0008 1.0005)" display="none" fill="none" opacity=".67119" stroke-width=".05">
        <rect transform="rotate(90)" x="3.3425" y="-12.657" width="9.3148" height="9.3148" display="inline" opacity="1" stroke="#000"/>
        <rect x="3" y="4" width="10" height="8" opacity="1" stroke="#0091ff" stroke-linecap="round" stroke-linejoin="round"/>
        <rect transform="rotate(90)" x="3" y="-12" width="10" height="8" display="inline" opacity="1" stroke="#00ff03" stroke-linecap="round" stroke-linejoin="round"/>
    </g>
    <g display="none" fill="none" stroke-linecap="square" stroke-width=".05">
        <path d="m13.658 8.0007-2.46e-4 5.6574-3.6573-1.59e-4 2.46e-4 -5.6574z" display="inline" opacity=".62506" stroke="url(#linearGradient4461)" style="paint-order:markers stroke fill"/>
        <path d="m4.3436 10 5.3e-5 -5.6574 3.6573 3.43e-5 -5.3e-5 5.6574z" display="inline" opacity=".62506" stroke="url(#linearGradient4891)" style="paint-order:markers stroke fill"/>
    </g>
</svg>
