<?xml version="1.0" encoding="UTF-8"?>
<svg version="1.1" viewBox="0 0 18.001 18" xmlns="http://www.w3.org/2000/svg">
    <g transform="translate(1.0008 -1092.8)">
        <rect x="9.5745e-5" y="1093.8" width="16" height="16" rx="1.5001" ry="1.5001" fill="#9c27b0"/>
        <path transform="translate(-1.0008 1092.8)" d="m2.5 1c-0.83103 0-1.5 0.66897-1.5 1.5v0.5c0-0.83103 0.66897-1.5 1.5-1.5h13c0.83103 0 1.5 0.66897 1.5 1.5v-0.5c0-0.83103-0.66897-1.5-1.5-1.5z" fill="#fff" opacity=".2"/>
        <path d="m14.5 1109.8c0.83103 0 1.5-0.669 1.5-1.5v-0.5c0 0.831-0.66897 1.5-1.5 1.5h-13c-0.83103 0-1.5-0.669-1.5-1.5v0.5c0 0.831 0.66897 1.5 1.5 1.5z" opacity=".2"/>
    </g>
    <g transform="translate(1.0008 1.0005)" fill="#fff">
        <path d="m5.6083 3.001c-0.45852 0-0.8254 0.12481-1.1017 0.37403-0.22338 0.20059-0.33549 0.41208-0.33549 0.63698 0 0.091179 0.032811 0.18311 0.097474 0.27429 0.064663 0.0851 0.15991 0.12694 0.28336 0.12694 0.11169 0 0.20467-0.038855 0.28109-0.11788 0.07642-0.079021 0.11561-0.17095 0.11561-0.27429-0.011757-0.048628-0.024513-0.10243-0.036269-0.16321-0.00588-0.066864-0.00907-0.1319-0.00907-0.19268 0-0.13373 0.065623-0.23834 0.19495-0.31736 0.12933-0.0851 0.27198-0.12921 0.4307-0.12921 0.17635 0 0.32447 0.047099 0.44203 0.13828 0.15872 0.12765 0.23802 0.33316 0.23802 0.61885v0.63263c-0.81695 0.27723-1.3825 0.52472-1.6412 0.70708-0.37622 0.26746-0.56444 0.609-0.56444 1.0223 0 0.29177 0.092056 0.52345 0.27429 0.69365 0.18811 0.1702 0.40915 0.25389 0.66192 0.25389 0.22338 0 0.45809-0.071731 0.70499-0.21762 0.1646-0.097257 0.35601-0.24598 0.57351-0.44657 0 0.28569 0.076112 0.47924 0.22895 0.58258 0.082298 0.054707 0.1976 0.081606 0.34456 0.081606 0.10581 0 0.20836-0.020922 0.30829-0.063472 0.15872-0.066863 0.31732-0.19765 0.47604-0.39216v-0.23802c-0.064663 0.054707-0.1271 0.098817-0.18588 0.12921-0.058785 0.030393-0.12852 0.045337-0.21082 0.045337-0.11757 0-0.19049-0.038855-0.21988-0.11788-0.023514-0.0851-0.036269-0.22186-0.036269-0.4103v-1.7795c0-0.4255-0.056056-0.73788-0.16775-0.93847-0.19399-0.34648-0.57681-0.51911-1.147-0.51911zm4.7935 0c-0.51935 0-1.081 0.1446-1.5097 0.39216l0.16548 0.50324c0.41218-0.18781 0.82531-0.28109 1.2128-0.28109 0.70896 0 1.0722 0.30744 1.0722 0.91354v0.27202c-1.7806 0.017073-2.557 0.4015-2.557 1.2808 0 0.73415 0.52811 1.2037 1.3442 1.2037 0.50286 0 0.93206-0.17046 1.2536-0.46924l0.15641 0.38536h0.46017v-2.6726c0-0.98171-0.55942-1.5279-1.5981-1.5279zm-4.1928 1.75v1.3216c0 0.14589-0.016867 0.25575-0.052137 0.32869-0.035271 0.066864-0.11776 0.12963-0.24709 0.19041-0.064663 0.036471-0.15034 0.074604-0.25615 0.11108-0.10581 0.036471-0.20425 0.054404-0.29242 0.054404-0.1646 0-0.30088-0.068021-0.41257-0.20175-0.11169-0.13373-0.16775-0.30935-0.16775-0.52817 0-0.21883 0.072923-0.41238 0.21988-0.58258 0.22338-0.26138 0.62626-0.49306 1.2082-0.69365zm5.1336 0.51911v1.0087c-0.24731 0.2561-0.61016 0.4103-1.0223 0.4103-0.5276 0-0.74439-0.27483-0.74439-0.68459 0-0.5122 0.43126-0.72592 1.7667-0.73446z" stroke-width=".22954" style="font-variant-caps:normal;font-variant-east-asian:normal;font-variant-ligatures:normal;font-variant-numeric:normal"/>
        <path d="m5.7852 8.7134c-0.63883 0-1.3256-0.00715-1.6127 0.13297l0.00959 0.5249c0.27545-0.068619 1.0253-0.086619 1.4988-0.086619 0.70647 0 0.95291 0.4723 0.96794 1.0269-1.8864 0.16805-2.6454 0.57987-2.6454 1.4958 0 0.73104 0.55604 1.1606 1.24 1.1606 0.60257 0 1.1804-0.06992 1.5188-0.06992h0.50324v-2.5026c0-1.0167-0.48067-1.682-1.4802-1.682zm4.6689 0c-0.64985 0-1.1551 0.25427-1.5143 0.75939l0.43523 0.26749c0.27362-0.35847 0.63439-0.53724 1.079-0.53724 0.29642 0 0.53281 0.086883 0.70952 0.26069 0.18241 0.16837 0.27202 0.39672 0.27202 0.68459v0.54631c-0.32492-0.23355-0.69799-0.35136-1.1198-0.35136-0.46743 0-0.8405 0.11918-1.1198 0.35816-0.27362 0.23898-0.4103 0.56285-0.4103 0.97021 0 0.40192 0.13668 0.7258 0.4103 0.97021 0.27932 0.23898 0.65239 0.35816 1.1198 0.35816 0.45033 0 0.83797-0.1774 1.1629-0.53044v0.4239h0.52137v-2.7451c0-0.43451-0.13778-0.78204-0.4171-1.0427-0.27932-0.26071-0.65575-0.39216-1.1289-0.39216zm-3.8052 2.0515v1.5499c-0.30722 0.08232-0.82661 0.09775-1.24 0.09775-0.42087 0-0.80246-0.19297-0.80246-0.65512 0-0.53777 0.47918-0.84968 2.0424-0.99251zm3.6601 0.06801c0.47313 0 0.8473 0.14147 1.1266 0.4239v0.60298c-0.28502 0.43451-0.65919 0.65058-1.1266 0.65058-0.29642 0-0.53171-0.07461-0.70272-0.22668-0.17101-0.15208-0.25615-0.35677-0.25615-0.61205s0.085141-0.45997 0.25615-0.61205c0.17101-0.15208 0.4063-0.22668 0.70272-0.22668z" stroke-width=".19867" style="font-variant-caps:normal;font-variant-east-asian:normal;font-variant-ligatures:normal;font-variant-numeric:normal"/>
    </g>
    <g transform="translate(1.0008 1.0005)" display="none" fill="none" opacity=".8" stroke-width=".05">
        <rect transform="rotate(90)" x="3.3425" y="-12.657" width="9.3148" height="9.3148" display="inline" opacity="1" stroke="#000"/>
        <rect x="3" y="4" width="10" height="8" opacity="1" stroke="#0091ff" stroke-linecap="round" stroke-linejoin="round"/>
        <rect transform="rotate(90)" x="3" y="-12" width="10" height="8" display="inline" opacity="1" stroke="#00ff03" stroke-linecap="round" stroke-linejoin="round"/>
    </g>
</svg>
