<?xml version="1.0" encoding="UTF-8"?>
<svg version="1.1" viewBox="0 0 18.001 18" xmlns="http://www.w3.org/2000/svg">
    <defs>
        <linearGradient id="linearGradient4461" x1="10.5" x2="10.5" y1="-9.5005" y2="-9.0005" gradientTransform="rotate(90.002 .00019338 1.0006)" gradientUnits="userSpaceOnUse">
            <stop stop-color="#ff000f" offset="0"/>
            <stop stop-color="#19ff00" offset="1"/>
        </linearGradient>
        <linearGradient id="linearGradient4891" x1="-5.4999" x2="-5.4999" y1="6.5001" y2="7.0001" gradientTransform="rotate(-89.999 1.0007 -.00017629)" gradientUnits="userSpaceOnUse">
            <stop stop-color="#ff8300" offset="0"/>
            <stop stop-color="#00ff94" offset="1"/>
        </linearGradient>
    </defs>
    <g transform="translate(1.0008 -1092.8)">
        <rect x="9.5745e-5" y="1093.8" width="16" height="16" rx="1.5001" ry="1.5001" fill="#3f51b5"/>
        <path transform="translate(-1.0008 1092.8)" d="m2.5 1c-0.83103 0-1.5 0.66897-1.5 1.5v0.5c0-0.83103 0.66897-1.5 1.5-1.5h13c0.83103 0 1.5 0.66897 1.5 1.5v-0.5c0-0.83103-0.66897-1.5-1.5-1.5z" fill="#fff" opacity=".2"/>
        <g transform="translate(-22.32 1056.5)"></g>
        <path d="m14.5 1109.8c0.83103 0 1.5-0.669 1.5-1.5v-0.5c0 0.831-0.66897 1.5-1.5 1.5h-13c-0.83103 0-1.5-0.669-1.5-1.5v0.5c0 0.831 0.66897 1.5 1.5 1.5z" opacity=".2"/>
    </g>
    <g transform="translate(1.0008 1.0005)">
        <g transform="translate(-4.29e-5)" fill="#fff">
            <path transform="translate(-1.0008,-1.0005)" d="m4.5 4c-0.277 0-0.5 0.223-0.5 0.5v1.5c0 0.277 0.223 0.5 0.5 0.5h1.5c0.277 0 0.5-0.223 0.5-0.5v-1.5c0-0.277-0.223-0.5-0.5-0.5h-1.5zm3.75 0c-0.277 0-0.5 0.223-0.5 0.5v1.5c0 0.277 0.223 0.5 0.5 0.5h1.5c0.277 0 0.5-0.223 0.5-0.5v-1.5c0-0.277-0.223-0.5-0.5-0.5h-1.5zm3.75 0c-0.277 0-0.5 0.223-0.5 0.5v1.5c0 0.277 0.223 0.5 0.5 0.5h1.5c0.277 0 0.5-0.223 0.5-0.5v-1.5c0-0.277-0.223-0.5-0.5-0.5h-1.5zm-7.5 3.75c-0.277 0-0.5 0.223-0.5 0.5v1.5c0 0.277 0.223 0.5 0.5 0.5h1.5c0.277 0 0.5-0.223 0.5-0.5v-1.5c0-0.277-0.223-0.5-0.5-0.5h-1.5zm3.75 0c-0.277 0-0.5 0.223-0.5 0.5v1.5c0 0.277 0.223 0.5 0.5 0.5h1.2266c-0.0022832-0.10546 0.024168-0.21243 0.080078-0.30859l0.38086-0.6582v-0.0019531c0.072125-0.12403 0.18511-0.21178 0.3125-0.25781v-0.77344c0-0.277-0.223-0.5-0.5-0.5h-1.5zm3.75 0c-0.277 0-0.5 0.223-0.5 0.5v0.16211h0.70898c0.29432 0 0.53571 0.21172 0.58789 0.48438l0.001953 0.011719 0.025391 0.18555 0.16211-0.066406h0.001953c0.27291-0.10916 0.58962 0.00491 0.73438 0.25391v0.0019531l0.27539 0.48047c1.26e-4 -0.0046502 0.001953-0.0089901 0.001953-0.013672v-1.5c0-0.277-0.223-0.5-0.5-0.5h-1.5zm-0.55273 1.1621c-0.047632 0-0.086133 0.035301-0.09375 0.080078l-0.072266 0.50391c-0.11622 0.048584-0.22218 0.11129-0.32031 0.1875l-0.47461-0.19141c-0.042868-0.016194-0.093368 5.26e-5 -0.11719 0.041016l-0.38086 0.66016c-0.023816 0.040963-0.012762 0.093512 0.023438 0.12305l0.40234 0.31445c-0.007621 0.060969-0.013671 0.12268-0.013671 0.18555s0.00605 0.12458 0.013671 0.18555l-0.40234 0.31641c-0.0362 0.02858-0.047253 0.079182-0.023438 0.12109l0.38086 0.66016c0.023815 0.040963 0.074319 0.058163 0.11719 0.041016l0.47461-0.19141c0.098116 0.075257 0.20409 0.13892 0.32031 0.1875l0.072266 0.50586c0.007621 0.044774 0.046122 0.080078 0.09375 0.080078h0.76172c0.047632 0 0.088086-0.035304 0.095704-0.080078l0.070312-0.50586c0.11622-0.048584 0.22414-0.11129 0.32227-0.1875l0.47461 0.19141c0.042868 0.016195 0.093372-5.3e-5 0.11719-0.041016l0.38086-0.66016c0.023812-0.040963 0.012762-0.091558-0.023438-0.12109l-0.40234-0.31641c0.007617-0.060968 0.013671-0.12268 0.013671-0.18555 0-0.062869-0.00605-0.12458-0.013671-0.18555l0.4043-0.31445c0.036199-0.028579 0.0453-0.081135 0.021484-0.12305l-0.38086-0.66016c-0.023815-0.040963-0.072366-0.058163-0.11523-0.041016l-0.47461 0.19141c-0.098117-0.075258-0.20604-0.13892-0.32227-0.1875l-0.072265-0.50391c-0.008574-0.044774-0.048072-0.080078-0.095704-0.080078h-0.76172zm0.38086 1.2383c0.36867 0 0.66797 0.29735 0.66797 0.66602s-0.2993 0.66797-0.66797 0.66797-0.66602-0.2993-0.66602-0.66797 0.29735-0.66602 0.66602-0.66602zm-7.3281 1.3496c-0.277 0-0.5 0.223-0.5 0.5v1.5c0 0.277 0.223 0.5 0.5 0.5h1.5c0.277 0 0.5-0.223 0.5-0.5v-1.5c0-0.277-0.223-0.5-0.5-0.5h-1.5zm3.75 0c-0.277 0-0.5 0.223-0.5 0.5v1.5c0 0.277 0.223 0.5 0.5 0.5h1.5c0.277 0 0.5-0.223 0.5-0.5v-0.88867c-0.12882-0.046594-0.2412-0.13712-0.3125-0.25977v-0.001953l-0.38281-0.66211h-0.0019531c-0.033357-0.058703-0.053126-0.12275-0.064453-0.1875h-1.2383zm5.7363 0.38867-0.26562 0.46094v0.001953c-0.14646 0.25191-0.45953 0.35795-0.72461 0.25781l-0.00586-0.001953-0.16602-0.06836-0.025391 0.17969-0.001953 0.007812c-0.047738 0.2806-0.29359 0.49609-0.58789 0.49609h-0.70898v0.27734c0 0.277 0.223 0.5 0.5 0.5h1.5c0.277 0 0.5-0.223 0.5-0.5v-1.5c0-0.038322-0.005583-0.075521-0.013672-0.11133z" style="paint-order:markers stroke fill"/>
        </g>
    </g>
    <g transform="translate(1.0008 1.0005)" display="none" fill="none" opacity=".67119" stroke-width=".05">
        <rect transform="rotate(90)" x="3.3425" y="-12.657" width="9.3148" height="9.3148" display="inline" opacity="1" stroke="#000"/>
        <rect x="3" y="4" width="10" height="8" opacity="1" stroke="#0091ff" stroke-linecap="round" stroke-linejoin="round"/>
        <rect transform="rotate(90)" x="3" y="-12" width="10" height="8" display="inline" opacity="1" stroke="#00ff03" stroke-linecap="round" stroke-linejoin="round"/>
    </g>
    <g display="none" fill="none" stroke-linecap="square" stroke-width=".05">
        <path d="m13.658 8.0007-2.46e-4 5.6574-3.6573-1.59e-4 2.46e-4 -5.6574z" display="inline" opacity=".62506" stroke="url(#linearGradient4461)" style="paint-order:markers stroke fill"/>
        <path d="m4.3436 10 5.3e-5 -5.6574 3.6573 3.43e-5 -5.3e-5 5.6574z" display="inline" opacity=".62506" stroke="url(#linearGradient4891)" style="paint-order:markers stroke fill"/>
    </g>
</svg>
