<?xml version="1.0" encoding="UTF-8"?>
<svg version="1.1" viewBox="0 0 18.001 18" xmlns="http://www.w3.org/2000/svg">
    <g transform="translate(1.0008 -1092.8)">
        <rect x="9.5745e-5" y="1093.8" width="16" height="16" rx="1.5001" ry="1.5001" fill="#3f51b5"/>
        <path transform="translate(-1.0008 1092.8)" d="m2.5 1c-0.83103 0-1.5 0.66897-1.5 1.5v0.5c0-0.83103 0.66897-1.5 1.5-1.5h13c0.83103 0 1.5 0.66897 1.5 1.5v-0.5c0-0.83103-0.66897-1.5-1.5-1.5z" fill="#fff" opacity=".2"/>
        <path d="m14.5 1109.8c0.83103 0 1.5-0.669 1.5-1.5v-0.5c0 0.831-0.66897 1.5-1.5 1.5h-13c-0.83103 0-1.5-0.669-1.5-1.5v0.5c0 0.831 0.66897 1.5 1.5 1.5z" opacity=".2"/>
    </g>
    <g transform="translate(1.0008 1.0005)">
        <path d="m3 5.5927v4.8146h10v-4.8146zm0.37091 0.37091h4.6285v4.0727h-4.6285zm6.5072 0.10994 0.38299 0.00967c-0.02282 0.059341-0.04067 0.14148-0.05436 0.20539-0.01825 0.095861-0.03611 0.21436-0.05437 0.34674 0.57973-0.027392 1.1364-0.087375 1.6021-0.19693l0.0048 0.33829c-0.47931 0.082169-1.0874 0.14538-1.6443 0.17277-0.02282 0.17803-0.03584 0.37007-0.04953 0.5618 0.25563-0.073034 0.53438-0.11357 0.76718-0.11357 0.05934 0 0.11316-9.77e-4 0.16793 0.00363 0.0045-0.013693 0.0099-0.026443 0.0145-0.0447 0.02281-0.068477 0.04496-0.18698 0.04953-0.26459l0.36124 0.090613c-0.02739 0.063905-0.069 0.18672-0.09182 0.25975 1e-6 0.00454-0.0048 0.010203-0.0048 0.019331 0.5706 0.15064 0.90858 0.56952 0.90858 1.0717 0 0.65734-0.43304 1.2241-1.4921 1.393l-0.19693-0.30567c0.82623-0.086733 1.3374-0.51205 1.3374-1.1055 0-0.34693-0.23272-0.65723-0.65724-0.78045-0.26019 0.6482-0.62927 1.1549-1.0173 1.4836 0.03652 0.13238 0.07222 0.25558 0.10874 0.3697l-0.32863 0.10027c-0.027392-0.077605-0.049662-0.16363-0.072489-0.25492-0.25106 0.15064-0.52458 0.2513-0.77563 0.2513-0.30128 0-0.53884-0.18708-0.53884-0.57509 0-0.58886 0.51057-1.1879 1.1405-1.48 0.00913-0.22824 0.03248-0.45598 0.050743-0.67054-0.095862 0.00461-0.18658 0.00482-0.27788 0.00482-0.19629 0-0.55345-0.01892-0.7406-0.032619l-0.00846-0.34191c0.15977 0.027385 0.5564 0.059202 0.75267 0.059202 0.10499 0 0.20551-2.555e-4 0.3105-0.00482 0.013699-0.13238 0.027113-0.25115 0.036248-0.35158 0.00454-0.082169 0.014237-0.16391 0.00967-0.21868zm-4.5705 0.29721-1.271 3.3273h0.47481l0.30325-0.85414h1.5005l0.30204 0.85414h0.46877l-1.2685-3.3273zm0.25372 0.44339 0.61254 1.6552h-1.2239zm5.2664 0.8711c-0.29671 0-0.56204 0.068588-0.772 0.14619-0.0046 0.063905-0.0036 0.12336-0.0036 0.18727 0 0.29215 0.03167 0.57008 0.07733 0.83481 0.30584-0.28758 0.58392-0.65704 0.77563-1.1683zm-1.0958 0.28754c-0.44279 0.25106-0.78045 0.70214-0.78045 1.0765 0 0.18716 0.086294 0.28392 0.25975 0.28392 0.17803-7e-7 0.39786-0.078512 0.63067-0.24284-0.063912-0.3241-0.10994-0.69304-0.10994-1.0354z" color="#000000" fill="#fff" stroke-linecap="round" stroke-width=".61858" style="-inkscape-stroke:none"/>
    </g>
    <g transform="translate(1.0008 1.0005)" display="none" fill="none" opacity=".8" stroke-width=".05">
        <rect transform="rotate(90)" x="3.3425" y="-12.657" width="9.3148" height="9.3148" display="inline" opacity="1" stroke="#000"/>
        <rect x="3" y="4" width="10" height="8" opacity="1" stroke="#0091ff" stroke-linecap="round" stroke-linejoin="round"/>
        <rect transform="rotate(90)" x="3" y="-12" width="10" height="8" display="inline" opacity="1" stroke="#00ff03" stroke-linecap="round" stroke-linejoin="round"/>
    </g>
</svg>
