<?xml version="1.0" encoding="UTF-8"?>
<svg version="1.1" viewBox="0 0 18.001 18" xmlns="http://www.w3.org/2000/svg">
    <g transform="translate(1.0008 -1092.8)">
        <rect x="9.5745e-5" y="1093.8" width="16" height="16" rx="1.5001" ry="1.5001" fill="#2196f3"/>
        <path transform="translate(-1.0008 1092.8)" d="m2.5 1c-0.83103 0-1.5 0.66897-1.5 1.5v0.5c0-0.83103 0.66897-1.5 1.5-1.5h13c0.83103 0 1.5 0.66897 1.5 1.5v-0.5c0-0.83103-0.66897-1.5-1.5-1.5z" fill="#fff" opacity=".2"/>
        <path d="m14.5 1109.8c0.83103 0 1.5-0.669 1.5-1.5v-0.5c0 0.831-0.66897 1.5-1.5 1.5h-13c-0.83103 0-1.5-0.669-1.5-1.5v0.5c0 0.831 0.66897 1.5 1.5 1.5z" opacity=".2"/>
    </g>
    <g transform="translate(1.0008 1.0005)">
        <path transform="translate(-1.0008 -1.0005)" d="m8.6934 3.9941c-0.59573 0-1.1246 0.1752-1.5 0.44336-0.37546 0.26815-0.5918 0.61891-0.5918 1v0.66211h1.5664c0.13807 0 0.25 0.11193 0.25 0.25s-0.11193 0.25-0.25 0.25h-2.7285c-0.38112 0-0.73378 0.20661-1.002 0.58203-0.26817 0.37542-0.44141 0.91599-0.44141 1.5117v0.65234c0 0.59573 0.17324 1.1246 0.44141 1.5 0.26817 0.37542 0.62084 0.5918 1.002 0.5918h0.62305l0.00195-1.1582c3.1e-6 -0.89527 0.73445-1.5293 1.6035-1.5293h2.6641c0.60206 0 1.0466-0.34613 1.0996-0.91211 0.01087-0.82057 0.0059-1.6891 0.0059-2.4004 0-0.38109-0.21438-0.73184-0.58984-1-0.37539-0.26816-0.90626-0.44336-1.502-0.44336zm-0.51172 0.79297c0.00832-4.22e-4 0.015008 0 0.023437 0 0.26976 0 0.48828 0.21852 0.48828 0.48828s-0.21852 0.48828-0.48828 0.48828-0.48828-0.21852-0.48828-0.48828c0-0.26133 0.20676-0.4752 0.46484-0.48828zm3.7559 1.7754-2e-3 1.1582c5.9e-5 0.89527-0.7344 1.5293-1.6035 1.5293h-2.6641c-0.6422 0-1.1021 0.39504-1.1035 1.0293-0.0026 0.76172-0.00195 1.5234-0.00195 2.2852 0 0.38109 0.21829 0.73184 0.59375 1 0.37535 0.26816 0.90622 0.44141 1.502 0.44141h0.65234c0.59573 0 1.1227-0.17325 1.498-0.44141 0.37546-0.26815 0.59375-0.61891 0.59375-1v-0.66406h-1.5703c-0.13807 0-0.25-0.11193-0.25-0.25s0.11193-0.25 0.25-0.25h2.7324c0.38112 0 0.73183-0.21833 1-0.59375s0.44141-0.90427 0.44141-1.5v-0.65039c0-0.59573-0.17324-1.1363-0.44141-1.5117-0.26817-0.37542-0.61888-0.58203-1-0.58203zm-2.1406 5.6777c0.26976 0 0.48828 0.21852 0.48828 0.48828s-0.21852 0.48633-0.48828 0.48633-0.48633-0.21657-0.48633-0.48633 0.21657-0.48828 0.48633-0.48828z" color="#000000" fill="#fff"/>
    </g>
    <g transform="translate(1.0008 1.0005)" display="none" fill="none" opacity=".8" stroke-width=".05">
        <rect transform="rotate(90)" x="3.3425" y="-12.657" width="9.3148" height="9.3148" display="inline" opacity="1" stroke="#000"/>
        <rect x="3" y="4" width="10" height="8" opacity="1" stroke="#0091ff" stroke-linecap="round" stroke-linejoin="round"/>
        <rect transform="rotate(90)" x="3" y="-12" width="10" height="8" display="inline" opacity="1" stroke="#00ff03" stroke-linecap="round" stroke-linejoin="round"/>
    </g>
</svg>
