<?xml version="1.0" encoding="UTF-8"?>
<svg version="1.1" viewBox="0 0 18.001 18" xmlns="http://www.w3.org/2000/svg">
    <g transform="translate(1.0008 -1092.8)">
        <rect x="9.5745e-5" y="1093.8" width="16" height="16" rx="1.5001" ry="1.5001" fill="#ff9800"/>
        <path transform="translate(-1.0008 1092.8)" d="m2.5 1c-0.83103 0-1.5 0.66897-1.5 1.5v0.5c0-0.83103 0.66897-1.5 1.5-1.5h13c0.83103 0 1.5 0.66897 1.5 1.5v-0.5c0-0.83103-0.66897-1.5-1.5-1.5z" fill="#fff" opacity=".2"/>
        <path d="m14.5 1109.8c0.83103 0 1.5-0.669 1.5-1.5v-0.5c0 0.831-0.66897 1.5-1.5 1.5h-13c-0.83103 0-1.5-0.669-1.5-1.5v0.5c0 0.831 0.66897 1.5 1.5 1.5z" opacity=".2"/>
    </g>
    <g transform="translate(1.0008 1.0005)">
        <path d="m6.2298 3c-0.0059807 0.2295-0.40599 0.029717-0.42337 0.29209-0.4436-0.19749 0.034536 0.30161-0.0098383 0.34788h-0.00328l-0.032821-0.00328c-0.021407-0.007642-0.052484-0.0209-0.098455-0.049225-0.3098 0.24683-0.31733 0.75969-0.63669 1.0436-0.20948 0.45212-0.26043 0.94344-0.41352 1.4145-0.075401 0.4519-0.14165 0.90296-0.029537 1.3554 0.033662 0.36774-0.072381 0.86733 0.26255 1.1257 0.49646 0.4078 0.90904 0.92371 1.3259 1.4145 0.65314 0.80376 1.2318 1.6659 1.7427 2.5665 0.034059-0.22239 0.11653 0.44787 0.26584 0.49229-0.05163-0.33526-0.1189-0.86782-0.15097-1.2799-0.16608-1.0808-0.69871-2.0636-0.89924-3.1342-0.0061647-0.045198-0.013452-0.091582-0.019692-0.13784v-0.13456h-0.01641c-0.065692-0.52962-0.08931-1.0991 0.29537-1.513 0.39275-0.39615 0.97736-0.49596 1.4506-0.77125 0.10523-0.062088 0.21521-0.11256 0.32819-0.14769 9.476e-4 -3.149e-4 0.00239 3.15e-4 0.00328 0 0.32735-0.10118 0.67724-0.098009 1.0174-0.042665 0.0051 8.402e-4 0.01138 0.00244 0.01641 0.00328 0.03093 0.00517 0.06447 0.010397 0.09517 0.01641 0.24904 0.022193 0.75034 0.1194 0.84017-0.052511-0.34366-0.29262-0.83862-0.27223-1.257-0.38727-0.066226-0.012045-0.14827-0.025248-0.22973-0.032819l-0.41024-0.091894-0.10174-0.026255v0.00328l-1.467-0.28553c-0.023328-0.021242-0.048766-0.042988-0.072202-0.059075l1.4309 0.17722v-0.00657c0.050421 0.011236 0.10038 0.020332 0.15097 0.026255v0.00328l1.0108 0.18707c0.17444 0.065062 0.36045 0.11382 0.53495 0.12471 0.28804 0.04191 0.65378 0.47164 0.74828 0.49229-0.04631-0.45232-0.49803-0.65489-0.87299-0.78765-0.43806-0.21299-1.0925-0.20523-1.1618-0.79422-0.018442-0.041038-0.036654-0.082041-0.059074-0.12143l-0.17066-0.22645 0.00657-0.00328c-0.23286-0.27483-0.56083-0.4749-0.9091-0.55136-0.34567-0.11932-0.73386-0.23809-1.0994-0.28553-0.12406 0.36529-0.26288-0.2894-0.56121-0.095175-0.2615 0.030969-0.22539 0.10004-0.42008-0.065638zm1.8805 1.0666c0.094716-0.00249 0.20298 0.014922 0.31178 0.052511 0.29013 0.10024 0.47906 0.31141 0.42337 0.4726-0.055689 0.16118-0.33671 0.20854-0.62685 0.1083-0.29013-0.10024-0.47905-0.30813-0.42337-0.46931 0.034805-0.10074 0.15721-0.15993 0.31506-0.1641z" fill="#fff" stroke-width=".10502"/>
    </g>
    <g transform="translate(1.0008 1.0005)" display="none" fill="none" opacity=".8" stroke-width=".05">
        <rect transform="rotate(90)" x="3.3425" y="-12.657" width="9.3148" height="9.3148" display="inline" opacity="1" stroke="#000"/>
        <rect x="3" y="4" width="10" height="8" opacity="1" stroke="#0091ff" stroke-linecap="round" stroke-linejoin="round"/>
        <rect transform="rotate(90)" x="3" y="-12" width="10" height="8" display="inline" opacity="1" stroke="#00ff03" stroke-linecap="round" stroke-linejoin="round"/>
    </g>
</svg>
