<?xml version="1.0" encoding="UTF-8"?>
<svg version="1.1" viewBox="0 0 18.001 18" xmlns="http://www.w3.org/2000/svg" xmlns:xlink="http://www.w3.org/1999/xlink">
    <g transform="translate(1.0008 -1092.8)">
        <rect x="9.5745e-5" y="1093.8" width="16" height="16" rx="1.5001" ry="1.5001" fill="#9c27b0"/>
        <path transform="translate(-1.0008 1092.8)" d="m2.5 1c-0.83103 0-1.5 0.66897-1.5 1.5v0.5c0-0.83103 0.66897-1.5 1.5-1.5h13c0.83103 0 1.5 0.66897 1.5 1.5v-0.5c0-0.83103-0.66897-1.5-1.5-1.5z" fill="#fff" opacity=".2"/>
        <g transform="translate(-22.32 1056.5)">
            <g transform="matrix(.37187 0 0 .37187 38.802 63.239)"></g>
        </g>
        <path d="m14.5 1109.8c0.83103 0 1.5-0.669 1.5-1.5v-0.5c0 0.831-0.66897 1.5-1.5 1.5h-13c-0.83103 0-1.5-0.669-1.5-1.5v0.5c0 0.831 0.66897 1.5 1.5 1.5z" opacity=".2"/>
    </g>
    <g transform="translate(1.0008 1.0005)">
        <path transform="translate(-1.0008 -1.0005)" d="m9 4c-0.24375 0-0.48706 0.094479-0.67383 0.28125l-4.0449 4.0449c-0.37354 0.37354-0.37354 0.97411 0 1.3477l2.7188 2.7207v-1.5293c-0.30916-0.17849-0.49972-0.50825-0.5-0.86523 9.785e-4 -0.35628 0.19145-0.68514 0.5-0.86328v-1.2715c-0.30916-0.17849-0.49972-0.50825-0.5-0.86523 0-0.55228 0.44772-1 1-1s1 0.44772 1 1c4.155e-4 0.35768-0.19024 0.68835-0.5 0.86719v1.2676c0.15163 0.08766 0.27757 0.21361 0.36523 0.36523h0.63477c0.55821 4.391e-4 1-0.44179 1-1v-0.13477c-0.30916-0.17849-0.49972-0.50825-0.5-0.86523 0-0.55228 0.44772-1 1-1 0.55228 0 1 0.44772 1 1 4.15e-4 0.35768-0.19024 0.68835-0.5 0.86719v0.13281c1e-6 1.0986-0.90135 2.0009-2 2h-0.63477c-0.087388 0.15234-0.21336 0.27899-0.36523 0.36719v2.5273l0.32617 0.32617c0.37354 0.37354 0.97607 0.37354 1.3496 0l4.0449-4.0469c0.37354-0.37354 0.37354-0.97411 0-1.3477l-4.0449-4.0449c-0.18677-0.18677-0.43204-0.28125-0.67578-0.28125zm-1.5117 2.5a0.5 0.5 0 0 0-0.48828 0.5 0.5 0.5 0 0 0 0.5 0.5 0.5 0.5 0 0 0 0.5-0.5 0.5 0.5 0 0 0-0.5-0.5 0.5 0.5 0 0 0-0.011719 0zm3 0.5a0.5 0.5 0 0 0-0.48828 0.5 0.5 0.5 0 0 0 0.5 0.5 0.5 0.5 0 0 0 0.5-0.5 0.5 0.5 0 0 0-0.5-0.5 0.5 0.5 0 0 0-0.011719 0zm-3 2.5a0.5 0.5 0 0 0-0.48828 0.5 0.5 0.5 0 0 0 0.5 0.5 0.5 0.5 0 0 0 0.5-0.5 0.5 0.5 0 0 0-0.5-0.5 0.5 0.5 0 0 0-0.011719 0z" fill="#fff" stroke-linecap="round" stroke-linejoin="round" stroke-width=".47678" style="paint-order:markers stroke fill"/>
    </g>
    <g transform="translate(1.0008 1.0005)" display="none" fill="none" opacity=".8" stroke-width=".05">
        <rect transform="rotate(90)" x="3.3425" y="-12.657" width="9.3148" height="9.3148" display="inline" opacity="1" stroke="#000"/>
        <rect x="3" y="4" width="10" height="8" opacity="1" stroke="#0091ff" stroke-linecap="round" stroke-linejoin="round"/>
        <rect transform="rotate(90)" x="3" y="-12" width="10" height="8" display="inline" opacity="1" stroke="#00ff03" stroke-linecap="round" stroke-linejoin="round"/>
    </g>
</svg>
