<?xml version="1.0" encoding="UTF-8"?>
<svg version="1.1" viewBox="0 0 18.001 18" xmlns="http://www.w3.org/2000/svg">
    <g transform="translate(1.0008 -1092.8)">
        <rect x="9.5745e-5" y="1093.8" width="16" height="16" rx="1.5001" ry="1.5001" fill="#ff5722"/>
        <path transform="translate(-1.0008 1092.8)" d="m2.5 1c-0.83103 0-1.5 0.66897-1.5 1.5v0.5c0-0.83103 0.66897-1.5 1.5-1.5h13c0.83103 0 1.5 0.66897 1.5 1.5v-0.5c0-0.83103-0.66897-1.5-1.5-1.5z" fill="#fff" opacity=".2"/>
        <path d="m14.5 1109.8c0.83103 0 1.5-0.669 1.5-1.5v-0.5c0 0.831-0.66897 1.5-1.5 1.5h-13c-0.83103 0-1.5-0.669-1.5-1.5v0.5c0 0.831 0.66897 1.5 1.5 1.5z" opacity=".2"/>
    </g>
    <g transform="translate(1.0008 1.0005)">
        <g transform="translate(-.062695 .0011654)" fill="#fff">
            <path d="m10.826 3.8757c-0.50189-0.34432-1.072-0.60092-1.6869-0.74497-1.9676-0.46096-4.0222 0.31027-5.201 1.9517l-0.29167 0.40612 0.81223 0.58333 0.29167-0.40612c1.2887-1.7943 3.7879-2.2043 5.5823-0.9156 1.7943 1.2887 2.2043 3.7879 0.9156 5.5823-1.2887 1.7943-3.7879 2.2043-5.5823 0.9156l-0.14213-0.10207-0.58333 0.81223 0.14213 0.10207c1.6414 1.1788 3.8347 1.2534 5.5519 0.188 1.7173-1.0654 2.6254-3.0641 2.2983-5.0584-0.22488-1.371-1.0027-2.5567-2.1069-3.3142z" color="#000000" style="-inkscape-stroke:none;paint-order:markers stroke fill"/>
            <path d="m3.1266 4.5 2.4367 1.75c-0.795 0.24982-1.59 0.49964-2.385 0.74947z" style="paint-order:markers stroke fill"/>
        </g>
    </g>
    <g transform="translate(1.0008 1.0005)" display="none" fill="none" opacity=".8" stroke-width=".05">
        <rect transform="rotate(90)" x="3.3425" y="-12.657" width="9.3148" height="9.3148" display="inline" opacity="1" stroke="#000"/>
        <rect x="3" y="4" width="10" height="8" opacity="1" stroke="#0091ff" stroke-linecap="round" stroke-linejoin="round"/>
        <rect transform="rotate(90)" x="3" y="-12" width="10" height="8" display="inline" opacity="1" stroke="#00ff03" stroke-linecap="round" stroke-linejoin="round"/>
    </g>
</svg>
