<?xml version="1.0" encoding="UTF-8"?>
<svg version="1.1" viewBox="0 0 18.001 18" xmlns="http://www.w3.org/2000/svg">
    <g transform="translate(1.0008 -1092.8)">
        <rect x="9.5745e-5" y="1093.8" width="16" height="16" rx="1.5001" ry="1.5001" fill="#8bc34a"/>
        <path transform="translate(-1.0008 1092.8)" d="m2.5 1c-0.83103 0-1.5 0.66897-1.5 1.5v0.5c0-0.83103 0.66897-1.5 1.5-1.5h13c0.83103 0 1.5 0.66897 1.5 1.5v-0.5c0-0.83103-0.66897-1.5-1.5-1.5z" fill="#fff" opacity=".2"/>
        <path d="m14.5 1109.8c0.83103 0 1.5-0.669 1.5-1.5v-0.5c0 0.831-0.66897 1.5-1.5 1.5h-13c-0.83103 0-1.5-0.669-1.5-1.5v0.5c0 0.831 0.66897 1.5 1.5 1.5z" opacity=".2"/>
    </g>
    <g transform="translate(1.0008 1.0005)">
        <path d="m3.5861 3.0335s0.67524 0.83908 0.89451 1.3249c0.042058 0.093171 0.066132 0.19609 0.077138 0.29772 0.05655 0.52228-0.11033 1.0522-0.060898 1.5752 0.020705 0.21905 0.057247 0.39483 0.096081 0.53996 0.084553-0.11772 0.16861-0.23327 0.23547-0.31802 0.19354-0.24531 0.36533-0.47321 0.60492-0.69697 0.14884-0.13898 0.35967-0.29443 0.53454-0.41817 0.0060973-0.022699 0.012881-0.045578 0.020301-0.067666 0.064576-0.19219 0.16521-0.37415 0.29095-0.53319 0.14726-0.18625 0.33674-0.33857 0.52913-0.4777 0.27534-0.19911 0.88501-0.50613 0.88501-0.50613l-4.1072-0.71997zm4.1248 2.3222c-0.32314 0.0047809-0.64648 0.027805-0.9568 0.11097-0.24114 0.064639-0.41519 0.15621-0.66987 0.30449-0.13345 0.097911-0.26838 0.20035-0.35185 0.27607-0.01737 0.016269-0.033847 0.0319-0.051425 0.048716-0.023593 0.022851-0.047919 0.045751-0.070369 0.069018-0.10135 0.10505-0.19226 0.21423-0.28689 0.33291 0.12718 0.067299 0.2515 0.13525 0.34373 0.18946 0.26938 0.15832 0.51709 0.29654 0.77138 0.50342 0.15005 0.12209 0.34255 0.31838 0.48718 0.47229 0.12662-0.01 0.32854-0.021313 0.60356-0.021653 0.48073-5.543e-4 0.57127 0.00152 0.90261 0.00409 0.21612 0.00166 0.42847 0.00658 0.58326 0.01083 0.14358-0.15292 0.33253-0.34521 0.48041-0.46553 0.25427-0.20688 0.50334-0.34509 0.7727-0.50342 0.12118-0.071221 0.2966-0.16426 0.46147-0.25036-0.10957-0.17174-0.2192-0.34196-0.33697-0.51966 0 0-0.75122-0.3491-1.1516-0.44387-0.39355-0.09315-0.80402-0.11556-1.2084-0.11773-0.10708-5.717e-4 -0.21437-0.00159-0.32208 0zm3.2438 1.4345c-0.17253 0.089755-0.3602 0.1883-0.475 0.25577-0.27378 0.16091-0.49977 0.28664-0.72129 0.46688-0.10246 0.083367-0.26629 0.24887-0.40328 0.39245 0.10676 0.17968 0.28765 0.48709 0.39786 0.70369 0.15022 0.29524 0.46142 1.0227 0.56973 1.3506 0.08985 0.27202 0.26246 0.91723 0.32614 1.1557 0.09125-0.0142 0.17828-0.02033 0.26118-0.01489 0.18397 0.01208 0.55138 0.04145 0.74027 0.01353 0.08635-0.01277 0.20696-0.04669 0.32073-0.07849 0.11376-0.0318 0.1948-0.07354 0.34103-0.05819 0.17952 0.01885 0.34462 0.10391 0.50478 0.18675-0.03936-0.17203-0.08814-0.37632-0.12585-0.51154-0.14024-0.50278-0.28936-1.0042-0.48041-1.49-0.16913-0.43-0.37038-0.84649-0.58732-1.2545-0.20378-0.38324-0.43963-0.749-0.66852-1.1178zm-5.8868 0.044656c-0.025352 0.033729-0.037887 0.050442-0.056837 0.075787-0.032558 0.04354-0.059387 0.080159-0.097433 0.13127-0.07447 0.10383-0.13275 0.18312-0.19216 0.26795-0.062175 0.11554-0.41745 0.77997-0.5765 1.1773-0.275 0.6872-0.44399 1.4108-0.6631 2.1179-0.054088 0.17453-0.10592 0.34346-0.16104 0.52372 0.13817-0.07029 0.28068-0.13543 0.4344-0.15157 0.14622-0.01535 0.22726 0.02638 0.34103 0.05819 0.11376 0.0318 0.23437 0.06572 0.32073 0.07849 0.18886 0.02792 0.55762-0.0015 0.74159-0.01353 0.056483-0.0037 0.11563-0.0019 0.17593 0.0041 0.065817-0.24757 0.2333-0.87608 0.32208-1.1448 0.10831-0.32792 0.41951-1.0553 0.56973-1.3506 0.10343-0.20328 0.26777-0.48403 0.38027-0.67393-0.14258-0.15036-0.31987-0.33235-0.43034-0.42223-0.22153-0.18024-0.44616-0.30597-0.71997-0.46688-0.09577-0.056282-0.24208-0.13434-0.38839-0.21111zm2.4616 1.222c-0.23199 2.834e-4 -0.4049 0.0083-0.52101 0.016241-0.091044 0.15399-0.30617 0.51854-0.4114 0.72537-0.12795 0.25146-0.45607 1.0207-0.54537 1.291-0.072925 0.22076-0.2391 0.83152-0.31125 1.0988 0.20239 0.05691 0.40828 0.13381 0.57785 0.21652 0.19058 0.09296 0.46872 0.28247 0.71727 0.45605 0.2442 0.17056 0.4409 0.31687 0.44793 0.32208l1.1029-0.0027c0.00971-0.0072 0.20405-0.14997 0.44658-0.31938 0.24851-0.17358 0.52531-0.36309 0.71588-0.45605 0.14686-0.07164 0.32116-0.13852 0.49665-0.19216-0.066682-0.2485-0.24175-0.89645-0.31667-1.1232-0.089298-0.27033-0.41878-1.0396-0.54672-1.291-0.10543-0.20721-0.32079-0.57347-0.4114-0.72669-0.15515-0.0041573-0.35309-0.0093816-0.54266-0.01083-0.33244-0.0025636-0.41905-0.0046423-0.89859-0.004088zm-3.731 3.3345c-0.022805 0.0024-0.18274 0.06113-0.32885 0.12992-0.024759 0.04951-0.051405 0.10037-0.070369 0.1421-0.10602 0.2332-0.19161 0.4738-0.2896 0.71048-0.035772 0.086401-0.10961 0.25848-0.10961 0.25848l0.1245 0.13668s0.28972-0.03536 0.42899 0c0.10226 0.02595 0.2463 0.19758 0.2463 0.19758l1.5888-0.07849s0.54454-0.22907 0.82418-0.32344c0.24441-0.08249 0.62837-0.18521 0.7781-0.22464-0.077242-0.05562-0.088515-0.06469-0.19352-0.13804-0.24337-0.16998-0.53602-0.3629-0.6604-0.42358-0.1424-0.069461-0.33661-0.14166-0.51831-0.19216-0.18169-0.050504-0.35983-0.076507-0.43305-0.071726-0.16475 0.010822-0.53861 0.053836-0.82958 0.010829-0.13105-0.019373-0.26173-0.058451-0.37215-0.089319-0.11042-0.030867-0.22573-0.040429-0.1854-0.044656zm8.4704 0c0.04033 0.0042-0.07498 0.01379-0.1854 0.04466s-0.2411 0.06995-0.37215 0.08932c-0.29095 0.04301-0.66345-3e-6 -0.8282-0.01083-0.07322-0.0048-0.25136 0.02122-0.43305 0.07173-0.18169 0.0505-0.37591 0.1227-0.51831 0.19216-0.12438 0.06067-0.41839 0.25359-0.66175 0.42358-0.1007 0.07033-0.10973 0.07819-0.1854 0.13262 0.15384 0.03778 0.65483 0.16376 0.9419 0.29637 0.14643 0.06764 0.40869 0.25983 0.40869 0.25983l1.8107 0.06225s0.09756-0.15323 0.17322-0.19893c0.04737-0.02862 0.10841-0.03658 0.16375-0.03789 0.12863-3e-3 0.37892 0.06902 0.37892 0.06902s0.0249-0.05708 0.02977-0.08796c0.01341-0.08497 0.0103-0.1739-0.0054-0.25848-0.03512-0.18915-0.11608-0.36777-0.19622-0.54266-0.0614-0.13399-0.14291-0.25731-0.21517-0.38568-0.13948-0.064-0.28424-0.11682-0.30584-0.11909z" fill="#fff" stroke-width=".69288"/>
    </g>
    <g transform="translate(1.0008 1.0005)" display="none" fill="none" opacity=".8" stroke-width=".05">
        <rect transform="rotate(90)" x="3.3425" y="-12.657" width="9.3148" height="9.3148" display="inline" opacity="1" stroke="#000"/>
        <rect x="3" y="4" width="10" height="8" opacity="1" stroke="#0091ff" stroke-linecap="round" stroke-linejoin="round"/>
        <rect transform="rotate(90)" x="3" y="-12" width="10" height="8" display="inline" opacity="1" stroke="#00ff03" stroke-linecap="round" stroke-linejoin="round"/>
    </g>
</svg>
