<?xml version="1.0" encoding="UTF-8"?>
<svg version="1.1" viewBox="0 0 18.001 18" xmlns="http://www.w3.org/2000/svg">
    <defs>
        <linearGradient id="linearGradient4461" x1="10.5" x2="10.5" y1="-9.5005" y2="-9.0005" gradientTransform="rotate(90.002 .00019338 1.0006)" gradientUnits="userSpaceOnUse">
            <stop stop-color="#ff000f" offset="0"/>
            <stop stop-color="#19ff00" offset="1"/>
        </linearGradient>
        <linearGradient id="linearGradient4891" x1="-5.4999" x2="-5.4999" y1="6.5001" y2="7.0001" gradientTransform="rotate(-89.999 1.0007 -.00017629)" gradientUnits="userSpaceOnUse">
            <stop stop-color="#ff8300" offset="0"/>
            <stop stop-color="#00ff94" offset="1"/>
        </linearGradient>
    </defs>
    <g transform="translate(1.0008 -1092.8)">
        <rect x="9.5745e-5" y="1093.8" width="16" height="16" rx="1.5001" ry="1.5001" fill="#2196f3"/>
        <path transform="translate(-1.0008 1092.8)" d="m2.5 1c-0.83103 0-1.5 0.66897-1.5 1.5v0.5c0-0.83103 0.66897-1.5 1.5-1.5h13c0.83103 0 1.5 0.66897 1.5 1.5v-0.5c0-0.83103-0.66897-1.5-1.5-1.5z" fill="#fff" opacity=".2"/>
        <g transform="translate(-22.32 1056.5)"></g>
        <path d="m14.5 1109.8c0.83103 0 1.5-0.669 1.5-1.5v-0.5c0 0.831-0.66897 1.5-1.5 1.5h-13c-0.83103 0-1.5-0.669-1.5-1.5v0.5c0 0.831 0.66897 1.5 1.5 1.5z" opacity=".2"/>
    </g>
    <g transform="translate(1.0008 1.0005)">
        <g transform="translate(8e-4,5e-4)">
            <path transform="translate(-1.0016 -1.001)" d="m4.5 4c-0.277 0-0.5 0.223-0.5 0.5v9c0 0.277 0.223 0.5 0.5 0.5h6.7207c-0.23113-0.080472-0.47214-0.19996-0.64453-0.46289-0.12775-0.19484-0.19184-0.41704-0.20312-0.62305-0.014157-0.25836 0.042328-0.49095 0.11133-0.70117 0.14251-0.43418 0.34378-0.81288 0.41016-1.0938 0.028328-0.11987 0.03444-0.21394 0.023438-0.28711-1.02e-4 -6.75e-4 -0.073552-0.20058-0.1582-0.34766-0.008551-0.014856-0.016881-0.028647-0.025391-0.042969-0.041317-0.069534-0.081497-0.13176-0.10938-0.17383-0.025826-0.038973-0.039063-0.058594-0.039062-0.058594a0.50005 0.50005 0 0 1 0.35352-0.76758c-0.069359-0.07988-0.13908-0.15906-0.18555-0.25586-0.038314-0.079825-0.067974-0.16538-0.08789-0.25391-0.019201-0.085344-0.029423-0.17552-0.029297-0.26562 2.55e-4 -0.16767 0.035703-0.32854 0.099609-0.47461 0.18439-0.42146 0.60805-0.71606 1.0918-0.7168h0.001953c0.65268-3.056e-4 1.193 0.54056 1.1934 1.1934 1.54e-4 0.32531-0.13376 0.6266-0.34766 0.8418-0.048941 0.049238-0.11489 0.077013-0.17188 0.11719 0.008898 0.0035673 0.018456 0.0060419 0.027344 0.0097657 0.1959 0.082074 0.40224 0.20118 0.55078 0.42773 0.18666 0.2847 0.22836 0.61935 0.19336 0.89844s-0.12896 0.52114-0.2207 0.74609c-0.097973 0.24023-0.19701 0.4626-0.25586 0.65039-0.055247 0.1763-0.071246 0.31303-0.05664 0.41016 1.81e-4 0.001214 0.054597 0.16098 0.12695 0.29297 0.096358 0.17578 0.20508 0.33008 0.20508 0.33008a0.50005 0.50005 0 0 1-0.027344 0.60742h0.45312c0.277 0 0.5-0.223 0.5-0.5v-9c0-0.277-0.223-0.5-0.5-0.5h-2.5v3.2656l-0.66602-0.66602-0.66602 0.66602-0.66797-0.66602-0.66602 0.66602-0.66602-0.66602-0.66797 0.66602v-3.2656h-2.5zm7.3301 3.9746c-0.28378 1.636e-4 -0.52785 0.17164-0.63477 0.41602-0.037109 0.084821-0.058536 0.17885-0.058593 0.27734-7.4e-5 0.052805 0.006456 0.10486 0.017578 0.1543 0.011535 0.051274 0.028569 0.10021 0.050781 0.14648 0.036565 0.076179 0.085984 0.14354 0.14648 0.20117 0.057928 0.055182 0.12492 0.10022 0.19922 0.13281 0.08498 0.037279 0.18056 0.058537 0.2793 0.058594 0.099599 1.396e-4 0.19367-0.020879 0.2793-0.058594 0.079808-0.035152 0.15226-0.085482 0.21289-0.14648 0.1247-0.12545 0.20144-0.29737 0.20117-0.48828-2.21e-4 -0.38281-0.31055-0.6939-0.69336-0.69336zm-0.70508 1.9434c-0.081674 4.84e-4 -0.13086 0.0039062-0.13086 0.0039062s0.017808 0.026449 0.046875 0.070312c0.031374 0.047346 0.076334 0.11474 0.12305 0.19336 0.009622 0.016192 0.019517 0.033789 0.029297 0.050781 0.096799 0.16818 0.19612 0.371 0.21875 0.52148 0.0234 0.15562 0.006962 0.31487-0.03125 0.47656-0.089536 0.37887-0.30106 0.76864-0.42188 1.1367-0.058495 0.17822-0.094974 0.3507-0.085937 0.51562 0.007206 0.13151 0.043039 0.2579 0.12109 0.37695 0.17301 0.26387 0.66038 0.36403 1.0645 0.40039 0.33114 0.0298 0.60547 0.015626 0.60547 0.015626s-0.12007-0.172-0.23242-0.37695c-0.084365-0.1539-0.16374-0.32498-0.18359-0.45703-0.031021-0.2063 0.006658-0.42112 0.074219-0.63672 0.071962-0.22964 0.17693-0.46043 0.26953-0.6875 0.17343-0.42526 0.30044-0.83557 0.072265-1.1836-0.068083-0.10384-0.18492-0.18106-0.32617-0.24024-0.070738-0.029636-0.1466-0.055428-0.22656-0.076172-0.073772-0.019138-0.14993-0.034046-0.22656-0.046875-0.071064-0.011896-0.14333-0.021825-0.21289-0.029297-0.054559-0.0058602-0.10666-0.010004-0.1582-0.013672-0.058-0.0041277-0.11432-0.0077879-0.16602-0.0097656-0.049513-0.0018942-0.095341-0.0033888-0.13672-0.0039062-0.031529-3.98e-4 -0.060322-1.519e-4 -0.085938 0z" fill="#fff" style="paint-order:markers stroke fill"/>
        </g>
    </g>
    <g transform="matrix(.57076 0 0 .57076 7.2633 6.2632)" fill="#fff" stroke="#222" stroke-width="1.7521"></g>
    <g transform="translate(1.0008 1.0005)" display="none" fill="none" opacity=".67119" stroke-width=".05">
        <rect transform="rotate(90)" x="3.3425" y="-12.657" width="9.3148" height="9.3148" display="inline" opacity="1" stroke="#000"/>
        <rect x="3" y="4" width="10" height="8" opacity="1" stroke="#0091ff" stroke-linecap="round" stroke-linejoin="round"/>
        <rect transform="rotate(90)" x="3" y="-12" width="10" height="8" display="inline" opacity="1" stroke="#00ff03" stroke-linecap="round" stroke-linejoin="round"/>
    </g>
    <g display="none" fill="none" stroke-linecap="square" stroke-width=".05">
        <path d="m13.658 8.0007-2.46e-4 5.6574-3.6573-1.59e-4 2.46e-4 -5.6574z" display="inline" opacity=".62506" stroke="url(#linearGradient4461)" style="paint-order:markers stroke fill"/>
        <path d="m4.3436 10 5.3e-5 -5.6574 3.6573 3.43e-5 -5.3e-5 5.6574z" display="inline" opacity=".62506" stroke="url(#linearGradient4891)" style="paint-order:markers stroke fill"/>
    </g>
</svg>
