<?xml version="1.0" encoding="UTF-8"?>
<svg version="1.1" viewBox="0 0 18.001 18" xmlns="http://www.w3.org/2000/svg">
    <g transform="translate(1.0008 -1092.8)">
        <rect x="9.5745e-5" y="1093.8" width="16" height="16" rx="1.5001" ry="1.5001" fill="#f43f36"/>
        <path transform="translate(-1.0008 1092.8)" d="m2.5 1c-0.83103 0-1.5 0.66897-1.5 1.5v0.5c0-0.83103 0.66897-1.5 1.5-1.5h13c0.83103 0 1.5 0.66897 1.5 1.5v-0.5c0-0.83103-0.66897-1.5-1.5-1.5z" fill="#fff" opacity=".2"/>
        <path d="m14.5 1109.8c0.83103 0 1.5-0.669 1.5-1.5v-0.5c0 0.831-0.66897 1.5-1.5 1.5h-13c-0.83103 0-1.5-0.669-1.5-1.5v0.5c0 0.831 0.66897 1.5 1.5 1.5z" opacity=".2"/>
    </g>
    <g transform="translate(1.0008 1.0005)">
        <path d="m10.083 3-0.51343 0.69482c-0.38127-0.22747-1.2114-0.61082-2.2443 0.27015 0.63972 0.017818 1.1046 0.12011 1.5672 0.25838-0.66738 0.5232-0.71589 1.059-0.68519 1.9384 0.41809-0.68848 1.0393-1.3263 1.4897-1.4783 0 0 0.00473 0.00175 0.030461 0.08845-0.42286 0.90045-0.051793 1.602 0.61812 2.1678-0.01083-0.7115-0.04711-1.3727 0.16038-1.8331 0.57181 0.30414 0.69505 0.63912 1.1369 1.158 0.33926-0.80735-0.57264-2.0272-1.485-2.2918l0.23606-0.68166zm-2.1022 1.6122c-0.21718-0.036699-0.3944-0.10301-0.67163-0.11073l-1.1868-0.03316c-0.66336 0.44749-1.2478 1.1549-1.6782 2.1553-1.2683 2.9494 0.53783 5.8802 1.4878 6.2888 0.94991 0.4085 4.3197-0.29645 5.588-3.2458 0.43025-1.0005 0.54165-1.9113 0.41017-2.7006l-0.13148 0.31107-0.56628-0.66366c-0.13997-0.16435-0.20899-0.26074-0.30112-0.38294-0.0096 0.25447-0.05471 0.38387-0.0499 0.70008l0.018091 1.1791-0.9008-0.76185c-0.3811-0.32192-0.71292-0.7056-0.88043-1.1915-0.03419-0.099169 0.04265-0.22386 0.025199-0.32938-0.1679 0.1929-0.34204 0.38839-0.4778 0.61196l-0.93286 1.5373-0.063041-1.7967c-0.015821-0.45331-0.019697-0.86188 0.10239-1.2734 0.032436-0.10935 0.15594-0.18959 0.20859-0.29389zm-1.4872 0.60712a0.2685 0.53698 32.769 0 1 0.03193 0.016015 0.2685 0.53698 32.769 0 1-0.064366 0.59567 0.2685 0.53698 32.769 0 1-0.51791 0.30701 0.2685 0.53698 32.769 0 1 0.065194-0.5976 0.2685 0.53698 32.769 0 1 0.48515-0.3211zm2.4804 2.2335a0.2685 0.53698 32.769 0 1 0.031928 0.016015 0.2685 0.53698 32.769 0 1-0.064365 0.59567 0.2685 0.53698 32.769 0 1-0.51791 0.30701 0.2685 0.53698 32.769 0 1 0.065194-0.5976 0.2685 0.53698 32.769 0 1 0.48515-0.3211zm1.3919 0.72418a0.2685 0.53698 32.769 0 1 0.03083 0.013259 0.2685 0.53698 32.769 0 1-0.0652 0.5976 0.2685 0.53698 32.769 0 1-0.51515 0.30591 0.2685 0.53698 32.769 0 1 0.065197-0.5976 0.2685 0.53698 32.769 0 1 0.48432-0.31917zm-3.6127-1.1883a0.2685 0.53698 32.769 0 1 0.030002 0.015186 0.2685 0.53698 32.769 0 1-0.064365 0.59567 0.2685 0.53698 32.769 0 1-0.51598 0.30784 0.2685 0.53698 32.769 0 1 0.065194-0.5976 0.2685 0.53698 32.769 0 1 0.48515-0.3211zm-1.4137-0.48238a0.2685 0.53698 32.769 0 1 0.032759 0.014087 0.2685 0.53698 32.769 0 1-0.065194 0.5976 0.2685 0.53698 32.769 0 1-0.51708 0.30508 0.2685 0.53698 32.769 0 1 0.064365-0.59567 0.2685 0.53698 32.769 0 1 0.48515-0.3211zm5.6325 3.1232a0.2685 0.53698 32.769 0 1 0.03192 0.016015 0.2685 0.53698 32.769 0 1-0.06436 0.59567 0.2685 0.53698 32.769 0 1-0.51598 0.30784 0.2685 0.53698 32.769 0 1 0.0652-0.5976 0.2685 0.53698 32.769 0 1 0.48322-0.32192zm-2.0138-0.54179a0.2685 0.53698 32.769 0 1 0.03193 0.016015 0.2685 0.53698 32.769 0 1-0.064367 0.59567 0.2685 0.53698 32.769 0 1-0.51598 0.30784 0.2685 0.53698 32.769 0 1 0.065195-0.5976 0.2685 0.53698 32.769 0 1 0.48322-0.32192zm-1.7781-0.7555a0.2685 0.53698 32.769 0 1 0.03193 0.016015 0.2685 0.53698 32.769 0 1-0.065195 0.5976 0.2685 0.53698 32.769 0 1-0.51516 0.30591 0.2685 0.53698 32.769 0 1 0.065194-0.5976 0.2685 0.53698 32.769 0 1 0.48322-0.32192zm-1.7446-0.4032a0.2685 0.53698 32.769 0 1 0.032758 0.014087 0.2685 0.53698 32.769 0 1-0.065194 0.5976 0.2685 0.53698 32.769 0 1-0.51516 0.30591 0.2685 0.53698 32.769 0 1 0.064365-0.59567 0.2685 0.53698 32.769 0 1 0.48322-0.32192zm3.9672 2.7427a0.2685 0.53698 32.769 0 1 0.031928 0.01601 0.2685 0.53698 32.769 0 1-0.064365 0.59567 0.2685 0.53698 32.769 0 1-0.51791 0.30701 0.2685 0.53698 32.769 0 1 0.065194-0.5976 0.2685 0.53698 32.769 0 1 0.48515-0.3211zm-1.9678-0.75491a0.2685 0.53698 32.769 0 1 0.032758 0.014087 0.2685 0.53698 32.769 0 1-0.065194 0.5976 0.2685 0.53698 32.769 0 1-0.51516 0.30591 0.2685 0.53698 32.769 0 1 0.064365-0.59567 0.2685 0.53698 32.769 0 1 0.48322-0.32192zm-1.684-0.37943a0.2685 0.53698 32.769 0 1 0.03276 0.014087 0.2685 0.53698 32.769 0 1-0.065194 0.5976 0.2685 0.53698 32.769 0 1-0.51708 0.30508 0.2685 0.53698 32.769 0 1 0.064365-0.59567 0.2685 0.53698 32.769 0 1 0.48515-0.3211zm2.3047 1.8405a0.2685 0.53698 32.769 0 1 0.03193 0.01602 0.2685 0.53698 32.769 0 1-0.065195 0.5976 0.2685 0.53698 32.769 0 1-0.51708 0.30508 0.2685 0.53698 32.769 0 1 0.065195-0.5976 0.2685 0.53698 32.769 0 1 0.48515-0.3211zm-1.6007-0.0422a0.2685 0.53698 32.769 0 1 0.032758 0.01409 0.2685 0.53698 32.769 0 1-0.065194 0.5976 0.2685 0.53698 32.769 0 1-0.51708 0.30508 0.2685 0.53698 32.769 0 1 0.064365-0.59567 0.2685 0.53698 32.769 0 1 0.48515-0.3211z" fill="#fff" stroke-linecap="square" stroke-linejoin="round" stroke-width="2.108" style="paint-order:markers stroke fill"/>
    </g>
    <g transform="translate(1.0008 1.0005)" display="none" fill="none" opacity=".8" stroke-width=".05">
        <rect transform="rotate(90)" x="3.3425" y="-12.657" width="9.3148" height="9.3148" display="inline" opacity="1" stroke="#000"/>
        <rect x="3" y="4" width="10" height="8" opacity="1" stroke="#0091ff" stroke-linecap="round" stroke-linejoin="round"/>
        <rect transform="rotate(90)" x="3" y="-12" width="10" height="8" display="inline" opacity="1" stroke="#00ff03" stroke-linecap="round" stroke-linejoin="round"/>
    </g>
</svg>
