<?xml version="1.0" encoding="UTF-8"?>
<svg version="1.1" viewBox="0 0 18.001 18" xmlns="http://www.w3.org/2000/svg">
    <g transform="translate(1.0008 -1092.8)">
        <rect x="9.5745e-5" y="1093.8" width="16" height="16" rx="1.5001" ry="1.5001" fill="#2196f3"/>
        <path transform="translate(-1.0008 1092.8)" d="m2.5 1c-0.83103 0-1.5 0.66897-1.5 1.5v0.5c0-0.83103 0.66897-1.5 1.5-1.5h13c0.83103 0 1.5 0.66897 1.5 1.5v-0.5c0-0.83103-0.66897-1.5-1.5-1.5z" fill="#fff" opacity=".2"/>
        <path d="m14.5 1109.8c0.83103 0 1.5-0.669 1.5-1.5v-0.5c0 0.831-0.66897 1.5-1.5 1.5h-13c-0.83103 0-1.5-0.669-1.5-1.5v0.5c0 0.831 0.66897 1.5 1.5 1.5z" opacity=".2"/>
    </g>
    <rect x="4.5008" y="4.0005" width="6.5" height="0" rx="0" ry="0" fill="#00bcd4" stroke="#222" stroke-linecap="round" stroke-linejoin="round" style="paint-order:markers stroke fill"/>
    <path d="m4.6251 4v0.62505h-0.62505v8.7507h0.62505v0.62505h3.1253v-0.62505h0.62505v0.62505h3.1253v-0.62505h0.62505v-0.62505h0.62505v-2.5002h0.62505v-0.62505h0.62505v-3.1253h-1.2501v-1.8752h-0.62505v-0.62505zm0.62505 0.62505h6.2505v0.62505h0.62505v3.7503h0.62505v-1.8752h0.62505v1.8752h-0.62505v0.62505h-0.62505v2.5002h-0.62505v0.62505h-0.62505v0.62505h-1.8752v-0.62505h-1.8752v0.62505h-1.8752v-0.62505h-0.62505v-0.62505h6.8756v-6.8756h-6.2505zm0 1.8752h5.6255v3.1253h-5.6255zm1.2501 0.62505v1.8752h0.62505v-1.8752zm2.5002 0v1.8752h0.62505v-1.8752zm-2.5002 3.1253h0.62505v0.62505h1.8752v-0.62505h0.62505v0.62505h-0.62505v0.62505h-1.8752v-0.62505h-0.62505z" fill="#fff" style="paint-order:markers stroke fill"/>
    <g transform="translate(1.0008 1.0005)" display="none" fill="none" opacity=".8" stroke-width=".05">
        <rect transform="rotate(90)" x="3.3425" y="-12.657" width="9.3148" height="9.3148" display="inline" opacity="1" stroke="#000"/>
        <rect x="3" y="4" width="10" height="8" opacity="1" stroke="#0091ff" stroke-linecap="round" stroke-linejoin="round"/>
        <rect transform="rotate(90)" x="3" y="-12" width="10" height="8" display="inline" opacity="1" stroke="#00ff03" stroke-linecap="round" stroke-linejoin="round"/>
    </g>
</svg>
