<?xml version="1.0" encoding="UTF-8"?>
<svg version="1.1" viewBox="0 0 18.001 18" xmlns="http://www.w3.org/2000/svg">
    <defs>
        <linearGradient id="linearGradient4461" x1="10.5" x2="10.5" y1="-9.5005" y2="-9.0005" gradientTransform="rotate(90.002 .00019338 1.0006)" gradientUnits="userSpaceOnUse">
            <stop stop-color="#ff000f" offset="0"/>
            <stop stop-color="#19ff00" offset="1"/>
        </linearGradient>
        <linearGradient id="linearGradient4891" x1="-5.4999" x2="-5.4999" y1="6.5001" y2="7.0001" gradientTransform="rotate(-89.999 1.0007 -.00017629)" gradientUnits="userSpaceOnUse">
            <stop stop-color="#ff8300" offset="0"/>
            <stop stop-color="#00ff94" offset="1"/>
        </linearGradient>
    </defs>
    <g transform="translate(1.0008 -1092.8)">
        <rect x="9.5745e-5" y="1093.8" width="16" height="16" rx="1.5001" ry="1.5001" fill="#f43f36"/>
        <path transform="translate(-1.0008 1092.8)" d="m2.5 1c-0.83103 0-1.5 0.66897-1.5 1.5v0.5c0-0.83103 0.66897-1.5 1.5-1.5h13c0.83103 0 1.5 0.66897 1.5 1.5v-0.5c0-0.83103-0.66897-1.5-1.5-1.5z" fill="#fff" opacity=".2"/>
        <path d="m14.5 1109.8c0.83103 0 1.5-0.669 1.5-1.5v-0.5c0 0.831-0.66897 1.5-1.5 1.5h-13c-0.83103 0-1.5-0.669-1.5-1.5v0.5c0 0.831 0.66897 1.5 1.5 1.5z" opacity=".2"/>
    </g>
    <g transform="translate(1.0008 1.0005)">
        <g transform="translate(8e-4,5e-4)">
            <path transform="translate(-1.0016 -1.001)" d="m4.5 4c-0.277 0-0.5 0.223-0.5 0.5v9c0 0.277 0.223 0.5 0.5 0.5h6.4805c-0.11629-0.04484-0.233-0.10556-0.3418-0.19531-0.15178-0.12568-0.29883-0.3407-0.29883-0.60742 0-0.26744 0.1467-0.48192 0.29883-0.60742 0.14263-0.11762 0.29255-0.1807 0.43555-0.22656 0.06643-0.02132 0.1404-0.020046 0.20898-0.035156-0.01683-0.11683-0.025342-0.308-0.044922-0.36914-0.03416-0.10666-0.05724-0.1289-0.08789-0.16406-0.08522-0.05114-0.17028-0.09954-0.25391-0.16406-0.36959-0.28516-0.75586-0.75079-0.75586-1.3809 0-0.46094 0.08312-0.90772 0.16016-1.2754 0.05112-0.26037 0.11273-0.49181 0.13867-0.73828 7.7e-4 -0.014061-9.64e-4 0.0043898 0.001953-0.019531v-0.0019531c0.02324-0.19341 0.10892-0.29878 0.18555-0.375 0.0843-0.083844 0.18091-0.13051 0.25195-0.16406 0.12207-0.057653 0.23408-0.085418 0.35352-0.10938 0.23894-0.047927 0.50186-0.066406 0.76758-0.066406 0.26573 0 0.52867 0.018539 0.76758 0.066406 0.1195 0.023962 0.23147 0.051723 0.35352 0.10938 0.07106 0.033568 0.16581 0.080362 0.25 0.16406h0.001953c0.09025 0.089761 0.16219 0.20108 0.18359 0.37305l0.003906 0.03125v0.03125c0 8e-5 -2.2e-5 0.0073356 0 0.0097656-8.08e-4 -0.04168 0.06302 0.32117 0.13867 0.68164 0.07743 0.36893 0.16016 0.8195 0.16016 1.2832 0 0.63007-0.38624 1.0957-0.75586 1.3809-0.08542 0.0659-0.17046 0.11328-0.25586 0.16406-0.02881 0.03321-0.050937 0.05482-0.085937 0.16406-0.01961 0.06124-0.028082 0.25233-0.044922 0.36914 0.06859 0.01511 0.14254 0.013846 0.20898 0.035156 0.14294 0.04585 0.29287 0.10888 0.43555 0.22656 0.1522 0.12554 0.29883 0.34001 0.29883 0.60742 0 0.26744-0.1467 0.48192-0.29883 0.60742v0.001953c-0.10926 0.090026-0.22498 0.14895-0.3418 0.19336h0.48047c0.277 0 0.5-0.223 0.5-0.5v-9c0-0.277-0.223-0.5-0.5-0.5h-2.5v3.2656l-0.66602-0.66602-0.66602 0.66602-0.66797-0.66602-0.66602 0.66602-0.66602-0.66602-0.66797 0.66602v-3.2656h-2.5zm7.5 4c-0.24 0-0.47981 0.018518-0.66992 0.056641-0.09505 0.019065-0.17756 0.043586-0.23828 0.072266-0.06072 0.028679-0.088473 0.043674-0.11133 0.066406-0.0201 0.019991-0.039179 0.048531-0.042969 0.080078-5.14e-4 0.00429 0 0.0092199 0 0.013672-0.03098 0.29435-0.10063 0.54772-0.14648 0.78125-0.07504 0.35755-0.15039 0.77859-0.15039 1.1797 0 0.42007 0.26464 0.75606 0.56055 0.98438 0.10105 0.07797 0.20539 0.14404 0.30664 0.19727 0.07649 0.08462 0.14836 0.19183 0.20703 0.375 0.0641 0.20011 0.10997 0.49256 0.11914 0.93555-0.22167 0.0106-0.43473 0.042236-0.60742 0.097656-0.10776 0.03456-0.19983 0.077285-0.26953 0.13476-0.0697 0.0575-0.11719 0.13423-0.11719 0.22266 0 0.08842 0.047477 0.16516 0.11719 0.22266 0.0697 0.0575 0.16178 0.10215 0.26953 0.13672 0.21551 0.06913 0.49417 0.10156 0.77344 0.10156 0.27924 0 0.55791-0.032432 0.77344-0.10156 0.10775-0.03456 0.19983-0.079229 0.26953-0.13672 0.0697-0.0575 0.11719-0.13423 0.11719-0.22266 0-0.08842-0.047477-0.16516-0.11719-0.22266-0.0697-0.05749-0.16178-0.1002-0.26953-0.13476-0.17258-0.05536-0.38602-0.087026-0.60742-0.097656 0.0091-0.44302 0.05504-0.7354 0.11914-0.93555 0.05868-0.18316 0.12859-0.29038 0.20508-0.375 0.10125-0.05322 0.20754-0.1193 0.30859-0.19727 0.29591-0.2283 0.56055-0.5643 0.56055-0.98438 0-0.40108-0.075351-0.82214-0.15039-1.1797-0.07372-0.35125-0.14593-0.64594-0.14844-0.77539 1.03e-4 -0.00654 0-0.01357 0-0.019531-0.0039-0.031337-0.021016-0.060188-0.041016-0.080078-0.02286-0.022727-0.04867-0.03773-0.10938-0.066406-0.060705-0.028676-0.14518-0.053206-0.24023-0.072266-0.19007-0.038117-0.42992-0.056641-0.66992-0.056641zm0 0.1543c0.24624 0 0.49314 0.016729 0.67383 0.048828 0.08934 0.015869 0.16128 0.036036 0.20703 0.056641 0.02027 0.011802 0.042159 0.018971 0.042969 0.03125 6.48e-4 0.00978-0.020666 0.016092-0.041016 0.025391-0.04564 0.020838-0.11862 0.04255-0.20898 0.058594-0.18072 0.032099-0.42761 0.046875-0.67383 0.046875-0.24623 0-0.49314-0.014775-0.67383-0.046875-0.09036-0.016047-0.1653-0.037752-0.21094-0.058594-0.02028-0.0092699-0.041675-0.014404-0.041015-0.025391 6.56e-4 -0.010988 0.022559-0.019337 0.042969-0.03125 0.045759-0.020598 0.11964-0.040767 0.20898-0.056641 0.18072-0.032099 0.42761-0.048828 0.67383-0.048828zm0.011719 1.457c0.30859 0 0.6155 0.025505 0.85156 0.076172 0.08746 0.01877 0.16708 0.041099 0.23242 0.068359 0.01286 0.078936 0.019067 0.14998 0.029297 0.23047 0.07729 0.41596-0.11048 0.74404-0.36328 0.98242-0.13497 0.12727-0.28789 0.22644-0.42578 0.29297s-0.2632 0.097656-0.32422 0.097656c-0.06102-1e-6 -0.18337-0.031123-0.31641-0.095703-0.13304-0.06459-0.28079-0.15955-0.41211-0.2793-0.22503-0.20517-0.39797-0.47646-0.38672-0.79492 0.0019-0.05328 0.006266-0.1079 0.009766-0.16797 0.0032-0.087035 0.016248-0.18407 0.023438-0.26562 0.06519-0.027174 0.14124-0.049622 0.22852-0.068359 0.23607-0.050672 0.54492-0.076172 0.85352-0.076172z" fill="#fff" style="paint-order:markers stroke fill"/>
        </g>
    </g>
    <g transform="translate(1.0008 1.0005)" display="none" fill="none" opacity=".67119" stroke-width=".05">
        <rect transform="rotate(90)" x="3.3425" y="-12.657" width="9.3148" height="9.3148" display="inline" opacity="1" stroke="#000"/>
        <rect x="3" y="4" width="10" height="8" opacity="1" stroke="#0091ff" stroke-linecap="round" stroke-linejoin="round"/>
        <rect transform="rotate(90)" x="3" y="-12" width="10" height="8" display="inline" opacity="1" stroke="#00ff03" stroke-linecap="round" stroke-linejoin="round"/>
    </g>
    <g display="none" fill="none" stroke-linecap="square" stroke-width=".05">
        <path d="m13.658 8.0007-2.46e-4 5.6574-3.6573-1.59e-4 2.46e-4 -5.6574z" display="inline" opacity=".62506" stroke="url(#linearGradient4461)" style="paint-order:markers stroke fill"/>
        <path d="m4.3436 10 5.3e-5 -5.6574 3.6573 3.43e-5 -5.3e-5 5.6574z" display="inline" opacity=".62506" stroke="url(#linearGradient4891)" style="paint-order:markers stroke fill"/>
    </g>
</svg>
