<?xml version="1.0" encoding="UTF-8"?>
<svg version="1.1" viewBox="0 0 18.001 18" xmlns="http://www.w3.org/2000/svg">
    <defs>
        <linearGradient id="linearGradient4461" x1="10.5" x2="10.5" y1="-9.5005" y2="-9.0005" gradientTransform="rotate(90.002 .00019338 1.0006)" gradientUnits="userSpaceOnUse">
            <stop stop-color="#ff000f" offset="0"/>
            <stop stop-color="#19ff00" offset="1"/>
        </linearGradient>
    </defs>
    <g transform="translate(1.0008 -1092.8)">
        <rect x="9.5745e-5" y="1093.8" width="16" height="16" rx="1.5001" ry="1.5001" fill="#f43f36"/>
        <path transform="translate(-1.0008 1092.8)" d="m2.5 1c-0.83103 0-1.5 0.66897-1.5 1.5v0.5c0-0.83103 0.66897-1.5 1.5-1.5h13c0.83103 0 1.5 0.66897 1.5 1.5v-0.5c0-0.83103-0.66897-1.5-1.5-1.5z" fill="#fff" opacity=".2"/>
        <path d="m14.5 1109.8c0.83103 0 1.5-0.669 1.5-1.5v-0.5c0 0.831-0.66897 1.5-1.5 1.5h-13c-0.83103 0-1.5-0.669-1.5-1.5v0.5c0 0.831 0.66897 1.5 1.5 1.5z" opacity=".2"/>
    </g>
    <g transform="translate(1.0008 1.0005)">
        <path transform="translate(-1.0008 -1.0005)" d="m5.5078 4c-0.02214 0-0.043602 0.0020312-0.0625 0.0039062-0.27798 0.054625-0.49131 0.33347-0.48633 0.625v8.7461c3.46e-5 0.32713 0.29577 0.62497 0.61328 0.625h5.2422c-0.11621-0.043228-0.23271-0.10015-0.3457-0.19336-0.15216-0.1255-0.29883-0.34119-0.29883-0.60938 0-0.17547 0.062422-0.32789 0.14844-0.44727h-4.2051v-7.4961h2.3105l2.0215 2.1855 0.23438 0.25195c0.00117-5.417e-4 0.002745-0.0014227 0.003906-0.0019531 0.003189-0.0014681 0.001206-7.331e-4 0.003906-0.0019531-0.00874 0.004246-8.15e-4 -6.25e-5 0.015625-0.0078125 0.0033-0.0015094 0.006566-4.731e-4 0.009766-0.0019531v-0.0019532h0.001953c0.11786-0.053873 0.23215-0.084254 0.34766-0.10742 0.2394-0.048006 0.50241-0.066406 0.76758-0.066406 0.14277 0 0.28371 0.0071144 0.42188 0.019531l-3.0879-3.3418c-0.11509-0.11478-0.27346-0.17961-0.43359-0.17578h-3.1582c-0.018886-0.001875-0.042314-0.0039062-0.064453-0.0039062zm5.4258 0c-0.012085 0-0.023229 0.0017162-0.035156 0.0039062-0.16068 0.047-0.21794 0.31222-0.091797 0.42969l1.8418 1.9922c0.12696 0.14388 0.39915 0.023132 0.39648-0.17578v-2.0117c-0.007019-0.12699-0.11681-0.23693-0.23438-0.23438h-1.8398c-0.011928-0.00219-0.025024-0.0039062-0.037109-0.0039062zm0.89648 4.002c-0.2399 0-0.47988 0.018531-0.66992 0.056641-0.09501 0.019058-0.17787 0.043062-0.24414 0.074219-0.0033 0.00153-0.006366 0.0041994-0.009766 0.0058594-0.0049 0.00203-0.009002 0.0037094-0.013672 0.0058593-0.03167 0.014465-0.059191 0.03001-0.082031 0.052734-0.02009 0.019984-0.037236 0.048542-0.041016 0.080078-5.15e-4 0.0042899 0 0.0072837 0 0.011719 0 0.00184-7.6e-5 0.0060325 0 0.0078125-0.0025 0.12943-0.074752 0.42428-0.14844 0.77539-0.07502 0.35742-0.15039 0.77874-0.15039 1.1797 0 0.41991 0.26475 0.75419 0.56055 0.98242 0.10101 0.07794 0.20543 0.14406 0.30664 0.19727 0.07646 0.08459 0.14838 0.1919 0.20703 0.375 0.06408 0.20004 0.10997 0.49272 0.11914 0.93555-0.22159 0.01063-0.43479 0.042256-0.60742 0.097656-0.10771 0.03456-0.19985 0.077307-0.26953 0.13476-0.06969 0.05748-0.11719 0.13426-0.11719 0.22266 0 0.08839 0.047501 0.16518 0.11719 0.22266 0.06968 0.05748 0.16182 0.10216 0.26953 0.13672 0.21543 0.0691 0.49428 0.10156 0.77344 0.10156 0.27913 0 0.55604-0.032468 0.77148-0.10156 0.10772-0.03456 0.20181-0.079257 0.27148-0.13672 0.06968-0.05748 0.11719-0.13426 0.11719-0.22266 0-0.08839-0.047502-0.16518-0.11719-0.22266-0.06968-0.05747-0.16377-0.10021-0.27148-0.13476-0.17252-0.05534-0.38414-0.087036-0.60547-0.097656 0.0091-0.44286 0.055057-0.73547 0.11914-0.93555 0.05865-0.1831 0.12862-0.29041 0.20508-0.375 0.10122-0.0532 0.20758-0.11933 0.30859-0.19727 0.2958-0.22821 0.55859-0.56251 0.55859-0.98242 0-0.40093-0.073425-0.82228-0.14844-1.1797-0.073689-0.35112-0.14593-0.64598-0.14844-0.77539 8.7e-5 -0.00177 0-0.0059625 0-0.0078125 0-0.00441 5.21e-4 -0.0074037 0-0.011719-0.0039-0.031326-0.021036-0.060195-0.041016-0.080078-0.02284-0.022718-0.050371-0.038268-0.082031-0.052734-0.0047-0.0020799-0.010685-0.0037693-0.015625-0.0058593-0.0033-0.00159-0.004512-0.0043194-0.007812-0.0058594-0.06628-0.031151-0.14912-0.055166-0.24414-0.074219-0.19001-0.038108-0.43001-0.056641-0.66992-0.056641zm0 0.1543c0.24614 0 0.4932 0.01674 0.67383 0.048828 0.08931 0.015863 0.16129 0.036044 0.20703 0.056641 0.02026 0.011798 0.034558 0.022279 0.042968 0.03125-0.0074 0.00641-0.020675 0.016096-0.041015 0.025391-0.04561 0.02083-0.11865 0.042555-0.20898 0.058594-0.18066 0.032088-0.4277 0.046875-0.67383 0.046875-0.24615 0-0.4932-0.014786-0.67383-0.046875-0.09032-0.01604-0.16531-0.03776-0.21094-0.058594-0.02027-0.00926-0.031682-0.01899-0.039062-0.025391 0.0084-0.00901 0.020616-0.019342 0.041016-0.03125 0.04574-0.020591 0.11968-0.040772 0.20898-0.056641 0.18066-0.032088 0.4277-0.048828 0.67383-0.048828zm0.011719 1.457c0.30848 0 0.61559 0.025524 0.85156 0.076172 0.08742 0.018764 0.16515 0.041108 0.23047 0.068359 0.0057 0.03728 0.010915 0.074954 0.015625 0.11133 0.0036 0.036816 0.010355 0.088994 0.015625 0.11719 0.07726 0.41581-0.11057 0.74413-0.36328 0.98242-0.13492 0.12722-0.28794 0.22646-0.42578 0.29297-0.13784 0.0665-0.26322 0.099609-0.32422 0.099609-0.06099-1e-6 -0.18342-0.033096-0.31641-0.097656-0.13299-0.06457-0.28084-0.1596-0.41211-0.2793-0.22495-0.2051-0.39797-0.47462-0.38672-0.79297 0.0019-0.05326 0.006266-0.10987 0.009766-0.16992 0.0041-0.056042 0.010585-0.15042 0.015625-0.19727 0.0026-0.023888 0.005113-0.043785 0.007813-0.066406 0.06516-0.027168 0.14322-0.049621 0.23047-0.068359 0.23598-0.050653 0.54308-0.076172 0.85156-0.076172z" fill="#fff" stroke-width=".60082" style="text-decoration-line:none;text-indent:0;text-transform:none"/>
    </g>
    <g transform="translate(1.0008 1.0005)" display="none" fill="none" opacity=".67119" stroke-width=".05">
        <rect transform="rotate(90)" x="3.3425" y="-12.657" width="9.3148" height="9.3148" display="inline" opacity="1" stroke="#000"/>
        <rect x="3" y="4" width="10" height="8" opacity="1" stroke="#0091ff" stroke-linecap="round" stroke-linejoin="round"/>
        <rect transform="rotate(90)" x="3" y="-12" width="10" height="8" display="inline" opacity="1" stroke="#00ff03" stroke-linecap="round" stroke-linejoin="round"/>
    </g>
    <g display="none">
        <path d="m13.658 8.0007-2.46e-4 5.6574-3.6573-1.59e-4 2.46e-4 -5.6574z" display="inline" fill="none" opacity=".62506" stroke="url(#linearGradient4461)" stroke-linecap="square" stroke-width=".05" style="paint-order:markers stroke fill"/>
    </g>
</svg>
