<?xml version="1.0" encoding="UTF-8"?>
<svg version="1.1" viewBox="0 0 18.001 18" xmlns="http://www.w3.org/2000/svg">
    <defs>
        <linearGradient id="linearGradient4461" x1="10.5" x2="10.5" y1="-9.5005" y2="-9.0005" gradientTransform="rotate(90.002 .00019338 1.0006)" gradientUnits="userSpaceOnUse">
            <stop stop-color="#ff000f" offset="0"/>
            <stop stop-color="#19ff00" offset="1"/>
        </linearGradient>
    </defs>
    <g transform="translate(1.0008 -1092.8)">
        <rect x="9.5745e-5" y="1093.8" width="16" height="16" rx="1.5001" ry="1.5001" fill="#f43f36"/>
        <path transform="translate(-1.0008 1092.8)" d="m2.5 1c-0.83103 0-1.5 0.66897-1.5 1.5v0.5c0-0.83103 0.66897-1.5 1.5-1.5h13c0.83103 0 1.5 0.66897 1.5 1.5v-0.5c0-0.83103-0.66897-1.5-1.5-1.5z" fill="#fff" opacity=".2"/>
        <path d="m14.5 1109.8c0.83103 0 1.5-0.669 1.5-1.5v-0.5c0 0.831-0.66897 1.5-1.5 1.5h-13c-0.83103 0-1.5-0.669-1.5-1.5v0.5c0 0.831 0.66897 1.5 1.5 1.5z" opacity=".2"/>
    </g>
    <g transform="translate(1.0008 1.0005)">
        <path transform="translate(-1.0008 -1.0005)" d="m8 4c-0.125 0-0.22805 0.093431-0.24805 0.21094l-0.1875 1.3242c-0.305 0.1275-0.58819 0.29218-0.8457 0.49219l-1.2441-0.50195c-0.1125-0.042499-0.24218-7.92e-5 -0.30469 0.10742l-1 1.7324c-0.0625 0.1075-0.034453 0.24281 0.060547 0.32031l1.0547 0.82812c-0.020001 0.16-0.035156 0.32134-0.035156 0.48633s0.015156 0.32829 0.035156 0.48828l-1.0547 0.82617c-0.095 0.075001-0.12305 0.21032-0.060547 0.32031l1 1.7324c0.0625 0.1075 0.19219 0.15242 0.30469 0.10742l1.2441-0.50195c0.25749 0.1975 0.5407 0.36469 0.8457 0.49219l0.1875 1.3262c0.02 0.1175 0.12305 0.20898 0.24805 0.20898h2c0.125 0 0.22805-0.091479 0.24805-0.20898l0.029297-0.20898c-0.064346-0.1089-0.10742-0.23846-0.10742-0.38476 0-0.23357 0.11103-0.42604 0.24023-0.55469l0.025391-0.17773c0.23206-0.097009 0.44964-0.21638 0.6543-0.35547-0.006235-0.064043-0.012318-0.12177-0.021485-0.15039-0.03364-0.10502-0.055727-0.1292-0.085937-0.16406-0.085731-0.051019-0.17247-0.098223-0.25781-0.16406-0.32906-0.25389-0.66998-0.65181-0.74023-1.1816-0.28024 0.19062-0.6192 0.30078-0.98438 0.30078-0.96751 0-1.75-0.78249-1.75-1.75s0.78249-1.75 1.75-1.75c0.56384 0 1.0631 0.26633 1.3828 0.67969 0.023597-0.032197 0.048243-0.062052 0.074219-0.087891 0.074559-0.074181 0.15836-0.12188 0.22461-0.15234l0.001953-0.0019531c0.01583-0.00727 0.015331-0.0081156 0.019531-0.0097656 2e-3 -9.4e-4 0.003859-0.0010246 0.005859-0.0019532h0.001954l0.001953-0.0019531h0.001953c0.11787-0.053877 0.23211-0.084245 0.34766-0.10742 0.23948-0.048023 0.50232-0.066406 0.76758-0.066406 0.26528 0 0.52813 0.018395 0.76758 0.066406 0.11697 0.023457 0.23242 0.054312 0.35156 0.10938l0.005859 0.0019532c0.005849 0.002708 0.003023 6.837e-4 0.00586 0.0019531l0.001953 0.0019531 0.001953 0.0019532c7e-3 0.002925-0.006751-0.0036269 0.005859 0.0019531h0.001953a0.50005 0.50005 0 0 1 0.003906 0.0019531c0.066602 0.030423 0.14935 0.079441 0.22461 0.1543 0.050386 0.050114 0.096067 0.1133 0.13086 0.18945l0.43945-0.3457c0.095-0.075001 0.12305-0.21032 0.060547-0.32031l-1-1.7324c-0.0625-0.1075-0.19219-0.15242-0.30469-0.10742l-1.2461 0.50195c-0.25749-0.1975-0.53875-0.36469-0.84375-0.49219l-0.1875-1.3242c-0.0225-0.1175-0.125-0.21094-0.25-0.21094h-2zm3.8301 4c-0.24 0-0.4798 0.018516-0.66992 0.056641-0.09505 0.019066-0.17784 0.043049-0.24414 0.074219-0.0034 0.00153-0.006466 0.0042094-0.009766 0.0058594-0.0049 0.0020299-0.008992 0.0037093-0.013672 0.0058593-0.03168 0.014471-0.059181 0.03-0.082031 0.052734-0.0201 0.019993-0.039179 0.048529-0.042969 0.080078-5.14e-4 0.00429 0 0.0092219 0 0.013672 0 0.00185-7.7e-5 0.0040794 0 0.0058594-0.0025 0.12948-0.072777 0.42414-0.14648 0.77539-0.07505 0.35757-0.15039 0.77858-0.15039 1.1797 0 0.42009 0.26462 0.75605 0.56055 0.98438 0.10106 0.07797 0.20538 0.14404 0.30664 0.19727 0.0765 0.08462 0.14835 0.19182 0.20703 0.375 0.0641 0.20012 0.10997 0.49253 0.11914 0.93555-0.22168 0.0106-0.43472 0.042226-0.60742 0.097656-0.10776 0.03456-0.19982 0.077272-0.26953 0.13476-0.06971 0.0575-0.11719 0.13423-0.11719 0.22266s0.047482 0.16515 0.11719 0.22266c0.06971 0.0575 0.16177 0.10215 0.26953 0.13672 0.21552 0.06914 0.49416 0.10156 0.77344 0.10156 0.27925 0 0.5579-0.032434 0.77344-0.10156 0.10776-0.03456 0.19983-0.07922 0.26953-0.13672 0.06971-0.0575 0.11719-0.13423 0.11719-0.22266s-0.047483-0.16516-0.11719-0.22266c-0.06971-0.0575-0.16177-0.1002-0.26953-0.13476-0.17259-0.05536-0.386-0.087027-0.60742-0.097656 0.0091-0.44304 0.055037-0.73539 0.11914-0.93555 0.05868-0.18318 0.12859-0.29037 0.20508-0.375 0.10126-0.05323 0.20754-0.1193 0.30859-0.19727 0.29592-0.22831 0.56055-0.56428 0.56055-0.98438 0-0.4011-0.075344-0.82213-0.15039-1.1797-0.073719-0.35127-0.14593-0.64593-0.14844-0.77539 8.8e-5 -0.00178 0-0.0040194 0-0.0058594 0-0.00442 6.21e-4 -0.0093519 0-0.013672-0.0039-0.031339-0.021016-0.060186-0.041016-0.080078-0.02285-0.022728-0.050351-0.038263-0.082031-0.052734-0.0047-0.00208-0.010735-0.0037693-0.015625-0.0058593-0.0034-0.0015901-0.004512-0.0043294-0.007812-0.0058594-0.06631-0.031164-0.14908-0.055157-0.24414-0.074219-0.19012-0.038119-0.42991-0.056641-0.66992-0.056641zm0 0.1543c0.24625 0 0.49313 0.016728 0.67383 0.048828 0.08935 0.01587 0.16128 0.036035 0.20703 0.056641 0.02027 0.011802 0.036501 0.022275 0.044921 0.03125-0.0073 0.00641-0.022608 0.016092-0.042968 0.025391-0.04563 0.020838-0.11862 0.042549-0.20898 0.058594-0.18073 0.032101-0.4276 0.046875-0.67383 0.046875-0.24625 0-0.49312-0.014773-0.67383-0.046875-0.09036-0.016048-0.1653-0.037751-0.21094-0.058594-0.020279-0.00927-0.033625-0.018987-0.041015-0.025391 0.0083-9e-3 0.022559-0.019336 0.042969-0.03125 0.04576-0.020599 0.11964-0.040767 0.20898-0.056641 0.18073-0.032101 0.4276-0.048828 0.67383-0.048828zm0.011719 1.457c0.3086 0 0.61549 0.025504 0.85156 0.076172 0.08746 0.018771 0.16708 0.041097 0.23242 0.068359 0.0057 0.037297 0.010975 0.074933 0.015625 0.11133 0.0037 0.036826 0.008492 0.090935 0.013672 0.11914 0.0773 0.41598-0.11046 0.74403-0.36328 0.98242-0.13498 0.12727-0.28788 0.22643-0.42578 0.29297-0.1379 0.06653-0.2632 0.097656-0.32422 0.097656-0.06103 0-0.18336-0.031123-0.31641-0.095703-0.13304-0.06459-0.28078-0.15955-0.41211-0.2793-0.22504-0.20518-0.39797-0.47644-0.38672-0.79492 0.0019-0.05328 0.006266-0.10789 0.009766-0.16797 0.0042-0.056068 0.010535-0.15235 0.015625-0.19922 0.0026-0.023896 0.005213-0.043777 0.007813-0.066406 0.06519-0.027175 0.14123-0.04962 0.22852-0.068359 0.23608-0.050675 0.5449-0.076172 0.85352-0.076172zm1.8477 0.64062c-8.12e-4 0.62824-0.38464 1.094-0.75391 1.3789-0.08712 0.067216-0.17332 0.11496-0.25977 0.16602-0.02871 0.033423-0.050184 0.056589-0.083984 0.16211-0.01974 0.061656-0.027952 0.25231-0.044922 0.36914 0.068476 0.01516 0.14283 0.013936 0.20898 0.035156 0.020168 0.006469 0.040212 0.01427 0.060547 0.021485 0.004289-0.006062 0.009868-0.011036 0.013672-0.017578l1-1.7324c0.06249-0.1075 0.034453-0.24281-0.060547-0.32031l-0.080078-0.0625z" fill="#fff" stroke-width=".19607"/>
    </g>
    <g transform="translate(1.0008 1.0005)" display="none" fill="none" opacity=".67119" stroke-width=".05">
        <rect transform="rotate(90)" x="3.3425" y="-12.657" width="9.3148" height="9.3148" display="inline" opacity="1" stroke="#000"/>
        <rect x="3" y="4" width="10" height="8" opacity="1" stroke="#0091ff" stroke-linecap="round" stroke-linejoin="round"/>
        <rect transform="rotate(90)" x="3" y="-12" width="10" height="8" display="inline" opacity="1" stroke="#00ff03" stroke-linecap="round" stroke-linejoin="round"/>
    </g>
    <path d="m11.83 8.0025c-0.2399 0-0.47944 0.01818-0.66948 0.05629-0.09501 0.019058-0.17804 0.043095-0.24431 0.074252-0.0033 0.00153-0.0062 0.00312-0.0096 0.00478-0.0049 0.00203-0.0097 0.00386-0.01437 0.00601-0.03167 0.014465-0.05859 0.031168-0.08143 0.053892-0.02009 0.019984-0.03813 0.048704-0.04191 0.08024-5.15e-4 0.00429 0 0.00754 0 0.011975 0 0.00184-7.6e-5 0.00423 0 0.00601-0.0025 0.12943-0.07362 0.42494-0.1473 0.77605-0.07502 0.35742-0.1509 0.77871-0.1509 1.1796 0 0.41991 0.26468 0.75502 0.56048 0.98324 0.10101 0.07794 0.20538 0.1432 0.30659 0.19641 0.07646 0.08459 0.14853 0.19175 0.20719 0.37486 0.06408 0.20004 0.11059 0.49253 0.11976 0.93536-0.22159 0.01063-0.43574 0.04281-0.60837 0.09821-0.10771 0.03456-0.19979 0.07787-0.26946 0.13533-0.06969 0.05748-0.11737 0.13436-0.11737 0.22276 0 0.08839 0.04768 0.16528 0.11737 0.22276 0.06968 0.05748 0.16175 0.10078 0.26946 0.13533 0.21543 0.0691 0.49451 0.10179 0.77368 0.10179 0.27913 0 0.55704-0.0327 0.77249-0.10179 0.10772-0.03456 0.20098-0.07787 0.27066-0.13533 0.06968-0.05748 0.11736-0.13437 0.11736-0.22276s-0.04768-0.16528-0.11736-0.22276c-0.06968-0.05747-0.16294-0.10078-0.27066-0.13533-0.17252-0.05534-0.38585-0.08759-0.60718-0.09821 0.0091-0.44286 0.05568-0.73529 0.11976-0.93536 0.05865-0.1831 0.12953-0.29026 0.20599-0.37486 0.10122-0.0532 0.20678-0.11847 0.30779-0.19641 0.2958-0.22821 0.5593-0.56333 0.5593-0.98324 0-0.40093-0.07469-0.82224-0.1497-1.1796-0.07369-0.35112-0.1448-0.64664-0.14731-0.77605 8.7e-5 -0.00177 0-0.00416 0-0.00601 0-0.00441-6.79e-4 -0.00766-0.0012-0.011975v-0.00123c-0.0039-0.031326-0.02073-0.059158-0.04071-0.079041-0.02284-0.022718-0.04977-0.039427-0.08143-0.053893-0.0047-0.00208-0.01063-0.00392-0.01557-0.00601-0.0033-0.00159-0.0051-0.00324-0.0084-0.00478-0.06628-0.031151-0.1493-0.055199-0.24432-0.074252-0.19001-0.038108-0.42954-0.056294-0.66946-0.056294zm0 0.15329c0.24614 0 0.49242 0.017015 0.67304 0.049103 0.08931 0.015863 0.16265 0.035693 0.20839 0.05629 0.02026 0.011798 0.0347 0.023362 0.04311 0.032333-0.0074 0.00641-0.02157 0.015857-0.04191 0.025152-0.04561 0.02083-0.11925 0.041446-0.20958 0.057485-0.18066 0.032088-0.42692 0.047909-0.67304 0.047909-0.24615 0-0.49241-0.01582-0.67304-0.047909-0.09032-0.01604-0.16516-0.036651-0.21078-0.057485-0.02027-0.00926-0.03333-0.018751-0.04071-0.025152 0.0084-0.00901 0.02151-0.020425 0.04191-0.032333 0.04574-0.020591 0.12028-0.040421 0.20958-0.05629 0.18066-0.032088 0.42691-0.049103 0.67304-0.049103zm0.01198 1.4575c0.30848 0 0.61555 0.024803 0.85152 0.075451 0.08742 0.018764 0.16582 0.041015 0.23114 0.068266 0.0057 0.03728 0.01086 0.075 0.01557 0.11137 0.0036 0.036816 0.0091 0.09037 0.01437 0.11856 0.07726 0.41581-0.11016 0.74377-0.36288 0.98206-0.13492 0.12722-0.28852 0.22691-0.42636 0.29342-0.13784 0.0665-0.26236 0.09821-0.32336 0.09821-0.06099-1e-6 -0.18318-0.03245-0.31617-0.09701-0.13299-0.06457-0.28069-0.15934-0.41197-0.27904-0.22495-0.2051-0.39808-0.47568-0.38683-0.79402 0.0019-0.05326 0.0061-0.10881 0.0096-0.16886 0.0041-0.056042 0.01052-0.15076 0.01556-0.19761 0.0026-0.023888 0.0046-0.04445 0.0073-0.067071 0.06516-0.027168 0.1427-0.049528 0.22994-0.068266 0.23598-0.050653 0.54422-0.07545 0.85271-0.07545z" color="#000000" fill="#fff" stroke-linecap="round" stroke-linejoin="round" stroke-miterlimit="0" stroke-width=".69905" style="-inkscape-stroke:none;paint-order:markers stroke fill"/>
    <g display="none">
        <path d="m13.658 8.0007-2.46e-4 5.6574-3.6573-1.59e-4 2.46e-4 -5.6574z" display="inline" fill="none" opacity=".62506" stroke="url(#linearGradient4461)" stroke-linecap="square" stroke-width=".05" style="paint-order:markers stroke fill"/>
    </g>
</svg>
