<?xml version="1.0" encoding="UTF-8" standalone="no"?>
<svg
   height="16px"
   viewBox="0 0 16 16"
   width="16px"
   version="1.1"
   id="svg4"
   sodipodi:docname="input-mouse-symbolic.svg"
   inkscape:version="1.1.2 (0a00cf5339, 2022-02-04)"
   xmlns:inkscape="http://www.inkscape.org/namespaces/inkscape"
   xmlns:sodipodi="http://sodipodi.sourceforge.net/DTD/sodipodi-0.dtd"
   xmlns="http://www.w3.org/2000/svg"
   xmlns:svg="http://www.w3.org/2000/svg">
  <defs
     id="defs8" />
  <sodipodi:namedview
     id="namedview6"
     pagecolor="#ffffff"
     bordercolor="#111111"
     borderopacity="1"
     inkscape:pageshadow="0"
     inkscape:pageopacity="0"
     inkscape:pagecheckerboard="1"
     showgrid="false"
     inkscape:zoom="32.375"
     inkscape:cx="5.8996139"
     inkscape:cy="8.2162162"
     inkscape:window-width="1366"
     inkscape:window-height="707"
     inkscape:window-x="0"
     inkscape:window-y="0"
     inkscape:window-maximized="1"
     inkscape:current-layer="layer1" />
  <g
     inkscape:groupmode="layer"
     id="layer1"
     inkscape:label="icon">
    <path
       d="m 7.03125 0 c -2.753906 0 -5 2.246094 -5 5 v 6 c 0 2.753906 2.246094 5 5 5 h 1.96875 c 2.753906 0 5 -2.246094 5 -5 v -6 c 0 -2.753906 -2.246094 -5 -5 -5 z m 0 2 h 1.96875 c 1.679688 0 3 1.320312 3 3 v 6 c 0 1.679688 -1.320312 3 -3 3 h -1.96875 c -1.679688 0 -3 -1.320312 -3 -3 v -6 c 0 -1.679688 1.320312 -3 3 -3 z m 0.96875 1 c -0.554688 0 -1 0.445312 -1 1 v 2 c 0 0.554688 0.445312 1 1 1 s 1 -0.445312 1 -1 v -2 c 0 -0.554688 -0.445312 -1 -1 -1 z m 0 0"
       fill="#2e3436"
       id="path2"
       style="fill:#000000" />
  </g>
</svg>
