<?xml version="1.0" encoding="UTF-8"?>
<svg version="1.1" viewBox="0 0 18.001 18" xmlns="http://www.w3.org/2000/svg">
    <g transform="translate(1.0008 -1092.8)">
        <rect x="9.5745e-5" y="1093.8" width="16" height="16" rx="1.5001" ry="1.5001" fill="#f43f36"/>
        <path transform="translate(-1.0008 1092.8)" d="m2.5 1c-0.83103 0-1.5 0.66897-1.5 1.5v0.5c0-0.83103 0.66897-1.5 1.5-1.5h13c0.83103 0 1.5 0.66897 1.5 1.5v-0.5c0-0.83103-0.66897-1.5-1.5-1.5z" fill="#fff" opacity=".2"/>
        <g transform="translate(-22.32 1056.5)"></g>
        <path d="m14.5 1109.8c0.83103 0 1.5-0.669 1.5-1.5v-0.5c0 0.831-0.66897 1.5-1.5 1.5h-13c-0.83103 0-1.5-0.669-1.5-1.5v0.5c0 0.831 0.66897 1.5 1.5 1.5z" opacity=".2"/>
    </g>
    <g transform="translate(1.0008 1.0005)">
        <path d="m9.8894 7.2514c-1.2259-0.39905-2.5552-0.39904-3.7826 0.0015733l0.0014 1.2647c-1e-7 0.15791-0.090437 0.29428-0.22109 0.36177-0.4278 0.21535-0.83118 0.50389-1.1886 0.86134-0.15934 0.15934-0.41487 0.15935-0.57421 1.91e-5l-1.0048-1.0048c-0.15934-0.15934-0.15933-0.41486 1.86e-5 -0.57421 2.696-2.696 7.0657-2.6961 9.7615-2.56e-4 0.15934 0.15934 0.15789 0.41629-1.9e-5 0.57421l-1.0049 1.0049c-0.15934 0.15934-0.41487 0.15935-0.57421 1.9e-5 -0.35744-0.35744-0.76081-0.64597-1.1886-0.86128-0.13063-0.067467-0.22107-0.20384-0.22106-0.36175l-0.00286-1.2661z" fill="#fff" stroke-width=".59574"/>
    </g>
    <g transform="translate(1.0008 1.0005)" display="none" fill="none" opacity=".8" stroke-width=".05">
        <rect transform="rotate(90)" x="3.3425" y="-12.657" width="9.3148" height="9.3148" display="inline" opacity="1" stroke="#000"/>
        <rect x="3" y="4" width="10" height="8" opacity="1" stroke="#0091ff" stroke-linecap="round" stroke-linejoin="round"/>
        <rect transform="rotate(90)" x="3" y="-12" width="10" height="8" display="inline" opacity="1" stroke="#00ff03" stroke-linecap="round" stroke-linejoin="round"/>
    </g>
</svg>
