<?xml version="1.0" encoding="UTF-8"?>
<svg version="1.1" viewBox="0 0 18.001 18" xmlns="http://www.w3.org/2000/svg">
    <g transform="translate(1.0008 -1092.8)">
        <rect x="9.5745e-5" y="1093.8" width="16" height="16" rx="1.5001" ry="1.5001" fill="#4caf50"/>
        <path transform="translate(-1.0008 1092.8)" d="m2.5 1c-0.83103 0-1.5 0.66897-1.5 1.5v0.5c0-0.83103 0.66897-1.5 1.5-1.5h13c0.83103 0 1.5 0.66897 1.5 1.5v-0.5c0-0.83103-0.66897-1.5-1.5-1.5z" fill="#fff" opacity=".2"/>
        <g transform="translate(-22.32 1056.5)"></g>
        <path d="m14.5 1109.8c0.83103 0 1.5-0.669 1.5-1.5v-0.5c0 0.831-0.66897 1.5-1.5 1.5h-13c-0.83103 0-1.5-0.669-1.5-1.5v0.5c0 0.831 0.66897 1.5 1.5 1.5z" opacity=".2"/>
    </g>
    <g transform="translate(1.0008 1.0005)">
        <path d="m5.0139 7.3307c0.8 1.5721 2.0861 2.8582 3.6611 3.6581l1.2222-1.2249c0.15278-0.15277 0.37222-0.19722 0.56391-0.13611 0.62224 0.20555 1.2917 0.31664 1.9833 0.31664 0.30833 0 0.55556 0.24721 0.55556 0.55552v1.9444c0 0.30833-0.24722 0.55552-0.55556 0.55552-5.2167 0-9.4444-4.2275-9.4444-9.4439 0-0.30833 0.25-0.55552 0.55556-0.55552h1.9445c0.30833 0 0.55556 0.24721 0.55556 0.55552 0 0.69164 0.11111 1.3611 0.31668 1.9832 0.061109 0.19166 0.016669 0.41109-0.13611 0.56387l-1.2222 1.2277z" fill="#fff" stroke-width=".81512"/>
    </g>
    <g transform="translate(1.0008 1.0005)" display="none" fill="none" opacity=".8" stroke-width=".05">
        <rect transform="rotate(90)" x="3.3425" y="-12.657" width="9.3148" height="9.3148" display="inline" opacity="1" stroke="#000"/>
        <rect x="3" y="4" width="10" height="8" opacity="1" stroke="#0091ff" stroke-linecap="round" stroke-linejoin="round"/>
        <rect transform="rotate(90)" x="3" y="-12" width="10" height="8" display="inline" opacity="1" stroke="#00ff03" stroke-linecap="round" stroke-linejoin="round"/>
    </g>
</svg>
