<?xml version="1.0" encoding="UTF-8"?>
<svg version="1.1" viewBox="0 0 18.001 18" xmlns="http://www.w3.org/2000/svg">
    <g transform="translate(1.0008 -1092.8)">
        <rect x="9.5745e-5" y="1093.8" width="16" height="16" rx="1.5001" ry="1.5001" fill="#ff9800"/>
        <path transform="translate(-1.0008 1092.8)" d="m2.5 1c-0.83103 0-1.5 0.66897-1.5 1.5v0.5c0-0.83103 0.66897-1.5 1.5-1.5h13c0.83103 0 1.5 0.66897 1.5 1.5v-0.5c0-0.83103-0.66897-1.5-1.5-1.5z" fill="#fff" opacity=".2"/>
        <g transform="translate(-22.32 1056.5)"></g>
        <path d="m14.5 1109.8c0.83103 0 1.5-0.669 1.5-1.5v-0.5c0 0.831-0.66897 1.5-1.5 1.5h-13c-0.83103 0-1.5-0.669-1.5-1.5v0.5c0 0.831 0.66897 1.5 1.5 1.5z" opacity=".2"/>
    </g>
    <g transform="translate(1.0008 1.0005)" fill="#fff" stroke-linejoin="round" stroke-width=".7">
        <path transform="translate(-1.0008 -1.0005)" d="m5.543 8c-0.30042 0-0.54297 0.24255-0.54297 0.54297v4.916c0 0.30042 0.24255 0.54102 0.54297 0.54102h6.916c0.30042 0 0.54102-0.2406 0.54102-0.54102v-4.916c0-0.30042-0.2406-0.54297-0.54102-0.54297h-6.916zm3.457 1.8652a0.91176 0.91176 0 0 1 0.91211 0.91211 0.91176 0.91176 0 0 1-0.53125 0.82812v0.74805c0 0.095628-0.078202 0.17383-0.17383 0.17383h-0.41406c-0.095626 0-0.17188-0.078198-0.17188-0.17383v-0.74805a0.91176 0.91176 0 0 1-0.53125-0.82812 0.91176 0.91176 0 0 1 0.91016-0.91211z" style="paint-order:markers stroke fill"/>
        <path transform="translate(-1.0008 -1.0005)" d="m9 4a2.5 2.5 0 0 0-2.5 2.5v3h5v-3a2.5 2.5 0 0 0-2.5-2.5zm0 1a1.5 1.5 0 0 1 1.5 1.5v2.5h-3v-2.5a1.5 1.5 0 0 1 1.5-1.5z" style="paint-order:markers stroke fill"/>
    </g>
    <g transform="translate(1.0008 1.0005)" display="none" fill="none" opacity=".8" stroke-width=".05">
        <rect transform="rotate(90)" x="3.3425" y="-12.657" width="9.3148" height="9.3148" display="inline" opacity="1" stroke="#000"/>
        <rect x="3" y="4" width="10" height="8" opacity="1" stroke="#0091ff" stroke-linecap="round" stroke-linejoin="round"/>
        <rect transform="rotate(90)" x="3" y="-12" width="10" height="8" display="inline" opacity="1" stroke="#00ff03" stroke-linecap="round" stroke-linejoin="round"/>
    </g>
</svg>
