<?xml version="1.0" encoding="UTF-8"?>
<svg version="1.1" viewBox="0 0 18.001 18" xmlns="http://www.w3.org/2000/svg">
    <g transform="translate(1.0008 -1092.8)">
        <rect x="9.5745e-5" y="1093.8" width="16" height="16" rx="1.5001" ry="1.5001" fill="#f43f36"/>
        <path transform="translate(-1.0008 1092.8)" d="m2.5 1c-0.83103 0-1.5 0.66897-1.5 1.5v0.5c0-0.83103 0.66897-1.5 1.5-1.5h13c0.83103 0 1.5 0.66897 1.5 1.5v-0.5c0-0.83103-0.66897-1.5-1.5-1.5z" fill="#fff" opacity=".2"/>
        <path d="m14.5 1109.8c0.83103 0 1.5-0.669 1.5-1.5v-0.5c0 0.831-0.66897 1.5-1.5 1.5h-13c-0.83103 0-1.5-0.669-1.5-1.5v0.5c0 0.831 0.66897 1.5 1.5 1.5z" opacity=".2"/>
    </g>
    <g transform="translate(1.0008 1.0005)">
        <g transform="matrix(0 .91667 -.91667 0 18.534 .66676)">
            <path d="m3.7574 7.795 1.0606 1.0606a4.5 4.5 0 0 1 6.3639 0l1.0606-1.0606a6 6 0 0 0-8.4853 0zm1.5855 1.5855 1.0621 1.0621a2.2566 2.2566 0 0 1 3.1916-0.0013l1.0621-1.0621a3.7593 3.7593 0 0 0-5.3158 0.00142zm1.602 1.602 1.0551 1.0551 1.0565-1.0565a1.4929 1.4929 0 0 0-2.1117 0.0013z" color="#000000" fill="#fff" stroke-linecap="square" stroke-width=".99999" style="-inkscape-stroke:none;paint-order:markers stroke fill"/>
        </g>
        <path d="m7 3.9987-2.6672 2.6672h-0.88908c-0.24627 0-0.44454 0.19826-0.44454 0.44454v1.7782c0 0.24627 0.19826 0.44454 0.44454 0.44454h0.88908l2.6672 2.6672z" fill="#fff" style="paint-order:markers stroke fill"/>
    </g>
    <g transform="translate(1.0008 1.0005)" display="none" fill="none" opacity=".8" stroke-width=".05">
        <rect transform="rotate(90)" x="3.3425" y="-12.657" width="9.3148" height="9.3148" display="inline" opacity="1" stroke="#000"/>
        <rect x="3" y="4" width="10" height="8" opacity="1" stroke="#0091ff" stroke-linecap="round" stroke-linejoin="round"/>
        <rect transform="rotate(90)" x="3" y="-12" width="10" height="8" display="inline" opacity="1" stroke="#00ff03" stroke-linecap="round" stroke-linejoin="round"/>
    </g>
</svg>
